<?xml version="1.0" encoding="utf-8"?>
<!-- Generator: Adobe Illustrator 24.2.1, SVG Export Plug-In . SVG Version: 6.00 Build 0)  -->
<svg version="1.1" id="Layer_1" xmlns="http://www.w3.org/2000/svg" xmlns:xlink="http://www.w3.org/1999/xlink" x="0px" y="0px"
	 viewBox="0 0 686.75 343.37" style="enable-background:new 0 0 686.75 343.37;" xml:space="preserve">
<style type="text/css">
	.st0{fill:#006937;}
	.st1{fill:#515659;}
</style>
<g>
	<g>
		<path class="st0" d="M457.9,133.91c-1.63-11.02-4.84-21.52-9.38-31.27l19.35,0c3.88,9.9,6.6,20.38,7.99,31.28H457.9z
			 M476.44,139.32c0.32,3.76,0.49,7.56,0.49,11.41c0,6.75-0.51,13.39-1.49,19.87h-18.03c1.13-6.45,1.73-13.09,1.73-19.87
			c0-3.85-0.19-7.65-0.56-11.41 M214.56,133.72c1.4-10.9,4.14-21.38,8.04-31.28l19.37,0c-4.57,9.75-7.8,20.26-9.45,31.28H214.56z
			 M214.93,170.4c-0.96-6.42-1.46-12.99-1.46-19.67c0-3.91,0.17-7.78,0.5-11.6l17.87,0c-0.39,3.82-0.58,7.69-0.58,11.6
			c0,6.71,0.58,13.28,1.69,19.67L214.93,170.4z M234.03,175.8c11.42,50.86,56.86,88.86,111.17,88.86
			c54.24,0,99.63-37.9,111.12-88.66l18.18,0c-11.79,60.66-65.2,106.45-129.3,106.45c-64.17,0-117.63-45.89-129.34-106.65H234.03z
			 M224.88,97.04C245.43,51.05,291.57,19,345.2,19c53.7,0,99.9,32.14,120.41,78.23l-19.79,0c-19.16-35.96-57.03-60.44-100.62-60.44
			c-43.51,0-81.33,24.39-100.52,60.25L224.88,97.04z"/>
		<g>
			<path class="st0" d="M677.11,102.64H448.52h-13.87c6.88,6.46,12.39,14.33,16.02,23.21h160.68
				C635.28,125.84,658.48,117.65,677.11,102.64z"/>
			<path class="st0" d="M434.65,199.21h85.7c23.93,0,47.13-8.19,65.76-23.21H450.67C447.04,184.87,441.53,192.75,434.65,199.21z"/>
			<path class="st0" d="M455.62,150.92c0,3.97-0.41,7.83-1.08,11.6h111.31c23.93,0,47.13-8.19,65.76-23.21H454.54
				C455.21,143.09,455.62,146.96,455.62,150.92z"/>
		</g>
		<g>
			<path class="st0" d="M13.25,102.44h242.46c-6.88,6.46-12.39,14.33-16.02,23.21H79.01C55.09,125.65,31.88,117.46,13.25,102.44z"/>
			<path class="st0" d="M255.71,199.01h-85.7c-23.93,0-47.13-8.19-65.76-23.21h135.44C243.32,184.68,248.83,192.55,255.71,199.01z"
				/>
			<path class="st0" d="M234.74,150.73c0,3.97,0.41,7.83,1.08,11.6H124.51c-23.93,0-47.13-8.19-65.76-23.21h177.07
				C235.16,142.9,234.74,146.76,234.74,150.73z"/>
		</g>
		<g>
			<path class="st0" d="M291.08,120.33l5.28-36.24h7.41l5.28,36.24l4.96-34.4l0.32-1.84h10.21c-3.43,19.91-6.8,39.86-10.21,59.79
				l-0.32,1.84h-9.93c-1.52-10.62-2.67-21.61-4.04-32.38l-3.69,30.53l-0.32,1.84h-9.93c-3.36-19.66-6.71-39.34-10.07-59.01
				l-0.46-2.62h10.21l0.32,1.84L291.08,120.33z"/>
			<path class="st0" d="M336.4,84.09h2.2v2.23v57.16v2.23h-2.2h-5.74h-2.2v-2.23V86.33v-2.23h2.2H336.4z"/>
			<path class="st0" d="M344.62,84.09h13.62c5.46,24.75,5.74,23.76,9.93,42.02c0-9.51-0.36-32.51-0.36-42.02h10.18v61.63h-13.97
				c-5.78-24.26-6.24-25.6-9.26-40.6v40.6h-10.14V84.09z"/>
			<path class="st0" d="M396.78,84.09c3.74,0,6.95,1.35,9.65,4.04c2.67,2.67,4.01,5.89,4.01,9.65v3.87h-9.82v-3.87
				c0-1.9-1.94-3.51-3.83-3.51c-1.92,0-3.51,1.59-3.51,3.51v34.29c0,1.92,1.61,3.51,3.51,3.51c1.84,0,4.18-1.61,4.18-3.51v-10.28
				h-5.07v-9.43h14.54v19.72c0,7.43-6.2,13.65-13.65,13.65c-3.81,0-7.02-1.34-9.65-4.01c-2.67-2.67-4.01-5.89-4.01-9.65V97.78
				C383.13,90.3,389.32,84.09,396.78,84.09z"/>
		</g>
		<g>
			<g>
				<g>
					<path class="st0" d="M277.78,217.07c-7.44,0-13.16-6.12-13.16-13.65v-6.52h9.79v6.52c0,1.95,1.51,3.51,3.37,3.51
						c1.68,0,2.91-1.53,2.91-3.51v-3.23c0-3.37-2.82-5.63-4.22-7.38c-2.77-3.44-7.31-7.33-9.01-9.72c-2.02-2.84-3.1-7.16-3.19-9.33
						l-0.14-4.65c0-7.56,6.07-13.69,13.51-13.69c7.41,0,12.84,6.08,12.84,13.69v6.49h-9.79v-6.49c0-1.95-1.21-3.51-2.91-3.51
						c-1.9,0-3.37,1.59-3.37,3.51v2.59c0.02,1.06,0.74,3.62,1.7,5c1.62,2.34,4.04,4.1,5.18,5.28c4.01,4.15,5.64,5.52,6.91,7.8
						c1.56,2.8,2.59,6.42,2.59,8.9l0.04,4.72C290.83,211.08,285.18,217.07,277.78,217.07z"/>
					<path class="st0" d="M303.42,155.44h2.2v2.23v23.51h7.3v-23.51v-2.23h2.23h5.71h2.23v2.23v57.16v2.23h-2.23h-5.71h-2.23v-2.23
						v-23.51h-7.3v23.51v2.23h-2.2h-5.74h-2.2v-2.23v-57.16v-2.23h2.2H303.42z"/>
					<path class="st0" d="M338.95,207.53c-0.63,3.18-1.27,6.34-1.88,9.54h-10.43l10.6-61.63h13.3l10.6,61.7h-10.43
						c-0.61-3.19-1.25-6.43-1.88-9.61H338.95z M343.88,168.46l-3.44,29.36h6.92L343.88,168.46z"/>
					<path class="st0" d="M387.46,159.48c2.67,2.65,4.01,5.86,4.01,9.65v1.42v2.23h-2.23h-5.71h-2.23v-2.23v-1.42
						c0-0.97-0.34-1.8-1.03-2.48c-0.66-0.69-1.48-1.03-2.45-1.03s-1.8,0.34-2.48,1.03s-1.03,1.51-1.03,2.48v34.29
						c0,0.97,0.34,1.8,1.03,2.48c0.71,0.69,1.54,1.03,2.48,1.03s1.76-0.34,2.45-1.03c0.69-0.69,1.03-1.51,1.03-2.48V202v-2.23h2.23
						h5.71h2.23V202v1.42c0,3.76-1.34,6.97-4.01,9.65c-2.67,2.67-5.89,4.01-9.65,4.01c-3.81,0-7.02-1.34-9.65-4.01
						c-2.67-2.67-4.01-5.89-4.01-9.65v-34.29c0-3.78,1.33-7,4.01-9.65c2.65-2.69,5.86-4.04,9.65-4.04
						C381.55,155.44,384.76,156.79,387.46,159.48z"/>
					<path class="st0" d="M406.07,155.44v21.63l6.95-20.35l0.57-1.28h10.74c-4.56,9.86-6.45,16.88-10.96,28.4
						c4.36,13.16,6.84,21.67,11.17,33.23h-10.85c-1.49-4.75-4.12-14.25-7.48-25.53c0,5.91-0.14,19.62-0.14,25.53h-10.14v-61.63
						H406.07z"/>
				</g>
			</g>
		</g>
	</g>
	<g>
		<path class="st1" d="M296.5,317.27l-11.73-3.74l-4.36,5.98l-7.11-2.27l22.44-28.61l6.2,1.98l1.8,36.34l-7.11-2.27L296.5,317.27z
			 M288.3,308.69l8.12,2.59l-0.21-13.45L288.3,308.69z"/>
		<path class="st1" d="M328.6,295.78l6.97,0.84l-2.83,23.42c-0.2,1.69-0.67,3.17-1.41,4.45s-1.67,2.32-2.8,3.14
			s-2.42,1.39-3.86,1.71c-1.45,0.33-2.98,0.39-4.59,0.2c-1.66-0.2-3.15-0.59-4.49-1.18c-1.34-0.59-2.46-1.37-3.36-2.35
			c-0.9-0.98-1.56-2.16-1.96-3.54c-0.41-1.38-0.5-2.96-0.29-4.76l7.02,0.85c-0.11,0.91-0.1,1.69,0.02,2.34
			c0.13,0.64,0.36,1.18,0.69,1.6c0.33,0.42,0.76,0.75,1.27,0.98s1.1,0.38,1.77,0.46c1.33,0.16,2.45-0.17,3.35-0.99
			s1.45-2.07,1.66-3.76L328.6,295.78z"/>
		<path class="st1" d="M359.59,322.78l-12.29,0.75l-1.91,7.15l-7.45,0.46l10.58-34.79l6.49-0.4l14.81,33.23l-7.45,0.46
			L359.59,322.78z M348.85,317.74l8.5-0.52l-5.05-12.47L348.85,317.74z"/>
		<path class="st1" d="M383.15,302.92l3.15-13l7.8-2.08l-5.24,18.88l14.26,13.98l-7.89,2.1l-9.41-9.85l-3.26,13.22l-7.89,2.1
			l5.42-19.22l-13.94-13.77l7.8-2.08L383.15,302.92z"/>
	</g>
</g>
</svg>
