<?xml version="1.0" encoding="utf-8"?>
<!-- Generator: Adobe Illustrator 24.2.1, SVG Export Plug-In . SVG Version: 6.00 Build 0)  -->
<svg version="1.1" id="Layer_1" xmlns="http://www.w3.org/2000/svg" xmlns:xlink="http://www.w3.org/1999/xlink" x="0px" y="0px"
	 viewBox="0 0 686.75 343.37" style="enable-background:new 0 0 686.75 343.37;" xml:space="preserve">
<style type="text/css">
	.st0{fill:#006937;}
	.st1{fill:#515659;}
</style>
<g>
	<g>
		<path class="st0" d="M457.9,133.91c-1.63-11.02-4.84-21.52-9.38-31.27l19.35,0c3.88,9.9,6.6,20.38,7.99,31.28H457.9z
			 M476.44,139.32c0.32,3.76,0.49,7.56,0.49,11.41c0,6.75-0.51,13.39-1.49,19.87h-18.03c1.13-6.45,1.73-13.09,1.73-19.87
			c0-3.85-0.19-7.65-0.56-11.41 M214.56,133.72c1.4-10.9,4.14-21.38,8.04-31.28l19.37,0c-4.57,9.75-7.8,20.26-9.45,31.28H214.56z
			 M214.93,170.4c-0.96-6.42-1.46-12.99-1.46-19.67c0-3.91,0.17-7.78,0.5-11.6l17.87,0c-0.39,3.82-0.58,7.69-0.58,11.6
			c0,6.71,0.58,13.28,1.69,19.67L214.93,170.4z M234.03,175.8c11.42,50.86,56.86,88.86,111.17,88.86
			c54.24,0,99.63-37.9,111.12-88.66l18.18,0c-11.79,60.66-65.2,106.45-129.3,106.45c-64.17,0-117.63-45.89-129.34-106.65H234.03z
			 M224.88,97.04C245.43,51.05,291.57,19,345.2,19c53.7,0,99.9,32.14,120.41,78.23l-19.79,0c-19.16-35.96-57.03-60.44-100.62-60.44
			c-43.51,0-81.33,24.39-100.52,60.25L224.88,97.04z"/>
		<g>
			<path class="st0" d="M677.11,102.64H448.52h-13.87c6.88,6.46,12.39,14.33,16.02,23.21h160.68
				C635.28,125.84,658.48,117.65,677.11,102.64z"/>
			<path class="st0" d="M434.65,199.21h85.7c23.93,0,47.13-8.19,65.76-23.21H450.67C447.04,184.87,441.53,192.75,434.65,199.21z"/>
			<path class="st0" d="M455.62,150.92c0,3.97-0.41,7.83-1.08,11.6h111.31c23.93,0,47.13-8.19,65.76-23.21H454.54
				C455.21,143.09,455.62,146.96,455.62,150.92z"/>
		</g>
		<g>
			<path class="st0" d="M13.25,102.44h242.46c-6.88,6.46-12.39,14.33-16.02,23.21H79.01C55.09,125.65,31.88,117.46,13.25,102.44z"/>
			<path class="st0" d="M255.71,199.01h-85.7c-23.93,0-47.13-8.19-65.76-23.21h135.44C243.32,184.68,248.83,192.55,255.71,199.01z"
				/>
			<path class="st0" d="M234.74,150.73c0,3.97,0.41,7.83,1.08,11.6H124.51c-23.93,0-47.13-8.19-65.76-23.21h177.07
				C235.16,142.9,234.74,146.76,234.74,150.73z"/>
		</g>
		<g>
			<path class="st0" d="M291.08,120.33l5.28-36.24h7.41l5.28,36.24l4.96-34.4l0.32-1.84h10.21c-3.43,19.91-6.8,39.86-10.21,59.79
				l-0.32,1.84h-9.93c-1.52-10.62-2.67-21.61-4.04-32.38l-3.69,30.53l-0.32,1.84h-9.93c-3.36-19.66-6.71-39.34-10.07-59.01
				l-0.46-2.62h10.21l0.32,1.84L291.08,120.33z"/>
			<path class="st0" d="M336.4,84.09h2.2v2.23v57.16v2.23h-2.2h-5.74h-2.2v-2.23V86.33v-2.23h2.2H336.4z"/>
			<path class="st0" d="M344.62,84.09h13.62c5.46,24.75,5.74,23.76,9.93,42.02c0-9.51-0.36-32.51-0.36-42.02h10.18v61.63h-13.97
				c-5.78-24.26-6.24-25.6-9.26-40.6v40.6h-10.14V84.09z"/>
			<path class="st0" d="M396.78,84.09c3.74,0,6.95,1.35,9.65,4.04c2.67,2.67,4.01,5.89,4.01,9.65v3.87h-9.82v-3.87
				c0-1.9-1.94-3.51-3.83-3.51c-1.92,0-3.51,1.59-3.51,3.51v34.29c0,1.92,1.61,3.51,3.51,3.51c1.84,0,4.18-1.61,4.18-3.51v-10.28
				h-5.07v-9.43h14.54v19.72c0,7.43-6.2,13.65-13.65,13.65c-3.81,0-7.02-1.34-9.65-4.01c-2.67-2.67-4.01-5.89-4.01-9.65V97.78
				C383.13,90.3,389.32,84.09,396.78,84.09z"/>
		</g>
		<g>
			<g>
				<g>
					<path class="st0" d="M277.78,217.07c-7.44,0-13.16-6.12-13.16-13.65v-6.52h9.79v6.52c0,1.95,1.51,3.51,3.37,3.51
						c1.68,0,2.91-1.53,2.91-3.51v-3.23c0-3.37-2.82-5.63-4.22-7.38c-2.77-3.44-7.31-7.33-9.01-9.72c-2.02-2.84-3.1-7.16-3.19-9.33
						l-0.14-4.65c0-7.56,6.07-13.69,13.51-13.69c7.41,0,12.84,6.08,12.84,13.69v6.49h-9.79v-6.49c0-1.95-1.21-3.51-2.91-3.51
						c-1.9,0-3.37,1.59-3.37,3.51v2.59c0.02,1.06,0.74,3.62,1.7,5c1.62,2.34,4.04,4.1,5.18,5.28c4.01,4.15,5.64,5.52,6.91,7.8
						c1.56,2.8,2.59,6.42,2.59,8.9l0.04,4.72C290.83,211.08,285.18,217.07,277.78,217.07z"/>
					<path class="st0" d="M303.42,155.44h2.2v2.23v23.51h7.3v-23.51v-2.23h2.23h5.71h2.23v2.23v57.16v2.23h-2.23h-5.71h-2.23v-2.23
						v-23.51h-7.3v23.51v2.23h-2.2h-5.74h-2.2v-2.23v-57.16v-2.23h2.2H303.42z"/>
					<path class="st0" d="M338.95,207.53c-0.63,3.18-1.27,6.34-1.88,9.54h-10.43l10.6-61.63h13.3l10.6,61.7h-10.43
						c-0.61-3.19-1.25-6.43-1.88-9.61H338.95z M343.88,168.46l-3.44,29.36h6.92L343.88,168.46z"/>
					<path class="st0" d="M387.46,159.48c2.67,2.65,4.01,5.86,4.01,9.65v1.42v2.23h-2.23h-5.71h-2.23v-2.23v-1.42
						c0-0.97-0.34-1.8-1.03-2.48c-0.66-0.69-1.48-1.03-2.45-1.03s-1.8,0.34-2.48,1.03s-1.03,1.51-1.03,2.48v34.29
						c0,0.97,0.34,1.8,1.03,2.48c0.71,0.69,1.54,1.03,2.48,1.03s1.76-0.34,2.45-1.03c0.69-0.69,1.03-1.51,1.03-2.48V202v-2.23h2.23
						h5.71h2.23V202v1.42c0,3.76-1.34,6.97-4.01,9.65c-2.67,2.67-5.89,4.01-9.65,4.01c-3.81,0-7.02-1.34-9.65-4.01
						c-2.67-2.67-4.01-5.89-4.01-9.65v-34.29c0-3.78,1.33-7,4.01-9.65c2.65-2.69,5.86-4.04,9.65-4.04
						C381.55,155.44,384.76,156.79,387.46,159.48z"/>
					<path class="st0" d="M406.07,155.44v21.63l6.95-20.35l0.57-1.28h10.74c-4.56,9.86-6.45,16.88-10.96,28.4
						c4.36,13.16,6.84,21.67,11.17,33.23h-10.85c-1.49-4.75-4.12-14.25-7.48-25.53c0,5.91-0.14,19.62-0.14,25.53h-10.14v-61.63
						H406.07z"/>
				</g>
			</g>
		</g>
	</g>
	<g>
		<path class="st1" d="M239.84,289.29l-9.57-7.74l-6.23,3.99l-5.81-4.69l31.29-18.52l5.06,4.09l-11.5,34.52l-5.81-4.69
			L239.84,289.29z M235.31,278.31l6.62,5.36l4.69-12.61L235.31,278.31z"/>
		<path class="st1" d="M274.3,317.47l-6.26-3.18l-2.02-26.18l-10.16,19.98l-6.26-3.18l15.45-30.37l6.26,3.18l2.02,26.23l10.19-20.03
			l6.24,3.17L274.3,317.47z"/>
		<path class="st1" d="M313.02,317.11c-0.57,1.64-1.36,3.08-2.37,4.31c-1.01,1.23-2.21,2.2-3.59,2.9s-2.95,1.12-4.69,1.26
			s-3.63-0.06-5.66-0.61c-2.11-0.57-3.91-1.44-5.39-2.62s-2.63-2.61-3.43-4.3s-1.25-3.59-1.35-5.71c-0.1-2.12,0.17-4.39,0.82-6.82
			l0.58-2.17c0.65-2.43,1.56-4.53,2.74-6.32c1.17-1.79,2.53-3.21,4.09-4.26c1.55-1.05,3.27-1.72,5.15-2.01
			c1.89-0.29,3.87-0.15,5.95,0.41c2.05,0.55,3.78,1.33,5.2,2.33c1.42,1,2.54,2.17,3.36,3.49c0.82,1.33,1.35,2.79,1.59,4.38
			c0.24,1.59,0.21,3.24-0.07,4.96l-6.78-1.82c0.19-1,0.25-1.91,0.19-2.74c-0.06-0.82-0.27-1.56-0.63-2.21
			c-0.36-0.65-0.9-1.21-1.61-1.68s-1.63-0.86-2.74-1.16c-2.29-0.61-4.22-0.24-5.79,1.12c-1.57,1.36-2.82,3.79-3.76,7.29l-0.59,2.21
			c-0.46,1.7-0.73,3.23-0.83,4.58s0.01,2.52,0.31,3.52c0.3,1,0.83,1.83,1.56,2.49c0.74,0.66,1.71,1.15,2.91,1.47
			c1.07,0.29,2.02,0.41,2.87,0.38c0.84-0.03,1.59-0.22,2.24-0.58c0.65-0.35,1.22-0.86,1.7-1.52c0.48-0.66,0.9-1.47,1.23-2.43
			L313.02,317.11z"/>
		<path class="st1" d="M338.5,323.53l-12.29-0.74l-2.76,6.87l-7.45-0.45l14.7-33.25l6.49,0.39l10.69,34.78l-7.45-0.45L338.5,323.53z
			 M328.45,317.23l8.5,0.51l-3.51-12.99L328.45,317.23z"/>
		<path class="st1" d="M371.5,319.25c-0.08-0.59-0.23-1.11-0.47-1.55c-0.23-0.45-0.62-0.84-1.16-1.18s-1.27-0.64-2.18-0.91
			c-0.91-0.27-2.07-0.53-3.49-0.78c-1.61-0.29-3.14-0.65-4.6-1.08c-1.45-0.43-2.75-1-3.89-1.71s-2.08-1.57-2.83-2.58
			c-0.74-1.02-1.21-2.26-1.41-3.73c-0.19-1.41-0.06-2.74,0.4-3.98c0.45-1.25,1.18-2.36,2.17-3.33c1-0.97,2.22-1.78,3.69-2.44
			s3.11-1.11,4.93-1.36c1.87-0.25,3.61-0.22,5.21,0.09c1.6,0.31,3,0.86,4.21,1.64c1.21,0.78,2.19,1.77,2.95,2.97
			c0.76,1.2,1.24,2.55,1.44,4.07l-6.96,0.93c-0.09-0.71-0.3-1.35-0.6-1.93c-0.3-0.57-0.72-1.04-1.24-1.42
			c-0.52-0.37-1.15-0.63-1.88-0.78c-0.73-0.15-1.56-0.16-2.51-0.03c-0.91,0.12-1.69,0.33-2.34,0.62c-0.65,0.29-1.17,0.64-1.56,1.06
			c-0.39,0.42-0.67,0.88-0.83,1.39c-0.16,0.51-0.2,1.04-0.13,1.58c0.15,1.11,0.84,1.97,2.08,2.57c1.24,0.6,3,1.07,5.28,1.43
			c1.92,0.33,3.62,0.74,5.11,1.25c1.49,0.51,2.77,1.14,3.82,1.9c1.05,0.76,1.89,1.65,2.52,2.68c0.63,1.03,1.03,2.25,1.22,3.64
			c0.2,1.48,0.09,2.85-0.34,4.08c-0.42,1.24-1.12,2.33-2.08,3.27c-0.96,0.94-2.17,1.72-3.62,2.35c-1.45,0.63-3.1,1.07-4.96,1.31
			c-1.11,0.15-2.24,0.2-3.38,0.16c-1.14-0.04-2.24-0.2-3.31-0.47c-1.07-0.27-2.07-0.64-3.02-1.13c-0.95-0.49-1.8-1.1-2.55-1.83
			s-1.38-1.6-1.88-2.59c-0.5-1-0.84-2.13-1.01-3.4l6.98-0.94c0.14,1.02,0.42,1.86,0.84,2.53s0.95,1.18,1.59,1.55
			c0.64,0.36,1.38,0.59,2.23,0.68c0.85,0.09,1.77,0.07,2.78-0.07c0.9-0.12,1.67-0.32,2.3-0.6s1.15-0.62,1.54-1.02
			c0.39-0.4,0.65-0.85,0.8-1.35S371.57,319.79,371.5,319.25z"/>
		<path class="st1" d="M403.54,290.03l-9.9,3.31l8.99,26.93l-6.66,2.22l-8.99-26.93l-9.77,3.26l-1.8-5.39l26.33-8.79L403.54,290.03z
			"/>
		<path class="st1" d="M430.43,290.71l-11.81,6.5l4.4,8l13.86-7.63l2.72,4.94l-20.01,11.01l-16.42-29.86l19.97-10.99l2.74,4.98
			l-13.82,7.6l3.92,7.12l11.81-6.5L430.43,290.71z"/>
		<path class="st1" d="M448.08,280.39l-4.33,3.54l7.89,9.66l-5.44,4.44l-21.56-26.39l9.8-8.01c1.52-1.24,3.03-2.19,4.52-2.83
			s2.92-0.97,4.31-0.98s2.7,0.3,3.96,0.92c1.26,0.63,2.42,1.59,3.48,2.9c0.79,0.97,1.39,1.92,1.8,2.87
			c0.41,0.95,0.65,1.88,0.73,2.82c0.08,0.93,0.01,1.86-0.21,2.78s-0.55,1.84-1.01,2.76l14.52,6.12l0.21,0.25l-5.84,4.77
			L448.08,280.39z M440.15,279.53l4.39-3.58c0.71-0.58,1.26-1.19,1.65-1.81s0.61-1.26,0.69-1.89s0.01-1.27-0.2-1.89
			c-0.21-0.62-0.56-1.23-1.04-1.83c-1.02-1.24-2.17-1.93-3.46-2.07c-1.29-0.13-2.67,0.39-4.13,1.59l-4.37,3.57L440.15,279.53z"/>
	</g>
</g>
</svg>
