<?xml version="1.0" encoding="utf-8"?>
<!-- Generator: Adobe Illustrator 24.2.1, SVG Export Plug-In . SVG Version: 6.00 Build 0)  -->
<svg version="1.1" id="Layer_1" xmlns="http://www.w3.org/2000/svg" xmlns:xlink="http://www.w3.org/1999/xlink" x="0px" y="0px"
	 viewBox="0 0 686.75 343.37" style="enable-background:new 0 0 686.75 343.37;" xml:space="preserve">
<style type="text/css">
	.st0{fill:#006937;}
	.st1{fill:#515659;}
</style>
<g>
	<g>
		<path class="st0" d="M457.9,135.73c-1.63-11.02-4.84-21.52-9.38-31.27l19.35,0c3.88,9.9,6.6,20.38,7.99,31.28H457.9z
			 M476.44,141.13c0.32,3.76,0.49,7.56,0.49,11.41c0,6.75-0.51,13.39-1.49,19.87l-18.03,0c1.13-6.45,1.73-13.09,1.73-19.87
			c0-3.85-0.19-7.65-0.56-11.41 M214.56,135.53c1.4-10.9,4.14-21.38,8.04-31.28l19.37,0c-4.57,9.75-7.8,20.26-9.45,31.28H214.56z
			 M214.93,172.21c-0.96-6.42-1.46-12.99-1.46-19.67c0-3.91,0.17-7.78,0.5-11.6h17.87c-0.39,3.82-0.58,7.69-0.58,11.6
			c0,6.71,0.58,13.28,1.69,19.67L214.93,172.21z M234.03,177.62c11.42,50.86,56.86,88.86,111.17,88.86
			c54.24,0,99.63-37.9,111.12-88.66l18.18,0c-11.79,60.66-65.2,106.45-129.3,106.45c-64.17,0-117.63-45.89-129.34-106.65
			L234.03,177.62z M224.88,98.85c20.55-45.99,66.69-78.04,120.32-78.04c53.7,0,99.9,32.14,120.41,78.23l-19.79,0
			C426.67,63.08,388.79,38.6,345.2,38.6c-43.51,0-81.33,24.39-100.52,60.25L224.88,98.85z"/>
		<g>
			<path class="st0" d="M677.11,104.45H448.52h-13.87c6.88,6.46,12.39,14.33,16.02,23.21h160.68
				C635.28,127.66,658.48,119.47,677.11,104.45z"/>
			<path class="st0" d="M434.65,201.02h85.7c23.93,0,47.13-8.19,65.76-23.21H450.67C447.04,186.69,441.53,194.56,434.65,201.02z"/>
			<path class="st0" d="M455.62,152.74c0,3.97-0.41,7.83-1.08,11.6h111.31c23.93,0,47.13-8.19,65.76-23.21H454.54
				C455.21,144.91,455.62,148.77,455.62,152.74z"/>
		</g>
		<g>
			<path class="st0" d="M13.25,104.25h242.46c-6.88,6.46-12.39,14.33-16.02,23.21H79.01C55.09,127.46,31.88,119.27,13.25,104.25z"/>
			<path class="st0" d="M255.71,200.82h-85.7c-23.93,0-47.13-8.19-65.76-23.21h135.44C243.32,186.49,248.83,194.36,255.71,200.82z"
				/>
			<path class="st0" d="M234.74,152.54c0,3.97,0.41,7.83,1.08,11.6H124.51c-23.93,0-47.13-8.19-65.76-23.21h177.07
				C235.16,144.71,234.74,148.57,234.74,152.54z"/>
		</g>
		<g>
			<path class="st0" d="M291.08,122.14l5.28-36.24h7.41l5.28,36.24l4.96-34.4l0.32-1.84h10.21c-3.43,19.91-6.8,39.86-10.21,59.79
				l-0.32,1.84h-9.93c-1.52-10.62-2.67-21.61-4.04-32.38l-3.69,30.53l-0.32,1.84h-9.93c-3.36-19.66-6.71-39.34-10.07-59.01
				l-0.46-2.62h10.21l0.32,1.84L291.08,122.14z"/>
			<path class="st0" d="M336.4,85.9h2.2v2.23v57.16v2.23h-2.2h-5.74h-2.2v-2.23V88.14V85.9h2.2H336.4z"/>
			<path class="st0" d="M344.62,85.9h13.62c5.46,24.75,5.74,23.76,9.93,42.02c0-9.51-0.36-32.51-0.36-42.02h10.18v61.63h-13.97
				c-5.78-24.26-6.24-25.6-9.26-40.6v40.6h-10.14V85.9z"/>
			<path class="st0" d="M396.78,85.9c3.74,0,6.95,1.35,9.65,4.04c2.67,2.67,4.01,5.89,4.01,9.65v3.87h-9.82v-3.87
				c0-1.9-1.94-3.51-3.83-3.51c-1.92,0-3.51,1.59-3.51,3.51v34.29c0,1.92,1.61,3.51,3.51,3.51c1.84,0,4.18-1.61,4.18-3.51V123.6
				h-5.07v-9.43h14.54v19.72c0,7.43-6.2,13.65-13.65,13.65c-3.81,0-7.02-1.34-9.65-4.01c-2.67-2.67-4.01-5.89-4.01-9.65V99.59
				C383.13,92.12,389.32,85.9,396.78,85.9z"/>
		</g>
		<g>
			<g>
				<g>
					<path class="st0" d="M277.78,218.89c-7.44,0-13.16-6.12-13.16-13.65v-6.52h9.79v6.52c0,1.95,1.51,3.51,3.37,3.51
						c1.68,0,2.91-1.53,2.91-3.51v-3.23c0-3.37-2.82-5.63-4.22-7.38c-2.77-3.44-7.31-7.33-9.01-9.72c-2.02-2.84-3.1-7.16-3.19-9.33
						l-0.14-4.65c0-7.56,6.07-13.69,13.51-13.69c7.41,0,12.84,6.08,12.84,13.69v6.49h-9.79v-6.49c0-1.95-1.21-3.51-2.91-3.51
						c-1.9,0-3.37,1.59-3.37,3.51v2.59c0.02,1.06,0.74,3.62,1.7,5c1.62,2.34,4.04,4.1,5.18,5.28c4.01,4.15,5.64,5.52,6.91,7.8
						c1.56,2.8,2.59,6.42,2.59,8.9l0.04,4.72C290.83,212.89,285.18,218.89,277.78,218.89z"/>
					<path class="st0" d="M303.42,157.25h2.2v2.23V183h7.3v-23.51v-2.23h2.23h5.71h2.23v2.23v57.16v2.23h-2.23h-5.71h-2.23v-2.23
						v-23.51h-7.3v23.51v2.23h-2.2h-5.74h-2.2v-2.23v-57.16v-2.23h2.2H303.42z"/>
					<path class="st0" d="M338.95,209.35c-0.63,3.18-1.27,6.34-1.88,9.54h-10.43l10.6-61.63h13.3l10.6,61.7h-10.43
						c-0.61-3.19-1.25-6.43-1.88-9.61H338.95z M343.88,170.27l-3.44,29.36h6.92L343.88,170.27z"/>
					<path class="st0" d="M387.46,161.3c2.67,2.65,4.01,5.86,4.01,9.65v1.42v2.23h-2.23h-5.71h-2.23v-2.23v-1.42
						c0-0.97-0.34-1.8-1.03-2.48c-0.66-0.69-1.48-1.03-2.45-1.03s-1.8,0.34-2.48,1.03s-1.03,1.51-1.03,2.48v34.29
						c0,0.97,0.34,1.8,1.03,2.48c0.71,0.69,1.54,1.03,2.48,1.03s1.76-0.34,2.45-1.03s1.03-1.51,1.03-2.48v-1.42v-2.23h2.23h5.71
						h2.23v2.23v1.42c0,3.76-1.34,6.97-4.01,9.65c-2.67,2.67-5.89,4.01-9.65,4.01c-3.81,0-7.02-1.34-9.65-4.01
						c-2.67-2.67-4.01-5.89-4.01-9.65v-34.29c0-3.78,1.33-7,4.01-9.65c2.65-2.69,5.86-4.04,9.65-4.04
						C381.55,157.25,384.76,158.6,387.46,161.3z"/>
					<path class="st0" d="M406.07,157.25v21.63l6.95-20.35l0.57-1.28h10.74c-4.56,9.86-6.45,16.88-10.96,28.4
						c4.36,13.16,6.84,21.67,11.17,33.23h-10.85c-1.49-4.75-4.12-14.25-7.48-25.53c0,5.91-0.14,19.62-0.14,25.53h-10.14v-61.63
						H406.07z"/>
				</g>
			</g>
		</g>
	</g>
	<g>
		<path class="st1" d="M261.85,305.15l-10.63-6.2l-5.56,4.89l-6.45-3.76l28.12-23.05l5.62,3.28l-6.15,35.86l-6.45-3.76
			L261.85,305.15z M255.72,294.99l7.36,4.29l2.73-13.18L255.72,294.99z"/>
		<path class="st1" d="M308.75,294.82l-7.22,21.3c-0.63,1.86-1.5,3.4-2.6,4.62c-1.1,1.22-2.37,2.12-3.78,2.71
			c-1.42,0.59-2.97,0.87-4.65,0.85c-1.68-0.03-3.41-0.34-5.2-0.95c-1.8-0.61-3.38-1.42-4.73-2.42c-1.35-1-2.41-2.17-3.18-3.5
			c-0.77-1.33-1.22-2.81-1.35-4.45c-0.13-1.63,0.12-3.38,0.75-5.24l7.22-21.3l6.65,2.25l-7.22,21.3c-0.72,2.11-0.73,3.83-0.05,5.14
			c0.68,1.31,1.92,2.27,3.71,2.88c1.8,0.61,3.37,0.6,4.69-0.03c1.33-0.63,2.35-2,3.06-4.11l7.22-21.3L308.75,294.82z"/>
		<path class="st1" d="M321.64,318.5l-5.55-0.72l-1.6,12.37l-6.96-0.9l4.37-33.79l12.56,1.62c1.95,0.25,3.67,0.7,5.16,1.34
			c1.49,0.64,2.71,1.46,3.67,2.46c0.96,1,1.64,2.17,2.05,3.51c0.41,1.34,0.5,2.85,0.29,4.52c-0.16,1.24-0.44,2.33-0.85,3.28
			c-0.41,0.95-0.92,1.77-1.55,2.47c-0.63,0.7-1.35,1.29-2.16,1.76s-1.72,0.86-2.7,1.16l5.53,14.76l-0.04,0.33l-7.47-0.97
			L321.64,318.5z M316.82,312.15l5.62,0.73c0.91,0.12,1.73,0.1,2.45-0.05c0.72-0.15,1.34-0.42,1.85-0.8
			c0.51-0.38,0.93-0.86,1.24-1.44c0.31-0.58,0.52-1.25,0.61-2.01c0.21-1.59-0.08-2.91-0.87-3.94c-0.79-1.03-2.12-1.67-3.99-1.91
			l-5.59-0.72L316.82,312.15z"/>
		<path class="st1" d="M368.91,314.61c0.18,2.6,0,4.95-0.55,7.07c-0.55,2.11-1.42,3.93-2.58,5.45s-2.61,2.73-4.33,3.63
			c-1.72,0.9-3.64,1.42-5.78,1.57s-4.11-0.1-5.94-0.74s-3.44-1.64-4.82-2.98c-1.39-1.34-2.51-3.02-3.37-5.03
			c-0.86-2.01-1.39-4.32-1.57-6.92l-0.11-1.49c-0.18-2.58,0.01-4.94,0.57-7.06c0.56-2.12,1.43-3.95,2.6-5.49
			c1.17-1.54,2.62-2.76,4.34-3.65c1.72-0.9,3.64-1.42,5.78-1.57s4.11,0.1,5.94,0.74c1.83,0.64,3.43,1.64,4.81,3
			c1.38,1.36,2.49,3.04,3.35,5.06c0.86,2.02,1.38,4.32,1.56,6.91L368.91,314.61z M361.71,313.57c-0.25-3.56-1.08-6.23-2.49-7.99
			c-1.41-1.76-3.29-2.56-5.66-2.39c-2.37,0.17-4.12,1.22-5.27,3.17s-1.59,4.7-1.34,8.26l0.11,1.54c0.13,1.77,0.4,3.33,0.84,4.67
			c0.43,1.34,0.99,2.45,1.69,3.33c0.7,0.88,1.52,1.53,2.47,1.94s2.02,0.57,3.2,0.49c2.37-0.17,4.11-1.23,5.24-3.19
			c1.13-1.96,1.57-4.72,1.31-8.28L361.71,313.57z"/>
		<path class="st1" d="M388.09,313.59l-5.39,1.51l3.37,12.01l-6.76,1.9l-9.2-32.81l12.19-3.42c1.89-0.53,3.65-0.79,5.27-0.79
			s3.07,0.28,4.34,0.82c1.27,0.54,2.36,1.35,3.26,2.43c0.9,1.08,1.58,2.43,2.03,4.05c0.34,1.2,0.5,2.32,0.5,3.35
			c0,1.03-0.16,1.99-0.46,2.88c-0.3,0.89-0.74,1.71-1.3,2.47c-0.56,0.76-1.24,1.47-2.03,2.12l10.86,11.42l0.09,0.32l-7.26,2.03
			L388.09,313.59z M381.17,309.62l5.45-1.53c0.89-0.25,1.63-0.58,2.23-1c0.6-0.42,1.07-0.91,1.39-1.46
			c0.32-0.55,0.51-1.16,0.57-1.81c0.06-0.66-0.02-1.35-0.22-2.09c-0.43-1.55-1.21-2.64-2.34-3.28c-1.13-0.64-2.6-0.71-4.42-0.2
			l-5.43,1.52L381.17,309.62z"/>
		<path class="st1" d="M426.48,303.66l-10.95,5.62l1.12,7.31l-6.64,3.41l-4.27-36.11l5.79-2.97l26.91,24.49l-6.64,3.41
			L426.48,303.66z M414.62,303.35l7.58-3.89l-9.63-9.39L414.62,303.35z"/>
	</g>
</g>
</svg>
