<?xml version="1.0" encoding="utf-8"?>
<!-- Generator: Adobe Illustrator 24.2.1, SVG Export Plug-In . SVG Version: 6.00 Build 0)  -->
<svg version="1.1" id="Layer_1" xmlns="http://www.w3.org/2000/svg" xmlns:xlink="http://www.w3.org/1999/xlink" x="0px" y="0px"
	 viewBox="0 0 686.75 343.37" style="enable-background:new 0 0 686.75 343.37;" xml:space="preserve">
<style type="text/css">
	.st0{fill:#006937;}
	.st1{fill:#515659;}
</style>
<g>
	<g>
		<path class="st0" d="M457.9,130.6c-1.63-11.02-4.84-21.52-9.38-31.27l19.35,0c3.88,9.9,6.6,20.38,7.99,31.28H457.9z M476.44,136
			c0.32,3.76,0.49,7.56,0.49,11.41c0,6.75-0.51,13.39-1.49,19.87h-18.03c1.13-6.45,1.73-13.09,1.73-19.87
			c0-3.85-0.19-7.65-0.56-11.41 M214.56,130.4c1.4-10.9,4.14-21.38,8.04-31.28l19.37,0c-4.57,9.75-7.8,20.26-9.45,31.28H214.56z
			 M214.93,167.08c-0.96-6.42-1.46-12.99-1.46-19.67c0-3.91,0.17-7.78,0.5-11.6h17.87c-0.39,3.82-0.58,7.69-0.58,11.6
			c0,6.71,0.58,13.28,1.69,19.67H214.93z M234.03,172.49c11.42,50.86,56.86,88.86,111.17,88.86c54.24,0,99.63-37.9,111.12-88.66
			l18.18,0c-11.79,60.66-65.2,106.45-129.3,106.45c-64.17,0-117.63-45.89-129.34-106.65H234.03z M224.88,93.72
			c20.55-45.99,66.69-78.04,120.32-78.04c53.7,0,99.9,32.14,120.41,78.23l-19.79,0c-19.16-35.96-57.03-60.44-100.62-60.44
			c-43.51,0-81.33,24.39-100.52,60.25L224.88,93.72z"/>
		<g>
			<path class="st0" d="M677.11,99.32H448.52h-13.87c6.88,6.46,12.39,14.33,16.02,23.21h160.68
				C635.28,122.53,658.48,114.34,677.11,99.32z"/>
			<path class="st0" d="M434.65,195.89h85.7c23.93,0,47.13-8.19,65.76-23.21H450.67C447.04,181.56,441.53,189.43,434.65,195.89z"/>
			<path class="st0" d="M455.62,147.61c0,3.97-0.41,7.83-1.08,11.6h111.31c23.93,0,47.13-8.19,65.76-23.21H454.54
				C455.21,139.78,455.62,143.64,455.62,147.61z"/>
		</g>
		<g>
			<path class="st0" d="M13.25,99.13h242.46c-6.88,6.46-12.39,14.33-16.02,23.21H79.01C55.09,122.33,31.88,114.14,13.25,99.13z"/>
			<path class="st0" d="M255.71,195.7h-85.7c-23.93,0-47.13-8.19-65.76-23.21h135.44C243.32,181.36,248.83,189.24,255.71,195.7z"/>
			<path class="st0" d="M234.74,147.41c0,3.97,0.41,7.83,1.08,11.6H124.51c-23.93,0-47.13-8.19-65.76-23.21h177.07
				C235.16,139.58,234.74,143.44,234.74,147.41z"/>
		</g>
		<g>
			<path class="st0" d="M291.08,117.02l5.28-36.24h7.41l5.28,36.24l4.96-34.4l0.32-1.84h10.21c-3.43,19.91-6.8,39.86-10.21,59.79
				l-0.32,1.84h-9.93c-1.52-10.62-2.67-21.61-4.04-32.38l-3.69,30.53l-0.32,1.84h-9.93c-3.36-19.66-6.71-39.34-10.07-59.01
				l-0.46-2.62h10.21l0.32,1.84L291.08,117.02z"/>
			<path class="st0" d="M336.4,80.78h2.2v2.23v57.16v2.23h-2.2h-5.74h-2.2v-2.23V83.01v-2.23h2.2H336.4z"/>
			<path class="st0" d="M344.62,80.78h13.62c5.46,24.75,5.74,23.76,9.93,42.02c0-9.51-0.36-32.51-0.36-42.02h10.18v61.63h-13.97
				c-5.78-24.26-6.24-25.6-9.26-40.6v40.6h-10.14V80.78z"/>
			<path class="st0" d="M396.78,80.78c3.74,0,6.95,1.35,9.65,4.04c2.67,2.67,4.01,5.89,4.01,9.65v3.87h-9.82v-3.87
				c0-1.9-1.94-3.51-3.83-3.51c-1.92,0-3.51,1.59-3.51,3.51v34.29c0,1.92,1.61,3.51,3.51,3.51c1.84,0,4.18-1.61,4.18-3.51v-10.28
				h-5.07v-9.43h14.54v19.72c0,7.43-6.2,13.65-13.65,13.65c-3.81,0-7.02-1.34-9.65-4.01c-2.67-2.67-4.01-5.89-4.01-9.65V94.46
				C383.13,86.99,389.32,80.78,396.78,80.78z"/>
		</g>
		<g>
			<g>
				<g>
					<path class="st0" d="M277.78,213.76c-7.44,0-13.16-6.12-13.16-13.65v-6.52h9.79v6.52c0,1.95,1.51,3.51,3.37,3.51
						c1.68,0,2.91-1.53,2.91-3.51v-3.23c0-3.37-2.82-5.63-4.22-7.38c-2.77-3.44-7.31-7.33-9.01-9.72c-2.02-2.84-3.1-7.16-3.19-9.33
						l-0.14-4.65c0-7.56,6.07-13.69,13.51-13.69c7.41,0,12.84,6.08,12.84,13.69v6.49h-9.79v-6.49c0-1.95-1.21-3.51-2.91-3.51
						c-1.9,0-3.37,1.59-3.37,3.51v2.59c0.02,1.06,0.74,3.62,1.7,5c1.62,2.34,4.04,4.1,5.18,5.28c4.01,4.15,5.64,5.52,6.91,7.8
						c1.56,2.8,2.59,6.42,2.59,8.9l0.04,4.72C290.83,207.77,285.18,213.76,277.78,213.76z"/>
					<path class="st0" d="M303.42,152.13h2.2v2.23v23.51h7.3v-23.51v-2.23h2.23h5.71h2.23v2.23v57.16v2.23h-2.23h-5.71h-2.23v-2.23
						v-23.51h-7.3v23.51v2.23h-2.2h-5.74h-2.2v-2.23v-57.16v-2.23h2.2H303.42z"/>
					<path class="st0" d="M338.95,204.22c-0.63,3.18-1.27,6.34-1.88,9.54h-10.43l10.6-61.63h13.3l10.6,61.7h-10.43
						c-0.61-3.19-1.25-6.43-1.88-9.61H338.95z M343.88,165.14l-3.44,29.36h6.92L343.88,165.14z"/>
					<path class="st0" d="M387.46,156.17c2.67,2.65,4.01,5.86,4.01,9.65v1.42v2.23h-2.23h-5.71h-2.23v-2.23v-1.42
						c0-0.97-0.34-1.8-1.03-2.48c-0.66-0.69-1.48-1.03-2.45-1.03s-1.8,0.34-2.48,1.03s-1.03,1.51-1.03,2.48v34.29
						c0,0.97,0.34,1.8,1.03,2.48c0.71,0.69,1.54,1.03,2.48,1.03s1.76-0.34,2.45-1.03s1.03-1.51,1.03-2.48v-1.42v-2.23h2.23h5.71
						h2.23v2.23v1.42c0,3.76-1.34,6.97-4.01,9.65c-2.67,2.67-5.89,4.01-9.65,4.01c-3.81,0-7.02-1.34-9.65-4.01
						c-2.67-2.67-4.01-5.89-4.01-9.65v-34.29c0-3.78,1.33-7,4.01-9.65c2.65-2.69,5.86-4.04,9.65-4.04
						C381.55,152.13,384.76,153.48,387.46,156.17z"/>
					<path class="st0" d="M406.07,152.13v21.63l6.95-20.35l0.57-1.28h10.74c-4.56,9.86-6.45,16.88-10.96,28.4
						c4.36,13.16,6.84,21.67,11.17,33.23h-10.85c-1.49-4.75-4.12-14.25-7.48-25.53c0,5.91-0.14,19.62-0.14,25.53h-10.14v-61.63
						H406.07z"/>
				</g>
			</g>
		</g>
	</g>
	<g>
		<path class="st1" d="M253.62,303.84l14.94-30.63l10.73,5.23c1.78,0.87,3.29,1.81,4.53,2.83c1.24,1.02,2.17,2.12,2.81,3.29
			c0.64,1.17,0.95,2.4,0.95,3.71s-0.35,2.67-1.05,4.1c-0.34,0.7-0.76,1.33-1.25,1.89c-0.49,0.56-1.05,1.03-1.68,1.42
			c-0.63,0.39-1.33,0.67-2.1,0.86c-0.77,0.19-1.6,0.25-2.5,0.17c0.79,0.66,1.39,1.38,1.81,2.14c0.42,0.77,0.68,1.55,0.8,2.36
			c0.12,0.8,0.1,1.61-0.05,2.41c-0.16,0.8-0.42,1.57-0.78,2.32c-1.45,2.97-3.5,4.75-6.15,5.33s-5.75,0.01-9.28-1.71L253.62,303.84z
			 M266.44,293.58l-4.03,8.27l5.41,2.64c0.81,0.4,1.56,0.64,2.25,0.72s1.32,0.04,1.88-0.12s1.06-0.45,1.49-0.84
			c0.43-0.39,0.78-0.88,1.06-1.45c0.32-0.66,0.53-1.29,0.61-1.9c0.09-0.61,0.04-1.18-0.13-1.73c-0.18-0.54-0.5-1.06-0.98-1.53
			c-0.48-0.48-1.12-0.91-1.92-1.3L266.44,293.58z M268.61,289.12l4.67,2.28c1.63,0.76,2.99,1,4.09,0.73
			c1.1-0.27,1.95-1.01,2.54-2.21c0.68-1.39,0.76-2.58,0.25-3.59s-1.63-1.93-3.37-2.78l-4.42-2.15L268.61,289.12z"/>
		<path class="st1" d="M305.73,316.26l-11.92-3.08l-4.02,6.21l-7.23-1.87l20.8-29.82l6.3,1.63l3.83,36.18l-7.23-1.87L305.73,316.26z
			 M297.07,308.15l8.25,2.13l-0.96-13.42L297.07,308.15z"/>
		<path class="st1" d="M334.14,314.49l-5.59-0.3l-0.67,12.46l-7.01-0.38l1.82-34.03l12.64,0.68c1.96,0.1,3.71,0.42,5.25,0.95
			s2.82,1.25,3.84,2.17c1.03,0.92,1.8,2.04,2.31,3.35c0.51,1.31,0.72,2.8,0.63,4.49c-0.07,1.25-0.27,2.36-0.6,3.33
			c-0.33,0.97-0.79,1.83-1.36,2.58c-0.57,0.74-1.25,1.38-2.02,1.92c-0.78,0.54-1.65,0.99-2.6,1.36l6.62,14.3l-0.02,0.33l-7.53-0.4
			L334.14,314.49z M328.86,308.51l5.66,0.3c0.92,0.05,1.73-0.03,2.44-0.23c0.71-0.21,1.3-0.52,1.78-0.94
			c0.48-0.42,0.86-0.93,1.12-1.53c0.27-0.6,0.42-1.29,0.46-2.05c0.09-1.6-0.3-2.89-1.16-3.86s-2.24-1.5-4.12-1.6l-5.63-0.3
			L328.86,308.51z"/>
		<path class="st1" d="M366.27,313.07l-5.54,0.77l1.72,12.36l-6.95,0.97l-4.7-33.75l12.54-1.75c1.95-0.27,3.72-0.29,5.33-0.07
			c1.61,0.23,3,0.69,4.19,1.4s2.15,1.66,2.9,2.85s1.24,2.62,1.47,4.29c0.17,1.24,0.19,2.36,0.05,3.38
			c-0.14,1.02-0.42,1.95-0.84,2.79c-0.42,0.84-0.96,1.59-1.62,2.27c-0.66,0.68-1.43,1.29-2.3,1.83l9.22,12.78l0.04,0.32l-7.46,1.04
			L366.27,313.07z M359.94,308.2l5.61-0.78c0.91-0.13,1.7-0.36,2.35-0.69c0.65-0.33,1.18-0.75,1.57-1.26s0.67-1.08,0.81-1.72
			c0.15-0.64,0.17-1.34,0.06-2.1c-0.22-1.59-0.85-2.78-1.88-3.57c-1.03-0.79-2.48-1.05-4.35-0.79l-5.59,0.78L359.94,308.2z"/>
		<path class="st1" d="M395.7,319.25l-6.75,1.94l-9.43-32.74l6.75-1.94L395.7,319.25z"/>
		<path class="st1" d="M417.45,294.8l-12.36,5.39l3.65,8.37l14.5-6.33l2.26,5.17l-20.94,9.13l-13.63-31.23l20.89-9.12l2.27,5.21
			l-14.46,6.31l3.25,7.44l12.36-5.39L417.45,294.8z"/>
	</g>
</g>
</svg>
