<?xml version="1.0" encoding="utf-8"?>
<!-- Generator: Adobe Illustrator 24.2.1, SVG Export Plug-In . SVG Version: 6.00 Build 0)  -->
<svg version="1.1" id="Layer_1" xmlns="http://www.w3.org/2000/svg" xmlns:xlink="http://www.w3.org/1999/xlink" x="0px" y="0px"
	 viewBox="0 0 686.75 343.37" style="enable-background:new 0 0 686.75 343.37;" xml:space="preserve">
<style type="text/css">
	.st0{fill:#006937;}
	.st1{fill:#515659;}
</style>
<g>
	<g>
		<path class="st0" d="M457.9,130.75c-1.63-11.02-4.84-21.52-9.38-31.27l19.35,0c3.88,9.9,6.6,20.38,7.99,31.28H457.9z
			 M476.44,136.15c0.32,3.76,0.49,7.56,0.49,11.41c0,6.75-0.51,13.39-1.49,19.87h-18.03c1.13-6.45,1.73-13.09,1.73-19.87
			c0-3.85-0.19-7.65-0.56-11.41 M214.56,130.55c1.4-10.9,4.14-21.38,8.04-31.28l19.37,0c-4.57,9.75-7.8,20.26-9.45,31.28H214.56z
			 M214.93,167.23c-0.96-6.42-1.46-12.99-1.46-19.67c0-3.91,0.17-7.78,0.5-11.6h17.87c-0.39,3.82-0.58,7.69-0.58,11.6
			c0,6.71,0.58,13.28,1.69,19.67H214.93z M234.03,172.64c11.42,50.86,56.86,88.86,111.17,88.86c54.24,0,99.63-37.9,111.12-88.66
			l18.18,0c-11.79,60.66-65.2,106.45-129.3,106.45c-64.17,0-117.63-45.89-129.34-106.65H234.03z M224.88,93.87
			c20.55-45.99,66.69-78.04,120.32-78.04c53.7,0,99.9,32.14,120.41,78.23l-19.79,0C426.67,58.1,388.79,33.62,345.2,33.62
			c-43.51,0-81.33,24.39-100.52,60.25L224.88,93.87z"/>
		<g>
			<path class="st0" d="M677.11,99.47H448.52h-13.87c6.88,6.46,12.39,14.33,16.02,23.21h160.68
				C635.28,122.68,658.48,114.49,677.11,99.47z"/>
			<path class="st0" d="M434.65,196.04h85.7c23.93,0,47.13-8.19,65.76-23.21H450.67C447.04,181.71,441.53,189.58,434.65,196.04z"/>
			<path class="st0" d="M455.62,147.76c0,3.97-0.41,7.83-1.08,11.6h111.31c23.93,0,47.13-8.19,65.76-23.21H454.54
				C455.21,139.93,455.62,143.79,455.62,147.76z"/>
		</g>
		<g>
			<path class="st0" d="M13.25,99.27h242.46c-6.88,6.46-12.39,14.33-16.02,23.21H79.01C55.09,122.48,31.88,114.29,13.25,99.27z"/>
			<path class="st0" d="M255.71,195.84h-85.7c-23.93,0-47.13-8.19-65.76-23.21h135.44C243.32,181.51,248.83,189.38,255.71,195.84z"
				/>
			<path class="st0" d="M234.74,147.56c0,3.97,0.41,7.83,1.08,11.6H124.51c-23.93,0-47.13-8.19-65.76-23.21h177.07
				C235.16,139.73,234.74,143.59,234.74,147.56z"/>
		</g>
		<g>
			<path class="st0" d="M291.08,117.16l5.28-36.24h7.41l5.28,36.24l4.96-34.4l0.32-1.84h10.21c-3.43,19.91-6.8,39.86-10.21,59.79
				l-0.32,1.84h-9.93c-1.52-10.62-2.67-21.61-4.04-32.38l-3.69,30.53l-0.32,1.84h-9.93c-3.36-19.66-6.71-39.34-10.07-59.01
				l-0.46-2.62h10.21l0.32,1.84L291.08,117.16z"/>
			<path class="st0" d="M336.4,80.92h2.2v2.23v57.16v2.23h-2.2h-5.74h-2.2v-2.23V83.16v-2.23h2.2H336.4z"/>
			<path class="st0" d="M344.62,80.92h13.62c5.46,24.75,5.74,23.76,9.93,42.02c0-9.51-0.36-32.51-0.36-42.02h10.18v61.63h-13.97
				c-5.78-24.26-6.24-25.6-9.26-40.6v40.6h-10.14V80.92z"/>
			<path class="st0" d="M396.78,80.92c3.74,0,6.95,1.35,9.65,4.04c2.67,2.67,4.01,5.89,4.01,9.65v3.87h-9.82v-3.87
				c0-1.9-1.94-3.51-3.83-3.51c-1.92,0-3.51,1.59-3.51,3.51v34.29c0,1.92,1.61,3.51,3.51,3.51c1.84,0,4.18-1.61,4.18-3.51v-10.28
				h-5.07v-9.43h14.54v19.72c0,7.43-6.2,13.65-13.65,13.65c-3.81,0-7.02-1.34-9.65-4.01c-2.67-2.67-4.01-5.89-4.01-9.65V94.61
				C383.13,87.14,389.32,80.92,396.78,80.92z"/>
		</g>
		<g>
			<g>
				<g>
					<path class="st0" d="M277.78,213.9c-7.44,0-13.16-6.12-13.16-13.65v-6.52h9.79v6.52c0,1.95,1.51,3.51,3.37,3.51
						c1.68,0,2.91-1.53,2.91-3.51v-3.23c0-3.37-2.82-5.63-4.22-7.38c-2.77-3.44-7.31-7.33-9.01-9.72c-2.02-2.84-3.1-7.16-3.19-9.33
						l-0.14-4.65c0-7.56,6.07-13.69,13.51-13.69c7.41,0,12.84,6.08,12.84,13.69v6.49h-9.79v-6.49c0-1.95-1.21-3.51-2.91-3.51
						c-1.9,0-3.37,1.59-3.37,3.51v2.59c0.02,1.06,0.74,3.62,1.7,5c1.62,2.34,4.04,4.1,5.18,5.28c4.01,4.15,5.64,5.52,6.91,7.8
						c1.56,2.8,2.59,6.42,2.59,8.9l0.04,4.72C290.83,207.91,285.18,213.9,277.78,213.9z"/>
					<path class="st0" d="M303.42,152.27h2.2v2.23v23.51h7.3v-23.51v-2.23h2.23h5.71h2.23v2.23v57.16v2.23h-2.23h-5.71h-2.23v-2.23
						v-23.51h-7.3v23.51v2.23h-2.2h-5.74h-2.2v-2.23v-57.16v-2.23h2.2H303.42z"/>
					<path class="st0" d="M338.95,204.37c-0.63,3.18-1.27,6.34-1.88,9.54h-10.43l10.6-61.63h13.3l10.6,61.7h-10.43
						c-0.61-3.19-1.25-6.43-1.88-9.61H338.95z M343.88,165.29l-3.44,29.36h6.92L343.88,165.29z"/>
					<path class="st0" d="M387.46,156.32c2.67,2.65,4.01,5.86,4.01,9.65v1.42v2.23h-2.23h-5.71h-2.23v-2.23v-1.42
						c0-0.97-0.34-1.8-1.03-2.48c-0.66-0.69-1.48-1.03-2.45-1.03s-1.8,0.34-2.48,1.03c-0.69,0.69-1.03,1.51-1.03,2.48v34.29
						c0,0.97,0.34,1.8,1.03,2.48c0.71,0.69,1.54,1.03,2.48,1.03s1.76-0.34,2.45-1.03s1.03-1.51,1.03-2.48v-1.42v-2.23h2.23h5.71
						h2.23v2.23v1.42c0,3.76-1.34,6.97-4.01,9.65c-2.67,2.67-5.89,4.01-9.65,4.01c-3.81,0-7.02-1.34-9.65-4.01
						c-2.67-2.67-4.01-5.89-4.01-9.65v-34.29c0-3.78,1.33-7,4.01-9.65c2.65-2.69,5.86-4.04,9.65-4.04
						C381.55,152.27,384.76,153.62,387.46,156.32z"/>
					<path class="st0" d="M406.07,152.27v21.63l6.95-20.35l0.57-1.28h10.74c-4.56,9.86-6.45,16.88-10.96,28.4
						c4.36,13.16,6.84,21.67,11.17,33.23h-10.85c-1.49-4.75-4.12-14.25-7.48-25.53c0,5.91-0.14,19.62-0.14,25.53h-10.14v-61.63
						H406.07z"/>
				</g>
			</g>
		</g>
	</g>
	<g>
		<path class="st1" d="M245.95,299.31l16.46-29.84l10.45,5.77c1.73,0.96,3.2,1.98,4.38,3.06c1.19,1.08,2.07,2.22,2.64,3.42
			c0.58,1.2,0.83,2.45,0.76,3.75c-0.07,1.3-0.48,2.65-1.25,4.04c-0.38,0.68-0.82,1.29-1.34,1.83c-0.52,0.53-1.1,0.98-1.75,1.33
			c-0.65,0.35-1.36,0.61-2.14,0.76s-1.61,0.17-2.51,0.04c0.75,0.7,1.32,1.44,1.7,2.23c0.38,0.79,0.6,1.59,0.68,2.4
			c0.08,0.81,0.02,1.61-0.18,2.4c-0.2,0.79-0.49,1.55-0.89,2.27c-1.6,2.9-3.74,4.57-6.42,5.01s-5.74-0.28-9.18-2.18L245.95,299.31z
			 M259.27,289.71l-4.44,8.05l5.27,2.91c0.79,0.44,1.53,0.72,2.21,0.83s1.31,0.11,1.89-0.03c0.57-0.14,1.08-0.39,1.53-0.76
			c0.44-0.37,0.82-0.83,1.13-1.39c0.35-0.64,0.59-1.26,0.71-1.87c0.12-0.6,0.1-1.18-0.04-1.74c-0.15-0.55-0.45-1.08-0.9-1.58
			c-0.45-0.5-1.07-0.97-1.85-1.4L259.27,289.71z M261.66,285.36l4.55,2.51c1.59,0.84,2.94,1.15,4.05,0.94s2-0.91,2.65-2.08
			c0.75-1.35,0.89-2.54,0.43-3.57c-0.46-1.03-1.53-2.01-3.23-2.94l-4.3-2.37L261.66,285.36z"/>
		<path class="st1" d="M308.49,308.1c-0.77,2.49-1.8,4.62-3.08,6.38c-1.28,1.77-2.74,3.15-4.38,4.14c-1.64,1-3.42,1.6-5.35,1.81
			c-1.93,0.21-3.91,0-5.95-0.63c-2.04-0.63-3.8-1.58-5.27-2.85s-2.61-2.77-3.41-4.53c-0.8-1.75-1.24-3.72-1.32-5.91
			c-0.07-2.19,0.28-4.52,1.05-7.01l0.44-1.43c0.77-2.47,1.8-4.6,3.09-6.37c1.29-1.77,2.77-3.16,4.42-4.17
			c1.65-1.01,3.44-1.62,5.37-1.83c1.93-0.21,3.91,0,5.95,0.63c2.04,0.63,3.8,1.58,5.27,2.85s2.6,2.78,3.39,4.54
			c0.79,1.76,1.22,3.74,1.28,5.94c0.06,2.19-0.29,4.53-1.06,7L308.49,308.1z M302.16,304.52c1.06-3.41,1.25-6.2,0.58-8.35
			s-2.14-3.58-4.41-4.28c-2.27-0.7-4.28-0.36-6.06,1.04c-1.77,1.39-3.19,3.8-4.25,7.21l-0.46,1.48c-0.53,1.7-0.83,3.25-0.92,4.65
			s0.04,2.64,0.37,3.71c0.33,1.07,0.86,1.97,1.6,2.7c0.74,0.73,1.67,1.27,2.81,1.62c2.26,0.7,4.28,0.35,6.04-1.07
			s3.17-3.83,4.23-7.24L302.16,304.52z"/>
		<path class="st1" d="M320.28,320.26l14.81,1.67l-0.63,5.6l-21.79-2.46l3.82-33.86l6.98,0.79L320.28,320.26z"/>
		<path class="st1" d="M361.48,298.43l-10.43,0.33l0.89,28.38l-7.02,0.22l-0.89-28.37l-10.29,0.32l-0.18-5.68l27.74-0.87
			L361.48,298.43z"/>
		<path class="st1" d="M393.42,303.7c0.58,2.54,0.77,4.9,0.54,7.07s-0.79,4.1-1.71,5.78c-0.92,1.68-2.16,3.1-3.72,4.25
			c-1.56,1.15-3.38,1.97-5.47,2.44c-2.08,0.48-4.08,0.54-5.98,0.19c-1.91-0.35-3.65-1.09-5.22-2.2c-1.58-1.11-2.95-2.59-4.11-4.45
			c-1.16-1.85-2.04-4.05-2.62-6.59l-0.33-1.46c-0.58-2.52-0.76-4.88-0.53-7.06c0.23-2.18,0.8-4.12,1.72-5.82
			c0.92-1.7,2.16-3.13,3.72-4.28c1.56-1.15,3.38-1.97,5.46-2.45c2.08-0.48,4.08-0.54,5.99-0.19c1.91,0.35,3.65,1.1,5.22,2.22
			c1.57,1.13,2.94,2.62,4.09,4.49c1.16,1.86,2.03,4.06,2.61,6.58L393.42,303.7z M386.15,303.79c-0.8-3.48-2.03-5.98-3.69-7.51
			c-1.66-1.52-3.65-2.02-5.96-1.49c-2.31,0.53-3.88,1.84-4.71,3.94c-0.83,2.1-0.85,4.89-0.05,8.37l0.35,1.51
			c0.4,1.73,0.91,3.23,1.55,4.48c0.63,1.26,1.36,2.26,2.19,3.03c0.82,0.76,1.74,1.27,2.74,1.53c1,0.26,2.08,0.25,3.24-0.01
			c2.31-0.53,3.87-1.85,4.69-3.96c0.81-2.11,0.82-4.9,0.02-8.38L386.15,303.79z"/>
		<path class="st1" d="M431.28,304.52l-6.35,2.99l-21.92-14.46l9.55,20.28l-6.35,2.99l-14.52-30.83l6.35-2.99L420,297l-9.57-20.33
			l6.33-2.98L431.28,304.52z"/>
	</g>
</g>
</svg>
