<?xml version="1.0" encoding="utf-8"?>
<!-- Generator: Adobe Illustrator 24.2.1, SVG Export Plug-In . SVG Version: 6.00 Build 0)  -->
<svg version="1.1" id="Layer_1" xmlns="http://www.w3.org/2000/svg" xmlns:xlink="http://www.w3.org/1999/xlink" x="0px" y="0px"
	 viewBox="0 0 686.75 343.37" style="enable-background:new 0 0 686.75 343.37;" xml:space="preserve">
<style type="text/css">
	.st0{fill:#006937;}
	.st1{fill:#515659;}
</style>
<g>
	<g>
		<path class="st0" d="M457.9,135.73c-1.63-11.02-4.84-21.52-9.38-31.27l19.35,0c3.88,9.9,6.6,20.38,7.99,31.28H457.9z
			 M476.44,141.13c0.32,3.76,0.49,7.56,0.49,11.41c0,6.75-0.51,13.39-1.49,19.87l-18.03,0c1.13-6.45,1.73-13.09,1.73-19.87
			c0-3.85-0.19-7.65-0.56-11.41 M214.56,135.53c1.4-10.9,4.14-21.38,8.04-31.28l19.37,0c-4.57,9.75-7.8,20.26-9.45,31.28H214.56z
			 M214.93,172.21c-0.96-6.42-1.46-12.99-1.46-19.67c0-3.91,0.17-7.78,0.5-11.6h17.87c-0.39,3.82-0.58,7.69-0.58,11.6
			c0,6.71,0.58,13.28,1.69,19.67L214.93,172.21z M234.03,177.62c11.42,50.86,56.86,88.86,111.17,88.86
			c54.24,0,99.63-37.9,111.12-88.66l18.18,0c-11.79,60.66-65.2,106.45-129.3,106.45c-64.17,0-117.63-45.89-129.34-106.65
			L234.03,177.62z M224.88,98.85c20.55-45.99,66.69-78.04,120.32-78.04c53.7,0,99.9,32.14,120.41,78.23l-19.79,0
			C426.67,63.08,388.79,38.6,345.2,38.6c-43.51,0-81.33,24.39-100.52,60.25L224.88,98.85z"/>
		<g>
			<path class="st0" d="M677.11,104.45H448.52h-13.87c6.88,6.46,12.39,14.33,16.02,23.21h160.68
				C635.28,127.66,658.48,119.47,677.11,104.45z"/>
			<path class="st0" d="M434.65,201.02h85.7c23.93,0,47.13-8.19,65.76-23.21H450.67C447.04,186.69,441.53,194.56,434.65,201.02z"/>
			<path class="st0" d="M455.62,152.74c0,3.97-0.41,7.83-1.08,11.6h111.31c23.93,0,47.13-8.19,65.76-23.21H454.54
				C455.21,144.91,455.62,148.77,455.62,152.74z"/>
		</g>
		<g>
			<path class="st0" d="M13.25,104.25h242.46c-6.88,6.46-12.39,14.33-16.02,23.21H79.01C55.09,127.46,31.88,119.27,13.25,104.25z"/>
			<path class="st0" d="M255.71,200.82h-85.7c-23.93,0-47.13-8.19-65.76-23.21h135.44C243.32,186.49,248.83,194.36,255.71,200.82z"
				/>
			<path class="st0" d="M234.74,152.54c0,3.97,0.41,7.83,1.08,11.6H124.51c-23.93,0-47.13-8.19-65.76-23.21h177.07
				C235.16,144.71,234.74,148.57,234.74,152.54z"/>
		</g>
		<g>
			<path class="st0" d="M291.08,122.14l5.28-36.24h7.41l5.28,36.24l4.96-34.4l0.32-1.84h10.21c-3.43,19.91-6.8,39.86-10.21,59.79
				l-0.32,1.84h-9.93c-1.52-10.62-2.67-21.61-4.04-32.38l-3.69,30.53l-0.32,1.84h-9.93c-3.36-19.66-6.71-39.34-10.07-59.01
				l-0.46-2.62h10.21l0.32,1.84L291.08,122.14z"/>
			<path class="st0" d="M336.4,85.9h2.2v2.23v57.16v2.23h-2.2h-5.74h-2.2v-2.23V88.14V85.9h2.2H336.4z"/>
			<path class="st0" d="M344.62,85.9h13.62c5.46,24.75,5.74,23.76,9.93,42.02c0-9.51-0.36-32.51-0.36-42.02h10.18v61.63h-13.97
				c-5.78-24.26-6.24-25.6-9.26-40.6v40.6h-10.14V85.9z"/>
			<path class="st0" d="M396.78,85.9c3.74,0,6.95,1.35,9.65,4.04c2.67,2.67,4.01,5.89,4.01,9.65v3.87h-9.82v-3.87
				c0-1.9-1.94-3.51-3.83-3.51c-1.92,0-3.51,1.59-3.51,3.51v34.29c0,1.92,1.61,3.51,3.51,3.51c1.84,0,4.18-1.61,4.18-3.51V123.6
				h-5.07v-9.43h14.54v19.72c0,7.43-6.2,13.65-13.65,13.65c-3.81,0-7.02-1.34-9.65-4.01c-2.67-2.67-4.01-5.89-4.01-9.65V99.59
				C383.13,92.12,389.32,85.9,396.78,85.9z"/>
		</g>
		<g>
			<g>
				<g>
					<path class="st0" d="M277.78,218.89c-7.44,0-13.16-6.12-13.16-13.65v-6.52h9.79v6.52c0,1.95,1.51,3.51,3.37,3.51
						c1.68,0,2.91-1.53,2.91-3.51v-3.23c0-3.37-2.82-5.63-4.22-7.38c-2.77-3.44-7.31-7.33-9.01-9.72c-2.02-2.84-3.1-7.16-3.19-9.33
						l-0.14-4.65c0-7.56,6.07-13.69,13.51-13.69c7.41,0,12.84,6.08,12.84,13.69v6.49h-9.79v-6.49c0-1.95-1.21-3.51-2.91-3.51
						c-1.9,0-3.37,1.59-3.37,3.51v2.59c0.02,1.06,0.74,3.62,1.7,5c1.62,2.34,4.04,4.1,5.18,5.28c4.01,4.15,5.64,5.52,6.91,7.8
						c1.56,2.8,2.59,6.42,2.59,8.9l0.04,4.72C290.83,212.89,285.18,218.89,277.78,218.89z"/>
					<path class="st0" d="M303.42,157.25h2.2v2.23V183h7.3v-23.51v-2.23h2.23h5.71h2.23v2.23v57.16v2.23h-2.23h-5.71h-2.23v-2.23
						v-23.51h-7.3v23.51v2.23h-2.2h-5.74h-2.2v-2.23v-57.16v-2.23h2.2H303.42z"/>
					<path class="st0" d="M338.95,209.35c-0.63,3.18-1.27,6.34-1.88,9.54h-10.43l10.6-61.63h13.3l10.6,61.7h-10.43
						c-0.61-3.19-1.25-6.43-1.88-9.61H338.95z M343.88,170.27l-3.44,29.36h6.92L343.88,170.27z"/>
					<path class="st0" d="M387.46,161.3c2.67,2.65,4.01,5.86,4.01,9.65v1.42v2.23h-2.23h-5.71h-2.23v-2.23v-1.42
						c0-0.97-0.34-1.8-1.03-2.48c-0.66-0.69-1.48-1.03-2.45-1.03s-1.8,0.34-2.48,1.03s-1.03,1.51-1.03,2.48v34.29
						c0,0.97,0.34,1.8,1.03,2.48c0.71,0.69,1.54,1.03,2.48,1.03s1.76-0.34,2.45-1.03s1.03-1.51,1.03-2.48v-1.42v-2.23h2.23h5.71
						h2.23v2.23v1.42c0,3.76-1.34,6.97-4.01,9.65c-2.67,2.67-5.89,4.01-9.65,4.01c-3.81,0-7.02-1.34-9.65-4.01
						c-2.67-2.67-4.01-5.89-4.01-9.65v-34.29c0-3.78,1.33-7,4.01-9.65c2.65-2.69,5.86-4.04,9.65-4.04
						C381.55,157.25,384.76,158.6,387.46,161.3z"/>
					<path class="st0" d="M406.07,157.25v21.63l6.95-20.35l0.57-1.28h10.74c-4.56,9.86-6.45,16.88-10.96,28.4
						c4.36,13.16,6.84,21.67,11.17,33.23h-10.85c-1.49-4.75-4.12-14.25-7.48-25.53c0,5.91-0.14,19.62-0.14,25.53h-10.14v-61.63
						H406.07z"/>
				</g>
			</g>
		</g>
	</g>
	<g>
		<path class="st1" d="M205.11,268.09l24.66-23.51l8.24,8.64c1.37,1.43,2.45,2.84,3.26,4.23s1.3,2.74,1.49,4.06
			c0.19,1.32,0.06,2.59-0.4,3.81c-0.45,1.22-1.26,2.38-2.41,3.48c-0.56,0.54-1.17,0.99-1.83,1.34c-0.65,0.35-1.34,0.6-2.07,0.75
			c-0.73,0.14-1.48,0.17-2.27,0.08c-0.79-0.09-1.59-0.33-2.41-0.71c0.51,0.89,0.82,1.77,0.95,2.64c0.12,0.86,0.1,1.69-0.07,2.49
			c-0.17,0.8-0.46,1.54-0.89,2.24c-0.43,0.7-0.94,1.33-1.54,1.9c-2.39,2.28-4.94,3.23-7.62,2.86c-2.69-0.38-5.39-1.99-8.1-4.84
			L205.11,268.09z M220.69,262.93l-6.66,6.35l4.15,4.35c0.62,0.65,1.24,1.14,1.86,1.46c0.62,0.32,1.22,0.5,1.81,0.54
			c0.59,0.04,1.15-0.05,1.69-0.27c0.53-0.22,1.03-0.55,1.5-0.99c0.53-0.51,0.94-1.03,1.24-1.57s0.45-1.1,0.48-1.67
			c0.02-0.57-0.1-1.17-0.39-1.78c-0.28-0.61-0.73-1.24-1.35-1.89L220.69,262.93z M224.28,259.51l3.59,3.76
			c1.26,1.28,2.45,1.98,3.58,2.11c1.13,0.13,2.18-0.27,3.15-1.19c1.12-1.07,1.61-2.16,1.48-3.28c-0.13-1.12-0.86-2.38-2.19-3.78
			l-3.39-3.56L224.28,259.51z"/>
		<path class="st1" d="M247.23,289.6l-4.56-3.23l-7.21,10.18l-5.73-4.06l19.7-27.81l10.33,7.32c1.6,1.14,2.91,2.34,3.93,3.6
			s1.71,2.56,2.09,3.89s0.43,2.68,0.16,4.06c-0.27,1.38-0.89,2.75-1.86,4.13c-0.72,1.02-1.48,1.85-2.29,2.5s-1.64,1.13-2.52,1.45
			c-0.88,0.32-1.79,0.5-2.74,0.54s-1.92-0.04-2.93-0.24l-2.03,15.62l-0.19,0.27l-6.15-4.36L247.23,289.6z M245.95,281.72l4.62,3.27
			c0.75,0.53,1.48,0.9,2.19,1.1c0.71,0.2,1.38,0.26,2.01,0.16c0.63-0.1,1.22-0.33,1.77-0.7c0.55-0.37,1.04-0.86,1.48-1.49
			c0.93-1.31,1.29-2.61,1.07-3.89c-0.21-1.28-1.09-2.46-2.63-3.55l-4.6-3.26L245.95,281.72z"/>
		<path class="st1" d="M279.07,313.18l-11.26-4.98l-4.98,5.47l-6.83-3.02l25.39-26.02l5.95,2.63l-2.13,36.32l-6.83-3.02
			L279.07,313.18z M271.84,303.76l7.79,3.45l1.25-13.4L271.84,303.76z"/>
		<path class="st1" d="M319.75,331.38l-6.87-1.43l-8.81-24.74l-4.57,21.95l-6.87-1.43l6.95-33.36l6.87,1.43l8.82,24.79l4.58-22
			l6.85,1.43L319.75,331.38z"/>
		<path class="st1" d="M355.54,304.15l-10.44-0.17l-0.46,28.38l-7.02-0.11l0.46-28.38l-10.3-0.17l0.09-5.69l27.75,0.45
			L355.54,304.15z"/>
		<path class="st1" d="M380.59,314.37l-13.29,2.24l2.31,13.73l-6.92,1.16l-5.65-33.6l21.88-3.68l0.94,5.61l-14.96,2.52l1.46,8.68
			l13.29-2.24L380.59,314.37z"/>
		<path class="st1" d="M412.98,300.85c0.91,2.44,1.39,4.75,1.46,6.94s-0.25,4.17-0.94,5.96c-0.69,1.79-1.74,3.36-3.13,4.7
			c-1.4,1.34-3.1,2.39-5.1,3.14c-2,0.75-3.97,1.07-5.91,0.96c-1.94-0.1-3.76-0.6-5.46-1.5c-1.71-0.9-3.26-2.19-4.65-3.87
			c-1.39-1.69-2.54-3.75-3.45-6.19l-0.52-1.4c-0.9-2.43-1.38-4.74-1.44-6.93c-0.06-2.19,0.26-4.19,0.95-6
			c0.69-1.81,1.74-3.38,3.13-4.73c1.4-1.34,3.1-2.39,5.1-3.13c2-0.75,3.97-1.07,5.91-0.96s3.76,0.61,5.46,1.53
			c1.71,0.91,3.25,2.22,4.64,3.92c1.39,1.7,2.54,3.76,3.44,6.19L412.98,300.85z M405.78,301.88c-1.25-3.35-2.79-5.67-4.64-6.96
			c-1.85-1.29-3.88-1.53-6.1-0.7s-3.61,2.33-4.16,4.52c-0.55,2.19-0.2,4.95,1.04,8.3l0.54,1.45c0.62,1.67,1.33,3.08,2.12,4.24
			s1.64,2.07,2.56,2.72s1.89,1.04,2.92,1.16c1.03,0.12,2.1-0.02,3.21-0.43c2.22-0.83,3.6-2.34,4.13-4.54
			c0.53-2.2,0.17-4.97-1.07-8.32L405.78,301.88z"/>
		<path class="st1" d="M431.1,294.45l-4.74,2.97l6.62,10.57l-5.95,3.73l-18.08-28.88l10.73-6.72c1.67-1.04,3.28-1.79,4.84-2.24
			s3.02-0.59,4.4-0.43c1.37,0.16,2.64,0.63,3.81,1.41c1.17,0.78,2.2,1.88,3.09,3.31c0.66,1.06,1.14,2.08,1.42,3.07
			c0.29,0.99,0.41,1.95,0.37,2.89c-0.04,0.94-0.22,1.85-0.55,2.73c-0.33,0.89-0.78,1.76-1.35,2.61l13.64,7.89l0.17,0.28l-6.39,4
			L431.1,294.45z M423.34,292.59l4.8-3.01c0.78-0.49,1.4-1.02,1.86-1.59c0.46-0.57,0.77-1.17,0.92-1.79s0.17-1.25,0.04-1.9
			c-0.13-0.65-0.4-1.29-0.8-1.94c-0.85-1.36-1.91-2.19-3.17-2.49c-1.26-0.3-2.69,0.06-4.29,1.06l-4.78,2.99L423.34,292.59z"/>
		<path class="st1" d="M455.9,292.49l-23.33-24.83l7.64-7.18c1.67-1.57,3.47-2.72,5.41-3.46c1.93-0.73,3.88-1.05,5.86-0.94
			c1.97,0.11,3.92,0.62,5.85,1.56c1.92,0.93,3.72,2.29,5.39,4.06l1.06,1.13c1.67,1.77,2.91,3.64,3.72,5.61
			c0.81,1.97,1.2,3.95,1.17,5.93c-0.03,1.99-0.48,3.92-1.34,5.8c-0.86,1.88-2.14,3.62-3.82,5.2L455.9,292.49z M441.57,267
			l15.58,16.58l2.47-2.32c2.02-1.9,2.94-4.02,2.74-6.35c-0.2-2.33-1.46-4.73-3.79-7.21l-1.09-1.16c-2.37-2.52-4.69-3.95-6.96-4.26
			s-4.41,0.47-6.42,2.36L441.57,267z"/>
	</g>
</g>
</svg>
