<?xml version="1.0" encoding="utf-8"?>
<!-- Generator: Adobe Illustrator 24.2.1, SVG Export Plug-In . SVG Version: 6.00 Build 0)  -->
<svg version="1.1" id="Layer_1" xmlns="http://www.w3.org/2000/svg" xmlns:xlink="http://www.w3.org/1999/xlink" x="0px" y="0px"
	 viewBox="0 0 686.75 343.37" style="enable-background:new 0 0 686.75 343.37;" xml:space="preserve">
<style type="text/css">
	.st0{fill:#006937;}
	.st1{fill:#515659;}
</style>
<g>
	<g>
		<path class="st0" d="M457.9,135.73c-1.63-11.02-4.84-21.52-9.38-31.27l19.35,0c3.88,9.9,6.6,20.38,7.99,31.28H457.9z
			 M476.44,141.13c0.32,3.76,0.49,7.56,0.49,11.41c0,6.75-0.51,13.39-1.49,19.87l-18.03,0c1.13-6.45,1.73-13.09,1.73-19.87
			c0-3.85-0.19-7.65-0.56-11.41 M214.56,135.53c1.4-10.9,4.14-21.38,8.04-31.28l19.37,0c-4.57,9.75-7.8,20.26-9.45,31.28H214.56z
			 M214.93,172.21c-0.96-6.42-1.46-12.99-1.46-19.67c0-3.91,0.17-7.78,0.5-11.6h17.87c-0.39,3.82-0.58,7.69-0.58,11.6
			c0,6.71,0.58,13.28,1.69,19.67L214.93,172.21z M234.03,177.62c11.42,50.86,56.86,88.86,111.17,88.86
			c54.24,0,99.63-37.9,111.12-88.66l18.18,0c-11.79,60.66-65.2,106.45-129.3,106.45c-64.17,0-117.63-45.89-129.34-106.65
			L234.03,177.62z M224.88,98.85c20.55-45.99,66.69-78.04,120.32-78.04c53.7,0,99.9,32.14,120.41,78.23l-19.79,0
			C426.67,63.08,388.79,38.6,345.2,38.6c-43.51,0-81.33,24.39-100.52,60.25L224.88,98.85z"/>
		<g>
			<path class="st0" d="M677.11,104.45H448.52h-13.87c6.88,6.46,12.39,14.33,16.02,23.21h160.68
				C635.28,127.66,658.48,119.47,677.11,104.45z"/>
			<path class="st0" d="M434.65,201.02h85.7c23.93,0,47.13-8.19,65.76-23.21H450.67C447.04,186.69,441.53,194.56,434.65,201.02z"/>
			<path class="st0" d="M455.62,152.74c0,3.97-0.41,7.83-1.08,11.6h111.31c23.93,0,47.13-8.19,65.76-23.21H454.54
				C455.21,144.91,455.62,148.77,455.62,152.74z"/>
		</g>
		<g>
			<path class="st0" d="M13.25,104.25h242.46c-6.88,6.46-12.39,14.33-16.02,23.21H79.01C55.09,127.46,31.88,119.27,13.25,104.25z"/>
			<path class="st0" d="M255.71,200.82h-85.7c-23.93,0-47.13-8.19-65.76-23.21h135.44C243.32,186.49,248.83,194.36,255.71,200.82z"
				/>
			<path class="st0" d="M234.74,152.54c0,3.97,0.41,7.83,1.08,11.6H124.51c-23.93,0-47.13-8.19-65.76-23.21h177.07
				C235.16,144.71,234.74,148.57,234.74,152.54z"/>
		</g>
		<g>
			<path class="st0" d="M291.08,122.14l5.28-36.24h7.41l5.28,36.24l4.96-34.4l0.32-1.84h10.21c-3.43,19.91-6.8,39.86-10.21,59.79
				l-0.32,1.84h-9.93c-1.52-10.62-2.67-21.61-4.04-32.38l-3.69,30.53l-0.32,1.84h-9.93c-3.36-19.66-6.71-39.34-10.07-59.01
				l-0.46-2.62h10.21l0.32,1.84L291.08,122.14z"/>
			<path class="st0" d="M336.4,85.9h2.2v2.23v57.16v2.23h-2.2h-5.74h-2.2v-2.23V88.14V85.9h2.2H336.4z"/>
			<path class="st0" d="M344.62,85.9h13.62c5.46,24.75,5.74,23.76,9.93,42.02c0-9.51-0.36-32.51-0.36-42.02h10.18v61.63h-13.97
				c-5.78-24.26-6.24-25.6-9.26-40.6v40.6h-10.14V85.9z"/>
			<path class="st0" d="M396.78,85.9c3.74,0,6.95,1.35,9.65,4.04c2.67,2.67,4.01,5.89,4.01,9.65v3.87h-9.82v-3.87
				c0-1.9-1.94-3.51-3.83-3.51c-1.92,0-3.51,1.59-3.51,3.51v34.29c0,1.92,1.61,3.51,3.51,3.51c1.84,0,4.18-1.61,4.18-3.51V123.6
				h-5.07v-9.43h14.54v19.72c0,7.43-6.2,13.65-13.65,13.65c-3.81,0-7.02-1.34-9.65-4.01c-2.67-2.67-4.01-5.89-4.01-9.65V99.59
				C383.13,92.12,389.32,85.9,396.78,85.9z"/>
		</g>
		<g>
			<g>
				<g>
					<path class="st0" d="M277.78,218.89c-7.44,0-13.16-6.12-13.16-13.65v-6.52h9.79v6.52c0,1.95,1.51,3.51,3.37,3.51
						c1.68,0,2.91-1.53,2.91-3.51v-3.23c0-3.37-2.82-5.63-4.22-7.38c-2.77-3.44-7.31-7.33-9.01-9.72c-2.02-2.84-3.1-7.16-3.19-9.33
						l-0.14-4.65c0-7.56,6.07-13.69,13.51-13.69c7.41,0,12.84,6.08,12.84,13.69v6.49h-9.79v-6.49c0-1.95-1.21-3.51-2.91-3.51
						c-1.9,0-3.37,1.59-3.37,3.51v2.59c0.02,1.06,0.74,3.62,1.7,5c1.62,2.34,4.04,4.1,5.18,5.28c4.01,4.15,5.64,5.52,6.91,7.8
						c1.56,2.8,2.59,6.42,2.59,8.9l0.04,4.72C290.83,212.89,285.18,218.89,277.78,218.89z"/>
					<path class="st0" d="M303.42,157.25h2.2v2.23V183h7.3v-23.51v-2.23h2.23h5.71h2.23v2.23v57.16v2.23h-2.23h-5.71h-2.23v-2.23
						v-23.51h-7.3v23.51v2.23h-2.2h-5.74h-2.2v-2.23v-57.16v-2.23h2.2H303.42z"/>
					<path class="st0" d="M338.95,209.35c-0.63,3.18-1.27,6.34-1.88,9.54h-10.43l10.6-61.63h13.3l10.6,61.7h-10.43
						c-0.61-3.19-1.25-6.43-1.88-9.61H338.95z M343.88,170.27l-3.44,29.36h6.92L343.88,170.27z"/>
					<path class="st0" d="M387.46,161.3c2.67,2.65,4.01,5.86,4.01,9.65v1.42v2.23h-2.23h-5.71h-2.23v-2.23v-1.42
						c0-0.97-0.34-1.8-1.03-2.48c-0.66-0.69-1.48-1.03-2.45-1.03s-1.8,0.34-2.48,1.03s-1.03,1.51-1.03,2.48v34.29
						c0,0.97,0.34,1.8,1.03,2.48c0.71,0.69,1.54,1.03,2.48,1.03s1.76-0.34,2.45-1.03s1.03-1.51,1.03-2.48v-1.42v-2.23h2.23h5.71
						h2.23v2.23v1.42c0,3.76-1.34,6.97-4.01,9.65c-2.67,2.67-5.89,4.01-9.65,4.01c-3.81,0-7.02-1.34-9.65-4.01
						c-2.67-2.67-4.01-5.89-4.01-9.65v-34.29c0-3.78,1.33-7,4.01-9.65c2.65-2.69,5.86-4.04,9.65-4.04
						C381.55,157.25,384.76,158.6,387.46,161.3z"/>
					<path class="st0" d="M406.07,157.25v21.63l6.95-20.35l0.57-1.28h10.74c-4.56,9.86-6.45,16.88-10.96,28.4
						c4.36,13.16,6.84,21.67,11.17,33.23h-10.85c-1.49-4.75-4.12-14.25-7.48-25.53c0,5.91-0.14,19.62-0.14,25.53h-10.14v-61.63
						H406.07z"/>
				</g>
			</g>
		</g>
	</g>
	<g>
		<path class="st1" d="M209.93,267.31c-0.63-0.04-1.38-0.18-2.24-0.43c-0.86-0.24-1.8-0.65-2.81-1.23
			c-1.01-0.58-2.07-1.36-3.18-2.33c-1.11-0.98-2.21-2.22-3.32-3.74c-1.3-1.78-2.19-3.62-2.67-5.51c-0.48-1.9-0.54-3.78-0.17-5.66
			s1.18-3.7,2.41-5.48c1.23-1.78,2.92-3.44,5.05-5l1.63-1.19c2.13-1.55,4.23-2.66,6.28-3.32c2.06-0.66,4.02-0.9,5.88-0.73
			s3.61,0.76,5.24,1.75s3.08,2.36,4.35,4.1c1.3,1.79,2.21,3.5,2.71,5.13c0.5,1.63,0.67,3.18,0.5,4.64c-0.17,1.46-0.64,2.85-1.4,4.16
			c-0.76,1.31-1.76,2.53-2.99,3.65l-4.02-5.52c0.61-0.62,1.11-1.25,1.5-1.9c0.39-0.65,0.63-1.33,0.72-2.03
			c0.09-0.71,0.03-1.44-0.21-2.21c-0.23-0.77-0.65-1.57-1.27-2.42c-1.42-1.94-3.22-2.88-5.43-2.82s-4.75,1.14-7.64,3.25l-1.67,1.21
			c-2.89,2.1-4.67,4.24-5.35,6.41c-0.68,2.17-0.24,4.32,1.3,6.44c0.5,0.68,0.97,1.24,1.43,1.68s0.88,0.79,1.28,1.05
			c0.39,0.26,0.76,0.46,1.09,0.58c0.33,0.12,0.63,0.21,0.89,0.25l4.75-3.46l-3.76-5.16l4.18-3.04l7.9,10.84L209.93,267.31z"/>
		<path class="st1" d="M238.16,280.16l-9.83-9.22l-6.24,6.66l11.54,10.82l-3.86,4.12l-16.66-15.62l23.31-24.86l16.63,15.59
			l-3.89,4.15L237.64,261l-5.55,5.92l9.83,9.22L238.16,280.16z"/>
		<path class="st1" d="M268.5,298.81c-1.39,2.2-2.94,3.99-4.63,5.36c-1.7,1.37-3.47,2.33-5.31,2.86s-3.72,0.65-5.64,0.36
			c-1.92-0.3-3.78-1.02-5.58-2.16c-1.81-1.14-3.26-2.51-4.35-4.12c-1.09-1.6-1.8-3.36-2.12-5.26c-0.32-1.9-0.23-3.92,0.26-6.05
			s1.44-4.3,2.83-6.5l0.8-1.27c1.38-2.19,2.93-3.97,4.64-5.35c1.71-1.38,3.49-2.33,5.35-2.88c1.86-0.54,3.74-0.67,5.66-0.37
			c1.92,0.3,3.78,1.02,5.58,2.16s3.26,2.51,4.35,4.12c1.09,1.6,1.79,3.36,2.1,5.27c0.31,1.91,0.21,3.93-0.3,6.07
			c-0.51,2.13-1.45,4.29-2.84,6.48L268.5,298.81z M263.31,293.7c1.91-3.02,2.82-5.66,2.73-7.91c-0.09-2.25-1.14-4.01-3.14-5.28
			c-2-1.27-4.04-1.46-6.12-0.57c-2.07,0.89-4.06,2.84-5.97,5.86l-0.82,1.31c-0.95,1.5-1.65,2.92-2.09,4.25
			c-0.45,1.33-0.65,2.56-0.61,3.68c0.04,1.12,0.32,2.13,0.84,3.02c0.52,0.89,1.29,1.66,2.29,2.29c2,1.27,4.04,1.45,6.11,0.54
			c2.07-0.91,4.06-2.87,5.97-5.89L263.31,293.7z"/>
		<path class="st1" d="M284.53,309.33l-5.23-1.97l-4.4,11.67l-6.57-2.48l12.03-31.88l11.85,4.47c1.84,0.69,3.41,1.52,4.71,2.49
			c1.3,0.97,2.3,2.04,3.01,3.24s1.1,2.49,1.19,3.89c0.09,1.4-0.16,2.89-0.76,4.47c-0.44,1.17-0.97,2.17-1.58,2.99
			s-1.3,1.51-2.07,2.04c-0.77,0.54-1.61,0.94-2.51,1.22c-0.9,0.28-1.87,0.45-2.89,0.51l1.98,15.63l-0.12,0.31l-7.05-2.66
			L284.53,309.33z M281.3,302.03l5.3,2c0.86,0.32,1.66,0.5,2.39,0.52c0.73,0.02,1.4-0.1,1.98-0.35c0.59-0.25,1.1-0.63,1.54-1.12
			s0.79-1.1,1.06-1.81c0.57-1.5,0.59-2.85,0.06-4.03c-0.53-1.18-1.68-2.11-3.44-2.77l-5.28-1.99L281.3,302.03z"/>
		<path class="st1" d="M328.57,327.97c-0.48,0.41-1.11,0.84-1.89,1.27c-0.78,0.44-1.73,0.81-2.86,1.11c-1.12,0.3-2.42,0.5-3.9,0.59
			c-1.48,0.09-3.14-0.02-4.99-0.31c-2.17-0.35-4.1-1.02-5.78-2.03c-1.68-1-3.05-2.3-4.11-3.89s-1.77-3.45-2.15-5.58
			s-0.36-4.5,0.06-7.1l0.32-1.99c0.42-2.6,1.12-4.86,2.12-6.78c0.99-1.92,2.21-3.47,3.66-4.67c1.45-1.19,3.1-2.01,4.96-2.45
			c1.86-0.45,3.85-0.5,5.97-0.16c2.19,0.35,4.04,0.93,5.54,1.73c1.51,0.8,2.72,1.78,3.63,2.94s1.56,2.47,1.94,3.94
			c0.38,1.47,0.53,3.03,0.46,4.7l-6.75-1.08c0-0.87-0.1-1.67-0.28-2.4c-0.18-0.73-0.49-1.38-0.92-1.95c-0.43-0.57-1-1.04-1.7-1.42
			c-0.71-0.38-1.57-0.65-2.61-0.82c-2.37-0.38-4.32,0.23-5.84,1.83s-2.56,4.16-3.13,7.69l-0.33,2.03c-0.56,3.53-0.32,6.3,0.73,8.32
			c1.05,2.02,2.87,3.23,5.46,3.65c0.83,0.13,1.56,0.2,2.2,0.19c0.63-0.01,1.18-0.06,1.65-0.15c0.47-0.09,0.86-0.21,1.18-0.36
			c0.32-0.15,0.59-0.3,0.81-0.45l0.93-5.8l-6.31-1.01l0.82-5.11l13.24,2.12L328.57,327.97z"/>
		<path class="st1" d="M357.62,317.19l-13.47,0.38l0.26,9.12l15.81-0.45l0.16,5.64l-22.83,0.65l-0.97-34.06l22.79-0.65l0.16,5.68
			l-15.77,0.45l0.23,8.12l13.48-0.38L357.62,317.19z"/>
		<path class="st1" d="M387.92,297.71l-10.21,2.18l5.93,27.76l-6.87,1.47l-5.93-27.76l-10.07,2.15l-1.19-5.56l27.14-5.8
			L387.92,297.71z"/>
		<path class="st1" d="M420.28,297.13c1.03,2.39,1.63,4.68,1.81,6.85c0.17,2.18-0.04,4.18-0.64,6c-0.6,1.82-1.56,3.44-2.89,4.85
			c-1.33,1.41-2.97,2.54-4.94,3.39s-3.91,1.27-5.85,1.26c-1.94,0-3.78-0.41-5.53-1.22c-1.75-0.81-3.37-2.02-4.84-3.63
			c-1.48-1.61-2.73-3.62-3.76-6.01l-0.59-1.38c-1.02-2.38-1.62-4.66-1.79-6.85s0.05-4.2,0.65-6.04c0.6-1.84,1.56-3.46,2.89-4.88
			c1.33-1.41,2.97-2.54,4.94-3.39s3.91-1.27,5.85-1.26c1.94,0,3.78,0.42,5.53,1.25c1.75,0.83,3.36,2.05,4.83,3.68
			c1.47,1.62,2.72,3.63,3.75,6L420.28,297.13z M413.13,298.53c-1.41-3.28-3.08-5.52-4.99-6.72c-1.91-1.2-3.95-1.33-6.13-0.39
			c-2.18,0.94-3.49,2.51-3.93,4.73c-0.44,2.21,0.05,4.96,1.46,8.24l0.61,1.42c0.7,1.63,1.48,3.01,2.33,4.13
			c0.85,1.12,1.75,1.98,2.69,2.58c0.95,0.6,1.94,0.94,2.97,1.01c1.03,0.07,2.09-0.13,3.18-0.6c2.18-0.94,3.48-2.52,3.9-4.74
			c0.42-2.22-0.08-4.97-1.49-8.25L413.13,298.53z"/>
		<path class="st1" d="M451.05,283.46l-10.92-22.13l5.59-4.21l14.46,31.77l-5.65,4.25l-18.14-14.88l9.28,21.55l-5.65,4.25
			l-26.53-22.68l5.59-4.21l18.24,16.56l-10.07-22.71l4.75-3.58L451.05,283.46z"/>
		<path class="st1" d="M489.7,256.21l-4.45,5.43l-26-3.65l17.34,14.22l-4.45,5.43l-26.35-21.61l4.45-5.43l26.05,3.66l-17.37-14.25
			l4.44-5.41L489.7,256.21z"/>
	</g>
</g>
</svg>
