<svg id="Layer_1" data-name="Layer 1" xmlns="http://www.w3.org/2000/svg" viewBox="0 0 663.86 370.05"><defs><style>.cls-1{fill:#006937;}.cls-2{font-size:47.93px;fill:#515659;font-family:Roboto-Bold, Roboto;font-weight:700;}</style></defs><path class="cls-1" d="M457.9,132.67a113,113,0,0,0-9.38-31.27h19.35a130.67,130.67,0,0,1,8,31.27Zm18.54,5.41c.32,3.76.49,7.56.49,11.41a132.86,132.86,0,0,1-1.49,19.87h-18a115.25,115.25,0,0,0,1.73-19.87c0-3.85-.2-7.66-.57-11.41m-244-5.6a130.72,130.72,0,0,1,8.05-31.28H242a113.11,113.11,0,0,0-9.44,31.28Zm.37,36.68a133,133,0,0,1-1.46-19.67c0-3.91.18-7.78.51-11.61h17.87A114.6,114.6,0,0,0,233,169.16Zm19.1,5.4a114,114,0,0,0,222.29.2H474.5a131.75,131.75,0,0,1-258.64-.2ZM224.88,95.8A131.78,131.78,0,0,1,465.61,96H445.82a114,114,0,0,0-201.14-.19Z" transform="translate(-13.25 27.81)"/><path class="cls-1" d="M677.11,101.4H434.65a66.28,66.28,0,0,1,16,23.2H611.35A104.81,104.81,0,0,0,677.11,101.4Z" transform="translate(-13.25 27.81)"/><path class="cls-1" d="M434.65,198h85.7a104.76,104.76,0,0,0,65.76-23.21H450.67A66.32,66.32,0,0,1,434.65,198Z" transform="translate(-13.25 27.81)"/><path class="cls-1" d="M455.62,149.68a66.31,66.31,0,0,1-1.08,11.61H565.85a104.76,104.76,0,0,0,65.76-23.21H454.54A66.2,66.2,0,0,1,455.62,149.68Z" transform="translate(-13.25 27.81)"/><path class="cls-1" d="M13.25,101.2H255.71a66.32,66.32,0,0,0-16,23.21H79A104.78,104.78,0,0,1,13.25,101.2Z" transform="translate(-13.25 27.81)"/><path class="cls-1" d="M255.71,197.77H170a104.76,104.76,0,0,1-65.76-23.21H239.69A66.23,66.23,0,0,0,255.71,197.77Z" transform="translate(-13.25 27.81)"/><path class="cls-1" d="M234.74,149.49a67.26,67.26,0,0,0,1.08,11.6H124.51a104.78,104.78,0,0,1-65.76-23.21H235.82A67.29,67.29,0,0,0,234.74,149.49Z" transform="translate(-13.25 27.81)"/><path class="cls-1" d="M291.08,119.09l5.28-36.24h7.41l5.29,36.24,5-34.4.32-1.84h10.21q-5.13,29.87-10.21,59.79l-.32,1.84h-9.93c-1.51-10.62-2.66-21.61-4-32.37l-3.69,30.53-.32,1.84h-9.92Q281.07,115,276,85.48l-.46-2.63H285.8l.32,1.84Z" transform="translate(-13.25 27.81)"/><path class="cls-1" d="M336.4,82.85h2.19v61.63H328.45V82.85h7.95Z" transform="translate(-13.25 27.81)"/><path class="cls-1" d="M344.62,82.85h13.62c5.46,24.75,5.74,23.76,9.93,42,0-9.51-.36-32.5-.36-42H378v61.63H364c-5.78-24.25-6.24-25.6-9.26-40.6v40.6H344.62Z" transform="translate(-13.25 27.81)"/><path class="cls-1" d="M396.78,82.85a13.73,13.73,0,0,1,13.65,13.69v3.86h-9.82V96.54A3.85,3.85,0,0,0,396.78,93a3.53,3.53,0,0,0-3.51,3.51v34.29a3.55,3.55,0,0,0,3.51,3.51c1.84,0,4.18-1.61,4.18-3.51V120.55h-5.07v-9.44h14.54v19.72a13.77,13.77,0,0,1-13.65,13.65,12.94,12.94,0,0,1-9.64-4,13.1,13.1,0,0,1-4-9.64V96.54A13.77,13.77,0,0,1,396.78,82.85Z" transform="translate(-13.25 27.81)"/><path class="cls-1" d="M277.78,215.83c-7.43,0-13.15-6.12-13.15-13.65v-6.52h9.78v6.52a3.44,3.44,0,0,0,3.37,3.51c1.68,0,2.91-1.53,2.91-3.51V199c0-3.37-2.82-5.63-4.22-7.37-2.77-3.44-7.31-7.33-9-9.72a20.34,20.34,0,0,1-3.19-9.33l-.14-4.64a13.62,13.62,0,0,1,13.51-13.69c7.41,0,12.84,6.08,12.84,13.69v6.49h-9.79v-6.49c0-1.95-1.21-3.51-2.91-3.51a3.43,3.43,0,0,0-3.37,3.51v2.59a12,12,0,0,0,1.71,5c1.62,2.34,4,4.1,5.17,5.28,4,4.15,5.65,5.52,6.92,7.8a20.53,20.53,0,0,1,2.59,8.9l0,4.72C290.83,209.84,285.18,215.83,277.78,215.83Z" transform="translate(-13.25 27.81)"/><path class="cls-1" d="M303.42,154.2h2.2V180h7.3V154.2H323.1v61.63H312.92V190.09h-7.3v25.74H295.48V154.2h7.94Z" transform="translate(-13.25 27.81)"/><path class="cls-1" d="M339,206.29c-.63,3.18-1.27,6.35-1.88,9.54H326.64l10.61-61.63h13.29l10.61,61.7H350.72c-.61-3.19-1.25-6.43-1.88-9.61Zm4.93-39.07-3.44,29.36h6.91Z" transform="translate(-13.25 27.81)"/><path class="cls-1" d="M387.46,158.25a13.05,13.05,0,0,1,4,9.64v3.65H381.29v-3.65a3.39,3.39,0,0,0-1-2.48,3.26,3.26,0,0,0-2.45-1,3.52,3.52,0,0,0-3.51,3.51v34.29a3.35,3.35,0,0,0,1,2.48,3.43,3.43,0,0,0,2.48,1,3.33,3.33,0,0,0,2.45-1,3.39,3.39,0,0,0,1-2.48v-3.65h10.17v3.65a13.67,13.67,0,0,1-13.65,13.65,12.94,12.94,0,0,1-9.64-4,13.1,13.1,0,0,1-4-9.64V167.89a13.61,13.61,0,0,1,23.3-9.64Z" transform="translate(-13.25 27.81)"/><path class="cls-1" d="M406.07,154.2v21.63L413,155.48l.57-1.28h10.74c-4.56,9.86-6.45,16.88-10.95,28.41,4.36,13.15,6.84,21.66,11.16,33.22H413.69c-1.48-4.75-4.12-14.25-7.48-25.53,0,5.91-.14,19.62-.14,25.53H395.93V154.2Z" transform="translate(-13.25 27.81)"/><text class="cls-2" transform="translate(202.46 305.66) rotate(38.32)">M</text><text class="cls-2" transform="translate(240.43 334.11) rotate(24.68)">A</text><text class="cls-2" transform="translate(273.83 348.9) rotate(13.17)">R</text><text class="cls-2" transform="translate(307.73 356.39) rotate(2.09)">K</text><text class="cls-2" transform="matrix(0.99, -0.16, 0.16, 0.99, 342.45, 357.41)">H</text><text class="cls-2" transform="translate(380.66 350.41) rotate(-21.74)">A</text><text class="cls-2" transform="matrix(0.82, -0.58, 0.58, 0.82, 415.37, 336.52)">M</text></svg>