<?xml version="1.0" encoding="utf-8"?>
<!-- Generator: Adobe Illustrator 24.2.1, SVG Export Plug-In . SVG Version: 6.00 Build 0)  -->
<svg version="1.1" id="Layer_1" xmlns="http://www.w3.org/2000/svg" xmlns:xlink="http://www.w3.org/1999/xlink" x="0px" y="0px"
	 viewBox="0 0 686.75 343.37" style="enable-background:new 0 0 686.75 343.37;" xml:space="preserve">
<style type="text/css">
	.st0{fill:#006937;}
	.st1{fill:#515659;}
</style>
<g>
	<g>
		<path class="st0" d="M457.9,135.73c-1.63-11.02-4.84-21.52-9.38-31.27l19.35,0c3.88,9.9,6.6,20.38,7.99,31.28H457.9z
			 M476.44,141.13c0.32,3.76,0.49,7.56,0.49,11.41c0,6.75-0.51,13.39-1.49,19.87l-18.03,0c1.13-6.45,1.73-13.09,1.73-19.87
			c0-3.85-0.19-7.65-0.56-11.41 M214.56,135.53c1.4-10.9,4.14-21.38,8.04-31.28l19.37,0c-4.57,9.75-7.8,20.26-9.45,31.28H214.56z
			 M214.93,172.21c-0.96-6.42-1.46-12.99-1.46-19.67c0-3.91,0.17-7.78,0.5-11.6h17.87c-0.39,3.82-0.58,7.69-0.58,11.6
			c0,6.71,0.58,13.28,1.69,19.67L214.93,172.21z M234.03,177.62c11.42,50.86,56.86,88.86,111.17,88.86
			c54.24,0,99.63-37.9,111.12-88.66l18.18,0c-11.79,60.66-65.2,106.45-129.3,106.45c-64.17,0-117.63-45.89-129.34-106.65
			L234.03,177.62z M224.88,98.85c20.55-45.99,66.69-78.04,120.32-78.04c53.7,0,99.9,32.14,120.41,78.23l-19.79,0
			C426.67,63.08,388.79,38.6,345.2,38.6c-43.51,0-81.33,24.39-100.52,60.25L224.88,98.85z"/>
		<g>
			<path class="st0" d="M677.11,104.45H448.52h-13.87c6.88,6.46,12.39,14.33,16.02,23.21h160.68
				C635.28,127.66,658.48,119.47,677.11,104.45z"/>
			<path class="st0" d="M434.65,201.02h85.7c23.93,0,47.13-8.19,65.76-23.21H450.67C447.04,186.69,441.53,194.56,434.65,201.02z"/>
			<path class="st0" d="M455.62,152.74c0,3.97-0.41,7.83-1.08,11.6h111.31c23.93,0,47.13-8.19,65.76-23.21H454.54
				C455.21,144.91,455.62,148.77,455.62,152.74z"/>
		</g>
		<g>
			<path class="st0" d="M13.25,104.25h242.46c-6.88,6.46-12.39,14.33-16.02,23.21H79.01C55.09,127.46,31.88,119.27,13.25,104.25z"/>
			<path class="st0" d="M255.71,200.82h-85.7c-23.93,0-47.13-8.19-65.76-23.21h135.44C243.32,186.49,248.83,194.36,255.71,200.82z"
				/>
			<path class="st0" d="M234.74,152.54c0,3.97,0.41,7.83,1.08,11.6H124.51c-23.93,0-47.13-8.19-65.76-23.21h177.07
				C235.16,144.71,234.74,148.57,234.74,152.54z"/>
		</g>
		<g>
			<path class="st0" d="M291.08,122.14l5.28-36.24h7.41l5.28,36.24l4.96-34.4l0.32-1.84h10.21c-3.43,19.91-6.8,39.86-10.21,59.79
				l-0.32,1.84h-9.93c-1.52-10.62-2.67-21.61-4.04-32.38l-3.69,30.53l-0.32,1.84h-9.93c-3.36-19.66-6.71-39.34-10.07-59.01
				l-0.46-2.62h10.21l0.32,1.84L291.08,122.14z"/>
			<path class="st0" d="M336.4,85.9h2.2v2.23v57.16v2.23h-2.2h-5.74h-2.2v-2.23V88.14V85.9h2.2H336.4z"/>
			<path class="st0" d="M344.62,85.9h13.62c5.46,24.75,5.74,23.76,9.93,42.02c0-9.51-0.36-32.51-0.36-42.02h10.18v61.63h-13.97
				c-5.78-24.26-6.24-25.6-9.26-40.6v40.6h-10.14V85.9z"/>
			<path class="st0" d="M396.78,85.9c3.74,0,6.95,1.35,9.65,4.04c2.67,2.67,4.01,5.89,4.01,9.65v3.87h-9.82v-3.87
				c0-1.9-1.94-3.51-3.83-3.51c-1.92,0-3.51,1.59-3.51,3.51v34.29c0,1.92,1.61,3.51,3.51,3.51c1.84,0,4.18-1.61,4.18-3.51V123.6
				h-5.07v-9.43h14.54v19.72c0,7.43-6.2,13.65-13.65,13.65c-3.81,0-7.02-1.34-9.65-4.01c-2.67-2.67-4.01-5.89-4.01-9.65V99.59
				C383.13,92.12,389.32,85.9,396.78,85.9z"/>
		</g>
		<g>
			<g>
				<g>
					<path class="st0" d="M277.78,218.89c-7.44,0-13.16-6.12-13.16-13.65v-6.52h9.79v6.52c0,1.95,1.51,3.51,3.37,3.51
						c1.68,0,2.91-1.53,2.91-3.51v-3.23c0-3.37-2.82-5.63-4.22-7.38c-2.77-3.44-7.31-7.33-9.01-9.72c-2.02-2.84-3.1-7.16-3.19-9.33
						l-0.14-4.65c0-7.56,6.07-13.69,13.51-13.69c7.41,0,12.84,6.08,12.84,13.69v6.49h-9.79v-6.49c0-1.95-1.21-3.51-2.91-3.51
						c-1.9,0-3.37,1.59-3.37,3.51v2.59c0.02,1.06,0.74,3.62,1.7,5c1.62,2.34,4.04,4.1,5.18,5.28c4.01,4.15,5.64,5.52,6.91,7.8
						c1.56,2.8,2.59,6.42,2.59,8.9l0.04,4.72C290.83,212.89,285.18,218.89,277.78,218.89z"/>
					<path class="st0" d="M303.42,157.25h2.2v2.23V183h7.3v-23.51v-2.23h2.23h5.71h2.23v2.23v57.16v2.23h-2.23h-5.71h-2.23v-2.23
						v-23.51h-7.3v23.51v2.23h-2.2h-5.74h-2.2v-2.23v-57.16v-2.23h2.2H303.42z"/>
					<path class="st0" d="M338.95,209.35c-0.63,3.18-1.27,6.34-1.88,9.54h-10.43l10.6-61.63h13.3l10.6,61.7h-10.43
						c-0.61-3.19-1.25-6.43-1.88-9.61H338.95z M343.88,170.27l-3.44,29.36h6.92L343.88,170.27z"/>
					<path class="st0" d="M387.46,161.3c2.67,2.65,4.01,5.86,4.01,9.65v1.42v2.23h-2.23h-5.71h-2.23v-2.23v-1.42
						c0-0.97-0.34-1.8-1.03-2.48c-0.66-0.69-1.48-1.03-2.45-1.03s-1.8,0.34-2.48,1.03s-1.03,1.51-1.03,2.48v34.29
						c0,0.97,0.34,1.8,1.03,2.48c0.71,0.69,1.54,1.03,2.48,1.03s1.76-0.34,2.45-1.03s1.03-1.51,1.03-2.48v-1.42v-2.23h2.23h5.71
						h2.23v2.23v1.42c0,3.76-1.34,6.97-4.01,9.65c-2.67,2.67-5.89,4.01-9.65,4.01c-3.81,0-7.02-1.34-9.65-4.01
						c-2.67-2.67-4.01-5.89-4.01-9.65v-34.29c0-3.78,1.33-7,4.01-9.65c2.65-2.69,5.86-4.04,9.65-4.04
						C381.55,157.25,384.76,158.6,387.46,161.3z"/>
					<path class="st0" d="M406.07,157.25v21.63l6.95-20.35l0.57-1.28h10.74c-4.56,9.86-6.45,16.88-10.96,28.4
						c4.36,13.16,6.84,21.67,11.17,33.23h-10.85c-1.49-4.75-4.12-14.25-7.48-25.53c0,5.91-0.14,19.62-0.14,25.53h-10.14v-61.63
						H406.07z"/>
				</g>
			</g>
		</g>
	</g>
	<g>
		<path class="st1" d="M224.48,237.14l-13.82,22.28l24.73-8.65l5.76,7.2l-26.6,21.3l-4.4-5.5l7.27-5.82l12.99-9.5l-25.57,8.69
			l-3.01-3.76l14.07-23.02l-12.09,10.58l-7.27,5.82l-4.39-5.48l26.6-21.3L224.48,237.14z"/>
		<path class="st1" d="M227.88,290.46l-5.28-4.62l22.45-25.64l5.28,4.63L227.88,290.46z"/>
		<path class="st1" d="M254.7,298.85c0.33-0.5,0.55-0.99,0.67-1.48c0.12-0.49,0.08-1.04-0.1-1.65c-0.19-0.61-0.54-1.31-1.04-2.12
			c-0.51-0.8-1.22-1.76-2.12-2.88c-1.03-1.27-1.95-2.55-2.76-3.83c-0.81-1.28-1.42-2.56-1.81-3.84c-0.4-1.28-0.55-2.55-0.44-3.8
			c0.11-1.26,0.57-2.5,1.38-3.74c0.78-1.19,1.75-2.1,2.91-2.75c1.16-0.65,2.44-1.01,3.82-1.08c1.39-0.08,2.85,0.11,4.39,0.57
			c1.54,0.46,3.07,1.2,4.61,2.21c1.58,1.04,2.87,2.2,3.87,3.48c1,1.29,1.7,2.62,2.1,4c0.4,1.38,0.49,2.77,0.28,4.17
			s-0.74,2.74-1.58,4.02l-5.87-3.86c0.39-0.6,0.66-1.22,0.81-1.85s0.14-1.26-0.01-1.88c-0.15-0.62-0.45-1.23-0.91-1.82
			c-0.45-0.59-1.08-1.14-1.87-1.67c-0.77-0.51-1.49-0.86-2.17-1.06c-0.68-0.2-1.3-0.28-1.87-0.22c-0.57,0.06-1.08,0.22-1.54,0.5
			c-0.46,0.28-0.83,0.65-1.13,1.1c-0.62,0.94-0.66,2.04-0.11,3.3c0.54,1.26,1.56,2.78,3.05,4.54c1.23,1.5,2.25,2.93,3.04,4.3
			c0.79,1.36,1.34,2.67,1.64,3.94s0.35,2.49,0.14,3.68c-0.21,1.19-0.69,2.37-1.47,3.55c-0.82,1.25-1.8,2.2-2.93,2.86
			c-1.13,0.66-2.37,1.02-3.71,1.1c-1.34,0.08-2.77-0.12-4.27-0.6c-1.51-0.48-3.04-1.23-4.61-2.26c-0.94-0.62-1.82-1.32-2.65-2.1
			c-0.83-0.78-1.56-1.62-2.19-2.52c-0.63-0.9-1.14-1.85-1.54-2.83c-0.4-0.99-0.64-2.01-0.72-3.05s0.01-2.11,0.28-3.19
			s0.76-2.16,1.46-3.23l5.88,3.87c-0.57,0.86-0.91,1.68-1.03,2.46c-0.12,0.78-0.06,1.52,0.19,2.21c0.24,0.69,0.66,1.35,1.24,1.98
			c0.58,0.62,1.29,1.21,2.14,1.77c0.76,0.5,1.47,0.85,2.14,1.05s1.28,0.29,1.83,0.24c0.55-0.05,1.05-0.21,1.49-0.49
			C254.04,299.68,254.4,299.31,254.7,298.85z"/>
		<path class="st1" d="M283.19,312.71c0.23-0.55,0.35-1.07,0.38-1.58c0.02-0.5-0.11-1.04-0.41-1.6s-0.77-1.19-1.42-1.88
			c-0.65-0.69-1.52-1.5-2.62-2.44c-1.25-1.06-2.39-2.14-3.42-3.25c-1.04-1.11-1.87-2.25-2.5-3.44c-0.63-1.18-1.01-2.4-1.14-3.66
			c-0.13-1.25,0.09-2.56,0.66-3.93c0.55-1.31,1.33-2.39,2.35-3.24c1.02-0.85,2.21-1.44,3.55-1.78c1.35-0.33,2.82-0.42,4.42-0.25
			s3.24,0.6,4.94,1.31c1.74,0.73,3.23,1.63,4.45,2.7s2.16,2.26,2.81,3.54s1,2.63,1.05,4.05c0.05,1.42-0.21,2.83-0.8,4.24l-6.48-2.7
			c0.28-0.66,0.43-1.32,0.45-1.97c0.02-0.65-0.09-1.26-0.36-1.85c-0.26-0.58-0.67-1.12-1.23-1.62c-0.56-0.49-1.27-0.92-2.15-1.29
			c-0.85-0.35-1.63-0.57-2.33-0.64c-0.7-0.07-1.33-0.03-1.88,0.13c-0.55,0.16-1.02,0.42-1.41,0.78c-0.4,0.36-0.7,0.79-0.91,1.29
			c-0.43,1.04-0.26,2.13,0.5,3.26c0.77,1.14,2.05,2.44,3.84,3.89c1.49,1.25,2.75,2.47,3.79,3.66c1.03,1.19,1.82,2.38,2.35,3.56
			c0.53,1.18,0.8,2.38,0.83,3.59c0.02,1.21-0.24,2.46-0.78,3.76c-0.58,1.38-1.36,2.5-2.35,3.36s-2.14,1.45-3.44,1.78
			s-2.74,0.4-4.31,0.21s-3.22-0.64-4.95-1.36c-1.04-0.43-2.04-0.95-3-1.57c-0.96-0.61-1.84-1.3-2.62-2.07
			c-0.79-0.77-1.47-1.6-2.04-2.5s-1-1.85-1.28-2.87c-0.28-1.01-0.39-2.08-0.32-3.19c0.07-1.11,0.35-2.26,0.84-3.44l6.5,2.71
			c-0.4,0.95-0.58,1.82-0.55,2.61c0.03,0.79,0.22,1.5,0.59,2.14c0.37,0.64,0.9,1.21,1.58,1.71c0.69,0.5,1.5,0.95,2.43,1.34
			c0.84,0.35,1.6,0.56,2.29,0.64c0.69,0.08,1.31,0.04,1.84-0.11c0.54-0.15,0.99-0.4,1.37-0.76
			C282.68,313.65,282.98,313.22,283.19,312.71z"/>
		<path class="st1" d="M300.95,327.42l-6.79-1.77l8.61-32.97l6.79,1.77L300.95,327.42z"/>
		<path class="st1" d="M328.7,322.9c0.07-0.59,0.05-1.13-0.07-1.62c-0.12-0.49-0.39-0.97-0.83-1.43c-0.44-0.46-1.07-0.93-1.88-1.42
			c-0.81-0.49-1.88-1.03-3.19-1.62c-1.49-0.68-2.89-1.41-4.18-2.19s-2.41-1.65-3.34-2.62c-0.93-0.96-1.63-2.03-2.1-3.2
			c-0.47-1.17-0.61-2.49-0.44-3.96c0.17-1.41,0.62-2.66,1.37-3.76c0.75-1.1,1.73-1.99,2.93-2.68c1.2-0.69,2.6-1.18,4.18-1.45
			s3.28-0.31,5.11-0.09c1.88,0.22,3.55,0.68,5.02,1.38c1.47,0.7,2.7,1.58,3.67,2.64c0.98,1.06,1.68,2.26,2.12,3.61
			c0.44,1.35,0.57,2.78,0.39,4.3l-6.97-0.82c0.08-0.71,0.05-1.38-0.1-2.01c-0.15-0.63-0.44-1.19-0.85-1.68
			c-0.41-0.49-0.96-0.89-1.62-1.22s-1.48-0.54-2.42-0.65c-0.91-0.11-1.72-0.1-2.42,0.02s-1.29,0.33-1.77,0.64s-0.87,0.68-1.15,1.14
			c-0.28,0.45-0.45,0.95-0.52,1.49c-0.13,1.12,0.33,2.12,1.38,3c1.05,0.89,2.64,1.78,4.76,2.69c1.78,0.79,3.32,1.62,4.65,2.48
			c1.32,0.86,2.4,1.79,3.23,2.78s1.43,2.07,1.78,3.23c0.35,1.16,0.44,2.43,0.28,3.83c-0.18,1.49-0.62,2.78-1.34,3.87
			c-0.72,1.09-1.66,1.98-2.82,2.65c-1.16,0.67-2.52,1.13-4.09,1.38c-1.56,0.25-3.27,0.26-5.13,0.04c-1.12-0.13-2.22-0.36-3.31-0.68
			c-1.09-0.32-2.12-0.75-3.09-1.27c-0.97-0.52-1.85-1.14-2.65-1.84c-0.8-0.71-1.47-1.51-2.01-2.41c-0.55-0.9-0.94-1.89-1.18-2.98
			c-0.24-1.09-0.29-2.27-0.14-3.54l7,0.82c-0.12,1.02-0.06,1.91,0.18,2.66c0.24,0.75,0.63,1.38,1.16,1.89
			c0.53,0.51,1.19,0.91,1.99,1.21c0.8,0.3,1.7,0.51,2.71,0.62c0.9,0.11,1.69,0.1,2.38-0.01c0.69-0.12,1.27-0.32,1.74-0.61
			c0.47-0.29,0.84-0.66,1.11-1.11C328.48,323.94,328.64,323.44,328.7,322.9z"/>
		<path class="st1" d="M360.34,322.58c-0.04-0.59-0.16-1.12-0.36-1.58c-0.2-0.46-0.56-0.88-1.08-1.25s-1.22-0.72-2.11-1.05
			s-2.04-0.67-3.43-1.01c-1.59-0.39-3.1-0.85-4.52-1.38c-1.42-0.53-2.68-1.18-3.77-1.96c-1.09-0.78-1.98-1.7-2.65-2.76
			c-0.67-1.07-1.06-2.34-1.16-3.82c-0.1-1.42,0.12-2.73,0.66-3.95s1.33-2.28,2.39-3.18c1.06-0.9,2.34-1.63,3.84-2.19
			s3.17-0.91,5.01-1.03c1.88-0.13,3.61,0.02,5.19,0.44c1.58,0.42,2.94,1.06,4.09,1.92s2.07,1.91,2.75,3.16
			c0.68,1.25,1.07,2.63,1.17,4.16l-7,0.47c-0.05-0.72-0.21-1.37-0.47-1.96c-0.27-0.59-0.65-1.09-1.14-1.49s-1.1-0.7-1.82-0.9
			c-0.72-0.19-1.55-0.26-2.5-0.19c-0.92,0.06-1.71,0.22-2.37,0.46c-0.66,0.25-1.21,0.57-1.62,0.95c-0.42,0.39-0.73,0.83-0.92,1.33
			s-0.27,1.02-0.23,1.56c0.08,1.12,0.71,2.02,1.91,2.7c1.2,0.68,2.92,1.27,5.17,1.77c1.89,0.45,3.56,0.98,5.02,1.58
			c1.46,0.61,2.68,1.32,3.69,2.14s1.78,1.77,2.34,2.84c0.56,1.07,0.88,2.31,0.98,3.71c0.1,1.49-0.1,2.85-0.61,4.05
			c-0.51,1.21-1.27,2.25-2.29,3.12c-1.02,0.87-2.27,1.58-3.76,2.11c-1.49,0.53-3.17,0.86-5.04,0.98c-1.12,0.08-2.25,0.05-3.38-0.07
			c-1.13-0.12-2.22-0.35-3.27-0.68c-1.05-0.34-2.03-0.78-2.94-1.33c-0.91-0.55-1.72-1.21-2.42-2c-0.7-0.78-1.27-1.69-1.71-2.71
			c-0.44-1.03-0.7-2.18-0.78-3.45l7.03-0.47c0.07,1.03,0.29,1.89,0.67,2.58c0.38,0.69,0.87,1.24,1.48,1.65
			c0.61,0.4,1.34,0.68,2.18,0.83s1.76,0.19,2.78,0.12c0.9-0.06,1.68-0.21,2.34-0.45c0.66-0.24,1.19-0.54,1.6-0.92
			c0.41-0.37,0.71-0.8,0.89-1.29C360.31,323.64,360.38,323.13,360.34,322.58z"/>
		<path class="st1" d="M393.53,317.78l-11.89,3.21l-0.43,7.39l-7.21,1.94l3.37-36.2l6.28-1.69L404.85,322l-7.21,1.94L393.53,317.78z
			 M382,315l8.22-2.22l-7.46-11.2L382,315z"/>
		<path class="st1" d="M419.13,277.15l10.08,20.1c0.88,1.76,1.37,3.46,1.46,5.1c0.09,1.64-0.15,3.17-0.73,4.6
			c-0.58,1.42-1.46,2.72-2.66,3.9c-1.2,1.18-2.64,2.19-4.33,3.04c-1.7,0.85-3.38,1.41-5.04,1.67c-1.66,0.26-3.23,0.19-4.72-0.2
			c-1.49-0.39-2.86-1.11-4.11-2.17c-1.25-1.05-2.32-2.46-3.2-4.22l-10.08-20.1l6.28-3.15l10.08,20.1c1,1.99,2.21,3.21,3.62,3.64
			c1.41,0.43,2.96,0.23,4.65-0.62c1.7-0.85,2.79-1.97,3.28-3.36c0.48-1.39,0.23-3.08-0.78-5.07l-10.08-20.1L419.13,277.15z"/>
		<path class="st1" d="M461.42,282.12c-0.02,0.63-0.13,1.38-0.34,2.25c-0.21,0.87-0.58,1.82-1.12,2.85
			c-0.54,1.03-1.27,2.12-2.21,3.26s-2.14,2.3-3.61,3.46c-1.73,1.36-3.53,2.32-5.4,2.88c-1.88,0.56-3.76,0.69-5.64,0.39
			s-3.74-1.03-5.57-2.2c-1.82-1.16-3.55-2.78-5.19-4.85l-1.25-1.58c-1.63-2.07-2.82-4.12-3.56-6.15c-0.74-2.03-1.06-3.98-0.95-5.85
			c0.1-1.87,0.62-3.64,1.55-5.31c0.93-1.67,2.24-3.17,3.93-4.5c1.74-1.37,3.41-2.34,5.02-2.91c1.61-0.57,3.15-0.79,4.62-0.68
			s2.87,0.52,4.21,1.24s2.59,1.66,3.76,2.84l-5.36,4.24c-0.64-0.59-1.29-1.06-1.96-1.42c-0.66-0.36-1.35-0.58-2.06-0.64
			s-1.44,0.03-2.2,0.29c-0.76,0.26-1.55,0.72-2.37,1.36c-1.89,1.49-2.75,3.33-2.61,5.53s1.33,4.7,3.54,7.51l1.28,1.62
			c2.21,2.8,4.42,4.5,6.62,5.09c2.2,0.59,4.32,0.07,6.38-1.55c0.66-0.52,1.2-1.02,1.62-1.49c0.42-0.47,0.76-0.91,1-1.31
			c0.25-0.4,0.43-0.77,0.54-1.11s0.18-0.64,0.21-0.9l-3.64-4.61l-5.01,3.96l-3.21-4.06l10.53-8.31L461.42,282.12z"/>
		<path class="st1" d="M478.23,259.21l-7.91,9.43l3.88,6.3l-4.8,5.72l-17.96-31.62l4.18-4.98l34.3,12.12l-4.8,5.72L478.23,259.21z
			 M467.18,263.53l5.47-6.53l-12.53-4.92L467.18,263.53z"/>
	</g>
</g>
</svg>
