<?xml version="1.0" encoding="utf-8"?>
<!-- Generator: Adobe Illustrator 24.2.1, SVG Export Plug-In . SVG Version: 6.00 Build 0)  -->
<svg version="1.1" id="Layer_1" xmlns="http://www.w3.org/2000/svg" xmlns:xlink="http://www.w3.org/1999/xlink" x="0px" y="0px"
	 viewBox="0 0 686.75 343.37" style="enable-background:new 0 0 686.75 343.37;" xml:space="preserve">
<style type="text/css">
	.st0{fill:#006937;}
	.st1{fill:#515659;}
</style>
<g>
	<g>
		<path class="st0" d="M457.9,135.73c-1.63-11.02-4.84-21.52-9.38-31.27l19.35,0c3.88,9.9,6.6,20.38,7.99,31.28H457.9z
			 M476.44,141.13c0.32,3.76,0.49,7.56,0.49,11.41c0,6.75-0.51,13.39-1.49,19.87l-18.03,0c1.13-6.45,1.73-13.09,1.73-19.87
			c0-3.85-0.19-7.65-0.56-11.41 M214.56,135.53c1.4-10.9,4.14-21.38,8.04-31.28l19.37,0c-4.57,9.75-7.8,20.26-9.45,31.28H214.56z
			 M214.93,172.21c-0.96-6.42-1.46-12.99-1.46-19.67c0-3.91,0.17-7.78,0.5-11.6h17.87c-0.39,3.82-0.58,7.69-0.58,11.6
			c0,6.71,0.58,13.28,1.69,19.67L214.93,172.21z M234.03,177.62c11.42,50.86,56.86,88.86,111.17,88.86
			c54.24,0,99.63-37.9,111.12-88.66l18.18,0c-11.79,60.66-65.2,106.45-129.3,106.45c-64.17,0-117.63-45.89-129.34-106.65
			L234.03,177.62z M224.88,98.85c20.55-45.99,66.69-78.04,120.32-78.04c53.7,0,99.9,32.14,120.41,78.23l-19.79,0
			C426.67,63.08,388.79,38.6,345.2,38.6c-43.51,0-81.33,24.39-100.52,60.25L224.88,98.85z"/>
		<g>
			<path class="st0" d="M677.11,104.45H448.52h-13.87c6.88,6.46,12.39,14.33,16.02,23.21h160.68
				C635.28,127.66,658.48,119.47,677.11,104.45z"/>
			<path class="st0" d="M434.65,201.02h85.7c23.93,0,47.13-8.19,65.76-23.21H450.67C447.04,186.69,441.53,194.56,434.65,201.02z"/>
			<path class="st0" d="M455.62,152.74c0,3.97-0.41,7.83-1.08,11.6h111.31c23.93,0,47.13-8.19,65.76-23.21H454.54
				C455.21,144.91,455.62,148.77,455.62,152.74z"/>
		</g>
		<g>
			<path class="st0" d="M13.25,104.25h242.46c-6.88,6.46-12.39,14.33-16.02,23.21H79.01C55.09,127.46,31.88,119.27,13.25,104.25z"/>
			<path class="st0" d="M255.71,200.82h-85.7c-23.93,0-47.13-8.19-65.76-23.21h135.44C243.32,186.49,248.83,194.36,255.71,200.82z"
				/>
			<path class="st0" d="M234.74,152.54c0,3.97,0.41,7.83,1.08,11.6H124.51c-23.93,0-47.13-8.19-65.76-23.21h177.07
				C235.16,144.71,234.74,148.57,234.74,152.54z"/>
		</g>
		<g>
			<path class="st0" d="M291.08,122.14l5.28-36.24h7.41l5.28,36.24l4.96-34.4l0.32-1.84h10.21c-3.43,19.91-6.8,39.86-10.21,59.79
				l-0.32,1.84h-9.93c-1.52-10.62-2.67-21.61-4.04-32.38l-3.69,30.53l-0.32,1.84h-9.93c-3.36-19.66-6.71-39.34-10.07-59.01
				l-0.46-2.62h10.21l0.32,1.84L291.08,122.14z"/>
			<path class="st0" d="M336.4,85.9h2.2v2.23v57.16v2.23h-2.2h-5.74h-2.2v-2.23V88.14V85.9h2.2H336.4z"/>
			<path class="st0" d="M344.62,85.9h13.62c5.46,24.75,5.74,23.76,9.93,42.02c0-9.51-0.36-32.51-0.36-42.02h10.18v61.63h-13.97
				c-5.78-24.26-6.24-25.6-9.26-40.6v40.6h-10.14V85.9z"/>
			<path class="st0" d="M396.78,85.9c3.74,0,6.95,1.35,9.65,4.04c2.67,2.67,4.01,5.89,4.01,9.65v3.87h-9.82v-3.87
				c0-1.9-1.94-3.51-3.83-3.51c-1.92,0-3.51,1.59-3.51,3.51v34.29c0,1.92,1.61,3.51,3.51,3.51c1.84,0,4.18-1.61,4.18-3.51V123.6
				h-5.07v-9.43h14.54v19.72c0,7.43-6.2,13.65-13.65,13.65c-3.81,0-7.02-1.34-9.65-4.01c-2.67-2.67-4.01-5.89-4.01-9.65V99.59
				C383.13,92.12,389.32,85.9,396.78,85.9z"/>
		</g>
		<g>
			<g>
				<g>
					<path class="st0" d="M277.78,218.89c-7.44,0-13.16-6.12-13.16-13.65v-6.52h9.79v6.52c0,1.95,1.51,3.51,3.37,3.51
						c1.68,0,2.91-1.53,2.91-3.51v-3.23c0-3.37-2.82-5.63-4.22-7.38c-2.77-3.44-7.31-7.33-9.01-9.72c-2.02-2.84-3.1-7.16-3.19-9.33
						l-0.14-4.65c0-7.56,6.07-13.69,13.51-13.69c7.41,0,12.84,6.08,12.84,13.69v6.49h-9.79v-6.49c0-1.95-1.21-3.51-2.91-3.51
						c-1.9,0-3.37,1.59-3.37,3.51v2.59c0.02,1.06,0.74,3.62,1.7,5c1.62,2.34,4.04,4.1,5.18,5.28c4.01,4.15,5.64,5.52,6.91,7.8
						c1.56,2.8,2.59,6.42,2.59,8.9l0.04,4.72C290.83,212.89,285.18,218.89,277.78,218.89z"/>
					<path class="st0" d="M303.42,157.25h2.2v2.23V183h7.3v-23.51v-2.23h2.23h5.71h2.23v2.23v57.16v2.23h-2.23h-5.71h-2.23v-2.23
						v-23.51h-7.3v23.51v2.23h-2.2h-5.74h-2.2v-2.23v-57.16v-2.23h2.2H303.42z"/>
					<path class="st0" d="M338.95,209.35c-0.63,3.18-1.27,6.34-1.88,9.54h-10.43l10.6-61.63h13.3l10.6,61.7h-10.43
						c-0.61-3.19-1.25-6.43-1.88-9.61H338.95z M343.88,170.27l-3.44,29.36h6.92L343.88,170.27z"/>
					<path class="st0" d="M387.46,161.3c2.67,2.65,4.01,5.86,4.01,9.65v1.42v2.23h-2.23h-5.71h-2.23v-2.23v-1.42
						c0-0.97-0.34-1.8-1.03-2.48c-0.66-0.69-1.48-1.03-2.45-1.03s-1.8,0.34-2.48,1.03s-1.03,1.51-1.03,2.48v34.29
						c0,0.97,0.34,1.8,1.03,2.48c0.71,0.69,1.54,1.03,2.48,1.03s1.76-0.34,2.45-1.03s1.03-1.51,1.03-2.48v-1.42v-2.23h2.23h5.71
						h2.23v2.23v1.42c0,3.76-1.34,6.97-4.01,9.65c-2.67,2.67-5.89,4.01-9.65,4.01c-3.81,0-7.02-1.34-9.65-4.01
						c-2.67-2.67-4.01-5.89-4.01-9.65v-34.29c0-3.78,1.33-7,4.01-9.65c2.65-2.69,5.86-4.04,9.65-4.04
						C381.55,157.25,384.76,158.6,387.46,161.3z"/>
					<path class="st0" d="M406.07,157.25v21.63l6.95-20.35l0.57-1.28h10.74c-4.56,9.86-6.45,16.88-10.96,28.4
						c4.36,13.16,6.84,21.67,11.17,33.23h-10.85c-1.49-4.75-4.12-14.25-7.48-25.53c0,5.91-0.14,19.62-0.14,25.53h-10.14v-61.63
						H406.07z"/>
				</g>
			</g>
		</g>
	</g>
	<g>
		<path class="st1" d="M249.42,272.18l-7.56-7.19l-19.56,20.58l-5.09-4.84l19.56-20.58l-7.46-7.09l3.92-4.12l20.12,19.12
			L249.42,272.18z"/>
		<path class="st1" d="M259.89,312.54l-5.95-3.73l7.75-12.38l-11.6-7.27l-7.75,12.38l-5.95-3.73l18.09-28.88l5.95,3.73l-7.33,11.7
			l11.6,7.27l7.33-11.7l5.95,3.73L259.89,312.54z"/>
		<path class="st1" d="M301.36,311.38c-0.88,2.45-2.01,4.53-3.37,6.24c-1.36,1.71-2.88,3.02-4.57,3.94
			c-1.68,0.92-3.49,1.44-5.43,1.56c-1.94,0.12-3.91-0.18-5.92-0.9c-2.01-0.73-3.72-1.75-5.13-3.08s-2.48-2.89-3.2-4.68
			s-1.07-3.77-1.05-5.96c0.03-2.19,0.48-4.51,1.37-6.96l0.51-1.41c0.88-2.44,2-4.51,3.38-6.22c1.37-1.71,2.91-3.03,4.6-3.96
			c1.7-0.93,3.51-1.46,5.45-1.58c1.94-0.12,3.91,0.18,5.92,0.9s3.72,1.75,5.13,3.08s2.47,2.89,3.18,4.69
			c0.71,1.8,1.05,3.8,1.01,5.99c-0.04,2.19-0.49,4.51-1.37,6.94L301.36,311.38z M295.19,307.52c1.21-3.36,1.53-6.13,0.96-8.31
			c-0.57-2.18-1.98-3.67-4.21-4.48s-4.26-0.55-6.1,0.76c-1.83,1.31-3.36,3.65-4.57,7.01l-0.52,1.45c-0.6,1.67-0.98,3.21-1.13,4.61
			c-0.15,1.4-0.08,2.64,0.2,3.73c0.28,1.09,0.77,2.01,1.48,2.77s1.61,1.34,2.73,1.74c2.23,0.8,4.26,0.54,6.08-0.79
			c1.82-1.33,3.34-3.68,4.55-7.04L295.19,307.52z"/>
		<path class="st1" d="M319.32,318.19l-5.54-0.79l-1.77,12.35l-6.95-1l4.85-33.73l12.53,1.8c1.95,0.28,3.66,0.75,5.14,1.41
			c1.48,0.66,2.69,1.5,3.64,2.51c0.94,1.01,1.61,2.19,2,3.54c0.39,1.35,0.46,2.86,0.23,4.53c-0.18,1.24-0.48,2.32-0.89,3.26
			c-0.42,0.94-0.95,1.76-1.58,2.45c-0.64,0.69-1.36,1.27-2.19,1.73c-0.82,0.46-1.73,0.84-2.71,1.12l5.32,14.83l-0.05,0.32
			l-7.46-1.07L319.32,318.19z M314.59,311.77l5.61,0.81c0.91,0.13,1.73,0.13,2.45-0.01c0.72-0.14,1.34-0.4,1.86-0.77
			c0.52-0.37,0.94-0.85,1.26-1.43s0.53-1.24,0.64-2c0.23-1.59-0.04-2.91-0.82-3.95c-0.77-1.04-2.09-1.7-3.96-1.96l-5.58-0.8
			L314.59,311.77z"/>
		<path class="st1" d="M367.32,331.18l-7.01,0.42l-14.97-21.57l1.33,22.38l-7.01,0.42l-2.01-34.02l7.01-0.42l15,21.62l-1.33-22.43
			l6.99-0.41L367.32,331.18z"/>
		<path class="st1" d="M404.6,321.9l-6.76,1.9l-3.96-14.06l-13.18,3.71l3.96,14.06l-6.76,1.9l-9.23-32.8l6.76-1.9l3.74,13.29
			l13.18-3.71L388.61,291l6.76-1.9L404.6,321.9z"/>
		<path class="st1" d="M419.94,314.87l-6.39,2.91l-14.13-31.01l6.39-2.91L419.94,314.87z"/>
		<path class="st1" d="M431.22,302.41l12.67-7.85l2.97,4.79l-18.64,11.55l-17.94-28.97l5.97-3.7L431.22,302.41z"/>
		<path class="st1" d="M454.36,285.9l11.22-9.81l3.71,4.25l-16.51,14.43l-22.43-25.65l5.29-4.62L454.36,285.9z"/>
	</g>
</g>
</svg>
