<?xml version="1.0" encoding="utf-8"?>
<!-- Generator: Adobe Illustrator 24.2.1, SVG Export Plug-In . SVG Version: 6.00 Build 0)  -->
<svg version="1.1" id="Layer_1" xmlns="http://www.w3.org/2000/svg" xmlns:xlink="http://www.w3.org/1999/xlink" x="0px" y="0px"
	 viewBox="0 0 686.75 343.37" style="enable-background:new 0 0 686.75 343.37;" xml:space="preserve">
<style type="text/css">
	.st0{fill:#006937;}
	.st1{fill:#515659;}
</style>
<g>
	<g>
		<path class="st0" d="M457.9,135.73c-1.63-11.02-4.84-21.52-9.38-31.27l19.35,0c3.88,9.9,6.6,20.38,7.99,31.28H457.9z
			 M476.44,141.13c0.32,3.76,0.49,7.56,0.49,11.41c0,6.75-0.51,13.39-1.49,19.87l-18.03,0c1.13-6.45,1.73-13.09,1.73-19.87
			c0-3.85-0.19-7.65-0.56-11.41 M214.56,135.53c1.4-10.9,4.14-21.38,8.04-31.28l19.37,0c-4.57,9.75-7.8,20.26-9.45,31.28H214.56z
			 M214.93,172.21c-0.96-6.42-1.46-12.99-1.46-19.67c0-3.91,0.17-7.78,0.5-11.6h17.87c-0.39,3.82-0.58,7.69-0.58,11.6
			c0,6.71,0.58,13.28,1.69,19.67L214.93,172.21z M234.03,177.62c11.42,50.86,56.86,88.86,111.17,88.86
			c54.24,0,99.63-37.9,111.12-88.66l18.18,0c-11.79,60.66-65.2,106.45-129.3,106.45c-64.17,0-117.63-45.89-129.34-106.65
			L234.03,177.62z M224.88,98.85c20.55-45.99,66.69-78.04,120.32-78.04c53.7,0,99.9,32.14,120.41,78.23l-19.79,0
			C426.67,63.08,388.79,38.6,345.2,38.6c-43.51,0-81.33,24.39-100.52,60.25L224.88,98.85z"/>
		<g>
			<path class="st0" d="M677.11,104.45H448.52h-13.87c6.88,6.46,12.39,14.33,16.02,23.21h160.68
				C635.28,127.66,658.48,119.47,677.11,104.45z"/>
			<path class="st0" d="M434.65,201.02h85.7c23.93,0,47.13-8.19,65.76-23.21H450.67C447.04,186.69,441.53,194.56,434.65,201.02z"/>
			<path class="st0" d="M455.62,152.74c0,3.97-0.41,7.83-1.08,11.6h111.31c23.93,0,47.13-8.19,65.76-23.21H454.54
				C455.21,144.91,455.62,148.77,455.62,152.74z"/>
		</g>
		<g>
			<path class="st0" d="M13.25,104.25h242.46c-6.88,6.46-12.39,14.33-16.02,23.21H79.01C55.09,127.46,31.88,119.27,13.25,104.25z"/>
			<path class="st0" d="M255.71,200.82h-85.7c-23.93,0-47.13-8.19-65.76-23.21h135.44C243.32,186.49,248.83,194.36,255.71,200.82z"
				/>
			<path class="st0" d="M234.74,152.54c0,3.97,0.41,7.83,1.08,11.6H124.51c-23.93,0-47.13-8.19-65.76-23.21h177.07
				C235.16,144.71,234.74,148.57,234.74,152.54z"/>
		</g>
		<g>
			<path class="st0" d="M291.08,122.14l5.28-36.24h7.41l5.28,36.24l4.96-34.4l0.32-1.84h10.21c-3.43,19.91-6.8,39.86-10.21,59.79
				l-0.32,1.84h-9.93c-1.52-10.62-2.67-21.61-4.04-32.38l-3.69,30.53l-0.32,1.84h-9.93c-3.36-19.66-6.71-39.34-10.07-59.01
				l-0.46-2.62h10.21l0.32,1.84L291.08,122.14z"/>
			<path class="st0" d="M336.4,85.9h2.2v2.23v57.16v2.23h-2.2h-5.74h-2.2v-2.23V88.14V85.9h2.2H336.4z"/>
			<path class="st0" d="M344.62,85.9h13.62c5.46,24.75,5.74,23.76,9.93,42.02c0-9.51-0.36-32.51-0.36-42.02h10.18v61.63h-13.97
				c-5.78-24.26-6.24-25.6-9.26-40.6v40.6h-10.14V85.9z"/>
			<path class="st0" d="M396.78,85.9c3.74,0,6.95,1.35,9.65,4.04c2.67,2.67,4.01,5.89,4.01,9.65v3.87h-9.82v-3.87
				c0-1.9-1.94-3.51-3.83-3.51c-1.92,0-3.51,1.59-3.51,3.51v34.29c0,1.92,1.61,3.51,3.51,3.51c1.84,0,4.18-1.61,4.18-3.51V123.6
				h-5.07v-9.43h14.54v19.72c0,7.43-6.2,13.65-13.65,13.65c-3.81,0-7.02-1.34-9.65-4.01c-2.67-2.67-4.01-5.89-4.01-9.65V99.59
				C383.13,92.12,389.32,85.9,396.78,85.9z"/>
		</g>
		<g>
			<g>
				<g>
					<path class="st0" d="M277.78,218.89c-7.44,0-13.16-6.12-13.16-13.65v-6.52h9.79v6.52c0,1.95,1.51,3.51,3.37,3.51
						c1.68,0,2.91-1.53,2.91-3.51v-3.23c0-3.37-2.82-5.63-4.22-7.38c-2.77-3.44-7.31-7.33-9.01-9.72c-2.02-2.84-3.1-7.16-3.19-9.33
						l-0.14-4.65c0-7.56,6.07-13.69,13.51-13.69c7.41,0,12.84,6.08,12.84,13.69v6.49h-9.79v-6.49c0-1.95-1.21-3.51-2.91-3.51
						c-1.9,0-3.37,1.59-3.37,3.51v2.59c0.02,1.06,0.74,3.62,1.7,5c1.62,2.34,4.04,4.1,5.18,5.28c4.01,4.15,5.64,5.52,6.91,7.8
						c1.56,2.8,2.59,6.42,2.59,8.9l0.04,4.72C290.83,212.89,285.18,218.89,277.78,218.89z"/>
					<path class="st0" d="M303.42,157.25h2.2v2.23V183h7.3v-23.51v-2.23h2.23h5.71h2.23v2.23v57.16v2.23h-2.23h-5.71h-2.23v-2.23
						v-23.51h-7.3v23.51v2.23h-2.2h-5.74h-2.2v-2.23v-57.16v-2.23h2.2H303.42z"/>
					<path class="st0" d="M338.95,209.35c-0.63,3.18-1.27,6.34-1.88,9.54h-10.43l10.6-61.63h13.3l10.6,61.7h-10.43
						c-0.61-3.19-1.25-6.43-1.88-9.61H338.95z M343.88,170.27l-3.44,29.36h6.92L343.88,170.27z"/>
					<path class="st0" d="M387.46,161.3c2.67,2.65,4.01,5.86,4.01,9.65v1.42v2.23h-2.23h-5.71h-2.23v-2.23v-1.42
						c0-0.97-0.34-1.8-1.03-2.48c-0.66-0.69-1.48-1.03-2.45-1.03s-1.8,0.34-2.48,1.03s-1.03,1.51-1.03,2.48v34.29
						c0,0.97,0.34,1.8,1.03,2.48c0.71,0.69,1.54,1.03,2.48,1.03s1.76-0.34,2.45-1.03s1.03-1.51,1.03-2.48v-1.42v-2.23h2.23h5.71
						h2.23v2.23v1.42c0,3.76-1.34,6.97-4.01,9.65c-2.67,2.67-5.89,4.01-9.65,4.01c-3.81,0-7.02-1.34-9.65-4.01
						c-2.67-2.67-4.01-5.89-4.01-9.65v-34.29c0-3.78,1.33-7,4.01-9.65c2.65-2.69,5.86-4.04,9.65-4.04
						C381.55,157.25,384.76,158.6,387.46,161.3z"/>
					<path class="st0" d="M406.07,157.25v21.63l6.95-20.35l0.57-1.28h10.74c-4.56,9.86-6.45,16.88-10.96,28.4
						c4.36,13.16,6.84,21.67,11.17,33.23h-10.85c-1.49-4.75-4.12-14.25-7.48-25.53c0,5.91-0.14,19.62-0.14,25.53h-10.14v-61.63
						H406.07z"/>
				</g>
			</g>
		</g>
	</g>
	<g>
		<path class="st1" d="M243.27,290.28l18.84-15.94l5.43,4.41l-27.34,21.7l-5.49-4.45l10.06-21.19L226.1,289l-5.49-4.45l15.6-31.22
			l5.43,4.41l-11.67,21.7l19.61-15.25l4.62,3.75L243.27,290.28z"/>
		<path class="st1" d="M273.36,310.78l-11.07-5.39l-5.18,5.29l-6.71-3.27l26.32-25.09l5.85,2.85l-3.45,36.22l-6.71-3.27
			L273.36,310.78z M266.49,301.11l7.66,3.73l1.73-13.34L266.49,301.11z"/>
		<path class="st1" d="M315.56,302.12l-10.05-2.82l-7.65,27.34l-6.76-1.89l7.65-27.34l-9.92-2.78l1.53-5.48l26.73,7.49
			L315.56,302.12z"/>
		<path class="st1" d="M337.43,317.77l-13.42-1.25l-0.85,9.09l15.75,1.47l-0.52,5.62l-22.74-2.12l3.16-33.93l22.7,2.11l-0.53,5.66
			l-15.71-1.46l-0.75,8.09l13.42,1.25L337.43,317.77z"/>
		<path class="st1" d="M357.83,319.17l-5.57,0.49l1.09,12.43l-7,0.61l-2.97-33.95l12.61-1.1c1.96-0.17,3.73-0.1,5.33,0.2
			c1.59,0.31,2.96,0.85,4.11,1.61c1.15,0.77,2.06,1.77,2.75,2.99c0.69,1.22,1.1,2.67,1.25,4.35c0.11,1.24,0.07,2.37-0.13,3.38
			s-0.52,1.92-0.98,2.74c-0.46,0.82-1.04,1.54-1.74,2.18c-0.7,0.64-1.49,1.21-2.39,1.71l8.56,13.23l0.03,0.33l-7.51,0.66
			L357.83,319.17z M351.76,313.99l5.64-0.49c0.92-0.08,1.71-0.27,2.38-0.57s1.21-0.69,1.63-1.18s0.72-1.04,0.9-1.68
			s0.23-1.33,0.17-2.09c-0.14-1.6-0.7-2.82-1.69-3.66s-2.42-1.17-4.3-1.01l-5.62,0.49L351.76,313.99z"/>
		<path class="st1" d="M385.75,321.32l14.38-3.94l1.49,5.44l-21.15,5.79l-9-32.87l6.77-1.85L385.75,321.32z"/>
		<path class="st1" d="M425.82,293.99c1.12,2.35,1.82,4.61,2.08,6.78c0.26,2.17,0.12,4.17-0.4,6.02s-1.43,3.5-2.7,4.96
			c-1.27,1.46-2.87,2.66-4.8,3.58c-1.93,0.92-3.86,1.42-5.8,1.49c-1.94,0.07-3.8-0.26-5.58-1c-1.78-0.74-3.44-1.89-4.98-3.44
			s-2.87-3.51-4-5.86l-0.65-1.35c-1.12-2.34-1.8-4.59-2.06-6.77c-0.25-2.18-0.12-4.2,0.41-6.06c0.53-1.86,1.43-3.52,2.7-4.99
			c1.27-1.46,2.87-2.66,4.8-3.58s3.86-1.42,5.8-1.49c1.94-0.07,3.8,0.27,5.58,1.03s3.44,1.92,4.98,3.48s2.86,3.52,3.98,5.85
			L425.82,293.99z M418.74,295.66c-1.54-3.22-3.29-5.4-5.25-6.52c-1.96-1.12-4-1.17-6.14-0.15c-2.14,1.02-3.39,2.65-3.74,4.88
			c-0.35,2.23,0.24,4.95,1.79,8.17l0.67,1.39c0.77,1.6,1.6,2.95,2.49,4.04s1.82,1.91,2.79,2.48s1.97,0.86,3.01,0.89
			c1.04,0.03,2.09-0.21,3.16-0.72c2.14-1.02,3.38-2.65,3.71-4.89c0.33-2.23-0.27-4.96-1.82-8.19L418.74,295.66z"/>
		<path class="st1" d="M453.2,273.58c1.59,2.06,2.74,4.13,3.44,6.2c0.71,2.07,0.99,4.06,0.86,5.97c-0.13,1.91-0.67,3.72-1.6,5.42
			c-0.94,1.7-2.25,3.2-3.95,4.5c-1.69,1.3-3.48,2.19-5.36,2.67c-1.88,0.47-3.77,0.53-5.66,0.18s-3.76-1.13-5.59-2.33
			s-3.54-2.83-5.13-4.9l-0.91-1.19c-1.58-2.05-2.72-4.12-3.43-6.19c-0.7-2.08-0.99-4.08-0.86-6.01c0.13-1.93,0.66-3.74,1.6-5.44
			c0.94-1.7,2.25-3.2,3.95-4.5s3.48-2.19,5.36-2.67c1.88-0.47,3.77-0.53,5.67-0.16c1.9,0.37,3.76,1.16,5.59,2.37
			c1.83,1.21,3.53,2.84,5.11,4.89L453.2,273.58z M446.62,276.7c-2.18-2.83-4.34-4.59-6.49-5.28s-4.16-0.31-6.04,1.13
			c-1.88,1.45-2.76,3.3-2.64,5.55c0.12,2.25,1.27,4.79,3.45,7.62l0.94,1.22c1.08,1.41,2.18,2.55,3.28,3.43
			c1.1,0.88,2.18,1.49,3.25,1.84c1.07,0.35,2.11,0.43,3.13,0.25c1.02-0.18,2-0.64,2.94-1.36c1.88-1.45,2.75-3.3,2.61-5.55
			c-0.14-2.25-1.3-4.8-3.48-7.63L446.62,276.7z"/>
	</g>
</g>
</svg>
