<?xml version="1.0" encoding="utf-8"?>
<!-- Generator: Adobe Illustrator 24.2.1, SVG Export Plug-In . SVG Version: 6.00 Build 0)  -->
<svg version="1.1" id="Layer_1" xmlns="http://www.w3.org/2000/svg" xmlns:xlink="http://www.w3.org/1999/xlink" x="0px" y="0px"
	 viewBox="0 0 686.75 343.37" style="enable-background:new 0 0 686.75 343.37;" xml:space="preserve">
<style type="text/css">
	.st0{fill:#006937;}
	.st1{fill:#515659;}
</style>
<g>
	<g>
		<path class="st0" d="M457.9,135.73c-1.63-11.02-4.84-21.52-9.38-31.27l19.35,0c3.88,9.9,6.6,20.38,7.99,31.28H457.9z
			 M476.44,141.13c0.32,3.76,0.49,7.56,0.49,11.41c0,6.75-0.51,13.39-1.49,19.87l-18.03,0c1.13-6.45,1.73-13.09,1.73-19.87
			c0-3.85-0.19-7.65-0.56-11.41 M214.56,135.53c1.4-10.9,4.14-21.38,8.04-31.28l19.37,0c-4.57,9.75-7.8,20.26-9.45,31.28H214.56z
			 M214.93,172.21c-0.96-6.42-1.46-12.99-1.46-19.67c0-3.91,0.17-7.78,0.5-11.6h17.87c-0.39,3.82-0.58,7.69-0.58,11.6
			c0,6.71,0.58,13.28,1.69,19.67L214.93,172.21z M234.03,177.62c11.42,50.86,56.86,88.86,111.17,88.86
			c54.24,0,99.63-37.9,111.12-88.66l18.18,0c-11.79,60.66-65.2,106.45-129.3,106.45c-64.17,0-117.63-45.89-129.34-106.65
			L234.03,177.62z M224.88,98.85c20.55-45.99,66.69-78.04,120.32-78.04c53.7,0,99.9,32.14,120.41,78.23l-19.79,0
			C426.67,63.08,388.79,38.6,345.2,38.6c-43.51,0-81.33,24.39-100.52,60.25L224.88,98.85z"/>
		<g>
			<path class="st0" d="M677.11,104.45H448.52h-13.87c6.88,6.46,12.39,14.33,16.02,23.21h160.68
				C635.28,127.66,658.48,119.47,677.11,104.45z"/>
			<path class="st0" d="M434.65,201.02h85.7c23.93,0,47.13-8.19,65.76-23.21H450.67C447.04,186.69,441.53,194.56,434.65,201.02z"/>
			<path class="st0" d="M455.62,152.74c0,3.97-0.41,7.83-1.08,11.6h111.31c23.93,0,47.13-8.19,65.76-23.21H454.54
				C455.21,144.91,455.62,148.77,455.62,152.74z"/>
		</g>
		<g>
			<path class="st0" d="M13.25,104.25h242.46c-6.88,6.46-12.39,14.33-16.02,23.21H79.01C55.09,127.46,31.88,119.27,13.25,104.25z"/>
			<path class="st0" d="M255.71,200.82h-85.7c-23.93,0-47.13-8.19-65.76-23.21h135.44C243.32,186.49,248.83,194.36,255.71,200.82z"
				/>
			<path class="st0" d="M234.74,152.54c0,3.97,0.41,7.83,1.08,11.6H124.51c-23.93,0-47.13-8.19-65.76-23.21h177.07
				C235.16,144.71,234.74,148.57,234.74,152.54z"/>
		</g>
		<g>
			<path class="st0" d="M291.08,122.14l5.28-36.24h7.41l5.28,36.24l4.96-34.4l0.32-1.84h10.21c-3.43,19.91-6.8,39.86-10.21,59.79
				l-0.32,1.84h-9.93c-1.52-10.62-2.67-21.61-4.04-32.38l-3.69,30.53l-0.32,1.84h-9.93c-3.36-19.66-6.71-39.34-10.07-59.01
				l-0.46-2.62h10.21l0.32,1.84L291.08,122.14z"/>
			<path class="st0" d="M336.4,85.9h2.2v2.23v57.16v2.23h-2.2h-5.74h-2.2v-2.23V88.14V85.9h2.2H336.4z"/>
			<path class="st0" d="M344.62,85.9h13.62c5.46,24.75,5.74,23.76,9.93,42.02c0-9.51-0.36-32.51-0.36-42.02h10.18v61.63h-13.97
				c-5.78-24.26-6.24-25.6-9.26-40.6v40.6h-10.14V85.9z"/>
			<path class="st0" d="M396.78,85.9c3.74,0,6.95,1.35,9.65,4.04c2.67,2.67,4.01,5.89,4.01,9.65v3.87h-9.82v-3.87
				c0-1.9-1.94-3.51-3.83-3.51c-1.92,0-3.51,1.59-3.51,3.51v34.29c0,1.92,1.61,3.51,3.51,3.51c1.84,0,4.18-1.61,4.18-3.51V123.6
				h-5.07v-9.43h14.54v19.72c0,7.43-6.2,13.65-13.65,13.65c-3.81,0-7.02-1.34-9.65-4.01c-2.67-2.67-4.01-5.89-4.01-9.65V99.59
				C383.13,92.12,389.32,85.9,396.78,85.9z"/>
		</g>
		<g>
			<g>
				<g>
					<path class="st0" d="M277.78,218.89c-7.44,0-13.16-6.12-13.16-13.65v-6.52h9.79v6.52c0,1.95,1.51,3.51,3.37,3.51
						c1.68,0,2.91-1.53,2.91-3.51v-3.23c0-3.37-2.82-5.63-4.22-7.38c-2.77-3.44-7.31-7.33-9.01-9.72c-2.02-2.84-3.1-7.16-3.19-9.33
						l-0.14-4.65c0-7.56,6.07-13.69,13.51-13.69c7.41,0,12.84,6.08,12.84,13.69v6.49h-9.79v-6.49c0-1.95-1.21-3.51-2.91-3.51
						c-1.9,0-3.37,1.59-3.37,3.51v2.59c0.02,1.06,0.74,3.62,1.7,5c1.62,2.34,4.04,4.1,5.18,5.28c4.01,4.15,5.64,5.52,6.91,7.8
						c1.56,2.8,2.59,6.42,2.59,8.9l0.04,4.72C290.83,212.89,285.18,218.89,277.78,218.89z"/>
					<path class="st0" d="M303.42,157.25h2.2v2.23V183h7.3v-23.51v-2.23h2.23h5.71h2.23v2.23v57.16v2.23h-2.23h-5.71h-2.23v-2.23
						v-23.51h-7.3v23.51v2.23h-2.2h-5.74h-2.2v-2.23v-57.16v-2.23h2.2H303.42z"/>
					<path class="st0" d="M338.95,209.35c-0.63,3.18-1.27,6.34-1.88,9.54h-10.43l10.6-61.63h13.3l10.6,61.7h-10.43
						c-0.61-3.19-1.25-6.43-1.88-9.61H338.95z M343.88,170.27l-3.44,29.36h6.92L343.88,170.27z"/>
					<path class="st0" d="M387.46,161.3c2.67,2.65,4.01,5.86,4.01,9.65v1.42v2.23h-2.23h-5.71h-2.23v-2.23v-1.42
						c0-0.97-0.34-1.8-1.03-2.48c-0.66-0.69-1.48-1.03-2.45-1.03s-1.8,0.34-2.48,1.03s-1.03,1.51-1.03,2.48v34.29
						c0,0.97,0.34,1.8,1.03,2.48c0.71,0.69,1.54,1.03,2.48,1.03s1.76-0.34,2.45-1.03s1.03-1.51,1.03-2.48v-1.42v-2.23h2.23h5.71
						h2.23v2.23v1.42c0,3.76-1.34,6.97-4.01,9.65c-2.67,2.67-5.89,4.01-9.65,4.01c-3.81,0-7.02-1.34-9.65-4.01
						c-2.67-2.67-4.01-5.89-4.01-9.65v-34.29c0-3.78,1.33-7,4.01-9.65c2.65-2.69,5.86-4.04,9.65-4.04
						C381.55,157.25,384.76,158.6,387.46,161.3z"/>
					<path class="st0" d="M406.07,157.25v21.63l6.95-20.35l0.57-1.28h10.74c-4.56,9.86-6.45,16.88-10.96,28.4
						c4.36,13.16,6.84,21.67,11.17,33.23h-10.85c-1.49-4.75-4.12-14.25-7.48-25.53c0,5.91-0.14,19.62-0.14,25.53h-10.14v-61.63
						H406.07z"/>
				</g>
			</g>
		</g>
	</g>
	<g>
		<path class="st1" d="M223.21,273.09l21.08-12.82l4.69,5.2l-30.37,17.2l-4.73-5.25l13.22-19.38l-20.65,11.14l-4.73-5.25
			l20.25-28.43l4.68,5.2l-14.89,19.63l21.74-12.03l3.98,4.42L223.21,273.09z"/>
		<path class="st1" d="M249.75,298.01l-10.09-7.05l-5.94,4.42l-6.12-4.28l29.91-20.67l5.33,3.73l-9.06,35.24l-6.12-4.28
			L249.75,298.01z M244.47,287.39l6.98,4.88l3.79-12.91L244.47,287.39z"/>
		<path class="st1" d="M292.76,296.08l-9.48-4.36l-11.86,25.79l-6.38-2.93l11.86-25.79l-9.36-4.3l2.38-5.17l25.22,11.59
			L292.76,296.08z"/>
		<path class="st1" d="M311.92,314.96l-13.06-3.33l-2.26,8.84l15.33,3.91l-1.39,5.47l-22.13-5.65l8.43-33.02l22.09,5.64l-1.41,5.51
			l-15.28-3.9l-2.01,7.87l13.06,3.33L311.92,314.96z"/>
		<path class="st1" d="M331.86,319.48l-5.58-0.37l-0.84,12.45l-7.01-0.47l2.28-34l12.63,0.85c1.96,0.13,3.71,0.47,5.23,1.02
			c1.53,0.55,2.8,1.29,3.81,2.23c1.02,0.94,1.77,2.06,2.26,3.38c0.49,1.32,0.68,2.81,0.57,4.49c-0.08,1.25-0.3,2.35-0.65,3.32
			s-0.81,1.82-1.39,2.56c-0.58,0.74-1.26,1.37-2.05,1.89c-0.79,0.53-1.66,0.97-2.62,1.33l6.42,14.39l-0.02,0.33l-7.52-0.5
			L331.86,319.48z M326.66,313.44l5.65,0.38c0.92,0.06,1.73,0,2.44-0.2c0.71-0.19,1.31-0.5,1.8-0.91c0.49-0.41,0.87-0.92,1.15-1.52
			c0.27-0.6,0.44-1.28,0.49-2.04c0.11-1.6-0.26-2.89-1.11-3.87c-0.85-0.98-2.22-1.53-4.1-1.66l-5.63-0.38L326.66,313.44z"/>
		<path class="st1" d="M353.07,332.46l-4.29-33.8l10.4-1.32c2.28-0.29,4.41-0.16,6.41,0.38c2,0.54,3.76,1.43,5.29,2.68
			s2.81,2.81,3.82,4.69c1.01,1.89,1.67,4.04,1.97,6.45l0.19,1.53c0.31,2.41,0.21,4.66-0.29,6.72c-0.5,2.07-1.35,3.9-2.54,5.49
			c-1.19,1.59-2.69,2.89-4.49,3.91c-1.8,1.02-3.85,1.67-6.14,1.96L353.07,332.46z M356.46,303.41l2.86,22.57l3.37-0.43
			c2.75-0.35,4.74-1.52,5.95-3.53c1.21-2,1.6-4.69,1.17-8.06l-0.2-1.58c-0.44-3.44-1.48-5.95-3.13-7.54
			c-1.65-1.59-3.84-2.21-6.58-1.87L356.46,303.41z"/>
		<path class="st1" d="M409.31,302.55c0.85,2.46,1.28,4.79,1.28,6.97s-0.36,4.16-1.09,5.93c-0.74,1.77-1.82,3.31-3.25,4.62
			c-1.43,1.31-3.16,2.31-5.18,3.01c-2.02,0.7-4,0.97-5.93,0.82c-1.93-0.15-3.74-0.7-5.43-1.64c-1.68-0.94-3.2-2.27-4.55-3.99
			c-1.35-1.72-2.45-3.81-3.3-6.28l-0.49-1.42c-0.84-2.45-1.27-4.77-1.27-6.96s0.36-4.18,1.1-5.97c0.74-1.79,1.82-3.34,3.25-4.65
			c1.43-1.31,3.16-2.31,5.18-3.01s4-0.97,5.93-0.82c1.93,0.15,3.74,0.71,5.42,1.66c1.68,0.96,3.2,2.3,4.54,4.03
			c1.35,1.73,2.44,3.82,3.28,6.27L409.31,302.55z M402.08,303.41c-1.16-3.38-2.65-5.74-4.46-7.08c-1.81-1.34-3.84-1.62-6.08-0.85
			c-2.24,0.77-3.67,2.24-4.27,4.42c-0.61,2.17-0.33,4.95,0.83,8.33l0.5,1.46c0.58,1.68,1.25,3.11,2.01,4.29
			c0.76,1.18,1.59,2.11,2.49,2.78c0.9,0.67,1.86,1.08,2.89,1.23c1.03,0.15,2.1,0.03,3.22-0.35c2.24-0.77,3.66-2.25,4.24-4.43
			c0.59-2.18,0.3-4.96-0.87-8.34L402.08,303.41z"/>
		<path class="st1" d="M441.03,291.22l-9.23-22.88l5.89-3.78l12.04,32.76l-5.95,3.82l-16.98-16.19l7.64,22.18l-5.95,3.82
			l-24.76-24.6l5.89-3.78l16.95,17.88l-8.34-23.4l5-3.21L441.03,291.22z"/>
		<path class="st1" d="M481.6,266.92l-4.84,5.08l-25.66-5.57l16.23,15.47l-4.84,5.08l-24.67-23.51l4.84-5.08l25.71,5.59l-16.26-15.5
			l4.83-5.07L481.6,266.92z"/>
	</g>
</g>
</svg>
