<?xml version="1.0" encoding="utf-8"?>
<!-- Generator: Adobe Illustrator 24.2.1, SVG Export Plug-In . SVG Version: 6.00 Build 0)  -->
<svg version="1.1" id="Layer_1" xmlns="http://www.w3.org/2000/svg" xmlns:xlink="http://www.w3.org/1999/xlink" x="0px" y="0px"
	 viewBox="0 0 686.75 343.37" style="enable-background:new 0 0 686.75 343.37;" xml:space="preserve">
<style type="text/css">
	.st0{fill:#006937;}
	.st1{fill:#515659;}
</style>
<g>
	<g>
		<path class="st0" d="M457.9,135.73c-1.63-11.02-4.84-21.52-9.38-31.27l19.35,0c3.88,9.9,6.6,20.38,7.99,31.28H457.9z
			 M476.44,141.13c0.32,3.76,0.49,7.56,0.49,11.41c0,6.75-0.51,13.39-1.49,19.87l-18.03,0c1.13-6.45,1.73-13.09,1.73-19.87
			c0-3.85-0.19-7.65-0.56-11.41 M214.56,135.53c1.4-10.9,4.14-21.38,8.04-31.28l19.37,0c-4.57,9.75-7.8,20.26-9.45,31.28H214.56z
			 M214.93,172.21c-0.96-6.42-1.46-12.99-1.46-19.67c0-3.91,0.17-7.78,0.5-11.6h17.87c-0.39,3.82-0.58,7.69-0.58,11.6
			c0,6.71,0.58,13.28,1.69,19.67L214.93,172.21z M234.03,177.62c11.42,50.86,56.86,88.86,111.17,88.86
			c54.24,0,99.63-37.9,111.12-88.66l18.18,0c-11.79,60.66-65.2,106.45-129.3,106.45c-64.17,0-117.63-45.89-129.34-106.65
			L234.03,177.62z M224.88,98.85c20.55-45.99,66.69-78.04,120.32-78.04c53.7,0,99.9,32.14,120.41,78.23l-19.79,0
			C426.67,63.08,388.79,38.6,345.2,38.6c-43.51,0-81.33,24.39-100.52,60.25L224.88,98.85z"/>
		<g>
			<path class="st0" d="M677.11,104.45H448.52h-13.87c6.88,6.46,12.39,14.33,16.02,23.21h160.68
				C635.28,127.66,658.48,119.47,677.11,104.45z"/>
			<path class="st0" d="M434.65,201.02h85.7c23.93,0,47.13-8.19,65.76-23.21H450.67C447.04,186.69,441.53,194.56,434.65,201.02z"/>
			<path class="st0" d="M455.62,152.74c0,3.97-0.41,7.83-1.08,11.6h111.31c23.93,0,47.13-8.19,65.76-23.21H454.54
				C455.21,144.91,455.62,148.77,455.62,152.74z"/>
		</g>
		<g>
			<path class="st0" d="M13.25,104.25h242.46c-6.88,6.46-12.39,14.33-16.02,23.21H79.01C55.09,127.46,31.88,119.27,13.25,104.25z"/>
			<path class="st0" d="M255.71,200.82h-85.7c-23.93,0-47.13-8.19-65.76-23.21h135.44C243.32,186.49,248.83,194.36,255.71,200.82z"
				/>
			<path class="st0" d="M234.74,152.54c0,3.97,0.41,7.83,1.08,11.6H124.51c-23.93,0-47.13-8.19-65.76-23.21h177.07
				C235.16,144.71,234.74,148.57,234.74,152.54z"/>
		</g>
		<g>
			<path class="st0" d="M291.08,122.14l5.28-36.24h7.41l5.28,36.24l4.96-34.4l0.32-1.84h10.21c-3.43,19.91-6.8,39.86-10.21,59.79
				l-0.32,1.84h-9.93c-1.52-10.62-2.67-21.61-4.04-32.38l-3.69,30.53l-0.32,1.84h-9.93c-3.36-19.66-6.71-39.34-10.07-59.01
				l-0.46-2.62h10.21l0.32,1.84L291.08,122.14z"/>
			<path class="st0" d="M336.4,85.9h2.2v2.23v57.16v2.23h-2.2h-5.74h-2.2v-2.23V88.14V85.9h2.2H336.4z"/>
			<path class="st0" d="M344.62,85.9h13.62c5.46,24.75,5.74,23.76,9.93,42.02c0-9.51-0.36-32.51-0.36-42.02h10.18v61.63h-13.97
				c-5.78-24.26-6.24-25.6-9.26-40.6v40.6h-10.14V85.9z"/>
			<path class="st0" d="M396.78,85.9c3.74,0,6.95,1.35,9.65,4.04c2.67,2.67,4.01,5.89,4.01,9.65v3.87h-9.82v-3.87
				c0-1.9-1.94-3.51-3.83-3.51c-1.92,0-3.51,1.59-3.51,3.51v34.29c0,1.92,1.61,3.51,3.51,3.51c1.84,0,4.18-1.61,4.18-3.51V123.6
				h-5.07v-9.43h14.54v19.72c0,7.43-6.2,13.65-13.65,13.65c-3.81,0-7.02-1.34-9.65-4.01c-2.67-2.67-4.01-5.89-4.01-9.65V99.59
				C383.13,92.12,389.32,85.9,396.78,85.9z"/>
		</g>
		<g>
			<g>
				<g>
					<path class="st0" d="M277.78,218.89c-7.44,0-13.16-6.12-13.16-13.65v-6.52h9.79v6.52c0,1.95,1.51,3.51,3.37,3.51
						c1.68,0,2.91-1.53,2.91-3.51v-3.23c0-3.37-2.82-5.63-4.22-7.38c-2.77-3.44-7.31-7.33-9.01-9.72c-2.02-2.84-3.1-7.16-3.19-9.33
						l-0.14-4.65c0-7.56,6.07-13.69,13.51-13.69c7.41,0,12.84,6.08,12.84,13.69v6.49h-9.79v-6.49c0-1.95-1.21-3.51-2.91-3.51
						c-1.9,0-3.37,1.59-3.37,3.51v2.59c0.02,1.06,0.74,3.62,1.7,5c1.62,2.34,4.04,4.1,5.18,5.28c4.01,4.15,5.64,5.52,6.91,7.8
						c1.56,2.8,2.59,6.42,2.59,8.9l0.04,4.72C290.83,212.89,285.18,218.89,277.78,218.89z"/>
					<path class="st0" d="M303.42,157.25h2.2v2.23V183h7.3v-23.51v-2.23h2.23h5.71h2.23v2.23v57.16v2.23h-2.23h-5.71h-2.23v-2.23
						v-23.51h-7.3v23.51v2.23h-2.2h-5.74h-2.2v-2.23v-57.16v-2.23h2.2H303.42z"/>
					<path class="st0" d="M338.95,209.35c-0.63,3.18-1.27,6.34-1.88,9.54h-10.43l10.6-61.63h13.3l10.6,61.7h-10.43
						c-0.61-3.19-1.25-6.43-1.88-9.61H338.95z M343.88,170.27l-3.44,29.36h6.92L343.88,170.27z"/>
					<path class="st0" d="M387.46,161.3c2.67,2.65,4.01,5.86,4.01,9.65v1.42v2.23h-2.23h-5.71h-2.23v-2.23v-1.42
						c0-0.97-0.34-1.8-1.03-2.48c-0.66-0.69-1.48-1.03-2.45-1.03s-1.8,0.34-2.48,1.03s-1.03,1.51-1.03,2.48v34.29
						c0,0.97,0.34,1.8,1.03,2.48c0.71,0.69,1.54,1.03,2.48,1.03s1.76-0.34,2.45-1.03s1.03-1.51,1.03-2.48v-1.42v-2.23h2.23h5.71
						h2.23v2.23v1.42c0,3.76-1.34,6.97-4.01,9.65c-2.67,2.67-5.89,4.01-9.65,4.01c-3.81,0-7.02-1.34-9.65-4.01
						c-2.67-2.67-4.01-5.89-4.01-9.65v-34.29c0-3.78,1.33-7,4.01-9.65c2.65-2.69,5.86-4.04,9.65-4.04
						C381.55,157.25,384.76,158.6,387.46,161.3z"/>
					<path class="st0" d="M406.07,157.25v21.63l6.95-20.35l0.57-1.28h10.74c-4.56,9.86-6.45,16.88-10.96,28.4
						c4.36,13.16,6.84,21.67,11.17,33.23h-10.85c-1.49-4.75-4.12-14.25-7.48-25.53c0,5.91-0.14,19.62-0.14,25.53h-10.14v-61.63
						H406.07z"/>
				</g>
			</g>
		</g>
	</g>
	<g>
		<path class="st1" d="M220.37,270.17l21.38-12.32l4.56,5.31l-30.78,16.46l-4.6-5.36l13.68-19.06l-20.91,10.64l-4.6-5.36
			l20.93-27.94l4.56,5.31l-15.36,19.26l22.02-11.5l3.87,4.51L220.37,270.17z"/>
		<path class="st1" d="M259.76,293.97c-1.52,2.11-3.18,3.8-4.95,5.07c-1.78,1.27-3.6,2.11-5.47,2.53s-3.75,0.42-5.65,0.01
			c-1.89-0.41-3.71-1.25-5.44-2.5c-1.73-1.25-3.1-2.71-4.09-4.38c-0.99-1.67-1.59-3.46-1.79-5.38c-0.2-1.92,0.01-3.92,0.63-6.02
			c0.63-2.1,1.7-4.2,3.23-6.32l0.88-1.21c1.51-2.1,3.17-3.79,4.96-5.05c1.79-1.27,3.63-2.12,5.51-2.54
			c1.89-0.43,3.78-0.44,5.67-0.02c1.89,0.41,3.71,1.25,5.44,2.5c1.73,1.25,3.1,2.71,4.09,4.38c0.99,1.67,1.58,3.46,1.77,5.39
			c0.19,1.93-0.04,3.94-0.67,6.04c-0.64,2.1-1.71,4.2-3.23,6.3L259.76,293.97z M254.89,288.56c2.09-2.9,3.16-5.47,3.21-7.73
			c0.05-2.25-0.89-4.08-2.81-5.46c-1.92-1.39-3.95-1.7-6.07-0.94c-2.12,0.76-4.23,2.59-6.32,5.48l-0.9,1.25
			c-1.04,1.44-1.82,2.82-2.35,4.12c-0.53,1.3-0.81,2.52-0.84,3.64c-0.03,1.12,0.19,2.15,0.66,3.07c0.47,0.92,1.18,1.73,2.15,2.43
			c1.92,1.39,3.95,1.69,6.07,0.91c2.12-0.78,4.22-2.62,6.31-5.52L254.89,288.56z"/>
		<path class="st1" d="M290.78,308.22c-1.05,2.39-2.31,4.38-3.79,5.99s-3.08,2.82-4.83,3.62c-1.74,0.8-3.58,1.2-5.52,1.19
			c-1.94-0.01-3.89-0.45-5.84-1.31c-1.96-0.86-3.59-2-4.91-3.43c-1.32-1.42-2.28-3.05-2.88-4.88c-0.6-1.83-0.81-3.84-0.64-6.02
			c0.18-2.18,0.79-4.46,1.84-6.85l0.6-1.37c1.04-2.37,2.31-4.36,3.79-5.98c1.49-1.61,3.11-2.83,4.86-3.64
			c1.76-0.81,3.6-1.21,5.54-1.21c1.94,0.01,3.89,0.44,5.84,1.31c1.96,0.86,3.59,2,4.91,3.43c1.32,1.42,2.27,3.06,2.86,4.9
			c0.59,1.84,0.79,3.86,0.6,6.04c-0.19,2.18-0.8,4.46-1.84,6.83L290.78,308.22z M284.89,303.94c1.44-3.27,1.95-6.01,1.52-8.23
			c-0.42-2.21-1.72-3.8-3.89-4.75c-2.17-0.96-4.22-0.84-6.13,0.34c-1.92,1.18-3.6,3.41-5.04,6.68l-0.62,1.41
			c-0.72,1.63-1.2,3.13-1.44,4.52s-0.26,2.63-0.06,3.73c0.2,1.1,0.63,2.06,1.28,2.87c0.65,0.81,1.52,1.45,2.6,1.93
			c2.17,0.96,4.21,0.83,6.12-0.38c1.91-1.2,3.59-3.44,5.02-6.71L284.89,303.94z"/>
		<path class="st1" d="M293.3,325.82l7.07-33.33l10.26,2.18c2.24,0.48,4.22,1.3,5.92,2.46c1.71,1.17,3.08,2.59,4.12,4.27
			c1.04,1.68,1.73,3.58,2.06,5.69c0.33,2.11,0.25,4.36-0.26,6.74l-0.32,1.51c-0.51,2.38-1.33,4.47-2.49,6.25
			c-1.15,1.79-2.55,3.24-4.2,4.35s-3.49,1.85-5.53,2.21c-2.04,0.37-4.19,0.31-6.45-0.17L293.3,325.82z M306.06,299.51l-4.72,22.25
			l3.32,0.7c2.72,0.58,4.97,0.12,6.77-1.37c1.8-1.49,3.05-3.9,3.76-7.23l0.33-1.56c0.72-3.39,0.56-6.1-0.47-8.15
			c-1.03-2.05-2.9-3.36-5.6-3.93L306.06,299.51z"/>
		<path class="st1" d="M328.02,332.1l0.55-34.07l11.93,0.19c1.98,0.03,3.75,0.25,5.3,0.65c1.55,0.4,2.87,0.99,3.94,1.78
			c1.07,0.79,1.88,1.77,2.43,2.95c0.55,1.18,0.81,2.56,0.79,4.16c-0.01,0.78-0.12,1.53-0.33,2.24c-0.21,0.71-0.51,1.38-0.92,2
			c-0.41,0.62-0.92,1.18-1.54,1.67c-0.62,0.5-1.35,0.9-2.2,1.22c0.99,0.27,1.84,0.66,2.54,1.18c0.7,0.52,1.28,1.12,1.73,1.79
			c0.45,0.68,0.77,1.41,0.97,2.21s0.29,1.6,0.28,2.43c-0.05,3.31-1.16,5.79-3.32,7.44c-2.16,1.65-5.2,2.44-9.13,2.38L328.02,332.1z
			 M335.28,317.37l-0.15,9.2l6.01,0.1c0.9,0.01,1.69-0.09,2.35-0.3c0.66-0.21,1.21-0.52,1.65-0.91c0.44-0.39,0.77-0.85,0.99-1.39
			c0.22-0.53,0.33-1.12,0.34-1.76c0.01-0.73-0.07-1.39-0.25-1.98s-0.46-1.09-0.85-1.51s-0.9-0.74-1.54-0.97
			c-0.64-0.23-1.4-0.35-2.29-0.37L335.28,317.37z M335.37,312.41l5.19,0.08c1.79,0,3.13-0.36,4.02-1.07
			c0.89-0.71,1.34-1.74,1.36-3.08c0.02-1.54-0.41-2.66-1.29-3.36c-0.89-0.69-2.3-1.05-4.23-1.09l-4.91-0.08L335.37,312.41z"/>
		<path class="st1" d="M372.84,317.13l-5.5,0.99l2.21,12.28l-6.91,1.25l-6.05-33.54l12.46-2.25c1.93-0.35,3.71-0.44,5.32-0.28
			c1.61,0.16,3.03,0.57,4.24,1.23c1.21,0.66,2.22,1.57,3.01,2.73s1.34,2.56,1.64,4.22c0.22,1.23,0.28,2.35,0.18,3.38
			c-0.1,1.02-0.34,1.96-0.73,2.82s-0.89,1.63-1.53,2.33s-1.38,1.34-2.22,1.92l9.73,12.4l0.06,0.32l-7.42,1.34L372.84,317.13z
			 M366.32,312.53l5.57-1c0.91-0.16,1.68-0.43,2.32-0.79c0.64-0.36,1.15-0.8,1.52-1.32s0.62-1.1,0.74-1.75s0.11-1.35-0.02-2.1
			c-0.29-1.58-0.96-2.74-2.02-3.49s-2.52-0.95-4.38-0.61l-5.55,1L366.32,312.53z"/>
		<path class="st1" d="M402.49,322.13l-6.66,2.21L385.08,292l6.66-2.21L402.49,322.13z"/>
		<path class="st1" d="M411.55,319.07l-15.28-30.46l9.37-4.7c2.05-1.03,4.11-1.62,6.17-1.77c2.06-0.15,4.02,0.1,5.88,0.77
			c1.86,0.66,3.58,1.72,5.16,3.16c1.58,1.44,2.91,3.25,4.01,5.43l0.69,1.38c1.09,2.18,1.75,4.32,1.96,6.44
			c0.21,2.12,0.03,4.12-0.57,6.02c-0.59,1.9-1.57,3.62-2.94,5.18c-1.37,1.56-3.08,2.85-5.14,3.89L411.55,319.07z M405.09,290.55
			l10.2,20.33l3.03-1.52c2.48-1.25,3.96-3.01,4.44-5.3c0.48-2.29-0.05-4.95-1.58-7.99l-0.71-1.42c-1.55-3.1-3.37-5.12-5.46-6.07
			s-4.36-0.81-6.83,0.43L405.09,290.55z"/>
		<path class="st1" d="M461.29,282.24c-0.02,0.63-0.13,1.38-0.34,2.25c-0.21,0.87-0.58,1.82-1.12,2.85
			c-0.54,1.03-1.28,2.12-2.21,3.26c-0.94,1.14-2.14,2.3-3.61,3.46c-1.73,1.36-3.53,2.32-5.41,2.88s-3.76,0.68-5.64,0.38
			c-1.89-0.3-3.74-1.04-5.56-2.2c-1.82-1.17-3.55-2.79-5.18-4.86l-1.25-1.58c-1.63-2.07-2.82-4.12-3.55-6.15s-1.05-3.98-0.95-5.85
			c0.11-1.87,0.62-3.64,1.55-5.31c0.93-1.67,2.24-3.17,3.93-4.5c1.74-1.37,3.42-2.34,5.03-2.9s3.15-0.79,4.62-0.68
			s2.87,0.53,4.21,1.24c1.34,0.71,2.59,1.66,3.76,2.85l-5.37,4.23c-0.64-0.59-1.29-1.06-1.96-1.42c-0.66-0.36-1.35-0.58-2.06-0.64
			c-0.71-0.07-1.44,0.03-2.2,0.29s-1.55,0.71-2.37,1.36c-1.89,1.49-2.76,3.33-2.61,5.53s1.32,4.7,3.53,7.51l1.27,1.62
			c2.21,2.81,4.42,4.51,6.61,5.1s4.32,0.08,6.38-1.54c0.66-0.52,1.2-1.02,1.63-1.49c0.42-0.47,0.76-0.91,1.01-1.31
			c0.25-0.4,0.43-0.77,0.54-1.11c0.11-0.34,0.18-0.64,0.21-0.9l-3.64-4.61l-5.02,3.96l-3.2-4.06l10.53-8.3L461.29,282.24z"/>
		<path class="st1" d="M473.04,253.58l-8.85,10.17l6.89,5.99l10.38-11.94l4.26,3.7l-14.99,17.24l-25.71-22.36l14.96-17.2l4.29,3.73
			l-10.35,11.9l6.13,5.33l8.85-10.17L473.04,253.58z"/>
	</g>
</g>
</svg>
