<?xml version="1.0" encoding="utf-8"?>
<!-- Generator: Adobe Illustrator 24.2.3, SVG Export Plug-In . SVG Version: 6.00 Build 0)  -->
<svg version="1.1" id="Layer_1" xmlns="http://www.w3.org/2000/svg" xmlns:xlink="http://www.w3.org/1999/xlink" x="0px" y="0px"
	 viewBox="0 0 612 514.46" style="enable-background:new 0 0 612 514.46;" xml:space="preserve">
<style type="text/css">
	.st0{fill:#5B6670;}
</style>
<path class="st0" d="M305.51,495.79L93.33,269.42c-53.62-57.2-53.62-150.29,0-207.49c26.14-27.91,60.99-43.26,98.04-43.26
	c37.09,0,71.93,15.35,98.08,43.26l16.07,17.19l16.11-17.19c26.14-27.91,60.99-43.26,98.04-43.26c37.09,0,71.93,15.35,98.08,43.26
	c53.59,57.2,53.59,150.29,0,207.49L305.51,495.79z M191.37,37.15c-31.89,0-61.93,13.29-84.54,37.41
	c-47.12,50.23-47.12,131.98,0,182.21l198.68,212.01l198.72-212.01c47.09-50.23,47.09-131.98,0-182.21
	c-22.61-24.12-52.65-37.41-84.57-37.41c-31.89,0-61.93,13.29-84.54,37.41l-29.61,31.56l-29.57-31.56
	C253.33,50.44,223.29,37.15,191.37,37.15z"/>
</svg>
