<?xml version="1.0" encoding="utf-8"?>
<!-- Generator: Adobe Illustrator 24.2.3, SVG Export Plug-In . SVG Version: 6.00 Build 0)  -->
<svg version="1.1" id="Layer_1" xmlns="http://www.w3.org/2000/svg" xmlns:xlink="http://www.w3.org/1999/xlink" x="0px" y="0px"
	 viewBox="0 0 612 792" style="enable-background:new 0 0 612 792;" xml:space="preserve">
<style type="text/css">
	.st0{clip-path:url(#SVGID_2_);}
	.st1{fill:#CBDB2E;}
	.st2{fill:#E1E778;}
	.st3{fill:#006937;}
	.st4{clip-path:url(#SVGID_4_);}
	.st5{fill:#8DC641;}
	.st6{clip-path:url(#SVGID_6_);}
	.st7{fill:#E9A835;}
	.st8{clip-path:url(#SVGID_8_);}
	.st9{fill:#DD8027;}
	.st10{clip-path:url(#SVGID_10_);}
	.st11{fill:#DF6026;}
	.st12{clip-path:url(#SVGID_12_);}
	.st13{fill:#B12024;}
	.st14{clip-path:url(#SVGID_14_);}
	.st15{fill:#861719;}
	.st16{clip-path:url(#SVGID_16_);}
</style>
<g>
	<g>
		<defs>
			<path id="SVGID_1_" d="M-3156.97,2269.78c-16.75,42.3,14.18,112.75-26.86,187.15c-46.42,84.18-106.12,105.89-142.08,158.14
				c-29.97,43.55-15.28,111.57-1.74,110.52c13.53-1.07,6.33-65.25,66.81-98.03c51.16-27.72,175.65-85.01,230.69-192.87
				c48.13-94.32-24.94-220.11-24.94-220.11s20.37-50.94,9.57-81.84c-10.79-30.9-32.22-44.17-36.83-47.55
				c-4.6-3.39-27.57,18.09-22.61,25.03c4.97,6.94,29.35-2.4,41.39,44.83c7.87,30.86-21.14,60.81-21.14,60.81
				S-3144.41,2238.09-3156.97,2269.78z"/>
		</defs>
		<clipPath id="SVGID_2_">
			<use xlink:href="#SVGID_1_"  style="overflow:visible;"/>
		</clipPath>
		<g class="st0">
			<line class="st1" x1="-3366.33" y1="2563.4" x2="-3103.38" y2="2674.06"/>
			
				<rect x="-3253.97" y="2476.08" transform="matrix(0.3879 -0.9217 0.9217 0.3879 -4393.8154 -1378.6265)" class="st1" width="38.22" height="285.29"/>
		</g>
		<g class="st0">
			<line class="st2" x1="-3391.66" y1="2623.57" x2="-3128.7" y2="2734.23"/>
			
				<rect x="-3279.29" y="2536.25" transform="matrix(0.3879 -0.9217 0.9217 0.3879 -4464.8613 -1365.1097)" class="st2" width="38.22" height="285.29"/>
		</g>
	</g>
	<path class="st3" d="M-3328.04,2730.37c-3.06,0-7.28-1.58-11.22-8.42c-10.51-18.23-16.57-71.94,9.34-109.59
		c15.05-21.86,34.11-38.46,54.29-56.03c28.37-24.7,60.52-52.69,87.55-101.71c24.28-44.02,22.72-86.12,21.35-123.26
		c-0.91-24.57-1.69-45.79,5.26-63.34l0,0c12.37-31.24,65.4-52.9,73.96-56.23c4.16-4.64,25.73-30.23,19.26-55.57
		c-8.18-32.07-21.67-35.62-30.6-37.97c-3.98-1.05-7.74-2.04-10.05-5.27c-5.47-7.64,4.42-18.8,8.92-23.24
		c5.08-5.01,14.48-12.77,20.4-8.42l1.17,0.84c6.63,4.67,26.81,18.87,37.33,48.99c10.09,28.88-4.96,72.69-8.81,83.02
		c9.54,17.18,69.91,132.56,23.93,222.67c-50.59,99.14-158.58,155.89-216.6,186.38c-5.92,3.11-11.32,5.94-16.08,8.52
		c-38.32,20.77-48.05,54.1-54.49,76.16c-3.84,13.14-6.37,21.82-14.23,22.44C-3327.58,2730.36-3327.81,2730.37-3328.04,2730.37z
		 M-3084.23,2089.75c-4.85,1.64-17.15,13.95-16.72,18.12c0.28,0.03,2.73,0.67,4.52,1.14c10.42,2.74,27.85,7.33,37.42,44.85
		c8.44,33.07-21.07,64.02-22.34,65.31l-1.76,1.16c-0.57,0.21-57.88,21.87-69.5,51.2l0,0c-6.21,15.68-5.46,35.97-4.59,59.47
		c1.35,36.48,3.03,81.89-22.53,128.23c-27.85,50.5-60.68,79.08-89.64,104.3c-19.71,17.16-38.33,33.37-52.69,54.24
		c-20.31,29.51-19.11,72.17-11.77,93.03c2.65,7.53,5.22,9.82,5.91,10.03c1.34-1.01,3.7-9.1,5.6-15.6
		c6.47-22.15,17.29-59.21,59.11-81.88c4.79-2.6,10.23-5.45,16.19-8.58c57.08-30,163.31-85.82,212.53-182.26
		c46.37-90.87-24.1-214.31-24.82-215.55l-1.17-2.01l0.86-2.16c0.2-0.49,19.58-49.66,9.49-78.49c-9.5-27.22-27.8-40.1-33.81-44.33
		L-3084.23,2089.75z M-3085.24,2089.03c0.02,0.02,0.05,0.04,0.07,0.06L-3085.24,2089.03z"/>
</g>
<g>
	<g>
		<defs>
			<path id="SVGID_3_" d="M-3509.48,1008.39c-16.75,42.3,14.18,112.75-26.86,187.15c-46.42,84.18-106.12,105.89-142.08,158.14
				c-29.97,43.55-15.28,111.57-1.74,110.52c13.53-1.07,6.33-65.25,66.81-98.03c51.16-27.72,175.65-85.01,230.69-192.87
				c48.13-94.32-24.94-220.12-24.94-220.12s20.37-50.94,9.57-81.84c-10.79-30.9-32.22-44.17-36.83-47.55
				c-4.6-3.39-27.57,18.09-22.61,25.03c4.97,6.94,29.35-2.4,41.39,44.83c7.87,30.86-21.14,60.81-21.14,60.81
				S-3496.93,976.7-3509.48,1008.39z"/>
		</defs>
		<clipPath id="SVGID_4_">
			<use xlink:href="#SVGID_3_"  style="overflow:visible;"/>
		</clipPath>
		<g class="st4">
			<line class="st1" x1="-3718.85" y1="1302.01" x2="-3455.89" y2="1412.67"/>
			
				<rect x="-3606.48" y="1214.7" transform="matrix(0.3879 -0.9217 0.9217 0.3879 -3446.9624 -2475.6575)" class="st1" width="38.22" height="285.29"/>
		</g>
		<g class="st4">
			<line class="st2" x1="-3744.17" y1="1362.18" x2="-3481.21" y2="1472.84"/>
			
				<rect x="-3631.8" y="1274.87" transform="matrix(0.3879 -0.9217 0.9217 0.3879 -3517.9487 -2462.1655)" class="st2" width="38.22" height="285.29"/>
		</g>
		<g class="st4">
			<line class="st5" x1="-3693.53" y1="1241.84" x2="-3430.57" y2="1352.5"/>
			
				<rect x="-3581.16" y="1154.52" transform="matrix(0.3879 -0.9217 0.9217 0.3879 -3376.0024 -2489.1521)" class="st5" width="38.22" height="285.29"/>
		</g>
	</g>
	<path class="st3" d="M-3680.56,1468.98c-3.06,0-7.28-1.58-11.22-8.42c-10.51-18.23-16.57-71.94,9.34-109.59
		c15.05-21.86,34.11-38.46,54.29-56.03c28.37-24.7,60.52-52.69,87.55-101.71c24.28-44.02,22.72-86.12,21.35-123.26
		c-0.91-24.57-1.69-45.79,5.26-63.34l0,0c12.37-31.24,65.4-52.9,73.96-56.23c4.16-4.64,25.73-30.23,19.26-55.57
		c-8.18-32.07-21.67-35.62-30.6-37.97c-3.98-1.05-7.74-2.04-10.05-5.27c-5.47-7.64,4.42-18.8,8.92-23.24
		c5.08-5.01,14.48-12.77,20.4-8.42l1.17,0.84c6.63,4.67,26.81,18.87,37.33,48.99c10.09,28.88-4.96,72.69-8.81,83.02
		c9.54,17.18,69.91,132.56,23.93,222.67c-50.59,99.14-158.58,155.89-216.6,186.38c-5.92,3.11-11.32,5.94-16.08,8.52
		c-38.32,20.77-48.05,54.1-54.49,76.16c-3.84,13.14-6.37,21.82-14.23,22.44C-3680.09,1468.98-3680.32,1468.98-3680.56,1468.98z
		 M-3436.74,828.36c-4.85,1.64-17.15,13.95-16.72,18.12c0.28,0.03,2.73,0.67,4.52,1.14c10.42,2.74,27.85,7.33,37.42,44.85
		c8.44,33.07-21.07,64.02-22.34,65.31l-1.76,1.16c-0.57,0.21-57.88,21.87-69.5,51.2l0,0c-6.21,15.68-5.46,35.97-4.59,59.47
		c1.35,36.48,3.03,81.89-22.53,128.23c-27.85,50.5-60.68,79.08-89.64,104.3c-19.71,17.16-38.33,33.37-52.69,54.24
		c-20.31,29.51-19.11,72.17-11.77,93.03c2.65,7.53,5.22,9.82,5.91,10.03c1.34-1.01,3.7-9.1,5.6-15.6
		c6.47-22.15,17.29-59.21,59.11-81.88c4.79-2.6,10.23-5.45,16.19-8.58c57.08-30,163.31-85.82,212.53-182.26
		c46.37-90.87-24.1-214.31-24.82-215.55l-1.17-2.01l0.86-2.16c0.2-0.49,19.58-49.66,9.49-78.49c-9.5-27.22-27.8-40.1-33.81-44.33
		L-3436.74,828.36z M-3437.76,827.64c0.02,0.02,0.05,0.04,0.07,0.06L-3437.76,827.64z"/>
</g>
<g>
	<g>
		<defs>
			<path id="SVGID_5_" d="M-2804.32,575.91c-16.75,42.3,14.18,112.75-26.86,187.15c-46.42,84.18-106.12,105.89-142.08,158.14
				c-29.97,43.55-15.28,111.57-1.74,110.52c13.53-1.07,6.33-65.25,66.81-98.03c51.16-27.72,175.65-85.01,230.69-192.87
				c48.13-94.32-24.94-220.12-24.94-220.12s20.37-50.94,9.57-81.84c-10.79-30.9-32.22-44.17-36.83-47.55
				c-4.6-3.39-27.57,18.09-22.61,25.03c4.97,6.94,29.35-2.4,41.39,44.83c7.87,30.86-21.14,60.81-21.14,60.81
				S-2791.77,544.23-2804.32,575.91z"/>
		</defs>
		<clipPath id="SVGID_6_">
			<use xlink:href="#SVGID_5_"  style="overflow:visible;"/>
		</clipPath>
		<g class="st6">
			<line class="st1" x1="-3013.69" y1="869.54" x2="-2750.73" y2="980.19"/>
			
				<rect x="-2901.32" y="782.22" transform="matrix(0.3879 -0.9217 0.9217 0.3879 -2616.7068 -2090.4304)" class="st1" width="38.22" height="285.29"/>
		</g>
		<g class="st6">
			<line class="st2" x1="-3039.01" y1="929.71" x2="-2776.05" y2="1040.36"/>
			
				<rect x="-2926.64" y="842.39" transform="matrix(0.3879 -0.9217 0.9217 0.3879 -2687.6384 -2076.9382)" class="st2" width="38.22" height="285.29"/>
		</g>
		<g class="st6">
			<line class="st7" x1="-2963.04" y1="749.19" x2="-2700.09" y2="859.85"/>
			
				<rect x="-2850.68" y="661.88" transform="matrix(0.3879 -0.9217 0.9217 0.3879 -2474.8037 -2117.4197)" class="st7" width="38.22" height="285.29"/>
		</g>
		<g class="st6">
			<line class="st5" x1="-2988.37" y1="809.37" x2="-2725.41" y2="920.02"/>
			
				<rect x="-2876" y="722.05" transform="matrix(0.3879 -0.9217 0.9217 0.3879 -2545.7468 -2103.925)" class="st5" width="38.22" height="285.29"/>
		</g>
	</g>
	<path class="st3" d="M-2975.4,1036.51c-3.06,0-7.28-1.58-11.22-8.42c-10.51-18.23-16.57-71.94,9.34-109.59
		c15.05-21.86,34.11-38.46,54.29-56.03c28.37-24.7,60.52-52.69,87.55-101.71c24.28-44.02,22.72-86.12,21.34-123.26
		c-0.91-24.57-1.69-45.79,5.26-63.34l0,0c12.37-31.24,65.4-52.9,73.96-56.23c4.16-4.64,25.73-30.23,19.26-55.57
		c-8.18-32.07-21.67-35.62-30.6-37.97c-3.98-1.05-7.74-2.04-10.05-5.27c-5.47-7.64,4.42-18.8,8.92-23.24
		c5.08-5.01,14.48-12.77,20.4-8.42l1.17,0.84c6.63,4.67,26.81,18.87,37.33,48.99c10.09,28.88-4.96,72.69-8.81,83.02
		c9.54,17.18,69.91,132.56,23.93,222.67c-50.59,99.14-158.58,155.89-216.6,186.38c-5.92,3.11-11.32,5.94-16.08,8.52
		c-38.32,20.77-48.05,54.1-54.49,76.16c-3.83,13.14-6.37,21.82-14.23,22.44C-2974.93,1036.5-2975.16,1036.51-2975.4,1036.51z
		 M-2731.58,395.89c-4.85,1.64-17.15,13.95-16.72,18.12c0.28,0.03,2.73,0.67,4.52,1.14c10.42,2.74,27.85,7.33,37.42,44.85
		c8.44,33.07-21.07,64.02-22.34,65.31l-1.76,1.16c-0.57,0.21-57.88,21.87-69.5,51.2l0,0c-6.21,15.68-5.46,35.97-4.59,59.47
		c1.35,36.48,3.03,81.89-22.53,128.23c-27.85,50.5-60.68,79.08-89.64,104.3c-19.71,17.16-38.33,33.37-52.69,54.24
		c-20.31,29.51-19.11,72.17-11.77,93.03c2.65,7.53,5.22,9.82,5.91,10.03c1.34-1.01,3.7-9.1,5.6-15.6
		c6.47-22.15,17.29-59.21,59.11-81.88c4.79-2.6,10.23-5.45,16.18-8.58c57.08-30,163.31-85.82,212.53-182.26
		c46.37-90.87-24.1-214.31-24.82-215.55l-1.17-2.01l0.86-2.16c0.2-0.49,19.58-49.66,9.49-78.49c-9.5-27.22-27.8-40.1-33.81-44.33
		L-2731.58,395.89z M-2732.6,395.16c0.02,0.02,0.05,0.04,0.07,0.06L-2732.6,395.16z"/>
</g>
<g>
	<g>
		<defs>
			<path id="SVGID_7_" d="M-4478.04,108.01c-16.75,42.3,14.18,112.75-26.86,187.15c-46.42,84.18-106.12,105.89-142.08,158.14
				c-29.97,43.55-15.28,111.57-1.74,110.52c13.53-1.07,6.33-65.25,66.81-98.03c51.16-27.72,175.65-85.01,230.69-192.87
				c48.13-94.32-24.94-220.12-24.94-220.12s20.37-50.94,9.57-81.84c-10.79-30.9-32.22-44.17-36.83-47.55
				c-4.6-3.39-27.57,18.09-22.61,25.03c4.97,6.94,29.35-2.4,41.39,44.83c7.87,30.86-21.14,60.81-21.14,60.81
				S-4465.49,76.32-4478.04,108.01z"/>
		</defs>
		<clipPath id="SVGID_8_">
			<use xlink:href="#SVGID_7_"  style="overflow:visible;"/>
		</clipPath>
		<g class="st8">
			<line class="st1" x1="-4687.41" y1="401.63" x2="-4424.46" y2="512.29"/>
			
				<rect x="-4575.05" y="314.32" transform="matrix(0.3879 -0.9217 0.9217 0.3879 -3209.9526 -3919.5283)" class="st1" width="38.23" height="285.29"/>
		</g>
		<g class="st8">
			<line class="st2" x1="-4712.73" y1="461.8" x2="-4449.78" y2="572.46"/>
			
				<rect x="-4600.37" y="374.49" transform="matrix(0.3879 -0.9217 0.9217 0.3879 -3280.938 -3906.0471)" class="st2" width="38.23" height="285.29"/>
		</g>
		<g class="st8">
			<line class="st7" x1="-4636.77" y1="281.29" x2="-4373.81" y2="391.95"/>
			
				<rect x="-4524.41" y="193.97" transform="matrix(0.3879 -0.9217 0.9217 0.3879 -3068.0581 -3946.5244)" class="st7" width="38.23" height="285.29"/>
		</g>
		<g class="st8">
			<line class="st9" x1="-4611.45" y1="221.12" x2="-4348.49" y2="331.78"/>
			
				<rect x="-4499.08" y="133.81" transform="matrix(0.3879 -0.9217 0.9217 0.3879 -2997.1021 -3960.0166)" class="st9" width="38.23" height="285.29"/>
		</g>
		<g class="st8">
			<line class="st5" x1="-4662.09" y1="341.46" x2="-4399.14" y2="452.12"/>
			
				<rect x="-4549.73" y="254.14" transform="matrix(0.3879 -0.9217 0.9217 0.3879 -3138.9883 -3933.0259)" class="st5" width="38.23" height="285.29"/>
		</g>
	</g>
	<path class="st3" d="M-4649.12,568.68c-3.06,0-7.28-1.58-11.22-8.42c-10.51-18.23-16.57-71.94,9.34-109.59
		c15.05-21.86,34.11-38.46,54.29-56.03c28.37-24.7,60.52-52.69,87.55-101.71c24.28-44.02,22.72-86.12,21.35-123.26
		c-0.91-24.57-1.69-45.79,5.26-63.34l0,0c12.37-31.24,65.4-52.9,73.96-56.23c4.16-4.64,25.73-30.23,19.26-55.57
		c-8.18-32.07-21.67-35.62-30.6-37.97c-3.98-1.05-7.74-2.04-10.05-5.27c-5.47-7.64,4.42-18.8,8.92-23.24
		c5.08-5.01,14.48-12.77,20.4-8.42l1.17,0.84c6.63,4.67,26.81,18.87,37.33,48.99c10.09,28.88-4.96,72.69-8.81,83.02
		c9.54,17.18,69.91,132.56,23.92,222.67c-50.59,99.14-158.58,155.89-216.6,186.38c-5.92,3.11-11.32,5.94-16.08,8.52
		c-38.32,20.77-48.05,54.1-54.49,76.16c-3.83,13.14-6.37,21.82-14.23,22.44C-4648.66,568.68-4648.88,568.68-4649.12,568.68z
		 M-4405.3-71.94c-4.85,1.64-17.15,13.95-16.72,18.12c0.28,0.03,2.73,0.67,4.52,1.14c10.42,2.74,27.85,7.33,37.42,44.85
		c8.44,33.07-21.07,64.02-22.34,65.31l-1.76,1.16c-0.57,0.21-57.88,21.87-69.5,51.2l0,0c-6.21,15.68-5.46,35.97-4.59,59.47
		c1.35,36.48,3.03,81.89-22.53,128.23c-27.85,50.5-60.68,79.08-89.64,104.3c-19.71,17.16-38.33,33.37-52.69,54.24
		c-20.31,29.51-19.11,72.17-11.77,93.03c2.65,7.53,5.22,9.82,5.91,10.03c1.34-1.01,3.7-9.1,5.6-15.6
		c6.47-22.15,17.29-59.21,59.11-81.88c4.79-2.6,10.23-5.45,16.19-8.58c57.08-30,163.31-85.82,212.53-182.26
		c46.37-90.87-24.1-214.31-24.82-215.55l-1.17-2.01l0.86-2.16c0.2-0.49,19.58-49.66,9.49-78.49c-9.5-27.22-27.8-40.1-33.81-44.33
		L-4405.3-71.94z M-4406.32-72.66c0.02,0.02,0.05,0.04,0.07,0.06L-4406.32-72.66z"/>
</g>
<g>
	<g>
		<defs>
			<path id="SVGID_9_" d="M327.62,279.97c-16.75,42.3,14.18,112.75-26.86,187.15c-46.42,84.18-106.12,105.89-142.08,158.14
				c-29.97,43.55-15.28,111.57-1.74,110.52c13.53-1.07,6.33-65.25,66.81-98.03c51.16-27.72,175.65-85.01,230.69-192.87
				c48.13-94.32-24.94-220.12-24.94-220.12s20.37-50.94,9.57-81.84c-10.79-30.9-32.22-44.17-36.83-47.55
				c-4.6-3.39-27.57,18.09-22.61,25.03c4.97,6.94,29.35-2.4,41.39,44.83c7.87,30.86-21.14,60.81-21.14,60.81
				S340.17,248.28,327.62,279.97z"/>
		</defs>
		<clipPath id="SVGID_10_">
			<use xlink:href="#SVGID_9_"  style="overflow:visible;"/>
		</clipPath>
		<g class="st10">
			<line class="st1" x1="118.25" y1="573.59" x2="381.2" y2="684.25"/>
			
				<rect x="230.61" y="486.27" transform="matrix(0.3879 -0.9217 0.9217 0.3879 -426.817 615.1462)" class="st1" width="38.23" height="285.29"/>
		</g>
		<g class="st10">
			<line class="st2" x1="92.93" y1="633.76" x2="355.88" y2="744.42"/>
			
				<rect x="205.29" y="546.45" transform="matrix(0.3879 -0.9217 0.9217 0.3879 -497.7833 628.646)" class="st2" width="38.23" height="285.29"/>
		</g>
		<g class="st10">
			<line class="st7" x1="168.89" y1="453.25" x2="431.85" y2="563.91"/>
			
				<rect x="281.26" y="365.94" transform="matrix(0.3879 -0.9217 0.9217 0.3879 -284.9034 588.1686)" class="st7" width="38.23" height="285.29"/>
		</g>
		<g class="st10">
			<line class="st9" x1="194.21" y1="393.08" x2="457.17" y2="503.74"/>
			
				<rect x="306.58" y="305.76" transform="matrix(0.3879 -0.9217 0.9217 0.3879 -213.9387 574.6708)" class="st9" width="38.23" height="285.29"/>
		</g>
		<g class="st10">
			<line class="st11" x1="219.53" y1="332.91" x2="482.49" y2="443.57"/>
			
				<rect x="331.9" y="245.59" transform="matrix(0.3879 -0.9217 0.9217 0.3879 -142.9826 561.1788)" class="st11" width="38.23" height="285.29"/>
		</g>
		<g class="st10">
			<line class="st5" x1="143.57" y1="513.42" x2="406.52" y2="624.08"/>
			
				<rect x="255.93" y="426.11" transform="matrix(0.3879 -0.9217 0.9217 0.3879 -355.8612 601.6544)" class="st5" width="38.23" height="285.29"/>
		</g>
	</g>
	<path class="st3" d="M156.54,740.56c-3.06,0-7.28-1.58-11.22-8.42c-10.51-18.23-16.57-71.94,9.34-109.59
		c15.05-21.86,34.11-38.46,54.29-56.03c28.37-24.7,60.52-52.69,87.55-101.71c24.28-44.02,22.72-86.12,21.35-123.26
		c-0.91-24.57-1.69-45.79,5.26-63.34l0,0c12.37-31.24,65.4-52.9,73.96-56.23c4.16-4.64,25.73-30.23,19.26-55.57
		c-8.18-32.07-21.67-35.62-30.6-37.97c-3.98-1.05-7.74-2.04-10.05-5.27c-5.47-7.64,4.42-18.8,8.92-23.24
		c5.08-5.01,14.48-12.77,20.4-8.42l1.17,0.84c6.63,4.67,26.81,18.87,37.33,48.99c10.09,28.88-4.96,72.69-8.81,83.02
		c9.54,17.18,69.91,132.56,23.93,222.67c-50.59,99.14-158.58,155.89-216.6,186.38c-5.92,3.11-11.32,5.94-16.08,8.52
		c-38.32,20.77-48.05,54.1-54.49,76.16c-3.84,13.14-6.37,21.82-14.23,22.44C157,740.55,156.78,740.56,156.54,740.56z M400.36,99.94
		c-4.85,1.64-17.15,13.95-16.72,18.12c0.28,0.03,2.73,0.67,4.52,1.14c10.42,2.74,27.85,7.33,37.42,44.85
		c8.44,33.07-21.07,64.02-22.34,65.31l-1.76,1.16c-0.57,0.21-57.88,21.87-69.5,51.2l0,0c-6.21,15.68-5.46,35.97-4.59,59.47
		c1.35,36.48,3.03,81.89-22.53,128.23c-27.85,50.5-60.68,79.08-89.64,104.3c-19.71,17.16-38.33,33.37-52.69,54.24
		c-20.31,29.51-19.11,72.17-11.77,93.03c2.65,7.53,5.22,9.82,5.91,10.03c1.34-1.01,3.7-9.1,5.6-15.6
		c6.47-22.15,17.29-59.21,59.11-81.88c4.79-2.6,10.23-5.45,16.18-8.58c57.08-30,163.31-85.82,212.53-182.26
		c46.37-90.87-24.1-214.31-24.82-215.55l-1.17-2.01l0.86-2.16c0.2-0.49,19.58-49.66,9.49-78.49c-9.5-27.22-27.8-40.1-33.81-44.33
		L400.36,99.94z M399.34,99.22c0.02,0.02,0.05,0.04,0.07,0.06L399.34,99.22z"/>
</g>
<g>
	<g>
		<defs>
			<path id="SVGID_11_" d="M3058.75,1766.68c-16.75,42.3,14.18,112.75-26.86,187.15c-46.42,84.18-106.12,105.89-142.08,158.14
				c-29.97,43.55-15.28,111.57-1.74,110.52c13.53-1.07,6.33-65.25,66.81-98.03c51.16-27.72,175.65-85.01,230.69-192.87
				c48.13-94.32-24.94-220.12-24.94-220.12s20.37-50.94,9.57-81.84c-10.79-30.9-32.22-44.17-36.83-47.55
				c-4.6-3.39-27.57,18.09-22.61,25.03c4.97,6.94,29.35-2.4,41.39,44.83c7.87,30.86-21.14,60.81-21.14,60.81
				S3071.3,1735,3058.75,1766.68z"/>
		</defs>
		<clipPath id="SVGID_12_">
			<use xlink:href="#SVGID_11_"  style="overflow:visible;"/>
		</clipPath>
		<g class="st12">
			<line class="st1" x1="2849.38" y1="2060.31" x2="3112.33" y2="2170.96"/>
			
				<rect x="2961.74" y="1972.99" transform="matrix(0.3879 -0.9217 0.9217 0.3879 -125.3666 4042.4961)" class="st1" width="38.23" height="285.29"/>
		</g>
		<g class="st12">
			<line class="st2" x1="2824.06" y1="2120.48" x2="3087.01" y2="2231.13"/>
			
				<rect x="2936.42" y="2033.16" transform="matrix(0.3879 -0.9217 0.9217 0.3879 -196.3119 4056.0056)" class="st2" width="38.23" height="285.29"/>
		</g>
		<g class="st12">
			<line class="st7" x1="2900.02" y1="1939.96" x2="3162.97" y2="2050.62"/>
			
				<rect x="3012.38" y="1852.64" transform="matrix(0.3879 -0.9217 0.9217 0.3879 16.5679 4015.5283)" class="st7" width="38.23" height="285.29"/>
		</g>
		<g class="st12">
			<line class="st9" x1="2925.34" y1="1879.79" x2="3188.3" y2="1990.45"/>
			
				<rect x="3037.7" y="1792.48" transform="matrix(0.3879 -0.9217 0.9217 0.3879 87.524 4002.0361)" class="st9" width="38.23" height="285.29"/>
		</g>
		<g class="st12">
			<line class="st13" x1="2975.98" y1="1759.45" x2="3238.94" y2="1870.11"/>
			
				<rect x="3088.35" y="1672.13" transform="matrix(0.3879 -0.9217 0.9217 0.3879 229.4326 3975.0303)" class="st13" width="38.23" height="285.29"/>
		</g>
		<g class="st12">
			<line class="st11" x1="2950.66" y1="1819.62" x2="3213.62" y2="1930.28"/>
			
				<rect x="3063.02" y="1732.31" transform="matrix(0.3879 -0.9217 0.9217 0.3879 158.4802 3988.5442)" class="st11" width="38.23" height="285.29"/>
		</g>
		<g class="st12">
			<line class="st5" x1="2874.7" y1="2000.14" x2="3137.65" y2="2110.79"/>
			
				<rect x="2987.06" y="1912.82" transform="matrix(0.3879 -0.9217 0.9217 0.3879 -54.4108 4029.0044)" class="st5" width="38.23" height="285.29"/>
		</g>
	</g>
	<path class="st3" d="M2887.67,2227.28c-3.06,0-7.28-1.58-11.22-8.42c-10.51-18.23-16.57-71.94,9.34-109.59
		c15.05-21.86,34.11-38.46,54.29-56.03c28.37-24.7,60.52-52.69,87.55-101.71c24.28-44.02,22.72-86.12,21.35-123.26
		c-0.91-24.57-1.69-45.79,5.26-63.34l0,0c12.37-31.24,65.4-52.9,73.96-56.23c4.16-4.64,25.73-30.23,19.26-55.57
		c-8.18-32.07-21.67-35.62-30.6-37.97c-3.98-1.05-7.74-2.04-10.05-5.27c-5.47-7.64,4.42-18.8,8.92-23.24
		c5.08-5.01,14.48-12.77,20.4-8.42l1.17,0.84c6.63,4.67,26.81,18.87,37.33,48.99c10.09,28.88-4.96,72.69-8.81,83.02
		c9.54,17.18,69.91,132.56,23.93,222.67c-50.59,99.14-158.58,155.89-216.6,186.38c-5.92,3.11-11.32,5.94-16.08,8.52
		c-38.32,20.77-48.05,54.1-54.49,76.16c-3.84,13.14-6.37,21.82-14.23,22.44C2888.13,2227.27,2887.9,2227.28,2887.67,2227.28z
		 M3131.49,1586.66c-4.85,1.64-17.15,13.95-16.72,18.12c0.28,0.03,2.73,0.67,4.52,1.14c10.42,2.74,27.85,7.33,37.42,44.85
		c8.44,33.07-21.07,64.02-22.34,65.31l-1.76,1.16c-0.57,0.21-57.88,21.87-69.5,51.2l0,0c-6.21,15.68-5.46,35.97-4.59,59.47
		c1.35,36.48,3.03,81.89-22.53,128.23c-27.85,50.5-60.68,79.08-89.64,104.3c-19.71,17.16-38.33,33.37-52.69,54.24
		c-20.31,29.51-19.11,72.17-11.77,93.03c2.65,7.53,5.22,9.82,5.91,10.03c1.34-1.01,3.7-9.1,5.6-15.6
		c6.47-22.15,17.29-59.21,59.11-81.88c4.79-2.6,10.23-5.45,16.19-8.58c57.08-30,163.31-85.82,212.53-182.26
		c46.37-90.87-24.1-214.31-24.82-215.55l-1.17-2.01l0.86-2.16c0.2-0.49,19.58-49.66,9.49-78.49c-9.5-27.22-27.8-40.1-33.81-44.33
		L3131.49,1586.66z M3130.47,1585.93c0.02,0.02,0.05,0.04,0.07,0.06L3130.47,1585.93z"/>
</g>
<g>
	<g>
		<defs>
			<path id="SVGID_13_" d="M3741.25,1776.4c-16.75,42.3,14.18,112.75-26.86,187.15c-46.42,84.18-106.12,105.89-142.08,158.14
				c-29.97,43.55-15.28,111.57-1.74,110.52c13.53-1.07,6.33-65.25,66.81-98.03c51.16-27.72,175.65-85.01,230.69-192.87
				c48.13-94.32-24.94-220.12-24.94-220.12s20.37-50.94,9.57-81.84c-10.79-30.9-32.22-44.17-36.83-47.55
				c-4.6-3.39-27.57,18.09-22.61,25.03c4.97,6.94,29.35-2.4,41.39,44.83c7.87,30.86-21.14,60.81-21.14,60.81
				S3753.8,1744.72,3741.25,1776.4z"/>
		</defs>
		<clipPath id="SVGID_14_">
			<use xlink:href="#SVGID_13_"  style="overflow:visible;"/>
		</clipPath>
		<g class="st14">
			<line class="st1" x1="3531.88" y1="2070.02" x2="3794.83" y2="2180.68"/>
			
				<rect x="3644.24" y="1982.71" transform="matrix(0.3879 -0.9217 0.9217 0.3879 283.4449 4677.5127)" class="st1" width="38.23" height="285.29"/>
		</g>
		<g class="st14">
			<line class="st2" x1="3506.56" y1="2130.19" x2="3769.51" y2="2240.85"/>
			
				<rect x="3618.92" y="2042.88" transform="matrix(0.3879 -0.9217 0.9217 0.3879 212.5036 4691.0239)" class="st2" width="38.23" height="285.29"/>
		</g>
		<g class="st14">
			<line class="st7" x1="3582.52" y1="1949.68" x2="3845.48" y2="2060.34"/>
			
				<rect x="3694.89" y="1862.36" transform="matrix(0.3879 -0.9217 0.9217 0.3879 425.3834 4650.5464)" class="st7" width="38.23" height="285.29"/>
		</g>
		<g class="st14">
			<line class="st9" x1="3607.84" y1="1889.51" x2="3870.8" y2="2000.17"/>
			
				<rect x="3720.21" y="1802.2" transform="matrix(0.3879 -0.9217 0.9217 0.3879 496.3395 4637.0542)" class="st9" width="38.23" height="285.29"/>
		</g>
		<g class="st14">
			<line class="st13" x1="3658.48" y1="1769.17" x2="3921.44" y2="1879.83"/>
			
				<rect x="3770.85" y="1681.85" transform="matrix(0.3879 -0.9217 0.9217 0.3879 638.2441 4610.0469)" class="st13" width="38.23" height="285.29"/>
		</g>
		<g class="st14">
			<line class="st11" x1="3633.16" y1="1829.34" x2="3896.12" y2="1940"/>
			
				<rect x="3745.53" y="1742.02" transform="matrix(0.3879 -0.9217 0.9217 0.3879 567.3043 4623.5566)" class="st11" width="38.23" height="285.29"/>
		</g>
		<g class="st14">
			<line class="st15" x1="3683.8" y1="1709" x2="3946.76" y2="1819.66"/>
			
				<rect x="3796.17" y="1621.69" transform="matrix(0.3879 -0.9217 0.9217 0.3879 709.2 4596.5552)" class="st15" width="38.23" height="285.29"/>
		</g>
		<g class="st14">
			<line class="st5" x1="3557.2" y1="2009.85" x2="3820.15" y2="2120.51"/>
			
				<rect x="3669.56" y="1922.53" transform="matrix(0.3879 -0.9217 0.9217 0.3879 354.4094 4664.0151)" class="st5" width="38.23" height="285.29"/>
		</g>
	</g>
	<path class="st3" d="M3570.17,2236.98c-3.06,0-7.28-1.58-11.22-8.42c-10.51-18.23-16.57-71.94,9.34-109.59
		c15.05-21.86,34.11-38.46,54.29-56.03c28.37-24.7,60.52-52.69,87.55-101.71c24.28-44.02,22.72-86.12,21.34-123.26
		c-0.91-24.57-1.69-45.79,5.26-63.34l0,0c12.37-31.24,65.4-52.9,73.96-56.23c4.16-4.64,25.73-30.23,19.26-55.57
		c-8.18-32.07-21.67-35.62-30.6-37.97c-3.98-1.05-7.74-2.04-10.05-5.27c-5.47-7.64,4.42-18.8,8.92-23.24
		c5.08-5.01,14.48-12.77,20.4-8.42l1.17,0.84c6.63,4.67,26.81,18.87,37.33,48.99c10.09,28.88-4.96,72.69-8.81,83.02
		c9.54,17.18,69.91,132.56,23.93,222.67c-50.59,99.14-158.58,155.89-216.6,186.38c-5.92,3.11-11.32,5.94-16.08,8.52
		c-38.32,20.77-48.05,54.1-54.49,76.16c-3.83,13.14-6.37,21.82-14.23,22.44C3570.63,2236.97,3570.41,2236.98,3570.17,2236.98z
		 M3813.99,1596.36c-4.85,1.64-17.15,13.95-16.72,18.12c0.28,0.03,2.73,0.67,4.52,1.14c10.42,2.74,27.85,7.33,37.42,44.85
		c8.44,33.07-21.07,64.02-22.34,65.31l-1.76,1.16c-0.57,0.21-57.88,21.87-69.5,51.2l0,0c-6.21,15.68-5.46,35.97-4.59,59.47
		c1.35,36.48,3.03,81.89-22.53,128.23c-27.85,50.5-60.68,79.08-89.64,104.3c-19.71,17.16-38.33,33.37-52.69,54.24
		c-20.31,29.51-19.11,72.17-11.77,93.03c2.65,7.53,5.22,9.82,5.91,10.03c1.34-1.01,3.7-9.1,5.6-15.6
		c6.47-22.15,17.29-59.21,59.11-81.88c4.79-2.6,10.23-5.45,16.18-8.58c57.08-30,163.31-85.82,212.53-182.26
		c46.37-90.87-24.1-214.31-24.82-215.55l-1.17-2.01l0.86-2.16c0.2-0.49,19.58-49.66,9.49-78.49c-9.5-27.22-27.8-40.1-33.81-44.33
		L3813.99,1596.36z M3812.97,1595.63c0.02,0.02,0.05,0.04,0.07,0.06L3812.97,1595.63z"/>
</g>
<g>
	<g>
		<defs>
			<path id="SVGID_15_" d="M-1537.43,1747.2c-16.75,42.3,14.18,112.75-26.86,187.15c-46.42,84.18-106.12,105.89-142.08,158.14
				c-29.97,43.55-15.28,111.57-1.74,110.52c13.53-1.07,6.33-65.25,66.81-98.03c51.16-27.72,175.65-85.01,230.69-192.87
				c48.13-94.32-24.94-220.12-24.94-220.12s20.37-50.94,9.57-81.84c-10.79-30.9-32.22-44.17-36.83-47.55
				c-4.6-3.39-27.57,18.09-22.61,25.03c4.97,6.94,29.35-2.4,41.39,44.83c7.87,30.86-21.14,60.81-21.14,60.81
				S-1524.88,1715.52-1537.43,1747.2z"/>
		</defs>
		<clipPath id="SVGID_16_">
			<use xlink:href="#SVGID_15_"  style="overflow:visible;"/>
		</clipPath>
		<g class="st16">
			<line class="st2" x1="-1772.12" y1="2101" x2="-1509.17" y2="2211.65"/>
			
				<rect x="-1659.76" y="2013.68" transform="matrix(0.3879 -0.9217 0.9217 0.3879 -2991.821 -192.2473)" class="st2" width="38.22" height="285.29"/>
		</g>
	</g>
	<path class="st3" d="M-1708.51,2207.8c-3.06,0-7.28-1.58-11.22-8.42c-10.51-18.23-16.57-71.94,9.34-109.59
		c15.05-21.86,34.11-38.46,54.29-56.03c28.37-24.7,60.52-52.69,87.55-101.71c24.28-44.02,22.72-86.12,21.35-123.26
		c-0.91-24.57-1.69-45.79,5.26-63.34l0,0c12.37-31.24,65.4-52.9,73.96-56.23c4.16-4.64,25.73-30.23,19.26-55.57
		c-8.18-32.07-21.67-35.62-30.6-37.97c-3.98-1.05-7.74-2.04-10.05-5.27c-5.47-7.64,4.42-18.8,8.92-23.24
		c5.08-5.01,14.48-12.77,20.4-8.42l1.17,0.84c6.63,4.67,26.81,18.87,37.33,48.99c10.09,28.88-4.96,72.69-8.81,83.02
		c9.54,17.18,69.91,132.56,23.93,222.67c-50.59,99.14-158.58,155.89-216.6,186.38c-5.92,3.11-11.32,5.94-16.08,8.52
		c-38.32,20.77-48.05,54.1-54.49,76.16c-3.84,13.14-6.37,21.82-14.23,22.44C-1708.05,2207.79-1708.28,2207.8-1708.51,2207.8z
		 M-1464.69,1567.17c-4.85,1.64-17.15,13.95-16.72,18.12c0.28,0.03,2.73,0.67,4.52,1.14c10.42,2.74,27.85,7.33,37.42,44.85
		c8.44,33.07-21.07,64.02-22.34,65.31l-1.76,1.16c-0.57,0.21-57.88,21.87-69.5,51.2l0,0c-6.21,15.68-5.46,35.97-4.59,59.47
		c1.35,36.48,3.03,81.89-22.53,128.23c-27.85,50.5-60.68,79.08-89.64,104.3c-19.71,17.16-38.33,33.37-52.69,54.24
		c-20.31,29.51-19.11,72.17-11.77,93.03c2.65,7.53,5.22,9.82,5.91,10.03c1.34-1.01,3.7-9.1,5.6-15.6
		c6.47-22.15,17.29-59.21,59.11-81.88c4.79-2.6,10.23-5.45,16.18-8.58c57.08-30,163.31-85.82,212.53-182.26
		c46.37-90.87-24.1-214.31-24.82-215.55l-1.17-2.01l0.86-2.16c0.2-0.49,19.58-49.66,9.49-78.49c-9.5-27.22-27.8-40.1-33.81-44.33
		L-1464.69,1567.17z M-1465.71,1566.45c0.02,0.02,0.05,0.04,0.07,0.06L-1465.71,1566.45z"/>
</g>
</svg>
