<?xml version="1.0" encoding="utf-8"?>
<!-- Generator: Adobe Illustrator 24.2.3, SVG Export Plug-In . SVG Version: 6.00 Build 0)  -->
<svg version="1.1" id="Layer_1" xmlns="http://www.w3.org/2000/svg" xmlns:xlink="http://www.w3.org/1999/xlink" x="0px" y="0px"
	 viewBox="0 0 612 792" style="enable-background:new 0 0 612 792;" xml:space="preserve">
<style type="text/css">
	.st0{clip-path:url(#SVGID_2_);}
	.st1{fill:#CBDB2E;}
	.st2{fill:#E1E778;}
	.st3{fill:#006937;}
	.st4{clip-path:url(#SVGID_4_);}
	.st5{fill:#8DC641;}
	.st6{clip-path:url(#SVGID_6_);}
	.st7{fill:#E9A835;}
	.st8{clip-path:url(#SVGID_8_);}
	.st9{fill:#DD8027;}
	.st10{clip-path:url(#SVGID_10_);}
	.st11{fill:#DF6026;}
	.st12{clip-path:url(#SVGID_12_);}
	.st13{fill:#B12024;}
	.st14{clip-path:url(#SVGID_14_);}
	.st15{fill:#861719;}
	.st16{clip-path:url(#SVGID_16_);}
</style>
<g>
	<g>
		<defs>
			<path id="SVGID_1_" d="M-2526.27,2585.12c-16.75,42.3,14.18,112.75-26.86,187.15c-46.42,84.18-106.12,105.89-142.08,158.14
				c-29.97,43.55-15.28,111.57-1.74,110.52c13.53-1.07,6.33-65.25,66.81-98.03c51.16-27.72,175.65-85.01,230.69-192.87
				c48.13-94.32-24.94-220.12-24.94-220.12s20.37-50.94,9.57-81.84c-10.79-30.9-32.22-44.17-36.83-47.55
				c-4.6-3.39-27.57,18.09-22.61,25.03c4.97,6.94,29.35-2.4,41.39,44.83c7.87,30.86-21.14,60.81-21.14,60.81
				S-2513.72,2553.44-2526.27,2585.12z"/>
		</defs>
		<clipPath id="SVGID_2_">
			<use xlink:href="#SVGID_1_"  style="overflow:visible;"/>
		</clipPath>
		<g class="st0">
			<line class="st1" x1="-2735.64" y1="2878.75" x2="-2472.69" y2="2989.4"/>
			
				<rect x="-2623.27" y="2791.43" transform="matrix(0.3879 -0.9217 0.9217 0.3879 -4298.415 -604.2816)" class="st1" width="38.22" height="285.29"/>
		</g>
		<g class="st0">
			<line class="st2" x1="-2760.96" y1="2938.92" x2="-2498.01" y2="3049.57"/>
			
				<rect x="-2648.59" y="2851.6" transform="matrix(0.3879 -0.9217 0.9217 0.3879 -4369.4512 -590.7532)" class="st2" width="38.22" height="285.29"/>
		</g>
	</g>
	<path class="st3" d="M-2697.35,3045.72c-3.06,0-7.28-1.58-11.22-8.42c-10.51-18.23-16.57-71.94,9.34-109.59
		c15.05-21.86,34.11-38.46,54.29-56.03c28.37-24.7,60.52-52.69,87.55-101.71c24.28-44.02,22.72-86.12,21.34-123.26
		c-0.91-24.57-1.69-45.79,5.26-63.34l0,0c12.37-31.24,65.4-52.9,73.96-56.22c4.16-4.64,25.73-30.23,19.26-55.57
		c-8.18-32.07-21.67-35.62-30.6-37.97c-3.98-1.05-7.74-2.04-10.05-5.27c-5.47-7.64,4.42-18.8,8.92-23.24
		c5.08-5.01,14.48-12.77,20.4-8.42l1.17,0.84c6.63,4.67,26.81,18.87,37.33,48.99c10.09,28.88-4.96,72.69-8.81,83.02
		c9.54,17.18,69.91,132.56,23.93,222.67c-50.59,99.14-158.58,155.89-216.6,186.38c-5.92,3.11-11.32,5.94-16.08,8.52
		c-38.32,20.77-48.05,54.1-54.49,76.16c-3.83,13.14-6.37,21.82-14.23,22.44C-2696.88,3045.71-2697.11,3045.72-2697.35,3045.72z
		 M-2453.53,2405.1c-4.85,1.64-17.15,13.95-16.72,18.12c0.28,0.03,2.73,0.67,4.52,1.14c10.42,2.74,27.85,7.33,37.42,44.85
		c8.44,33.07-21.07,64.02-22.34,65.31l-1.76,1.16c-0.57,0.21-57.88,21.87-69.5,51.2l0,0c-6.21,15.68-5.46,35.97-4.59,59.47
		c1.35,36.49,3.03,81.89-22.53,128.23c-27.85,50.5-60.68,79.08-89.64,104.3c-19.71,17.16-38.33,33.37-52.69,54.24
		c-20.31,29.51-19.11,72.17-11.77,93.03c2.65,7.53,5.22,9.82,5.91,10.03c1.34-1.01,3.7-9.1,5.6-15.6
		c6.47-22.15,17.29-59.21,59.11-81.88c4.79-2.6,10.23-5.45,16.18-8.58c57.08-30,163.31-85.82,212.53-182.26
		c46.37-90.87-24.1-214.31-24.82-215.55l-1.17-2.01l0.86-2.16c0.2-0.49,19.58-49.66,9.49-78.49c-9.5-27.22-27.8-40.1-33.81-44.33
		L-2453.53,2405.1z M-2454.55,2404.37c0.02,0.02,0.05,0.04,0.07,0.06L-2454.55,2404.37z"/>
</g>
<g>
	<g>
		<defs>
			<path id="SVGID_3_" d="M-2878.78,1323.74c-16.75,42.3,14.18,112.75-26.86,187.15c-46.42,84.18-106.12,105.89-142.08,158.14
				c-29.97,43.55-15.28,111.57-1.74,110.52c13.53-1.07,6.33-65.25,66.81-98.03c51.16-27.72,175.65-85.01,230.69-192.87
				c48.13-94.32-24.94-220.12-24.94-220.12s20.37-50.94,9.57-81.84c-10.79-30.9-32.22-44.17-36.83-47.55
				c-4.6-3.39-27.57,18.09-22.61,25.03c4.97,6.94,29.35-2.4,41.39,44.83c7.87,30.86-21.14,60.81-21.14,60.81
				S-2866.23,1292.05-2878.78,1323.74z"/>
		</defs>
		<clipPath id="SVGID_4_">
			<use xlink:href="#SVGID_3_"  style="overflow:visible;"/>
		</clipPath>
		<g class="st4">
			<line class="st1" x1="-3088.15" y1="1617.36" x2="-2825.2" y2="1728.02"/>
			
				<rect x="-2975.78" y="1530.04" transform="matrix(0.3879 -0.9217 0.9217 0.3879 -3351.562 -1701.3124)" class="st1" width="38.22" height="285.29"/>
		</g>
		<g class="st4">
			<line class="st2" x1="-3113.47" y1="1677.53" x2="-2850.52" y2="1788.19"/>
			
				<rect x="-3001.11" y="1590.21" transform="matrix(0.3879 -0.9217 0.9217 0.3879 -3422.5454 -1687.8173)" class="st2" width="38.22" height="285.29"/>
		</g>
		<g class="st4">
			<line class="st5" x1="-3062.83" y1="1557.19" x2="-2799.88" y2="1667.85"/>
			
				<rect x="-2950.46" y="1469.87" transform="matrix(0.3879 -0.9217 0.9217 0.3879 -3280.6018 -1714.807)" class="st5" width="38.22" height="285.29"/>
		</g>
	</g>
	<path class="st3" d="M-3049.86,1784.33c-3.06,0-7.28-1.58-11.22-8.42c-10.51-18.23-16.57-71.94,9.34-109.59
		c15.05-21.86,34.11-38.46,54.29-56.03c28.37-24.7,60.52-52.69,87.55-101.71c24.28-44.02,22.72-86.12,21.34-123.26
		c-0.91-24.57-1.69-45.79,5.26-63.34l0,0c12.37-31.24,65.4-52.9,73.96-56.22c4.16-4.64,25.73-30.23,19.26-55.57
		c-8.18-32.07-21.67-35.62-30.6-37.97c-3.98-1.05-7.74-2.04-10.05-5.27c-5.47-7.64,4.42-18.8,8.92-23.24
		c5.08-5.01,14.48-12.77,20.4-8.42l1.17,0.84c6.63,4.67,26.81,18.87,37.33,48.99c10.09,28.88-4.96,72.69-8.81,83.02
		c9.54,17.18,69.91,132.56,23.93,222.67c-50.59,99.14-158.58,155.89-216.6,186.38c-5.92,3.11-11.32,5.94-16.08,8.52
		c-38.32,20.77-48.05,54.1-54.49,76.16c-3.83,13.14-6.37,21.82-14.23,22.44C-3049.4,1784.32-3049.63,1784.33-3049.86,1784.33z
		 M-2806.04,1143.71c-4.85,1.64-17.15,13.95-16.72,18.12c0.28,0.03,2.73,0.67,4.52,1.14c10.42,2.74,27.85,7.33,37.42,44.85
		c8.44,33.07-21.07,64.02-22.34,65.31l-1.76,1.16c-0.57,0.21-57.88,21.87-69.5,51.2l0,0c-6.21,15.68-5.46,35.97-4.59,59.47
		c1.35,36.48,3.03,81.89-22.53,128.23c-27.85,50.5-60.68,79.08-89.64,104.3c-19.71,17.16-38.33,33.37-52.69,54.24
		c-20.31,29.51-19.11,72.17-11.77,93.03c2.65,7.53,5.22,9.82,5.91,10.03c1.34-1.01,3.7-9.1,5.6-15.6
		c6.47-22.15,17.29-59.21,59.11-81.88c4.79-2.6,10.23-5.45,16.18-8.58c57.08-30,163.31-85.82,212.53-182.26
		c46.37-90.87-24.1-214.31-24.82-215.55l-1.17-2.01l0.86-2.16c0.2-0.49,19.58-49.66,9.49-78.49c-9.5-27.22-27.8-40.1-33.81-44.33
		L-2806.04,1143.71z M-2807.06,1142.98c0.02,0.02,0.05,0.04,0.07,0.06L-2807.06,1142.98z"/>
</g>
<g>
	<g>
		<defs>
			<path id="SVGID_5_" d="M313.11,260.57c-16.75,42.3,14.18,112.75-26.86,187.15c-46.42,84.18-106.12,105.89-142.08,158.14
				c-29.97,43.55-15.28,111.57-1.74,110.52c13.53-1.07,6.33-65.25,66.81-98.03c51.16-27.72,175.65-85.01,230.69-192.87
				C488.06,331.16,415,205.36,415,205.36s20.37-50.94,9.57-81.84c-10.79-30.9-32.22-44.17-36.83-47.55
				c-4.6-3.39-27.57,18.09-22.61,25.03c4.97,6.94,29.35-2.4,41.39,44.83c7.87,30.86-21.14,60.81-21.14,60.81
				S325.66,228.88,313.11,260.57z"/>
		</defs>
		<clipPath id="SVGID_6_">
			<use xlink:href="#SVGID_5_"  style="overflow:visible;"/>
		</clipPath>
		<g class="st6">
			<line class="st1" x1="103.74" y1="554.19" x2="366.7" y2="664.85"/>
			
				<rect x="216.11" y="466.88" transform="matrix(0.3879 -0.9217 0.9217 0.3879 -417.8178 589.9014)" class="st1" width="38.22" height="285.29"/>
		</g>
		<g class="st6">
			<line class="st2" x1="78.42" y1="614.36" x2="341.38" y2="725.02"/>
			
				<rect x="190.79" y="527.04" transform="matrix(0.3879 -0.9217 0.9217 0.3879 -488.7755 603.3856)" class="st2" width="38.22" height="285.29"/>
		</g>
		<g class="st6">
			<line class="st7" x1="154.38" y1="433.85" x2="417.34" y2="544.51"/>
			
				<rect x="266.75" y="346.53" transform="matrix(0.3879 -0.9217 0.9217 0.3879 -275.8956 562.918)" class="st7" width="38.22" height="285.29"/>
		</g>
		<g class="st6">
			<line class="st5" x1="129.06" y1="494.02" x2="392.02" y2="604.68"/>
			
				<rect x="241.43" y="406.7" transform="matrix(0.3879 -0.9217 0.9217 0.3879 -346.8576 576.4069)" class="st5" width="38.22" height="285.29"/>
		</g>
	</g>
	<path class="st3" d="M142.03,721.16c-3.06,0-7.28-1.58-11.22-8.42c-10.51-18.23-16.57-71.94,9.34-109.59
		c15.05-21.86,34.11-38.46,54.29-56.03c28.37-24.7,60.52-52.69,87.55-101.71c24.28-44.02,22.72-86.12,21.35-123.26
		c-0.91-24.57-1.69-45.79,5.26-63.34l0,0c12.37-31.24,65.4-52.9,73.96-56.23c4.16-4.64,25.73-30.23,19.26-55.57
		c-8.18-32.07-21.67-35.62-30.6-37.97c-3.98-1.05-7.74-2.04-10.05-5.27c-5.47-7.64,4.42-18.8,8.92-23.24
		c5.08-5.01,14.48-12.77,20.4-8.42l1.17,0.84c6.63,4.67,26.81,18.87,37.33,48.99c10.09,28.88-4.96,72.69-8.81,83.02
		c9.54,17.18,69.91,132.56,23.93,222.67c-50.59,99.14-158.58,155.89-216.6,186.38c-5.92,3.11-11.32,5.94-16.08,8.52
		c-38.32,20.77-48.05,54.1-54.49,76.16c-3.84,13.14-6.37,21.82-14.23,22.44C142.5,721.15,142.27,721.16,142.03,721.16z
		 M385.85,80.54c-4.85,1.64-17.15,13.95-16.72,18.12c0.28,0.03,2.73,0.67,4.52,1.14c10.42,2.74,27.85,7.33,37.42,44.85
		c8.44,33.07-21.07,64.02-22.34,65.31l-1.76,1.16c-0.57,0.21-57.88,21.87-69.5,51.2l0,0c-6.21,15.68-5.46,35.97-4.59,59.47
		c1.35,36.48,3.03,81.89-22.53,128.23c-27.85,50.5-60.68,79.08-89.64,104.3c-19.71,17.16-38.33,33.37-52.69,54.24
		c-20.31,29.51-19.11,72.17-11.77,93.03c2.65,7.53,5.22,9.82,5.91,10.03c1.34-1.01,3.7-9.1,5.6-15.6
		c6.47-22.15,17.29-59.21,59.11-81.88c4.79-2.6,10.23-5.45,16.18-8.58c57.08-30,163.31-85.82,212.53-182.26
		c46.37-90.87-24.1-214.31-24.82-215.55l-1.17-2.01l0.86-2.16c0.2-0.49,19.58-49.66,9.49-78.49c-9.5-27.22-27.8-40.1-33.81-44.33
		L385.85,80.54z M384.83,79.82c0.02,0.02,0.05,0.04,0.07,0.06L384.83,79.82z"/>
</g>
<g>
	<g>
		<defs>
			<path id="SVGID_7_" d="M2324.44,2072.17c-16.75,42.3,14.18,112.75-26.86,187.15c-46.42,84.18-106.12,105.89-142.08,158.14
				c-29.97,43.55-15.28,111.57-1.74,110.52c13.53-1.07,6.33-65.25,66.81-98.03c51.16-27.72,175.65-85.01,230.69-192.87
				c48.13-94.32-24.94-220.12-24.94-220.12s20.37-50.94,9.57-81.84c-10.79-30.9-32.22-44.17-36.83-47.55
				c-4.6-3.39-27.57,18.09-22.61,25.03c4.97,6.94,29.35-2.4,41.39,44.83c7.87,30.86-21.14,60.81-21.14,60.81
				S2336.99,2040.49,2324.44,2072.17z"/>
		</defs>
		<clipPath id="SVGID_8_">
			<use xlink:href="#SVGID_7_"  style="overflow:visible;"/>
		</clipPath>
		<g class="st8">
			<line class="st1" x1="2115.07" y1="2365.79" x2="2378.02" y2="2476.45"/>
			
				<rect x="2227.43" y="2278.48" transform="matrix(0.3879 -0.9217 0.9217 0.3879 -856.4213 3552.6738)" class="st1" width="38.23" height="285.29"/>
		</g>
		<g class="st8">
			<line class="st2" x1="2089.75" y1="2425.96" x2="2352.7" y2="2536.62"/>
			
				<rect x="2202.11" y="2338.65" transform="matrix(0.3879 -0.9217 0.9217 0.3879 -927.3716 3566.1833)" class="st2" width="38.23" height="285.29"/>
		</g>
		<g class="st8">
			<line class="st7" x1="2165.71" y1="2245.45" x2="2428.67" y2="2356.11"/>
			
				<rect x="2278.08" y="2158.13" transform="matrix(0.3879 -0.9217 0.9217 0.3879 -714.4918 3525.7061)" class="st7" width="38.23" height="285.29"/>
		</g>
		<g class="st8">
			<line class="st9" x1="2191.03" y1="2185.28" x2="2453.99" y2="2295.94"/>
			
				<rect x="2303.4" y="2097.97" transform="matrix(0.3879 -0.9217 0.9217 0.3879 -643.5357 3512.2139)" class="st9" width="38.23" height="285.29"/>
		</g>
		<g class="st8">
			<line class="st5" x1="2140.39" y1="2305.62" x2="2403.35" y2="2416.28"/>
			
				<rect x="2252.75" y="2218.3" transform="matrix(0.3879 -0.9217 0.9217 0.3879 -785.4568 3539.1765)" class="st5" width="38.23" height="285.29"/>
		</g>
	</g>
	<path class="st3" d="M2153.36,2532.84c-3.06,0-7.28-1.58-11.22-8.42c-10.51-18.23-16.57-71.94,9.34-109.59
		c15.05-21.86,34.11-38.46,54.29-56.03c28.37-24.7,60.52-52.69,87.55-101.71c24.28-44.02,22.72-86.12,21.34-123.26
		c-0.91-24.57-1.69-45.79,5.26-63.34l0,0c12.37-31.24,65.4-52.9,73.96-56.23c4.16-4.64,25.73-30.23,19.26-55.57
		c-8.18-32.07-21.67-35.62-30.6-37.97c-3.98-1.05-7.74-2.04-10.05-5.27c-5.47-7.64,4.42-18.8,8.92-23.24
		c5.08-5.01,14.48-12.77,20.4-8.42l1.17,0.84c6.63,4.67,26.81,18.87,37.33,48.99c10.09,28.88-4.96,72.69-8.81,83.02
		c9.54,17.18,69.91,132.56,23.93,222.67c-50.59,99.14-158.58,155.89-216.6,186.38c-5.92,3.11-11.32,5.94-16.08,8.52
		c-38.32,20.77-48.05,54.1-54.49,76.16c-3.84,13.14-6.37,21.82-14.23,22.44C2153.83,2532.84,2153.6,2532.84,2153.36,2532.84z
		 M2397.18,1892.22c-4.85,1.64-17.15,13.95-16.72,18.12c0.28,0.03,2.73,0.67,4.52,1.14c10.42,2.74,27.85,7.33,37.42,44.85
		c8.44,33.07-21.07,64.02-22.34,65.31l-1.76,1.16c-0.57,0.21-57.88,21.87-69.5,51.2l0,0c-6.21,15.68-5.46,35.97-4.59,59.47
		c1.35,36.48,3.03,81.89-22.53,128.23c-27.85,50.5-60.68,79.08-89.64,104.3c-19.71,17.16-38.33,33.37-52.69,54.24
		c-20.31,29.51-19.11,72.17-11.77,93.03c2.65,7.53,5.22,9.82,5.91,10.03c1.34-1.01,3.7-9.1,5.6-15.6
		c6.47-22.15,17.29-59.21,59.11-81.88c4.79-2.6,10.23-5.45,16.18-8.58c57.08-30,163.31-85.82,212.53-182.26
		c46.37-90.87-24.1-214.31-24.82-215.55l-1.17-2.01l0.86-2.16c0.2-0.49,19.58-49.66,9.49-78.49c-9.5-27.22-27.8-40.1-33.81-44.33
		L2397.18,1892.22z M2396.16,1891.5c0.02,0.02,0.05,0.04,0.07,0.06L2396.16,1891.5z"/>
</g>
<g>
	<g>
		<defs>
			<path id="SVGID_9_" d="M3003.56,2081.95c-16.75,42.3,14.18,112.75-26.86,187.15c-46.42,84.18-106.12,105.89-142.08,158.14
				c-29.97,43.55-15.28,111.57-1.74,110.52c13.53-1.07,6.33-65.25,66.81-98.03c51.16-27.72,175.65-85.01,230.69-192.87
				c48.13-94.32-24.94-220.12-24.94-220.12s20.37-50.94,9.57-81.84c-10.79-30.9-32.22-44.17-36.83-47.55
				c-4.6-3.39-27.57,18.09-22.61,25.03c4.97,6.94,29.35-2.4,41.39,44.83c7.87,30.86-21.14,60.81-21.14,60.81
				S3016.11,2050.27,3003.56,2081.95z"/>
		</defs>
		<clipPath id="SVGID_10_">
			<use xlink:href="#SVGID_9_"  style="overflow:visible;"/>
		</clipPath>
		<g class="st10">
			<line class="st1" x1="2794.19" y1="2375.57" x2="3057.15" y2="2486.23"/>
			
				<rect x="2906.56" y="2288.26" transform="matrix(0.3879 -0.9217 0.9217 0.3879 -449.729 4184.6099)" class="st1" width="38.23" height="285.29"/>
		</g>
		<g class="st10">
			<line class="st2" x1="2768.87" y1="2435.74" x2="3031.83" y2="2546.4"/>
			
				<rect x="2881.23" y="2348.43" transform="matrix(0.3879 -0.9217 0.9217 0.3879 -520.684 4198.127)" class="st2" width="38.23" height="285.29"/>
		</g>
		<g class="st10">
			<line class="st7" x1="2844.83" y1="2255.23" x2="3107.79" y2="2365.89"/>
			
				<rect x="2957.2" y="2167.92" transform="matrix(0.3879 -0.9217 0.9217 0.3879 -307.8042 4157.6494)" class="st7" width="38.23" height="285.29"/>
		</g>
		<g class="st10">
			<line class="st9" x1="2870.16" y1="2195.06" x2="3133.11" y2="2305.72"/>
			
				<rect x="2982.52" y="2107.74" transform="matrix(0.3879 -0.9217 0.9217 0.3879 -236.8394 4144.1519)" class="st9" width="38.23" height="285.29"/>
		</g>
		<g class="st10">
			<line class="st11" x1="2895.48" y1="2134.89" x2="3158.43" y2="2245.55"/>
			
				<rect x="3007.84" y="2047.57" transform="matrix(0.3879 -0.9217 0.9217 0.3879 -165.8833 4130.6597)" class="st11" width="38.23" height="285.29"/>
		</g>
		<g class="st10">
			<line class="st5" x1="2819.51" y1="2315.4" x2="3082.47" y2="2426.06"/>
			
				<rect x="2931.88" y="2228.09" transform="matrix(0.3879 -0.9217 0.9217 0.3879 -378.7731 4171.1182)" class="st5" width="38.23" height="285.29"/>
		</g>
	</g>
	<path class="st3" d="M2832.48,2542.55c-3.06,0-7.28-1.58-11.22-8.42c-10.51-18.23-16.57-71.94,9.34-109.59
		c15.05-21.86,34.11-38.46,54.29-56.03c28.37-24.7,60.52-52.69,87.55-101.71c24.28-44.02,22.72-86.12,21.35-123.26
		c-0.91-24.57-1.69-45.79,5.26-63.34l0,0c12.37-31.24,65.4-52.9,73.96-56.23c4.16-4.64,25.73-30.23,19.26-55.57
		c-8.18-32.07-21.67-35.62-30.6-37.97c-3.98-1.05-7.74-2.04-10.05-5.27c-5.47-7.64,4.42-18.8,8.92-23.24
		c5.08-5.01,14.48-12.77,20.4-8.42l1.17,0.84c6.63,4.67,26.81,18.87,37.33,48.99c10.09,28.88-4.96,72.69-8.81,83.02
		c9.54,17.18,69.91,132.56,23.93,222.67c-50.59,99.14-158.58,155.89-216.6,186.38c-5.92,3.11-11.32,5.94-16.08,8.52
		c-38.32,20.77-48.05,54.1-54.49,76.16c-3.84,13.14-6.37,21.82-14.23,22.44C2832.95,2542.54,2832.72,2542.55,2832.48,2542.55z
		 M3076.3,1901.92c-4.85,1.64-17.15,13.95-16.72,18.12c0.28,0.03,2.73,0.67,4.52,1.14c10.42,2.74,27.85,7.33,37.42,44.85
		c8.44,33.07-21.07,64.02-22.34,65.31l-1.76,1.16c-0.57,0.21-57.88,21.87-69.5,51.2l0,0c-6.21,15.68-5.46,35.97-4.59,59.47
		c1.35,36.49,3.03,81.89-22.53,128.23c-27.85,50.5-60.68,79.08-89.64,104.3c-19.71,17.16-38.33,33.37-52.69,54.24
		c-20.31,29.51-19.11,72.17-11.77,93.03c2.65,7.53,5.22,9.82,5.91,10.03c1.34-1.01,3.7-9.1,5.6-15.6
		c6.47-22.15,17.29-59.21,59.11-81.88c4.79-2.6,10.23-5.45,16.19-8.58c57.08-30,163.31-85.82,212.53-182.26
		c46.37-90.87-24.1-214.31-24.82-215.55l-1.17-2.01l0.86-2.16c0.2-0.49,19.58-49.66,9.49-78.49c-9.5-27.22-27.8-40.1-33.81-44.33
		L3076.3,1901.92z M3075.28,1901.2c0.02,0.02,0.05,0.04,0.07,0.06L3075.28,1901.2z"/>
</g>
<g>
	<g>
		<defs>
			<path id="SVGID_11_" d="M3689.44,2082.03c-16.75,42.3,14.18,112.75-26.86,187.15c-46.42,84.18-106.12,105.89-142.08,158.14
				c-29.97,43.55-15.28,111.57-1.74,110.52c13.53-1.07,6.33-65.25,66.81-98.03c51.16-27.72,175.65-85.01,230.69-192.87
				c48.13-94.32-24.94-220.12-24.94-220.12s20.37-50.94,9.57-81.84c-10.79-30.9-32.22-44.17-36.83-47.55
				c-4.6-3.39-27.57,18.09-22.61,25.03c4.97,6.94,29.35-2.4,41.39,44.83c7.87,30.86-21.14,60.81-21.14,60.81
				S3701.99,2050.35,3689.44,2082.03z"/>
		</defs>
		<clipPath id="SVGID_12_">
			<use xlink:href="#SVGID_11_"  style="overflow:visible;"/>
		</clipPath>
		<g class="st12">
			<line class="st1" x1="3480.07" y1="2375.65" x2="3743.03" y2="2486.31"/>
			
				<rect x="3592.44" y="2288.34" transform="matrix(0.3879 -0.9217 0.9217 0.3879 -29.9661 4816.8413)" class="st1" width="38.23" height="285.29"/>
		</g>
		<g class="st12">
			<line class="st2" x1="3454.75" y1="2435.82" x2="3717.71" y2="2546.48"/>
			
				<rect x="3567.11" y="2348.5" transform="matrix(0.3879 -0.9217 0.9217 0.3879 -100.9086 4830.354)" class="st2" width="38.23" height="285.29"/>
		</g>
		<g class="st12">
			<line class="st7" x1="3530.71" y1="2255.31" x2="3793.67" y2="2365.97"/>
			
				<rect x="3643.08" y="2167.99" transform="matrix(0.3879 -0.9217 0.9217 0.3879 111.9713 4789.8765)" class="st7" width="38.23" height="285.29"/>
		</g>
		<g class="st12">
			<line class="st9" x1="3556.03" y1="2195.14" x2="3818.99" y2="2305.8"/>
			
				<rect x="3668.4" y="2107.82" transform="matrix(0.3879 -0.9217 0.9217 0.3879 182.9274 4776.3848)" class="st9" width="38.23" height="285.29"/>
		</g>
		<g class="st12">
			<line class="st13" x1="3606.68" y1="2074.8" x2="3869.63" y2="2185.46"/>
			
				<rect x="3719.04" y="1987.48" transform="matrix(0.3879 -0.9217 0.9217 0.3879 324.8331 4749.3755)" class="st13" width="38.23" height="285.29"/>
		</g>
		<g class="st12">
			<line class="st11" x1="3581.36" y1="2134.97" x2="3844.31" y2="2245.63"/>
			
				<rect x="3693.72" y="2047.66" transform="matrix(0.3879 -0.9217 0.9217 0.3879 253.8835 4762.8926)" class="st11" width="38.23" height="285.29"/>
		</g>
		<g class="st12">
			<line class="st5" x1="3505.39" y1="2315.48" x2="3768.35" y2="2426.14"/>
			
				<rect x="3617.76" y="2228.17" transform="matrix(0.3879 -0.9217 0.9217 0.3879 40.9897 4803.3496)" class="st5" width="38.23" height="285.29"/>
		</g>
	</g>
	<path class="st3" d="M3518.36,2542.63c-3.06,0-7.28-1.58-11.22-8.42c-10.51-18.23-16.57-71.94,9.34-109.59
		c15.05-21.86,34.11-38.46,54.29-56.03c28.37-24.7,60.52-52.69,87.55-101.71c24.28-44.02,22.72-86.12,21.35-123.26
		c-0.91-24.57-1.69-45.79,5.26-63.34l0,0c12.37-31.24,65.4-52.9,73.96-56.23c4.16-4.64,25.73-30.23,19.26-55.57
		c-8.18-32.07-21.67-35.62-30.6-37.97c-3.98-1.05-7.74-2.04-10.05-5.27c-5.47-7.64,4.42-18.8,8.92-23.24
		c5.08-5.01,14.48-12.77,20.4-8.42l1.17,0.84c6.63,4.67,26.81,18.87,37.33,48.99c10.09,28.88-4.96,72.69-8.81,83.02
		c9.54,17.18,69.91,132.56,23.93,222.67c-50.59,99.14-158.58,155.89-216.6,186.38c-5.92,3.11-11.32,5.94-16.08,8.52
		c-38.32,20.77-48.05,54.1-54.49,76.16c-3.84,13.14-6.37,21.82-14.23,22.44C3518.83,2542.62,3518.6,2542.63,3518.36,2542.63z
		 M3762.18,1902c-4.85,1.64-17.15,13.95-16.72,18.12c0.28,0.03,2.73,0.67,4.52,1.14c10.42,2.74,27.85,7.33,37.42,44.85
		c8.44,33.07-21.07,64.02-22.34,65.31l-1.76,1.16c-0.57,0.21-57.88,21.87-69.5,51.2l0,0c-6.21,15.68-5.46,35.97-4.59,59.47
		c1.35,36.48,3.03,81.89-22.53,128.23c-27.85,50.5-60.68,79.08-89.64,104.3c-19.71,17.16-38.33,33.37-52.69,54.24
		c-20.31,29.51-19.11,72.17-11.77,93.03c2.65,7.53,5.22,9.82,5.91,10.03c1.34-1.01,3.7-9.1,5.6-15.6
		c6.47-22.15,17.29-59.21,59.11-81.88c4.79-2.6,10.23-5.45,16.19-8.58c57.08-30,163.31-85.82,212.53-182.26
		c46.37-90.87-24.1-214.31-24.82-215.55l-1.17-2.01l0.86-2.16c0.2-0.49,19.58-49.66,9.49-78.49c-9.5-27.22-27.8-40.1-33.81-44.33
		L3762.18,1902z M3761.16,1901.28c0.02,0.02,0.05,0.04,0.07,0.06L3761.16,1901.28z"/>
</g>
<g>
	<g>
		<defs>
			<path id="SVGID_13_" d="M4371.94,2091.75c-16.75,42.3,14.18,112.75-26.86,187.15c-46.42,84.18-106.12,105.89-142.08,158.14
				c-29.97,43.55-15.28,111.57-1.74,110.52c13.53-1.07,6.33-65.25,66.81-98.03c51.16-27.72,175.65-85.01,230.69-192.87
				c48.13-94.32-24.94-220.12-24.94-220.12s20.37-50.94,9.57-81.84c-10.79-30.9-32.22-44.17-36.83-47.55
				c-4.6-3.39-27.57,18.09-22.61,25.03c4.97,6.94,29.35-2.4,41.39,44.83c7.87,30.86-21.14,60.81-21.14,60.81
				S4384.49,2060.06,4371.94,2091.75z"/>
		</defs>
		<clipPath id="SVGID_14_">
			<use xlink:href="#SVGID_13_"  style="overflow:visible;"/>
		</clipPath>
		<g class="st14">
			<line class="st1" x1="4162.57" y1="2385.37" x2="4425.53" y2="2496.03"/>
			
				<rect x="4274.94" y="2298.06" transform="matrix(0.3879 -0.9217 0.9217 0.3879 378.8454 5451.8574)" class="st1" width="38.23" height="285.29"/>
		</g>
		<g class="st14">
			<line class="st2" x1="4137.25" y1="2445.54" x2="4400.21" y2="2556.2"/>
			
				<rect x="4249.61" y="2358.22" transform="matrix(0.3879 -0.9217 0.9217 0.3879 307.9069 5465.3721)" class="st2" width="38.23" height="285.29"/>
		</g>
		<g class="st14">
			<line class="st7" x1="4213.21" y1="2265.03" x2="4476.17" y2="2375.69"/>
			
				<rect x="4325.58" y="2177.71" transform="matrix(0.3879 -0.9217 0.9217 0.3879 520.7867 5424.8945)" class="st7" width="38.23" height="285.29"/>
		</g>
		<g class="st14">
			<line class="st9" x1="4238.54" y1="2204.86" x2="4501.49" y2="2315.52"/>
			
				<rect x="4350.9" y="2117.54" transform="matrix(0.3879 -0.9217 0.9217 0.3879 591.7429 5411.4028)" class="st9" width="38.23" height="285.29"/>
		</g>
		<g class="st14">
			<line class="st13" x1="4289.18" y1="2084.52" x2="4552.13" y2="2195.17"/>
			
				<rect x="4401.54" y="1997.2" transform="matrix(0.3879 -0.9217 0.9217 0.3879 733.6446 5384.3916)" class="st13" width="38.23" height="285.29"/>
		</g>
		<g class="st14">
			<line class="st11" x1="4263.86" y1="2144.69" x2="4526.81" y2="2255.34"/>
			
				<rect x="4376.22" y="2057.37" transform="matrix(0.3879 -0.9217 0.9217 0.3879 662.7076 5397.9048)" class="st11" width="38.23" height="285.29"/>
		</g>
		<g class="st14">
			<line class="st15" x1="4314.5" y1="2024.35" x2="4577.45" y2="2135"/>
			
				<rect x="4426.86" y="1937.03" transform="matrix(0.3879 -0.9217 0.9217 0.3879 804.6004 5370.8999)" class="st15" width="38.23" height="285.29"/>
		</g>
		<g class="st14">
			<line class="st5" x1="4187.89" y1="2325.2" x2="4450.85" y2="2435.86"/>
			
				<rect x="4300.26" y="2237.88" transform="matrix(0.3879 -0.9217 0.9217 0.3879 449.8098 5438.3599)" class="st5" width="38.23" height="285.29"/>
		</g>
	</g>
	<path class="st3" d="M4200.86,2552.33c-3.06,0-7.28-1.58-11.22-8.42c-10.51-18.23-16.57-71.94,9.34-109.59
		c15.05-21.86,34.11-38.46,54.29-56.03c28.37-24.7,60.52-52.69,87.54-101.71c24.28-44.02,22.72-86.12,21.35-123.26
		c-0.91-24.57-1.69-45.79,5.26-63.34l0,0c12.37-31.24,65.4-52.9,73.96-56.23c4.16-4.64,25.73-30.23,19.26-55.57
		c-8.18-32.07-21.67-35.62-30.6-37.97c-3.98-1.05-7.74-2.04-10.05-5.27c-5.47-7.64,4.42-18.8,8.92-23.24
		c5.08-5.01,14.48-12.77,20.4-8.42l1.17,0.84c6.63,4.67,26.81,18.87,37.33,48.99c10.09,28.88-4.96,72.69-8.81,83.02
		c9.54,17.18,69.91,132.56,23.93,222.67c-50.59,99.14-158.58,155.89-216.6,186.38c-5.92,3.11-11.32,5.94-16.08,8.52
		c-38.32,20.77-48.05,54.1-54.49,76.16c-3.83,13.14-6.37,21.82-14.23,22.44C4201.33,2552.32,4201.1,2552.33,4200.86,2552.33z
		 M4444.68,1911.7c-4.85,1.64-17.15,13.95-16.72,18.12c0.28,0.03,2.73,0.67,4.52,1.14c10.42,2.74,27.85,7.33,37.42,44.85
		c8.44,33.07-21.07,64.02-22.34,65.31l-1.76,1.16c-0.57,0.21-57.88,21.87-69.5,51.2l0,0c-6.21,15.68-5.46,35.97-4.59,59.47
		c1.35,36.49,3.03,81.89-22.53,128.23c-27.85,50.5-60.68,79.08-89.64,104.3c-19.71,17.16-38.33,33.37-52.69,54.24
		c-20.31,29.51-19.11,72.17-11.77,93.03c2.65,7.53,5.22,9.82,5.91,10.03c1.34-1.01,3.7-9.1,5.6-15.6
		c6.47-22.15,17.29-59.21,59.11-81.88c4.79-2.6,10.23-5.45,16.19-8.58c57.08-30,163.31-85.82,212.53-182.26
		c46.37-90.87-24.1-214.31-24.82-215.55l-1.17-2.01l0.86-2.16c0.2-0.49,19.58-49.66,9.49-78.49c-9.5-27.22-27.8-40.1-33.81-44.33
		L4444.68,1911.7z M4443.66,1910.98c0.02,0.02,0.05,0.04,0.07,0.06L4443.66,1910.98z"/>
</g>
<g>
	<g>
		<defs>
			<path id="SVGID_15_" d="M-906.74,2062.55c-16.75,42.3,14.18,112.75-26.86,187.15c-46.42,84.18-106.12,105.89-142.08,158.14
				c-29.97,43.55-15.28,111.57-1.74,110.52c13.53-1.07,6.33-65.25,66.81-98.03c51.16-27.72,175.65-85.01,230.69-192.87
				c48.13-94.32-24.94-220.12-24.94-220.12s20.37-50.94,9.57-81.84c-10.79-30.9-32.22-44.17-36.83-47.55
				c-4.6-3.39-27.57,18.09-22.61,25.03c4.97,6.94,29.35-2.4,41.39,44.83c7.87,30.86-21.14,60.81-21.14,60.81
				S-894.19,2030.86-906.74,2062.55z"/>
		</defs>
		<clipPath id="SVGID_16_">
			<use xlink:href="#SVGID_15_"  style="overflow:visible;"/>
		</clipPath>
		<g class="st16">
			<line class="st2" x1="-1141.43" y1="2416.34" x2="-878.48" y2="2527"/>
			
				<rect x="-1029.06" y="2329.03" transform="matrix(0.3879 -0.9217 0.9217 0.3879 -2896.4109 582.1091)" class="st2" width="38.22" height="285.29"/>
		</g>
	</g>
	<path class="st3" d="M-1077.82,2523.14c-3.06,0-7.28-1.58-11.22-8.42c-10.51-18.23-16.57-71.94,9.34-109.59
		c15.05-21.86,34.11-38.46,54.29-56.03c28.37-24.7,60.52-52.69,87.55-101.71c24.28-44.02,22.72-86.12,21.35-123.26
		c-0.91-24.57-1.69-45.79,5.26-63.34l0,0c12.37-31.24,65.4-52.9,73.96-56.23c4.16-4.64,25.73-30.23,19.26-55.57
		c-8.18-32.07-21.67-35.62-30.6-37.97c-3.98-1.05-7.74-2.04-10.05-5.27c-5.47-7.64,4.42-18.8,8.92-23.24
		c5.08-5.01,14.48-12.77,20.4-8.42l1.17,0.84c6.63,4.67,26.81,18.87,37.33,48.99c10.09,28.88-4.96,72.69-8.81,83.02
		c9.54,17.18,69.91,132.56,23.93,222.67c-50.59,99.14-158.58,155.89-216.6,186.38c-5.92,3.11-11.32,5.94-16.08,8.52
		c-38.32,20.77-48.05,54.1-54.49,76.16c-3.84,13.14-6.37,21.82-14.23,22.44C-1077.35,2523.13-1077.58,2523.14-1077.82,2523.14z
		 M-834,1882.52c-4.85,1.64-17.15,13.95-16.72,18.12c0.28,0.03,2.73,0.67,4.52,1.14c10.42,2.74,27.85,7.33,37.42,44.85
		c8.44,33.07-21.07,64.02-22.34,65.31l-1.76,1.16c-0.57,0.21-57.88,21.87-69.5,51.2l0,0c-6.21,15.68-5.46,35.97-4.59,59.47
		c1.35,36.48,3.03,81.89-22.53,128.23c-27.85,50.5-60.68,79.08-89.64,104.3c-19.71,17.16-38.33,33.37-52.69,54.24
		c-20.31,29.51-19.11,72.17-11.77,93.03c2.65,7.53,5.22,9.82,5.91,10.03c1.34-1.01,3.7-9.1,5.6-15.6
		c6.47-22.15,17.29-59.21,59.11-81.88c4.79-2.6,10.23-5.45,16.18-8.58c57.08-30,163.31-85.82,212.53-182.26
		c46.37-90.87-24.1-214.31-24.82-215.55l-1.17-2.01l0.86-2.16c0.2-0.49,19.58-49.66,9.49-78.49c-9.5-27.22-27.8-40.1-33.81-44.33
		L-834,1882.52z M-835.02,1881.8c0.02,0.02,0.05,0.04,0.07,0.06L-835.02,1881.8z"/>
</g>
</svg>
