<?xml version="1.0" encoding="utf-8"?>
<!-- Generator: Adobe Illustrator 24.2.3, SVG Export Plug-In . SVG Version: 6.00 Build 0)  -->
<svg version="1.1" id="Layer_1" xmlns="http://www.w3.org/2000/svg" xmlns:xlink="http://www.w3.org/1999/xlink" x="0px" y="0px"
	 viewBox="0 0 612 792" style="enable-background:new 0 0 612 792;" xml:space="preserve">
<style type="text/css">
	.st0{clip-path:url(#SVGID_2_);}
	.st1{fill:#E1E778;}
	.st2{fill:#006937;}
</style>
<g>
	<g>
		<defs>
			<path id="SVGID_1_" d="M327.62,260.57c-16.75,42.3,14.18,112.75-26.86,187.15c-46.42,84.18-106.12,105.89-142.08,158.14
				c-29.97,43.55-15.28,111.57-1.74,110.52c13.53-1.07,6.33-65.25,66.81-98.03c51.16-27.72,175.65-85.01,230.69-192.87
				c48.13-94.32-24.94-220.12-24.94-220.12s20.37-50.94,9.57-81.84c-10.79-30.9-32.22-44.17-36.83-47.55
				c-4.6-3.39-27.57,18.09-22.61,25.03c4.97,6.94,29.35-2.4,41.39,44.83c7.87,30.86-21.14,60.81-21.14,60.81
				S340.17,228.88,327.62,260.57z"/>
		</defs>
		<clipPath id="SVGID_2_">
			<use xlink:href="#SVGID_1_"  style="overflow:visible;"/>
		</clipPath>
		<g class="st0">
			<line class="st1" x1="92.93" y1="614.36" x2="355.88" y2="725.02"/>
			
				<rect x="205.29" y="527.04" transform="matrix(0.3879 -0.9217 0.9217 0.3879 -479.8978 616.7781)" class="st1" width="38.22" height="285.29"/>
		</g>
	</g>
	<path class="st2" d="M156.54,721.16c-3.06,0-7.28-1.58-11.22-8.42c-10.51-18.23-16.57-71.94,9.34-109.59
		c15.05-21.86,34.11-38.46,54.29-56.03c28.37-24.7,60.52-52.69,87.55-101.71c24.28-44.02,22.72-86.12,21.35-123.26
		c-0.91-24.57-1.69-45.79,5.26-63.34l0,0c12.37-31.24,65.4-52.9,73.96-56.23c4.16-4.64,25.73-30.23,19.26-55.57
		c-8.18-32.07-21.67-35.62-30.6-37.97c-3.98-1.05-7.74-2.04-10.05-5.27c-5.47-7.64,4.42-18.8,8.92-23.24
		c5.08-5.01,14.48-12.77,20.4-8.42l1.17,0.84c6.63,4.67,26.81,18.87,37.33,48.99c10.09,28.88-4.96,72.69-8.81,83.02
		c9.54,17.18,69.91,132.56,23.93,222.67c-50.59,99.14-158.58,155.89-216.6,186.38c-5.92,3.11-11.32,5.94-16.08,8.52
		c-38.32,20.77-48.05,54.1-54.49,76.16c-3.84,13.14-6.37,21.82-14.23,22.44C157,721.15,156.78,721.16,156.54,721.16z M400.36,80.54
		c-4.85,1.64-17.15,13.95-16.72,18.12c0.28,0.03,2.73,0.67,4.52,1.14c10.42,2.74,27.85,7.33,37.42,44.85
		c8.44,33.07-21.07,64.02-22.34,65.31l-1.76,1.16c-0.57,0.21-57.88,21.87-69.5,51.2l0,0c-6.21,15.68-5.46,35.97-4.59,59.47
		c1.35,36.48,3.03,81.89-22.53,128.23c-27.85,50.5-60.68,79.08-89.64,104.3c-19.71,17.16-38.33,33.37-52.69,54.24
		c-20.31,29.51-19.11,72.17-11.77,93.03c2.65,7.53,5.22,9.82,5.91,10.03c1.34-1.01,3.7-9.1,5.6-15.6
		c6.47-22.15,17.29-59.21,59.11-81.88c4.79-2.6,10.23-5.45,16.18-8.58c57.08-30,163.31-85.82,212.53-182.26
		c46.37-90.87-24.1-214.31-24.82-215.55l-1.17-2.01l0.86-2.16c0.2-0.49,19.58-49.66,9.49-78.49c-9.5-27.22-27.8-40.1-33.81-44.33
		L400.36,80.54z M399.34,79.82c0.02,0.02,0.05,0.04,0.07,0.06L399.34,79.82z"/>
</g>
</svg>
