<?xml version="1.0" encoding="utf-8"?>
<!-- Generator: Adobe Illustrator 24.2.3, SVG Export Plug-In . SVG Version: 6.00 Build 0)  -->
<svg version="1.1" id="Layer_1" xmlns="http://www.w3.org/2000/svg" xmlns:xlink="http://www.w3.org/1999/xlink" x="0px" y="0px"
	 viewBox="0 0 612 792" style="enable-background:new 0 0 612 792;" xml:space="preserve">
<style type="text/css">
	.st0{clip-path:url(#SVGID_2_);}
	.st1{fill:#CBDB2E;}
	.st2{fill:#E1E778;}
	.st3{fill:#006937;}
	.st4{clip-path:url(#SVGID_4_);}
	.st5{fill:#8DC641;}
	.st6{clip-path:url(#SVGID_6_);}
	.st7{fill:#E9A835;}
	.st8{clip-path:url(#SVGID_8_);}
	.st9{fill:#DD8027;}
	.st10{clip-path:url(#SVGID_10_);}
	.st11{fill:#DF6026;}
	.st12{clip-path:url(#SVGID_12_);}
	.st13{fill:#B12024;}
	.st14{clip-path:url(#SVGID_14_);}
	.st15{fill:#861719;}
	.st16{clip-path:url(#SVGID_16_);}
</style>
<g>
	<g>
		<defs>
			<path id="SVGID_1_" d="M-3446.41,1639.96c-16.75,42.3,14.18,112.75-26.86,187.15c-46.42,84.18-106.12,105.89-142.08,158.14
				c-29.97,43.55-15.28,111.57-1.74,110.52c13.53-1.07,6.33-65.25,66.81-98.03c51.16-27.72,175.65-85.01,230.69-192.87
				c48.13-94.32-24.94-220.12-24.94-220.12s20.37-50.94,9.57-81.84c-10.79-30.9-32.22-44.17-36.83-47.55
				c-4.6-3.39-27.57,18.09-22.61,25.03c4.97,6.94,29.35-2.4,41.39,44.83c7.87,30.86-21.14,60.81-21.14,60.81
				S-3433.86,1608.27-3446.41,1639.96z"/>
		</defs>
		<clipPath id="SVGID_2_">
			<use xlink:href="#SVGID_1_"  style="overflow:visible;"/>
		</clipPath>
		<g class="st0">
			<line class="st1" x1="-3655.78" y1="1933.58" x2="-3392.82" y2="2044.24"/>
			
				<rect x="-3543.41" y="1846.26" transform="matrix(0.3879 -0.9217 0.9217 0.3879 -3990.4766 -2030.9335)" class="st1" width="38.22" height="285.29"/>
		</g>
		<g class="st0">
			<line class="st2" x1="-3681.1" y1="1993.75" x2="-3418.14" y2="2104.41"/>
			
				<rect x="-3568.73" y="1906.43" transform="matrix(0.3879 -0.9217 0.9217 0.3879 -4061.5229 -2017.4315)" class="st2" width="38.22" height="285.29"/>
		</g>
	</g>
	<path class="st3" d="M-3617.49,2100.55c-3.06,0-7.28-1.58-11.22-8.42c-10.51-18.23-16.57-71.94,9.34-109.59
		c15.05-21.86,34.11-38.46,54.29-56.03c28.37-24.7,60.52-52.69,87.55-101.71c24.28-44.02,22.72-86.12,21.35-123.26
		c-0.91-24.57-1.69-45.79,5.26-63.34l0,0c12.37-31.24,65.4-52.9,73.96-56.23c4.16-4.64,25.73-30.23,19.26-55.57
		c-8.18-32.07-21.67-35.62-30.6-37.97c-3.98-1.05-7.74-2.04-10.05-5.27c-5.47-7.64,4.42-18.8,8.92-23.24
		c5.08-5.01,14.48-12.77,20.4-8.42l1.17,0.84c6.63,4.67,26.81,18.87,37.33,48.99c10.09,28.88-4.96,72.69-8.81,83.02
		c9.54,17.18,69.91,132.56,23.93,222.67c-50.59,99.14-158.58,155.89-216.6,186.38c-5.92,3.11-11.32,5.94-16.08,8.52
		c-38.32,20.77-48.05,54.1-54.49,76.16c-3.84,13.14-6.37,21.82-14.23,22.44C-3617.02,2100.54-3617.25,2100.55-3617.49,2100.55z
		 M-3373.67,1459.93c-4.85,1.64-17.15,13.95-16.72,18.12c0.28,0.03,2.73,0.67,4.52,1.14c10.42,2.74,27.85,7.33,37.42,44.85
		c8.44,33.07-21.07,64.02-22.34,65.31l-1.76,1.16c-0.57,0.21-57.88,21.87-69.5,51.2l0,0c-6.21,15.68-5.46,35.97-4.59,59.47
		c1.35,36.48,3.03,81.89-22.53,128.23c-27.85,50.5-60.68,79.08-89.64,104.3c-19.71,17.16-38.33,33.37-52.69,54.24
		c-20.31,29.51-19.11,72.17-11.77,93.03c2.65,7.53,5.22,9.82,5.91,10.03c1.34-1.01,3.7-9.1,5.6-15.6
		c6.47-22.15,17.29-59.21,59.11-81.88c4.79-2.6,10.23-5.45,16.19-8.58c57.08-30,163.31-85.82,212.53-182.26
		c46.37-90.87-24.1-214.31-24.82-215.55l-1.17-2.01l0.86-2.16c0.2-0.49,19.58-49.66,9.49-78.49c-9.5-27.22-27.8-40.1-33.81-44.33
		L-3373.67,1459.93z M-3374.69,1459.2c0.02,0.02,0.05,0.04,0.07,0.06L-3374.69,1459.2z"/>
</g>
<g>
	<g>
		<defs>
			<path id="SVGID_3_" d="M-3798.92,378.57c-16.75,42.3,14.18,112.75-26.86,187.15c-46.42,84.18-106.12,105.89-142.08,158.14
				c-29.97,43.55-15.28,111.57-1.74,110.52c13.53-1.07,6.33-65.25,66.81-98.03c51.16-27.72,175.65-85.01,230.69-192.87
				c48.13-94.32-24.94-220.12-24.94-220.12s20.37-50.94,9.57-81.84c-10.79-30.9-32.22-44.17-36.83-47.55
				c-4.6-3.39-27.57,18.09-22.61,25.03c4.97,6.94,29.35-2.4,41.39,44.83c7.87,30.86-21.14,60.81-21.14,60.81
				S-3786.37,346.88-3798.92,378.57z"/>
		</defs>
		<clipPath id="SVGID_4_">
			<use xlink:href="#SVGID_3_"  style="overflow:visible;"/>
		</clipPath>
		<g class="st4">
			<line class="st1" x1="-4008.29" y1="672.19" x2="-3745.33" y2="782.85"/>
			
				<rect x="-3895.92" y="584.88" transform="matrix(0.3879 -0.9217 0.9217 0.3879 -3043.6235 -3127.9644)" class="st1" width="38.22" height="285.29"/>
		</g>
		<g class="st4">
			<line class="st2" x1="-4033.61" y1="732.36" x2="-3770.66" y2="843.02"/>
			
				<rect x="-3921.24" y="645.05" transform="matrix(0.3879 -0.9217 0.9217 0.3879 -3114.6099 -3114.4771)" class="st2" width="38.22" height="285.29"/>
		</g>
		<g class="st4">
			<line class="st5" x1="-3982.97" y1="612.02" x2="-3720.01" y2="722.68"/>
			
				<rect x="-3870.6" y="524.7" transform="matrix(0.3879 -0.9217 0.9217 0.3879 -2972.6636 -3141.459)" class="st5" width="38.22" height="285.29"/>
		</g>
	</g>
	<path class="st3" d="M-3970,839.16c-3.06,0-7.28-1.58-11.22-8.42c-10.51-18.23-16.57-71.94,9.34-109.59
		c15.05-21.86,34.11-38.46,54.29-56.03c28.37-24.7,60.52-52.69,87.55-101.71c24.28-44.02,22.72-86.12,21.35-123.26
		c-0.91-24.57-1.69-45.79,5.26-63.34l0,0c12.37-31.24,65.4-52.9,73.96-56.23c4.16-4.64,25.73-30.23,19.26-55.57
		c-8.18-32.07-21.67-35.62-30.6-37.97c-3.98-1.05-7.74-2.04-10.05-5.27c-5.47-7.64,4.42-18.8,8.92-23.24
		c5.08-5.01,14.48-12.77,20.4-8.42l1.17,0.84c6.63,4.67,26.81,18.87,37.33,48.99c10.09,28.88-4.96,72.69-8.81,83.02
		c9.54,17.18,69.91,132.56,23.93,222.67c-50.59,99.14-158.58,155.89-216.6,186.38c-5.92,3.11-11.32,5.94-16.08,8.52
		c-38.32,20.77-48.05,54.1-54.49,76.16c-3.84,13.14-6.37,21.82-14.23,22.44C-3969.53,839.15-3969.76,839.16-3970,839.16z
		 M-3726.18,198.54c-4.85,1.64-17.15,13.95-16.72,18.12c0.28,0.03,2.73,0.67,4.52,1.14c10.42,2.74,27.85,7.33,37.42,44.85
		c8.44,33.07-21.07,64.02-22.34,65.31l-1.76,1.16c-0.57,0.21-57.88,21.87-69.5,51.2l0,0c-6.21,15.68-5.46,35.97-4.59,59.47
		c1.35,36.48,3.03,81.89-22.53,128.23c-27.85,50.5-60.68,79.08-89.64,104.3c-19.71,17.16-38.33,33.37-52.69,54.24
		c-20.31,29.51-19.11,72.17-11.77,93.03c2.65,7.53,5.22,9.82,5.91,10.03c1.34-1.01,3.7-9.1,5.6-15.6
		c6.47-22.15,17.29-59.21,59.11-81.88c4.79-2.6,10.23-5.45,16.19-8.58c57.08-30,163.31-85.82,212.53-182.26
		c46.37-90.87-24.1-214.31-24.82-215.55l-1.17-2.01l0.86-2.16c0.2-0.49,19.58-49.66,9.49-78.49c-9.5-27.22-27.8-40.1-33.81-44.33
		L-3726.18,198.54z M-3727.2,197.82c0.02,0.02,0.05,0.04,0.07,0.06L-3727.2,197.82z"/>
</g>
<g>
	<g>
		<defs>
			<path id="SVGID_5_" d="M-3093.76-53.91c-16.75,42.3,14.18,112.75-26.86,187.15c-46.42,84.18-106.12,105.89-142.08,158.14
				c-29.97,43.55-15.28,111.57-1.74,110.52c13.53-1.07,6.33-65.25,66.81-98.03c51.16-27.72,175.65-85.01,230.69-192.87
				c48.13-94.32-24.94-220.12-24.94-220.12s20.37-50.94,9.57-81.84c-10.79-30.9-32.22-44.17-36.83-47.55
				c-4.6-3.39-27.57,18.09-22.61,25.03c4.97,6.94,29.35-2.4,41.39,44.83c7.87,30.86-21.14,60.81-21.14,60.81
				S-3081.21-85.59-3093.76-53.91z"/>
		</defs>
		<clipPath id="SVGID_6_">
			<use xlink:href="#SVGID_5_"  style="overflow:visible;"/>
		</clipPath>
		<g class="st6">
			<line class="st1" x1="-3303.13" y1="239.71" x2="-3040.18" y2="350.37"/>
			
				<rect x="-3190.76" y="152.4" transform="matrix(0.3879 -0.9217 0.9217 0.3879 -2213.3682 -2742.7373)" class="st1" width="38.22" height="285.29"/>
		</g>
		<g class="st6">
			<line class="st2" x1="-3328.45" y1="299.89" x2="-3065.5" y2="410.54"/>
			
				<rect x="-3216.09" y="212.57" transform="matrix(0.3879 -0.9217 0.9217 0.3879 -2284.2996 -2729.2393)" class="st2" width="38.22" height="285.29"/>
		</g>
		<g class="st6">
			<line class="st7" x1="-3252.49" y1="119.37" x2="-2989.53" y2="230.03"/>
			
				<rect x="-3140.12" y="32.05" transform="matrix(0.3879 -0.9217 0.9217 0.3879 -2071.4651 -2769.731)" class="st7" width="38.22" height="285.29"/>
		</g>
		<g class="st6">
			<line class="st5" x1="-3277.81" y1="179.54" x2="-3014.85" y2="290.2"/>
			
				<rect x="-3165.44" y="92.23" transform="matrix(0.3879 -0.9217 0.9217 0.3879 -2142.408 -2756.2319)" class="st5" width="38.22" height="285.29"/>
		</g>
	</g>
	<path class="st3" d="M-3264.84,406.69c-3.06,0-7.28-1.58-11.22-8.42c-10.51-18.23-16.57-71.94,9.34-109.59
		c15.05-21.86,34.11-38.46,54.29-56.03c28.37-24.7,60.52-52.69,87.55-101.71c24.28-44.02,22.72-86.12,21.34-123.26
		c-0.91-24.57-1.69-45.79,5.26-63.34l0,0c12.37-31.24,65.4-52.9,73.96-56.23c4.16-4.64,25.73-30.23,19.26-55.57
		c-8.18-32.07-21.67-35.62-30.6-37.97c-3.98-1.05-7.74-2.04-10.05-5.27c-5.47-7.64,4.42-18.8,8.92-23.24
		c5.08-5.01,14.48-12.77,20.4-8.42l1.17,0.84c6.63,4.67,26.81,18.87,37.33,48.99c10.09,28.88-4.96,72.69-8.81,83.02
		c9.54,17.18,69.91,132.56,23.93,222.67c-50.59,99.14-158.58,155.89-216.6,186.38c-5.92,3.11-11.32,5.94-16.08,8.52
		c-38.32,20.77-48.05,54.1-54.49,76.16c-3.83,13.14-6.37,21.82-14.23,22.44C-3264.37,406.68-3264.6,406.69-3264.84,406.69z
		 M-3021.02-233.94c-4.85,1.64-17.15,13.95-16.72,18.12c0.28,0.03,2.73,0.67,4.52,1.14c10.42,2.74,27.85,7.33,37.42,44.85
		c8.44,33.07-21.07,64.02-22.34,65.31l-1.76,1.16c-0.57,0.21-57.88,21.87-69.5,51.2l0,0c-6.21,15.68-5.46,35.97-4.59,59.47
		c1.35,36.48,3.03,81.89-22.53,128.23c-27.85,50.5-60.68,79.08-89.64,104.3c-19.71,17.16-38.33,33.37-52.69,54.24
		c-20.31,29.51-19.11,72.17-11.77,93.03c2.65,7.53,5.22,9.82,5.91,10.03c1.34-1.01,3.7-9.1,5.6-15.6
		c6.47-22.15,17.29-59.21,59.11-81.88c4.79-2.6,10.23-5.45,16.18-8.58c57.08-30,163.31-85.82,212.53-182.26
		c46.37-90.87-24.1-214.31-24.82-215.55l-1.17-2.01l0.86-2.16c0.2-0.49,19.58-49.66,9.49-78.49c-9.5-27.22-27.8-40.1-33.81-44.33
		L-3021.02-233.94z M-3022.04-234.66c0.02,0.02,0.05,0.04,0.07,0.06L-3022.04-234.66z"/>
</g>
<g>
	<g>
		<defs>
			<path id="SVGID_7_" d="M-4767.49-521.81c-16.75,42.3,14.18,112.75-26.86,187.15c-46.42,84.18-106.12,105.89-142.08,158.14
				c-29.97,43.55-15.28,111.57-1.74,110.52c13.53-1.07,6.33-65.25,66.81-98.03c51.16-27.72,175.65-85.01,230.69-192.87
				c48.13-94.32-24.94-220.12-24.94-220.12s20.37-50.94,9.57-81.84c-10.79-30.9-32.22-44.17-36.83-47.55
				c-4.6-3.39-27.57,18.09-22.61,25.03c4.97,6.94,29.35-2.4,41.39,44.83c7.87,30.86-21.14,60.81-21.14,60.81
				S-4754.94-553.5-4767.49-521.81z"/>
		</defs>
		<clipPath id="SVGID_8_">
			<use xlink:href="#SVGID_7_"  style="overflow:visible;"/>
		</clipPath>
		<g class="st8">
			<line class="st1" x1="-4976.86" y1="-228.19" x2="-4713.9" y2="-117.53"/>
			
				<rect x="-4864.49" y="-315.5" transform="matrix(0.3879 -0.9217 0.9217 0.3879 -2806.6138 -4571.8354)" class="st1" width="38.23" height="285.29"/>
		</g>
		<g class="st8">
			<line class="st2" x1="-5002.18" y1="-168.02" x2="-4739.22" y2="-57.36"/>
			
				<rect x="-4889.81" y="-255.34" transform="matrix(0.3879 -0.9217 0.9217 0.3879 -2877.5994 -4558.3584)" class="st2" width="38.23" height="285.29"/>
		</g>
		<g class="st8">
			<line class="st7" x1="-4926.21" y1="-348.53" x2="-4663.26" y2="-237.87"/>
			
				<rect x="-4813.85" y="-435.85" transform="matrix(0.3879 -0.9217 0.9217 0.3879 -2664.7195 -4598.8359)" class="st7" width="38.23" height="285.29"/>
		</g>
		<g class="st8">
			<line class="st9" x1="-4900.89" y1="-408.7" x2="-4637.94" y2="-298.04"/>
			
				<rect x="-4788.53" y="-496.02" transform="matrix(0.3879 -0.9217 0.9217 0.3879 -2593.7634 -4612.3281)" class="st9" width="38.23" height="285.29"/>
		</g>
		<g class="st8">
			<line class="st5" x1="-4951.53" y1="-288.36" x2="-4688.58" y2="-177.7"/>
			
				<rect x="-4839.17" y="-375.68" transform="matrix(0.3879 -0.9217 0.9217 0.3879 -2735.6494 -4585.333)" class="st5" width="38.23" height="285.29"/>
		</g>
	</g>
	<path class="st3" d="M-4938.57-61.14c-3.06,0-7.28-1.58-11.22-8.42c-10.51-18.23-16.57-71.94,9.34-109.59
		c15.05-21.86,34.11-38.46,54.29-56.03c28.37-24.7,60.52-52.69,87.55-101.71c24.28-44.02,22.72-86.12,21.35-123.26
		c-0.91-24.57-1.69-45.79,5.26-63.34l0,0c12.37-31.24,65.4-52.9,73.96-56.23c4.16-4.64,25.73-30.23,19.26-55.57
		c-8.18-32.07-21.67-35.62-30.6-37.97c-3.98-1.05-7.74-2.04-10.05-5.27c-5.47-7.64,4.42-18.8,8.92-23.24
		c5.08-5.01,14.48-12.77,20.4-8.42l1.17,0.84c6.63,4.67,26.81,18.87,37.33,48.99c10.09,28.88-4.96,72.69-8.81,83.02
		c9.54,17.18,69.91,132.56,23.92,222.67c-50.59,99.14-158.58,155.89-216.6,186.38c-5.92,3.11-11.32,5.94-16.08,8.52
		c-38.32,20.77-48.05,54.1-54.49,76.16c-3.83,13.14-6.37,21.82-14.23,22.44C-4938.1-61.15-4938.33-61.14-4938.57-61.14z
		 M-4694.75-701.76c-4.85,1.64-17.15,13.95-16.72,18.12c0.28,0.03,2.73,0.67,4.52,1.14c10.42,2.74,27.85,7.33,37.42,44.85
		c8.44,33.07-21.07,64.02-22.34,65.31l-1.76,1.16c-0.57,0.21-57.88,21.87-69.5,51.2l0,0c-6.21,15.68-5.46,35.97-4.59,59.47
		c1.35,36.48,3.03,81.89-22.53,128.23c-27.85,50.5-60.68,79.08-89.64,104.3c-19.71,17.16-38.33,33.37-52.69,54.24
		c-20.31,29.51-19.11,72.17-11.77,93.03c2.65,7.53,5.22,9.82,5.91,10.03c1.34-1.01,3.7-9.1,5.6-15.6
		c6.47-22.15,17.29-59.21,59.11-81.88c4.79-2.6,10.23-5.45,16.19-8.58c57.08-30,163.31-85.82,212.53-182.26
		c46.37-90.87-24.1-214.31-24.82-215.55l-1.17-2.01l0.86-2.16c0.2-0.49,19.58-49.66,9.49-78.49c-9.5-27.22-27.8-40.1-33.81-44.33
		L-4694.75-701.76z M-4695.76-702.48c0.02,0.02,0.05,0.04,0.07,0.06L-4695.76-702.48z"/>
</g>
<g>
	<g>
		<defs>
			<path id="SVGID_9_" d="M-2331.43-745.85c-16.75,42.3,14.18,112.75-26.86,187.15c-46.42,84.18-106.12,105.89-142.08,158.14
				c-29.97,43.55-15.28,111.57-1.74,110.52c13.53-1.07,6.33-65.25,66.81-98.03c51.16-27.72,175.65-85.01,230.69-192.87
				c48.13-94.32-24.94-220.12-24.94-220.12s20.37-50.94,9.57-81.84c-10.79-30.9-32.22-44.17-36.83-47.55
				c-4.6-3.39-27.57,18.09-22.61,25.03c4.97,6.94,29.35-2.4,41.39,44.83c7.87,30.86-21.14,60.81-21.14,60.81
				S-2318.88-777.54-2331.43-745.85z"/>
		</defs>
		<clipPath id="SVGID_10_">
			<use xlink:href="#SVGID_9_"  style="overflow:visible;"/>
		</clipPath>
		<g class="st10">
			<line class="st1" x1="-2540.8" y1="-452.23" x2="-2277.85" y2="-341.57"/>
			
				<rect x="-2428.44" y="-539.55" transform="matrix(0.3879 -0.9217 0.9217 0.3879 -1108.9579 -2463.6458)" class="st1" width="38.23" height="285.29"/>
		</g>
		<g class="st10">
			<line class="st2" x1="-2566.12" y1="-392.06" x2="-2303.17" y2="-281.4"/>
			
				<rect x="-2453.76" y="-479.37" transform="matrix(0.3879 -0.9217 0.9217 0.3879 -1179.9371 -2450.1584)" class="st2" width="38.23" height="285.29"/>
		</g>
		<g class="st10">
			<line class="st7" x1="-2490.16" y1="-572.57" x2="-2227.2" y2="-461.91"/>
			
				<rect x="-2377.79" y="-659.89" transform="matrix(0.3879 -0.9217 0.9217 0.3879 -967.0574 -2490.6357)" class="st7" width="38.23" height="285.29"/>
		</g>
		<g class="st10">
			<line class="st9" x1="-2464.84" y1="-632.74" x2="-2201.88" y2="-522.08"/>
			
				<rect x="-2352.47" y="-720.06" transform="matrix(0.3879 -0.9217 0.9217 0.3879 -896.0927 -2504.1335)" class="st9" width="38.23" height="285.29"/>
		</g>
		<g class="st10">
			<line class="st11" x1="-2439.52" y1="-692.91" x2="-2176.56" y2="-582.26"/>
			
				<rect x="-2327.15" y="-780.23" transform="matrix(0.3879 -0.9217 0.9217 0.3879 -825.1365 -2517.6255)" class="st11" width="38.23" height="285.29"/>
		</g>
		<g class="st10">
			<line class="st5" x1="-2515.48" y1="-512.4" x2="-2252.52" y2="-401.74"/>
			
				<rect x="-2403.12" y="-599.72" transform="matrix(0.3879 -0.9217 0.9217 0.3879 -1038.0021 -2477.1375)" class="st5" width="38.23" height="285.29"/>
		</g>
	</g>
	<path class="st3" d="M-2502.51-285.26c-3.06,0-7.28-1.58-11.22-8.42c-10.51-18.23-16.57-71.94,9.34-109.59
		c15.05-21.86,34.11-38.46,54.29-56.03c28.37-24.7,60.52-52.69,87.55-101.71c24.28-44.02,22.72-86.12,21.34-123.26
		c-0.91-24.57-1.69-45.79,5.26-63.34l0,0c12.37-31.24,65.4-52.9,73.96-56.23c4.16-4.64,25.73-30.23,19.26-55.57
		c-8.18-32.07-21.67-35.62-30.6-37.97c-3.98-1.05-7.74-2.04-10.05-5.27c-5.47-7.64,4.42-18.8,8.92-23.24
		c5.08-5.01,14.48-12.77,20.4-8.42l1.17,0.84c6.63,4.67,26.81,18.87,37.33,48.99c10.09,28.88-4.96,72.69-8.81,83.02
		c9.54,17.18,69.91,132.56,23.93,222.67c-50.59,99.14-158.58,155.89-216.6,186.38c-5.92,3.11-11.32,5.94-16.08,8.52
		c-38.32,20.77-48.05,54.1-54.49,76.16c-3.83,13.14-6.37,21.82-14.23,22.44C-2502.05-285.27-2502.27-285.26-2502.51-285.26z
		 M-2258.69-925.88c-4.85,1.64-17.15,13.95-16.72,18.12c0.28,0.03,2.73,0.67,4.52,1.14c10.42,2.74,27.85,7.33,37.42,44.85
		c8.44,33.07-21.07,64.02-22.34,65.31l-1.76,1.16c-0.57,0.21-57.88,21.87-69.5,51.2l0,0c-6.21,15.68-5.46,35.97-4.59,59.47
		c1.35,36.48,3.03,81.89-22.53,128.23c-27.85,50.5-60.68,79.08-89.64,104.3c-19.71,17.16-38.33,33.37-52.69,54.24
		c-20.31,29.51-19.11,72.17-11.77,93.03c2.65,7.53,5.22,9.82,5.91,10.03c1.34-1.01,3.7-9.1,5.6-15.6
		c6.47-22.15,17.29-59.21,59.11-81.88c4.79-2.6,10.23-5.45,16.19-8.58c57.08-30,163.31-85.82,212.53-182.26
		c46.37-90.87-24.1-214.31-24.82-215.55l-1.17-2.01l0.86-2.16c0.2-0.49,19.58-49.66,9.49-78.49c-9.5-27.22-27.8-40.1-33.81-44.33
		L-2258.69-925.88z M-2259.71-926.6c0.02,0.02,0.05,0.04,0.07,0.06L-2259.71-926.6z"/>
</g>
<g>
	<g>
		<defs>
			<path id="SVGID_11_" d="M327.62,280.05c-16.75,42.3,14.18,112.75-26.86,187.15c-46.42,84.18-106.12,105.89-142.08,158.14
				c-29.97,43.55-15.28,111.57-1.74,110.52c13.53-1.07,6.33-65.25,66.81-98.03c51.16-27.72,175.65-85.01,230.69-192.87
				c48.13-94.32-24.94-220.12-24.94-220.12s20.37-50.94,9.57-81.84c-10.79-30.9-32.22-44.17-36.83-47.55
				c-4.6-3.39-27.57,18.09-22.61,25.03c4.97,6.94,29.35-2.4,41.39,44.83c7.87,30.86-21.14,60.81-21.14,60.81
				S340.17,248.36,327.62,280.05z"/>
		</defs>
		<clipPath id="SVGID_12_">
			<use xlink:href="#SVGID_11_"  style="overflow:visible;"/>
		</clipPath>
		<g class="st12">
			<line class="st1" x1="118.25" y1="573.67" x2="381.2" y2="684.33"/>
			
				<rect x="230.61" y="486.36" transform="matrix(0.3879 -0.9217 0.9217 0.3879 -426.8926 615.1964)" class="st1" width="38.23" height="285.29"/>
		</g>
		<g class="st12">
			<line class="st2" x1="92.93" y1="633.84" x2="355.88" y2="744.5"/>
			
				<rect x="205.29" y="546.52" transform="matrix(0.3879 -0.9217 0.9217 0.3879 -497.8503 628.6906)" class="st2" width="38.23" height="285.29"/>
		</g>
		<g class="st12">
			<line class="st7" x1="168.89" y1="453.33" x2="431.85" y2="563.99"/>
			
				<rect x="281.26" y="366.01" transform="matrix(0.3879 -0.9217 0.9217 0.3879 -284.9705 588.2131)" class="st7" width="38.23" height="285.29"/>
		</g>
		<g class="st12">
			<line class="st9" x1="194.21" y1="393.16" x2="457.17" y2="503.82"/>
			
				<rect x="306.58" y="305.84" transform="matrix(0.3879 -0.9217 0.9217 0.3879 -214.0143 574.7211)" class="st9" width="38.23" height="285.29"/>
		</g>
		<g class="st12">
			<line class="st13" x1="244.85" y1="272.82" x2="507.81" y2="383.48"/>
			
				<rect x="357.22" y="185.5" transform="matrix(0.3879 -0.9217 0.9217 0.3879 -72.0934 547.7306)" class="st13" width="38.23" height="285.29"/>
		</g>
		<g class="st12">
			<line class="st11" x1="219.53" y1="332.99" x2="482.49" y2="443.65"/>
			
				<rect x="331.9" y="245.67" transform="matrix(0.3879 -0.9217 0.9217 0.3879 -143.0582 561.2291)" class="st11" width="38.23" height="285.29"/>
		</g>
		<g class="st12">
			<line class="st5" x1="143.57" y1="513.5" x2="406.52" y2="624.16"/>
			
				<rect x="255.93" y="426.19" transform="matrix(0.3879 -0.9217 0.9217 0.3879 -355.9368 601.7047)" class="st5" width="38.23" height="285.29"/>
		</g>
	</g>
	<path class="st3" d="M156.54,740.64c-3.06,0-7.28-1.58-11.22-8.42c-10.51-18.23-16.57-71.94,9.34-109.59
		c15.05-21.86,34.11-38.46,54.29-56.03c28.37-24.7,60.52-52.69,87.55-101.71c24.28-44.02,22.72-86.12,21.35-123.26
		c-0.91-24.57-1.69-45.79,5.26-63.34l0,0c12.37-31.24,65.4-52.9,73.96-56.23c4.16-4.64,25.73-30.23,19.26-55.57
		c-8.18-32.07-21.67-35.62-30.6-37.97c-3.98-1.05-7.74-2.04-10.05-5.27c-5.47-7.64,4.42-18.8,8.92-23.24
		c5.08-5.01,14.48-12.77,20.4-8.42l1.17,0.84c6.63,4.67,26.81,18.87,37.33,48.99c10.09,28.88-4.96,72.69-8.81,83.02
		c9.54,17.18,69.91,132.56,23.93,222.67c-50.59,99.14-158.58,155.89-216.6,186.38c-5.92,3.11-11.32,5.94-16.08,8.52
		c-38.32,20.77-48.05,54.1-54.49,76.16c-3.84,13.14-6.37,21.82-14.23,22.44C157,740.63,156.78,740.64,156.54,740.64z M400.36,100.02
		c-4.85,1.64-17.15,13.95-16.72,18.12c0.28,0.03,2.73,0.67,4.52,1.14c10.42,2.74,27.85,7.33,37.42,44.85
		c8.44,33.07-21.07,64.02-22.34,65.31l-1.76,1.16c-0.57,0.21-57.88,21.87-69.5,51.2l0,0c-6.21,15.68-5.46,35.97-4.59,59.47
		c1.35,36.48,3.03,81.89-22.53,128.23c-27.85,50.5-60.68,79.08-89.64,104.3c-19.71,17.16-38.33,33.37-52.69,54.24
		c-20.31,29.51-19.11,72.17-11.77,93.03c2.65,7.53,5.22,9.82,5.91,10.03c1.34-1.01,3.7-9.1,5.6-15.6
		c6.47-22.15,17.29-59.21,59.11-81.88c4.79-2.6,10.23-5.45,16.18-8.58c57.08-30,163.31-85.82,212.53-182.26
		c46.37-90.87-24.1-214.31-24.82-215.55l-1.17-2.01l0.86-2.16c0.2-0.49,19.58-49.66,9.49-78.49c-9.5-27.22-27.8-40.1-33.81-44.33
		L400.36,100.02z M399.34,99.3c0.02,0.02,0.05,0.04,0.07,0.06L399.34,99.3z"/>
</g>
<g>
	<g>
		<defs>
			<path id="SVGID_13_" d="M3451.8,1146.58c-16.75,42.3,14.18,112.75-26.86,187.15c-46.42,84.18-106.12,105.89-142.08,158.14
				c-29.97,43.55-15.28,111.57-1.74,110.52c13.53-1.07,6.33-65.25,66.81-98.03c51.16-27.72,175.65-85.01,230.69-192.87
				c48.13-94.32-24.94-220.12-24.94-220.12s20.37-50.94,9.57-81.84c-10.79-30.9-32.22-44.17-36.83-47.55
				c-4.6-3.39-27.57,18.09-22.61,25.03c4.97,6.94,29.35-2.4,41.39,44.83c7.87,30.86-21.14,60.81-21.14,60.81
				S3464.35,1114.89,3451.8,1146.58z"/>
		</defs>
		<clipPath id="SVGID_14_">
			<use xlink:href="#SVGID_13_"  style="overflow:visible;"/>
		</clipPath>
		<g class="st14">
			<line class="st1" x1="3242.43" y1="1440.2" x2="3505.39" y2="1550.86"/>
			
				<rect x="3354.8" y="1352.89" transform="matrix(0.3879 -0.9217 0.9217 0.3879 686.7838 4025.2056)" class="st1" width="38.23" height="285.29"/>
		</g>
		<g class="st14">
			<line class="st2" x1="3217.11" y1="1500.37" x2="3480.07" y2="1611.03"/>
			
				<rect x="3329.48" y="1413.05" transform="matrix(0.3879 -0.9217 0.9217 0.3879 615.8422 4038.7124)" class="st2" width="38.23" height="285.29"/>
		</g>
		<g class="st14">
			<line class="st7" x1="3293.08" y1="1319.86" x2="3556.03" y2="1430.52"/>
			
				<rect x="3405.44" y="1232.54" transform="matrix(0.3879 -0.9217 0.9217 0.3879 828.7221 3998.2349)" class="st7" width="38.23" height="285.29"/>
		</g>
		<g class="st14">
			<line class="st9" x1="3318.4" y1="1259.69" x2="3581.35" y2="1370.35"/>
			
				<rect x="3430.76" y="1172.37" transform="matrix(0.3879 -0.9217 0.9217 0.3879 899.6782 3984.7429)" class="st9" width="38.23" height="285.29"/>
		</g>
		<g class="st14">
			<line class="st13" x1="3369.04" y1="1139.35" x2="3632" y2="1250.01"/>
			
				<rect x="3481.4" y="1052.03" transform="matrix(0.3879 -0.9217 0.9217 0.3879 1041.583 3957.7397)" class="st13" width="38.23" height="285.29"/>
		</g>
		<g class="st14">
			<line class="st11" x1="3343.72" y1="1199.52" x2="3606.67" y2="1310.18"/>
			
				<rect x="3456.08" y="1112.2" transform="matrix(0.3879 -0.9217 0.9217 0.3879 970.6429 3971.2451)" class="st11" width="38.23" height="285.29"/>
		</g>
		<g class="st14">
			<line class="st15" x1="3394.36" y1="1079.18" x2="3657.32" y2="1189.84"/>
			
				<rect x="3506.72" y="991.86" transform="matrix(0.3879 -0.9217 0.9217 0.3879 1112.5388 3944.248)" class="st15" width="38.23" height="285.29"/>
		</g>
		<g class="st14">
			<line class="st5" x1="3267.76" y1="1380.03" x2="3530.71" y2="1490.69"/>
			
				<rect x="3380.12" y="1292.71" transform="matrix(0.3879 -0.9217 0.9217 0.3879 757.7482 4011.708)" class="st5" width="38.23" height="285.29"/>
		</g>
	</g>
	<path class="st3" d="M3280.72,1607.16c-3.06,0-7.28-1.58-11.22-8.42c-10.51-18.23-16.57-71.94,9.34-109.59
		c15.05-21.86,34.11-38.46,54.29-56.03c28.37-24.7,60.52-52.69,87.55-101.71c24.28-44.02,22.72-86.12,21.34-123.26
		c-0.91-24.57-1.69-45.79,5.26-63.34l0,0c12.37-31.24,65.4-52.9,73.96-56.23c4.16-4.64,25.73-30.23,19.26-55.57
		c-8.18-32.07-21.67-35.62-30.6-37.97c-3.98-1.05-7.74-2.04-10.05-5.27c-5.47-7.64,4.42-18.8,8.92-23.24
		c5.08-5.01,14.48-12.77,20.4-8.42l1.17,0.84c6.63,4.67,26.81,18.87,37.33,48.99c10.09,28.88-4.96,72.69-8.81,83.02
		c9.54,17.18,69.91,132.56,23.93,222.67c-50.59,99.14-158.58,155.89-216.6,186.38c-5.92,3.11-11.32,5.94-16.08,8.52
		c-38.32,20.77-48.05,54.1-54.49,76.16c-3.83,13.14-6.37,21.82-14.23,22.44C3281.19,1607.15,3280.96,1607.16,3280.72,1607.16z
		 M3524.54,966.53c-4.85,1.64-17.15,13.95-16.72,18.12c0.28,0.03,2.73,0.67,4.52,1.14c10.42,2.74,27.85,7.33,37.42,44.85
		c8.44,33.07-21.07,64.02-22.34,65.31l-1.76,1.16c-0.57,0.21-57.88,21.87-69.5,51.2l0,0c-6.21,15.68-5.46,35.97-4.59,59.47
		c1.35,36.48,3.03,81.89-22.53,128.23c-27.85,50.5-60.68,79.08-89.64,104.3c-19.71,17.16-38.33,33.37-52.69,54.24
		c-20.31,29.51-19.11,72.17-11.77,93.03c2.65,7.53,5.22,9.82,5.91,10.03c1.34-1.01,3.7-9.1,5.6-15.6
		c6.47-22.15,17.29-59.21,59.11-81.88c4.79-2.6,10.23-5.45,16.18-8.58c57.08-30,163.31-85.82,212.53-182.26
		c46.37-90.87-24.1-214.31-24.82-215.55l-1.17-2.01l0.86-2.16c0.2-0.49,19.58-49.66,9.49-78.49c-9.5-27.22-27.8-40.1-33.81-44.33
		L3524.54,966.53z M3523.53,965.81c0.02,0.02,0.05,0.04,0.07,0.06L3523.53,965.81z"/>
</g>
<g>
	<g>
		<defs>
			<path id="SVGID_15_" d="M-1826.88,1117.38c-16.75,42.3,14.18,112.75-26.86,187.15c-46.42,84.18-106.12,105.89-142.08,158.14
				c-29.97,43.55-15.28,111.57-1.74,110.52c13.53-1.07,6.33-65.25,66.81-98.03c51.16-27.72,175.65-85.01,230.69-192.87
				c48.13-94.32-24.94-220.12-24.94-220.12s20.37-50.94,9.57-81.84c-10.79-30.9-32.22-44.17-36.83-47.55
				c-4.6-3.39-27.57,18.09-22.61,25.03c4.97,6.94,29.35-2.4,41.39,44.83c7.87,30.86-21.14,60.81-21.14,60.81
				S-1814.33,1085.7-1826.88,1117.38z"/>
		</defs>
		<clipPath id="SVGID_16_">
			<use xlink:href="#SVGID_15_"  style="overflow:visible;"/>
		</clipPath>
		<g class="st16">
			<line class="st2" x1="-2061.57" y1="1471.17" x2="-1798.61" y2="1581.83"/>
			
				<rect x="-1949.2" y="1383.86" transform="matrix(0.3879 -0.9217 0.9217 0.3879 -2588.4827 -844.5691)" class="st2" width="38.22" height="285.29"/>
		</g>
	</g>
	<path class="st3" d="M-1997.96,1577.98c-3.06,0-7.28-1.58-11.22-8.42c-10.51-18.23-16.57-71.94,9.34-109.59
		c15.05-21.86,34.11-38.46,54.29-56.03c28.37-24.7,60.52-52.69,87.55-101.71c24.28-44.02,22.72-86.12,21.35-123.26
		c-0.91-24.57-1.69-45.79,5.26-63.34l0,0c12.37-31.24,65.4-52.9,73.96-56.23c4.16-4.64,25.73-30.23,19.26-55.57
		c-8.18-32.07-21.67-35.62-30.6-37.97c-3.98-1.05-7.74-2.04-10.05-5.27c-5.47-7.64,4.42-18.8,8.92-23.24
		c5.08-5.01,14.48-12.77,20.4-8.42l1.17,0.84c6.63,4.67,26.81,18.87,37.33,48.99c10.09,28.88-4.96,72.69-8.81,83.02
		c9.54,17.18,69.91,132.56,23.93,222.67c-50.59,99.14-158.58,155.89-216.6,186.38c-5.92,3.11-11.32,5.94-16.08,8.52
		c-38.32,20.77-48.05,54.1-54.49,76.16c-3.84,13.14-6.37,21.82-14.23,22.44C-1997.49,1577.97-1997.72,1577.98-1997.96,1577.98z
		 M-1754.14,937.35c-4.85,1.64-17.15,13.95-16.72,18.12c0.28,0.03,2.73,0.67,4.52,1.14c10.42,2.74,27.85,7.33,37.42,44.85
		c8.44,33.07-21.07,64.02-22.34,65.31l-1.76,1.16c-0.57,0.21-57.88,21.87-69.5,51.2l0,0c-6.21,15.68-5.46,35.97-4.59,59.47
		c1.35,36.48,3.03,81.89-22.53,128.23c-27.85,50.5-60.68,79.08-89.64,104.3c-19.71,17.16-38.33,33.37-52.69,54.24
		c-20.31,29.51-19.11,72.17-11.77,93.03c2.65,7.53,5.22,9.82,5.91,10.03c1.34-1.01,3.7-9.1,5.6-15.6
		c6.47-22.15,17.29-59.21,59.11-81.88c4.79-2.6,10.23-5.45,16.18-8.58c57.08-30,163.31-85.82,212.53-182.26
		c46.37-90.87-24.1-214.31-24.82-215.55l-1.17-2.01l0.86-2.16c0.2-0.49,19.58-49.66,9.49-78.49c-9.5-27.22-27.8-40.1-33.81-44.33
		L-1754.14,937.35z M-1755.15,936.63c0.02,0.02,0.05,0.04,0.07,0.06L-1755.15,936.63z"/>
</g>
</svg>
