<?xml version="1.0" encoding="utf-8"?>
<!-- Generator: Adobe Illustrator 24.2.3, SVG Export Plug-In . SVG Version: 6.00 Build 0)  -->
<svg version="1.1" id="Layer_1" xmlns="http://www.w3.org/2000/svg" xmlns:xlink="http://www.w3.org/1999/xlink" x="0px" y="0px"
	 viewBox="0 0 612 792" style="enable-background:new 0 0 612 792;" xml:space="preserve">
<style type="text/css">
	.st0{clip-path:url(#SVGID_2_);}
	.st1{fill:#CBDB2E;}
	.st2{fill:#E1E778;}
	.st3{fill:#006937;}
	.st4{clip-path:url(#SVGID_4_);}
	.st5{fill:#8DC641;}
	.st6{clip-path:url(#SVGID_6_);}
	.st7{fill:#E9A835;}
	.st8{clip-path:url(#SVGID_8_);}
	.st9{fill:#DD8027;}
	.st10{clip-path:url(#SVGID_10_);}
	.st11{fill:#DF6026;}
	.st12{clip-path:url(#SVGID_12_);}
	.st13{fill:#B12024;}
	.st14{clip-path:url(#SVGID_14_);}
	.st15{fill:#861719;}
	.st16{clip-path:url(#SVGID_16_);}
</style>
<g>
	<g>
		<defs>
			<path id="SVGID_1_" d="M-2221.06,2449.98c-16.75,42.3,14.18,112.75-26.86,187.15c-46.42,84.18-106.12,105.89-142.08,158.14
				c-29.97,43.55-15.28,111.57-1.74,110.52c13.53-1.07,6.33-65.25,66.81-98.03c51.16-27.72,175.65-85.01,230.69-192.87
				c48.13-94.32-24.94-220.12-24.94-220.12s20.37-50.94,9.57-81.84c-10.79-30.9-32.22-44.17-36.83-47.55
				c-4.6-3.39-27.57,18.09-22.61,25.03c4.97,6.94,29.35-2.4,41.39,44.83c7.87,30.86-21.14,60.81-21.14,60.81
				S-2208.51,2418.29-2221.06,2449.98z"/>
		</defs>
		<clipPath id="SVGID_2_">
			<use xlink:href="#SVGID_1_"  style="overflow:visible;"/>
		</clipPath>
		<g class="st0">
			<line class="st1" x1="-2430.43" y1="2743.6" x2="-2167.47" y2="2854.26"/>
			
				<rect x="-2318.06" y="2656.28" transform="matrix(0.3879 -0.9217 0.9217 0.3879 -3987.0227 -405.693)" class="st1" width="38.22" height="285.29"/>
		</g>
		<g class="st0">
			<line class="st2" x1="-2455.75" y1="2803.77" x2="-2192.8" y2="2914.43"/>
			
				<rect x="-2343.38" y="2716.45" transform="matrix(0.3879 -0.9217 0.9217 0.3879 -4058.0518 -392.1649)" class="st2" width="38.22" height="285.29"/>
		</g>
	</g>
	<path class="st3" d="M-2392.14,2910.57c-3.06,0-7.28-1.58-11.22-8.42c-10.51-18.23-16.57-71.94,9.34-109.59
		c15.05-21.86,34.11-38.46,54.29-56.03c28.37-24.7,60.52-52.69,87.55-101.71c24.28-44.02,22.72-86.12,21.34-123.26
		c-0.91-24.57-1.69-45.79,5.26-63.34l0,0c12.37-31.24,65.4-52.9,73.96-56.23c4.16-4.64,25.73-30.23,19.26-55.57
		c-8.18-32.07-21.67-35.62-30.6-37.97c-3.98-1.05-7.74-2.04-10.05-5.27c-5.47-7.64,4.42-18.8,8.92-23.24
		c5.08-5.01,14.48-12.77,20.4-8.42l1.17,0.84c6.63,4.67,26.81,18.87,37.33,48.99c10.09,28.88-4.96,72.69-8.81,83.02
		c9.54,17.18,69.91,132.56,23.93,222.67c-50.59,99.14-158.58,155.89-216.6,186.38c-5.92,3.11-11.32,5.94-16.08,8.52
		c-38.32,20.77-48.05,54.1-54.49,76.16c-3.83,13.14-6.37,21.82-14.23,22.44C-2391.67,2910.56-2391.9,2910.57-2392.14,2910.57z
		 M-2148.32,2269.95c-4.85,1.64-17.15,13.95-16.72,18.12c0.28,0.03,2.73,0.67,4.52,1.14c10.42,2.74,27.85,7.33,37.42,44.85
		c8.44,33.07-21.07,64.02-22.34,65.31l-1.76,1.16c-0.57,0.21-57.88,21.87-69.5,51.2l0,0c-6.21,15.68-5.46,35.97-4.59,59.47
		c1.35,36.49,3.03,81.89-22.53,128.23c-27.85,50.5-60.68,79.08-89.64,104.3c-19.71,17.16-38.33,33.37-52.69,54.24
		c-20.31,29.51-19.11,72.17-11.77,93.03c2.65,7.53,5.22,9.82,5.91,10.03c1.34-1.01,3.7-9.1,5.6-15.6
		c6.47-22.15,17.29-59.21,59.11-81.88c4.79-2.6,10.23-5.45,16.18-8.58c57.08-30,163.31-85.82,212.53-182.26
		c46.37-90.87-24.1-214.31-24.82-215.55l-1.17-2.01l0.86-2.16c0.2-0.49,19.58-49.66,9.49-78.49c-9.5-27.22-27.8-40.1-33.81-44.33
		L-2148.32,2269.95z M-2149.34,2269.22c0.02,0.02,0.05,0.04,0.07,0.06L-2149.34,2269.22z"/>
</g>
<g>
	<g>
		<defs>
			<path id="SVGID_3_" d="M327.62,260.57c-16.75,42.3,14.18,112.75-26.86,187.15c-46.42,84.18-106.12,105.89-142.08,158.14
				c-29.97,43.55-15.28,111.57-1.74,110.52c13.53-1.07,6.33-65.25,66.81-98.03c51.16-27.72,175.65-85.01,230.69-192.87
				c48.13-94.32-24.94-220.12-24.94-220.12s20.37-50.94,9.57-81.84c-10.79-30.9-32.22-44.17-36.83-47.55
				c-4.6-3.39-27.57,18.09-22.61,25.03c4.97,6.94,29.35-2.4,41.39,44.83c7.87,30.86-21.14,60.81-21.14,60.81
				S340.17,228.88,327.62,260.57z"/>
		</defs>
		<clipPath id="SVGID_4_">
			<use xlink:href="#SVGID_3_"  style="overflow:visible;"/>
		</clipPath>
		<g class="st4">
			<line class="st1" x1="118.25" y1="554.19" x2="381.2" y2="664.85"/>
			
				<rect x="230.62" y="466.87" transform="matrix(0.3879 -0.9217 0.9217 0.3879 -408.9366 603.2716)" class="st1" width="38.22" height="285.29"/>
		</g>
		<g class="st4">
			<line class="st2" x1="92.93" y1="614.36" x2="355.88" y2="725.02"/>
			
				<rect x="205.29" y="527.04" transform="matrix(0.3879 -0.9217 0.9217 0.3879 -479.8985 616.7685)" class="st2" width="38.22" height="285.29"/>
		</g>
		<g class="st4">
			<line class="st5" x1="143.57" y1="494.02" x2="406.52" y2="604.68"/>
			
				<rect x="255.94" y="406.7" transform="matrix(0.3879 -0.9217 0.9217 0.3879 -337.9765 589.777)" class="st5" width="38.22" height="285.29"/>
		</g>
	</g>
	<path class="st3" d="M156.54,721.16c-3.06,0-7.28-1.58-11.22-8.42c-10.51-18.23-16.57-71.94,9.34-109.59
		c15.05-21.86,34.11-38.46,54.29-56.03c28.37-24.7,60.52-52.69,87.55-101.71c24.28-44.02,22.72-86.12,21.35-123.26
		c-0.91-24.57-1.69-45.79,5.26-63.34l0,0c12.37-31.24,65.4-52.9,73.96-56.23c4.16-4.64,25.73-30.23,19.26-55.57
		c-8.18-32.07-21.67-35.62-30.6-37.97c-3.98-1.05-7.74-2.04-10.05-5.27c-5.47-7.64,4.42-18.8,8.92-23.24
		c5.08-5.01,14.48-12.77,20.4-8.42l1.17,0.84c6.63,4.67,26.81,18.87,37.33,48.99c10.09,28.88-4.96,72.69-8.81,83.02
		c9.54,17.18,69.91,132.56,23.93,222.67c-50.59,99.14-158.58,155.89-216.6,186.38c-5.92,3.11-11.32,5.94-16.08,8.52
		c-38.32,20.77-48.05,54.1-54.49,76.16c-3.84,13.14-6.37,21.82-14.23,22.44C157,721.15,156.78,721.16,156.54,721.16z M400.36,80.54
		c-4.85,1.64-17.15,13.95-16.72,18.12c0.28,0.03,2.73,0.67,4.52,1.14c10.42,2.74,27.85,7.33,37.42,44.85
		c8.44,33.07-21.07,64.02-22.34,65.31l-1.76,1.16c-0.57,0.21-57.88,21.87-69.5,51.2l0,0c-6.21,15.68-5.46,35.97-4.59,59.47
		c1.35,36.48,3.03,81.89-22.53,128.23c-27.85,50.5-60.68,79.08-89.64,104.3c-19.71,17.16-38.33,33.37-52.69,54.24
		c-20.31,29.51-19.11,72.17-11.77,93.03c2.65,7.53,5.22,9.82,5.91,10.03c1.34-1.01,3.7-9.1,5.6-15.6
		c6.47-22.15,17.29-59.21,59.11-81.88c4.79-2.6,10.23-5.45,16.18-8.58c57.08-30,163.31-85.82,212.53-182.26
		c46.37-90.87-24.1-214.31-24.82-215.55l-1.17-2.01l0.86-2.16c0.2-0.49,19.58-49.66,9.49-78.49c-9.5-27.22-27.8-40.1-33.81-44.33
		L400.36,80.54z M399.34,79.82c0.02,0.02,0.05,0.04,0.07,0.06L399.34,79.82z"/>
</g>
<g>
	<g>
		<defs>
			<path id="SVGID_5_" d="M1942.78,1927.4c-16.75,42.3,14.18,112.75-26.86,187.15c-46.42,84.18-106.12,105.89-142.08,158.14
				c-29.97,43.55-15.28,111.57-1.74,110.52c13.53-1.07,6.33-65.25,66.81-98.03c51.16-27.72,175.65-85.01,230.69-192.87
				c48.13-94.32-24.94-220.12-24.94-220.12s20.37-50.94,9.57-81.84c-10.79-30.9-32.22-44.17-36.83-47.55
				c-4.6-3.39-27.57,18.09-22.61,25.03c4.97,6.94,29.35-2.4,41.39,44.83c7.87,30.86-21.14,60.81-21.14,60.81
				S1955.33,1895.72,1942.78,1927.4z"/>
		</defs>
		<clipPath id="SVGID_6_">
			<use xlink:href="#SVGID_5_"  style="overflow:visible;"/>
		</clipPath>
		<g class="st6">
			<line class="st1" x1="1733.41" y1="2221.02" x2="1996.36" y2="2331.68"/>
			
				<rect x="1845.78" y="2133.71" transform="matrix(0.3879 -0.9217 0.9217 0.3879 -956.6053 3112.2771)" class="st1" width="38.22" height="285.29"/>
		</g>
		<g class="st6">
			<line class="st2" x1="1708.09" y1="2281.19" x2="1971.04" y2="2391.85"/>
			
				<rect x="1820.45" y="2193.88" transform="matrix(0.3879 -0.9217 0.9217 0.3879 -1027.5704 3125.7422)" class="st2" width="38.22" height="285.29"/>
		</g>
		<g class="st6">
			<line class="st7" x1="1784.05" y1="2100.68" x2="2047.01" y2="2211.34"/>
			
				<rect x="1896.42" y="2013.36" transform="matrix(0.3879 -0.9217 0.9217 0.3879 -814.6777 3085.3074)" class="st7" width="38.22" height="285.29"/>
		</g>
		<g class="st6">
			<line class="st5" x1="1758.73" y1="2160.85" x2="2021.69" y2="2271.51"/>
			
				<rect x="1871.1" y="2073.54" transform="matrix(0.3879 -0.9217 0.9217 0.3879 -885.6451 3098.7825)" class="st5" width="38.22" height="285.29"/>
		</g>
	</g>
	<path class="st3" d="M1771.7,2388c-3.06,0-7.28-1.58-11.22-8.42c-10.51-18.23-16.57-71.94,9.34-109.59
		c15.05-21.86,34.11-38.46,54.29-56.03c28.37-24.7,60.52-52.69,87.55-101.71c24.28-44.02,22.72-86.12,21.35-123.26
		c-0.91-24.57-1.69-45.79,5.26-63.34l0,0c12.37-31.24,65.4-52.9,73.96-56.23c4.16-4.64,25.73-30.23,19.26-55.57
		c-8.18-32.07-21.67-35.62-30.6-37.97c-3.98-1.05-7.74-2.04-10.05-5.27c-5.47-7.64,4.42-18.8,8.92-23.24
		c5.08-5.01,14.48-12.77,20.4-8.42l1.17,0.84c6.63,4.67,26.81,18.87,37.33,48.99c10.09,28.88-4.96,72.69-8.81,83.02
		c9.54,17.18,69.91,132.56,23.93,222.67c-50.59,99.14-158.58,155.89-216.6,186.38c-5.92,3.11-11.32,5.94-16.08,8.52
		c-38.32,20.77-48.05,54.1-54.49,76.16c-3.84,13.14-6.37,21.82-14.23,22.44C1772.17,2387.99,1771.94,2388,1771.7,2388z
		 M2015.52,1747.37c-4.85,1.64-17.15,13.95-16.72,18.12c0.28,0.03,2.73,0.67,4.52,1.14c10.42,2.74,27.85,7.33,37.42,44.85
		c8.44,33.07-21.07,64.02-22.34,65.31l-1.76,1.16c-0.57,0.21-57.88,21.87-69.5,51.2l0,0c-6.21,15.68-5.46,35.97-4.59,59.47
		c1.35,36.48,3.03,81.89-22.53,128.23c-27.85,50.5-60.68,79.08-89.64,104.3c-19.71,17.16-38.33,33.37-52.69,54.24
		c-20.31,29.51-19.11,72.17-11.77,93.03c2.65,7.53,5.22,9.82,5.91,10.03c1.34-1.01,3.7-9.1,5.6-15.6
		c6.47-22.15,17.29-59.21,59.11-81.88c4.79-2.6,10.23-5.45,16.18-8.58c57.08-30,163.31-85.82,212.53-182.26
		c46.37-90.87-24.1-214.31-24.82-215.55l-1.17-2.01l0.86-2.16c0.2-0.49,19.58-49.66,9.49-78.49c-9.5-27.22-27.8-40.1-33.81-44.33
		L2015.52,1747.37z M2014.5,1746.65c0.02,0.02,0.05,0.04,0.07,0.06L2014.5,1746.65z"/>
</g>
<g>
	<g>
		<defs>
			<path id="SVGID_7_" d="M2629.65,1937.02c-16.75,42.3,14.18,112.75-26.86,187.15c-46.42,84.18-106.12,105.89-142.08,158.14
				c-29.97,43.55-15.28,111.57-1.74,110.52c13.53-1.07,6.33-65.25,66.81-98.03c51.16-27.72,175.65-85.01,230.69-192.87
				c48.13-94.32-24.94-220.12-24.94-220.12s20.37-50.94,9.57-81.84c-10.79-30.9-32.22-44.17-36.83-47.55
				c-4.6-3.39-27.57,18.09-22.61,25.03c4.97,6.94,29.35-2.4,41.39,44.83c7.87,30.86-21.14,60.81-21.14,60.81
				S2642.2,1905.34,2629.65,1937.02z"/>
		</defs>
		<clipPath id="SVGID_8_">
			<use xlink:href="#SVGID_7_"  style="overflow:visible;"/>
		</clipPath>
		<g class="st8">
			<line class="st1" x1="2420.28" y1="2230.64" x2="2683.24" y2="2341.3"/>
			
				<rect x="2532.64" y="2143.33" transform="matrix(0.3879 -0.9217 0.9217 0.3879 -545.0289 3751.2625)" class="st1" width="38.23" height="285.29"/>
		</g>
		<g class="st8">
			<line class="st2" x1="2394.96" y1="2290.81" x2="2657.91" y2="2401.47"/>
			
				<rect x="2507.32" y="2203.5" transform="matrix(0.3879 -0.9217 0.9217 0.3879 -615.9772 3764.772)" class="st2" width="38.23" height="285.29"/>
		</g>
		<g class="st8">
			<line class="st7" x1="2470.92" y1="2110.3" x2="2733.88" y2="2220.96"/>
			
				<rect x="2583.29" y="2022.99" transform="matrix(0.3879 -0.9217 0.9217 0.3879 -403.0974 3724.2944)" class="st7" width="38.23" height="285.29"/>
		</g>
		<g class="st8">
			<line class="st9" x1="2496.24" y1="2050.13" x2="2759.2" y2="2160.79"/>
			
				<rect x="2608.61" y="1962.82" transform="matrix(0.3879 -0.9217 0.9217 0.3879 -332.1412 3710.8025)" class="st9" width="38.23" height="285.29"/>
		</g>
		<g class="st8">
			<line class="st5" x1="2445.6" y1="2170.47" x2="2708.56" y2="2281.13"/>
			
				<rect x="2557.96" y="2083.15" transform="matrix(0.3879 -0.9217 0.9217 0.3879 -474.0645 3737.7649)" class="st5" width="38.23" height="285.29"/>
		</g>
	</g>
	<path class="st3" d="M2458.57,2397.7c-3.06,0-7.28-1.58-11.22-8.42c-10.51-18.23-16.57-71.94,9.34-109.59
		c15.05-21.86,34.11-38.46,54.29-56.03c28.37-24.7,60.52-52.69,87.55-101.71c24.28-44.02,22.72-86.12,21.34-123.26
		c-0.91-24.57-1.69-45.79,5.26-63.34l0,0c12.37-31.24,65.4-52.9,73.96-56.23c4.16-4.64,25.73-30.23,19.26-55.57
		c-8.18-32.07-21.67-35.62-30.6-37.97c-3.98-1.05-7.74-2.04-10.05-5.27c-5.47-7.64,4.42-18.8,8.92-23.24
		c5.08-5.01,14.48-12.77,20.4-8.42l1.17,0.84c6.63,4.67,26.81,18.87,37.33,48.99c10.09,28.88-4.96,72.69-8.81,83.02
		c9.54,17.18,69.91,132.56,23.93,222.67c-50.59,99.14-158.58,155.89-216.6,186.38c-5.92,3.11-11.32,5.94-16.08,8.52
		c-38.32,20.77-48.05,54.1-54.49,76.16c-3.84,13.14-6.37,21.82-14.23,22.44C2459.04,2397.69,2458.81,2397.7,2458.57,2397.7z
		 M2702.39,1757.07c-4.85,1.64-17.15,13.95-16.72,18.12c0.28,0.03,2.73,0.67,4.52,1.14c10.42,2.74,27.85,7.33,37.42,44.85
		c8.44,33.07-21.07,64.02-22.34,65.31l-1.76,1.16c-0.57,0.21-57.88,21.87-69.5,51.2l0,0c-6.21,15.68-5.46,35.97-4.59,59.47
		c1.35,36.48,3.03,81.89-22.53,128.23c-27.85,50.5-60.68,79.08-89.64,104.3c-19.71,17.16-38.33,33.37-52.69,54.24
		c-20.31,29.51-19.11,72.17-11.77,93.03c2.65,7.53,5.22,9.82,5.91,10.03c1.34-1.01,3.7-9.1,5.6-15.6
		c6.47-22.15,17.29-59.21,59.11-81.88c4.79-2.6,10.23-5.45,16.18-8.58c57.08-30,163.31-85.82,212.53-182.26
		c46.37-90.87-24.1-214.31-24.82-215.55l-1.17-2.01l0.86-2.16c0.2-0.49,19.58-49.66,9.49-78.49c-9.5-27.22-27.8-40.1-33.81-44.33
		L2702.39,1757.07z M2701.37,1756.35c0.02,0.02,0.05,0.04,0.07,0.06L2701.37,1756.35z"/>
</g>
<g>
	<g>
		<defs>
			<path id="SVGID_9_" d="M3308.77,1946.8c-16.75,42.3,14.18,112.75-26.86,187.15c-46.42,84.18-106.12,105.89-142.08,158.14
				c-29.97,43.55-15.28,111.57-1.74,110.52c13.53-1.07,6.33-65.25,66.81-98.03c51.16-27.72,175.65-85.01,230.69-192.87
				c48.13-94.32-24.94-220.12-24.94-220.12s20.37-50.94,9.57-81.84c-10.79-30.9-32.22-44.17-36.83-47.55
				c-4.6-3.39-27.57,18.09-22.61,25.03c4.97,6.94,29.35-2.4,41.39,44.83c7.87,30.86-21.14,60.81-21.14,60.81
				S3321.32,1915.12,3308.77,1946.8z"/>
		</defs>
		<clipPath id="SVGID_10_">
			<use xlink:href="#SVGID_9_"  style="overflow:visible;"/>
		</clipPath>
		<g class="st10">
			<line class="st1" x1="3099.4" y1="2240.42" x2="3362.36" y2="2351.08"/>
			
				<rect x="3211.77" y="2153.11" transform="matrix(0.3879 -0.9217 0.9217 0.3879 -138.3366 4383.1982)" class="st1" width="38.23" height="285.29"/>
		</g>
		<g class="st10">
			<line class="st2" x1="3074.08" y1="2300.59" x2="3337.04" y2="2411.25"/>
			
				<rect x="3186.44" y="2213.28" transform="matrix(0.3879 -0.9217 0.9217 0.3879 -209.2896 4396.7153)" class="st2" width="38.23" height="285.29"/>
		</g>
		<g class="st10">
			<line class="st7" x1="3150.04" y1="2120.08" x2="3413" y2="2230.74"/>
			
				<rect x="3262.41" y="2032.77" transform="matrix(0.3879 -0.9217 0.9217 0.3879 3.5903 4356.2378)" class="st7" width="38.23" height="285.29"/>
		</g>
		<g class="st10">
			<line class="st9" x1="3175.37" y1="2059.91" x2="3438.32" y2="2170.57"/>
			
				<rect x="3287.73" y="1972.59" transform="matrix(0.3879 -0.9217 0.9217 0.3879 74.555 4342.7402)" class="st9" width="38.23" height="285.29"/>
		</g>
		<g class="st10">
			<line class="st11" x1="3200.69" y1="1999.74" x2="3463.64" y2="2110.4"/>
			
				<rect x="3313.05" y="1912.43" transform="matrix(0.3879 -0.9217 0.9217 0.3879 145.5111 4329.248)" class="st11" width="38.23" height="285.29"/>
		</g>
		<g class="st10">
			<line class="st5" x1="3124.72" y1="2180.25" x2="3387.68" y2="2290.91"/>
			
				<rect x="3237.09" y="2092.94" transform="matrix(0.3879 -0.9217 0.9217 0.3879 -67.3808 4369.7065)" class="st5" width="38.23" height="285.29"/>
		</g>
	</g>
	<path class="st3" d="M3137.69,2407.4c-3.06,0-7.28-1.58-11.22-8.42c-10.51-18.23-16.57-71.94,9.34-109.59
		c15.05-21.86,34.11-38.46,54.29-56.03c28.37-24.7,60.52-52.69,87.55-101.71c24.28-44.02,22.72-86.12,21.34-123.26
		c-0.91-24.57-1.69-45.79,5.26-63.34l0,0c12.37-31.24,65.4-52.9,73.96-56.23c4.16-4.64,25.73-30.23,19.26-55.57
		c-8.18-32.07-21.67-35.62-30.6-37.97c-3.98-1.05-7.74-2.04-10.05-5.27c-5.47-7.64,4.42-18.8,8.92-23.24
		c5.08-5.01,14.48-12.77,20.4-8.42l1.17,0.84c6.63,4.67,26.81,18.87,37.33,48.99c10.09,28.88-4.96,72.69-8.81,83.02
		c9.54,17.18,69.91,132.56,23.93,222.67c-50.59,99.14-158.58,155.89-216.6,186.38c-5.92,3.11-11.32,5.94-16.08,8.52
		c-38.32,20.77-48.05,54.1-54.49,76.16c-3.84,13.14-6.37,21.82-14.23,22.44C3138.16,2407.39,3137.93,2407.4,3137.69,2407.4z
		 M3381.51,1766.77c-4.85,1.64-17.15,13.95-16.72,18.12c0.28,0.03,2.73,0.67,4.52,1.14c10.42,2.74,27.85,7.33,37.42,44.85
		c8.44,33.07-21.07,64.02-22.34,65.31l-1.76,1.16c-0.57,0.21-57.88,21.87-69.5,51.2l0,0c-6.21,15.68-5.46,35.97-4.59,59.47
		c1.35,36.48,3.03,81.89-22.53,128.23c-27.85,50.5-60.68,79.08-89.64,104.3c-19.71,17.16-38.33,33.37-52.69,54.24
		c-20.31,29.51-19.11,72.17-11.77,93.03c2.65,7.53,5.22,9.82,5.91,10.03c1.34-1.01,3.7-9.1,5.6-15.6
		c6.47-22.15,17.29-59.21,59.11-81.88c4.79-2.6,10.23-5.45,16.19-8.58c57.08-30,163.31-85.82,212.53-182.26
		c46.37-90.87-24.1-214.31-24.82-215.55l-1.17-2.01l0.86-2.16c0.2-0.49,19.58-49.66,9.49-78.49c-9.5-27.22-27.8-40.1-33.81-44.33
		L3381.51,1766.77z M3380.49,1766.05c0.02,0.02,0.05,0.04,0.07,0.06L3380.49,1766.05z"/>
</g>
<g>
	<g>
		<defs>
			<path id="SVGID_11_" d="M3994.65,1946.88c-16.75,42.3,14.18,112.75-26.86,187.15c-46.42,84.18-106.12,105.89-142.08,158.14
				c-29.97,43.55-15.28,111.57-1.74,110.52c13.53-1.07,6.33-65.25,66.81-98.03c51.16-27.72,175.65-85.01,230.69-192.87
				c48.13-94.32-24.94-220.12-24.94-220.12s20.37-50.94,9.57-81.84c-10.79-30.9-32.22-44.17-36.83-47.55
				c-4.6-3.39-27.57,18.09-22.61,25.03c4.97,6.94,29.35-2.4,41.39,44.83c7.87,30.86-21.14,60.81-21.14,60.81
				S4007.2,1915.2,3994.65,1946.88z"/>
		</defs>
		<clipPath id="SVGID_12_">
			<use xlink:href="#SVGID_11_"  style="overflow:visible;"/>
		</clipPath>
		<g class="st12">
			<line class="st1" x1="3785.28" y1="2240.5" x2="4048.24" y2="2351.16"/>
			
				<rect x="3897.65" y="2153.19" transform="matrix(0.3879 -0.9217 0.9217 0.3879 281.4262 5015.4297)" class="st1" width="38.23" height="285.29"/>
		</g>
		<g class="st12">
			<line class="st2" x1="3759.96" y1="2300.67" x2="4022.92" y2="2411.33"/>
			
				<rect x="3872.32" y="2213.35" transform="matrix(0.3879 -0.9217 0.9217 0.3879 210.4859 5028.9424)" class="st2" width="38.23" height="285.29"/>
		</g>
		<g class="st12">
			<line class="st7" x1="3835.92" y1="2120.16" x2="4098.88" y2="2230.82"/>
			
				<rect x="3948.29" y="2032.84" transform="matrix(0.3879 -0.9217 0.9217 0.3879 423.3657 4988.4653)" class="st7" width="38.23" height="285.29"/>
		</g>
		<g class="st12">
			<line class="st9" x1="3861.25" y1="2059.99" x2="4124.2" y2="2170.65"/>
			
				<rect x="3973.61" y="1972.67" transform="matrix(0.3879 -0.9217 0.9217 0.3879 494.3218 4974.9731)" class="st9" width="38.23" height="285.29"/>
		</g>
		<g class="st12">
			<line class="st13" x1="3911.89" y1="1939.65" x2="4174.84" y2="2050.31"/>
			
				<rect x="4024.25" y="1852.33" transform="matrix(0.3879 -0.9217 0.9217 0.3879 636.2254 4947.9639)" class="st13" width="38.23" height="285.29"/>
		</g>
		<g class="st12">
			<line class="st11" x1="3886.57" y1="1999.82" x2="4149.52" y2="2110.48"/>
			
				<rect x="3998.93" y="1912.51" transform="matrix(0.3879 -0.9217 0.9217 0.3879 565.278 4961.481)" class="st11" width="38.23" height="285.29"/>
		</g>
		<g class="st12">
			<line class="st5" x1="3810.6" y1="2180.33" x2="4073.56" y2="2290.99"/>
			
				<rect x="3922.97" y="2093.02" transform="matrix(0.3879 -0.9217 0.9217 0.3879 352.382 5001.938)" class="st5" width="38.23" height="285.29"/>
		</g>
	</g>
	<path class="st3" d="M3823.57,2407.48c-3.06,0-7.28-1.58-11.22-8.42c-10.51-18.23-16.57-71.94,9.34-109.59
		c15.05-21.86,34.11-38.46,54.29-56.03c28.37-24.7,60.52-52.69,87.55-101.71c24.28-44.02,22.72-86.12,21.35-123.26
		c-0.91-24.57-1.69-45.79,5.26-63.34l0,0c12.37-31.24,65.4-52.9,73.96-56.23c4.16-4.64,25.73-30.23,19.26-55.57
		c-8.18-32.07-21.67-35.62-30.6-37.97c-3.98-1.05-7.74-2.04-10.05-5.27c-5.47-7.64,4.42-18.8,8.92-23.24
		c5.08-5.01,14.48-12.77,20.4-8.42l1.17,0.84c6.63,4.67,26.81,18.87,37.33,48.99c10.09,28.88-4.96,72.69-8.81,83.02
		c9.54,17.18,69.91,132.56,23.93,222.67c-50.59,99.14-158.58,155.89-216.6,186.38c-5.92,3.11-11.32,5.94-16.08,8.52
		c-38.32,20.77-48.05,54.1-54.49,76.16c-3.84,13.14-6.37,21.82-14.23,22.44C3824.04,2407.47,3823.81,2407.48,3823.57,2407.48z
		 M4067.39,1766.85c-4.85,1.64-17.15,13.95-16.72,18.12c0.28,0.03,2.73,0.67,4.52,1.14c10.42,2.74,27.85,7.33,37.42,44.85
		c8.44,33.07-21.07,64.02-22.34,65.31l-1.76,1.16c-0.57,0.21-57.88,21.87-69.5,51.2l0,0c-6.21,15.68-5.46,35.97-4.59,59.47
		c1.35,36.48,3.03,81.89-22.53,128.23c-27.85,50.5-60.68,79.08-89.64,104.3c-19.71,17.16-38.33,33.37-52.69,54.24
		c-20.31,29.51-19.11,72.17-11.77,93.03c2.65,7.53,5.22,9.82,5.91,10.03c1.34-1.01,3.7-9.1,5.6-15.6
		c6.47-22.15,17.29-59.21,59.11-81.88c4.79-2.6,10.23-5.45,16.19-8.58c57.08-30,163.31-85.82,212.53-182.26
		c46.37-90.87-24.1-214.31-24.82-215.55l-1.17-2.01l0.86-2.16c0.2-0.49,19.58-49.66,9.49-78.49c-9.5-27.22-27.8-40.1-33.81-44.33
		L4067.39,1766.85z M4066.37,1766.13c0.02,0.02,0.05,0.04,0.07,0.06L4066.37,1766.13z"/>
</g>
<g>
	<g>
		<defs>
			<path id="SVGID_13_" d="M4677.15,1956.6c-16.75,42.3,14.18,112.75-26.86,187.15c-46.42,84.18-106.12,105.89-142.08,158.14
				c-29.97,43.55-15.28,111.57-1.74,110.52c13.53-1.07,6.33-65.25,66.81-98.03c51.16-27.72,175.65-85.01,230.69-192.87
				c48.13-94.32-24.94-220.12-24.94-220.12s20.37-50.94,9.57-81.84c-10.79-30.9-32.22-44.17-36.83-47.55
				c-4.6-3.39-27.57,18.09-22.61,25.03c4.97,6.94,29.35-2.4,41.39,44.83c7.87,30.86-21.14,60.81-21.14,60.81
				S4689.7,1924.91,4677.15,1956.6z"/>
		</defs>
		<clipPath id="SVGID_14_">
			<use xlink:href="#SVGID_13_"  style="overflow:visible;"/>
		</clipPath>
		<g class="st14">
			<line class="st1" x1="4467.78" y1="2250.22" x2="4730.74" y2="2360.88"/>
			
				<rect x="4580.15" y="2162.91" transform="matrix(0.3879 -0.9217 0.9217 0.3879 690.2377 5650.4458)" class="st1" width="38.23" height="285.29"/>
		</g>
		<g class="st14">
			<line class="st2" x1="4442.46" y1="2310.39" x2="4705.42" y2="2421.05"/>
			
				<rect x="4554.82" y="2223.07" transform="matrix(0.3879 -0.9217 0.9217 0.3879 619.3014 5663.9604)" class="st2" width="38.23" height="285.29"/>
		</g>
		<g class="st14">
			<line class="st7" x1="4518.42" y1="2129.88" x2="4781.38" y2="2240.54"/>
			
				<rect x="4630.79" y="2042.56" transform="matrix(0.3879 -0.9217 0.9217 0.3879 832.1812 5623.4834)" class="st7" width="38.23" height="285.29"/>
		</g>
		<g class="st14">
			<line class="st9" x1="4543.75" y1="2069.71" x2="4806.7" y2="2180.37"/>
			
				<rect x="4656.11" y="1982.39" transform="matrix(0.3879 -0.9217 0.9217 0.3879 903.1373 5609.9912)" class="st9" width="38.23" height="285.29"/>
		</g>
		<g class="st14">
			<line class="st13" x1="4594.39" y1="1949.37" x2="4857.34" y2="2060.03"/>
			
				<rect x="4706.75" y="1862.05" transform="matrix(0.3879 -0.9217 0.9217 0.3879 1045.0369 5582.9805)" class="st13" width="38.23" height="285.29"/>
		</g>
		<g class="st14">
			<line class="st11" x1="4569.07" y1="2009.54" x2="4832.02" y2="2120.2"/>
			
				<rect x="4681.43" y="1922.22" transform="matrix(0.3879 -0.9217 0.9217 0.3879 974.1021 5596.4937)" class="st11" width="38.23" height="285.29"/>
		</g>
		<g class="st14">
			<line class="st15" x1="4619.71" y1="1889.2" x2="4882.66" y2="1999.85"/>
			
				<rect x="4732.07" y="1801.88" transform="matrix(0.3879 -0.9217 0.9217 0.3879 1115.9927 5569.4888)" class="st15" width="38.23" height="285.29"/>
		</g>
		<g class="st14">
			<line class="st5" x1="4493.1" y1="2190.05" x2="4756.06" y2="2300.71"/>
			
				<rect x="4605.47" y="2102.73" transform="matrix(0.3879 -0.9217 0.9217 0.3879 761.2021 5636.9487)" class="st5" width="38.23" height="285.29"/>
		</g>
	</g>
	<path class="st3" d="M4506.07,2417.18c-3.06,0-7.28-1.58-11.22-8.42c-10.51-18.23-16.57-71.94,9.34-109.59
		c15.05-21.86,34.11-38.46,54.29-56.03c28.37-24.7,60.52-52.69,87.55-101.71c24.28-44.02,22.72-86.12,21.34-123.26
		c-0.9-24.57-1.69-45.79,5.26-63.34l0,0c12.37-31.24,65.4-52.9,73.96-56.23c4.16-4.64,25.73-30.23,19.26-55.57
		c-8.18-32.07-21.67-35.62-30.6-37.97c-3.98-1.05-7.74-2.04-10.05-5.27c-5.47-7.64,4.42-18.8,8.92-23.24
		c5.08-5.01,14.48-12.77,20.4-8.42l1.17,0.84c6.63,4.67,26.81,18.87,37.33,48.99c10.09,28.88-4.96,72.69-8.81,83.02
		c9.54,17.18,69.91,132.56,23.93,222.67c-50.59,99.14-158.58,155.89-216.6,186.38c-5.92,3.11-11.32,5.94-16.08,8.52
		c-38.32,20.77-48.05,54.1-54.49,76.16c-3.83,13.14-6.37,21.82-14.23,22.44C4506.54,2417.17,4506.31,2417.18,4506.07,2417.18z
		 M4749.89,1776.55c-4.85,1.64-17.15,13.95-16.72,18.12c0.28,0.03,2.73,0.67,4.52,1.14c10.42,2.74,27.85,7.33,37.42,44.85
		c8.44,33.07-21.07,64.02-22.34,65.31l-1.76,1.16c-0.57,0.21-57.88,21.87-69.5,51.2l0,0c-6.21,15.68-5.46,35.97-4.59,59.47
		c1.35,36.48,3.03,81.89-22.53,128.23c-27.85,50.5-60.68,79.08-89.64,104.3c-19.71,17.16-38.33,33.37-52.69,54.24
		c-20.31,29.51-19.11,72.17-11.77,93.03c2.65,7.53,5.22,9.82,5.91,10.03c1.34-1.01,3.7-9.1,5.6-15.6
		c6.47-22.15,17.29-59.21,59.11-81.88c4.79-2.6,10.23-5.45,16.18-8.58c57.08-30,163.31-85.82,212.53-182.26
		c46.37-90.87-24.1-214.31-24.82-215.55l-1.17-2.01l0.86-2.16c0.2-0.49,19.58-49.66,9.49-78.49c-9.5-27.22-27.8-40.1-33.81-44.33
		L4749.89,1776.55z M4748.87,1775.83c0.02,0.02,0.05,0.04,0.07,0.06L4748.87,1775.83z"/>
</g>
<g>
	<g>
		<defs>
			<path id="SVGID_15_" d="M-601.53,1927.4c-16.75,42.3,14.18,112.75-26.86,187.15c-46.42,84.18-106.12,105.89-142.08,158.14
				c-29.97,43.55-15.28,111.57-1.74,110.52c13.53-1.07,6.33-65.25,66.81-98.03c51.16-27.72,175.65-85.01,230.69-192.87
				c48.13-94.32-24.94-220.12-24.94-220.12s20.37-50.94,9.57-81.84c-10.79-30.9-32.22-44.17-36.83-47.55
				c-4.6-3.39-27.57,18.09-22.61,25.03c4.97,6.94,29.35-2.4,41.39,44.83c7.87,30.86-21.14,60.81-21.14,60.81
				S-588.98,1895.72-601.53,1927.4z"/>
		</defs>
		<clipPath id="SVGID_16_">
			<use xlink:href="#SVGID_15_"  style="overflow:visible;"/>
		</clipPath>
		<g class="st16">
			<line class="st2" x1="-836.22" y1="2281.19" x2="-573.26" y2="2391.85"/>
			
				<rect x="-723.85" y="2193.88" transform="matrix(0.3879 -0.9217 0.9217 0.3879 -2585.0112 780.6976)" class="st2" width="38.22" height="285.29"/>
		</g>
	</g>
	<path class="st3" d="M-772.61,2388c-3.06,0-7.28-1.58-11.22-8.42c-10.51-18.23-16.57-71.94,9.34-109.59
		c15.05-21.86,34.11-38.46,54.29-56.03c28.37-24.7,60.52-52.69,87.55-101.71c24.28-44.02,22.72-86.12,21.35-123.26
		c-0.91-24.57-1.69-45.79,5.26-63.34l0,0c12.37-31.24,65.4-52.9,73.96-56.23c4.16-4.64,25.73-30.23,19.26-55.57
		c-8.18-32.07-21.67-35.62-30.6-37.97c-3.98-1.05-7.74-2.04-10.05-5.27c-5.47-7.64,4.42-18.8,8.92-23.24
		c5.08-5.01,14.48-12.77,20.4-8.42l1.17,0.84c6.63,4.67,26.81,18.87,37.33,48.99c10.09,28.88-4.96,72.69-8.81,83.02
		c9.54,17.18,69.91,132.56,23.93,222.67c-50.59,99.14-158.58,155.89-216.6,186.38c-5.92,3.11-11.32,5.94-16.08,8.52
		c-38.32,20.77-48.05,54.1-54.49,76.16c-3.84,13.14-6.37,21.82-14.23,22.44C-772.14,2387.99-772.37,2388-772.61,2388z
		 M-528.79,1747.37c-4.85,1.64-17.15,13.95-16.72,18.12c0.28,0.03,2.73,0.67,4.52,1.14c10.42,2.74,27.85,7.33,37.42,44.85
		c8.44,33.07-21.07,64.02-22.34,65.31l-1.76,1.16c-0.57,0.21-57.88,21.87-69.5,51.2l0,0c-6.21,15.68-5.46,35.97-4.59,59.47
		c1.35,36.48,3.03,81.89-22.53,128.23c-27.85,50.5-60.68,79.08-89.64,104.3c-19.71,17.16-38.33,33.37-52.69,54.24
		c-20.31,29.51-19.11,72.17-11.77,93.03c2.65,7.53,5.22,9.82,5.91,10.03c1.34-1.01,3.7-9.1,5.6-15.6
		c6.47-22.15,17.29-59.21,59.11-81.88c4.79-2.6,10.23-5.45,16.18-8.58c57.08-30,163.31-85.82,212.53-182.26
		c46.37-90.87-24.1-214.31-24.82-215.55l-1.17-2.01l0.86-2.16c0.2-0.49,19.58-49.66,9.49-78.49c-9.5-27.22-27.8-40.1-33.81-44.33
		L-528.79,1747.37z M-529.81,1746.65c0.02,0.02,0.05,0.04,0.07,0.06L-529.81,1746.65z"/>
</g>
</svg>
