<?xml version="1.0" encoding="utf-8"?>
<!-- Generator: Adobe Illustrator 24.2.3, SVG Export Plug-In . SVG Version: 6.00 Build 0)  -->
<svg version="1.1" id="Layer_1" xmlns="http://www.w3.org/2000/svg" xmlns:xlink="http://www.w3.org/1999/xlink" x="0px" y="0px"
	 viewBox="0 0 612 792" style="enable-background:new 0 0 612 792;" xml:space="preserve">
<style type="text/css">
	.st0{clip-path:url(#SVGID_2_);}
	.st1{fill:#CBDB2E;}
	.st2{fill:#E1E778;}
	.st3{fill:#006937;}
	.st4{clip-path:url(#SVGID_4_);}
	.st5{fill:#8DC641;}
	.st6{clip-path:url(#SVGID_6_);}
	.st7{fill:#E9A835;}
	.st8{clip-path:url(#SVGID_8_);}
	.st9{fill:#DD8027;}
	.st10{clip-path:url(#SVGID_10_);}
	.st11{fill:#DF6026;}
	.st12{clip-path:url(#SVGID_12_);}
	.st13{fill:#B12024;}
	.st14{clip-path:url(#SVGID_14_);}
	.st15{fill:#861719;}
	.st16{clip-path:url(#SVGID_16_);}
</style>
<g>
	<g>
		<defs>
			<path id="SVGID_1_" d="M-2594.97,2477.01c-16.75,42.3,14.18,112.75-26.86,187.15c-46.42,84.18-106.12,105.89-142.08,158.14
				c-29.97,43.55-15.28,111.57-1.74,110.52c13.53-1.07,6.33-65.25,66.81-98.03c51.16-27.72,175.65-85.01,230.69-192.87
				c48.13-94.32-24.94-220.12-24.94-220.12s20.37-50.94,9.57-81.84c-10.79-30.9-32.22-44.17-36.83-47.55
				c-4.6-3.39-27.57,18.09-22.61,25.03c4.97,6.94,29.35-2.4,41.39,44.83c7.87,30.86-21.14,60.81-21.14,60.81
				S-2582.42,2445.32-2594.97,2477.01z"/>
		</defs>
		<clipPath id="SVGID_2_">
			<use xlink:href="#SVGID_1_"  style="overflow:visible;"/>
		</clipPath>
		<g class="st0">
			<line class="st1" x1="-2804.34" y1="2770.63" x2="-2541.39" y2="2881.28"/>
			
				<rect x="-2691.97" y="2683.31" transform="matrix(0.3879 -0.9217 0.9217 0.3879 -4240.8135 -733.7849)" class="st1" width="38.22" height="285.29"/>
		</g>
		<g class="st0">
			<line class="st2" x1="-2829.66" y1="2830.8" x2="-2566.71" y2="2941.46"/>
			
				<rect x="-2717.29" y="2743.48" transform="matrix(0.3879 -0.9217 0.9217 0.3879 -4311.8501 -720.2593)" class="st2" width="38.22" height="285.29"/>
		</g>
	</g>
	<path class="st3" d="M-2766.05,2937.6c-3.06,0-7.28-1.58-11.22-8.42c-10.51-18.23-16.57-71.94,9.34-109.59
		c15.05-21.86,34.11-38.46,54.29-56.03c28.37-24.7,60.52-52.69,87.55-101.71c24.28-44.02,22.72-86.12,21.35-123.26
		c-0.91-24.57-1.69-45.79,5.26-63.34l0,0c12.37-31.24,65.4-52.9,73.96-56.23c4.16-4.64,25.73-30.23,19.26-55.57
		c-8.18-32.07-21.67-35.62-30.6-37.97c-3.98-1.05-7.74-2.04-10.05-5.27c-5.47-7.64,4.42-18.8,8.92-23.24
		c5.08-5.01,14.48-12.77,20.4-8.42l1.17,0.83c6.63,4.67,26.81,18.87,37.33,48.99c10.09,28.88-4.96,72.69-8.81,83.02
		c9.54,17.18,69.91,132.56,23.93,222.67c-50.59,99.14-158.58,155.89-216.6,186.38c-5.92,3.11-11.32,5.94-16.08,8.52
		c-38.32,20.77-48.05,54.1-54.49,76.16c-3.84,13.14-6.37,21.82-14.23,22.44C-2765.59,2937.59-2765.81,2937.6-2766.05,2937.6z
		 M-2522.23,2296.98c-4.85,1.64-17.15,13.95-16.72,18.12c0.28,0.03,2.73,0.67,4.52,1.14c10.42,2.74,27.85,7.33,37.42,44.85
		c8.44,33.07-21.07,64.02-22.34,65.31l-1.76,1.16c-0.57,0.21-57.88,21.87-69.5,51.2l0,0c-6.21,15.68-5.46,35.97-4.59,59.47
		c1.35,36.48,3.03,81.89-22.53,128.23c-27.85,50.5-60.68,79.08-89.64,104.3c-19.71,17.16-38.33,33.37-52.69,54.24
		c-20.31,29.51-19.11,72.17-11.77,93.03c2.65,7.53,5.22,9.82,5.91,10.03c1.34-1.01,3.7-9.1,5.6-15.6
		c6.47-22.15,17.29-59.21,59.11-81.88c4.79-2.6,10.23-5.45,16.19-8.58c57.08-30,163.31-85.82,212.53-182.26
		c46.37-90.87-24.1-214.31-24.82-215.55l-1.17-2.01l0.86-2.16c0.2-0.49,19.58-49.66,9.49-78.49c-9.5-27.22-27.8-40.1-33.81-44.33
		L-2522.23,2296.98z M-2523.25,2296.25c0.02,0.02,0.05,0.04,0.07,0.06L-2523.25,2296.25z"/>
</g>
<g>
	<g>
		<defs>
			<path id="SVGID_3_" d="M-2947.48,1215.62c-16.75,42.3,14.18,112.75-26.86,187.15c-46.42,84.18-106.12,105.89-142.08,158.14
				c-29.97,43.55-15.28,111.57-1.74,110.52c13.53-1.07,6.33-65.25,66.81-98.03c51.16-27.72,175.65-85.01,230.69-192.87
				c48.13-94.32-24.94-220.12-24.94-220.12s20.37-50.94,9.57-81.84c-10.79-30.9-32.22-44.17-36.83-47.55
				c-4.6-3.39-27.57,18.09-22.61,25.03c4.97,6.94,29.35-2.4,41.39,44.83c7.87,30.86-21.14,60.81-21.14,60.81
				S-2934.93,1183.93-2947.48,1215.62z"/>
		</defs>
		<clipPath id="SVGID_4_">
			<use xlink:href="#SVGID_3_"  style="overflow:visible;"/>
		</clipPath>
		<g class="st4">
			<line class="st1" x1="-3156.85" y1="1509.24" x2="-2893.9" y2="1619.9"/>
			
				<rect x="-3044.49" y="1421.92" transform="matrix(0.3879 -0.9217 0.9217 0.3879 -3293.9607 -1830.8158)" class="st1" width="38.22" height="285.29"/>
		</g>
		<g class="st4">
			<line class="st2" x1="-3182.18" y1="1569.41" x2="-2919.22" y2="1680.07"/>
			
				<rect x="-3069.81" y="1482.09" transform="matrix(0.3879 -0.9217 0.9217 0.3879 -3364.9441 -1817.3213)" class="st2" width="38.22" height="285.29"/>
		</g>
		<g class="st4">
			<line class="st5" x1="-3131.53" y1="1449.07" x2="-2868.58" y2="1559.73"/>
			
				<rect x="-3019.17" y="1361.75" transform="matrix(0.3879 -0.9217 0.9217 0.3879 -3223.0005 -1844.3103)" class="st5" width="38.22" height="285.29"/>
		</g>
	</g>
	<path class="st3" d="M-3118.56,1676.21c-3.06,0-7.28-1.58-11.22-8.42c-10.51-18.23-16.57-71.94,9.34-109.59
		c15.05-21.86,34.11-38.46,54.29-56.03c28.37-24.7,60.52-52.69,87.55-101.71c24.28-44.02,22.72-86.12,21.35-123.26
		c-0.91-24.57-1.69-45.79,5.26-63.34l0,0c12.37-31.24,65.4-52.9,73.96-56.23c4.16-4.64,25.73-30.23,19.26-55.57
		c-8.18-32.07-21.67-35.62-30.6-37.97c-3.98-1.05-7.74-2.04-10.05-5.27c-5.47-7.64,4.42-18.8,8.92-23.24
		c5.08-5.01,14.48-12.77,20.4-8.42l1.17,0.84c6.63,4.67,26.81,18.87,37.33,48.99c10.09,28.88-4.96,72.69-8.81,83.02
		c9.54,17.18,69.91,132.56,23.93,222.67c-50.59,99.14-158.58,155.89-216.6,186.38c-5.92,3.11-11.32,5.94-16.08,8.52
		c-38.32,20.77-48.05,54.1-54.49,76.16c-3.84,13.14-6.37,21.82-14.23,22.44C-3118.1,1676.2-3118.33,1676.21-3118.56,1676.21z
		 M-2874.75,1035.59c-4.85,1.64-17.15,13.95-16.72,18.12c0.28,0.03,2.73,0.67,4.52,1.14c10.42,2.74,27.85,7.33,37.42,44.85
		c8.44,33.07-21.07,64.02-22.34,65.31l-1.76,1.16c-0.57,0.21-57.88,21.87-69.5,51.2l0,0c-6.21,15.68-5.46,35.97-4.59,59.47
		c1.35,36.48,3.03,81.89-22.53,128.23c-27.85,50.5-60.68,79.08-89.64,104.3c-19.71,17.16-38.33,33.37-52.69,54.24
		c-20.31,29.51-19.11,72.17-11.77,93.03c2.65,7.53,5.22,9.82,5.91,10.03c1.34-1.01,3.7-9.1,5.6-15.6
		c6.47-22.15,17.29-59.21,59.11-81.88c4.79-2.6,10.23-5.45,16.19-8.58c57.08-30,163.31-85.82,212.53-182.26
		c46.37-90.87-24.1-214.31-24.82-215.55l-1.17-2.01l0.86-2.16c0.2-0.49,19.58-49.66,9.49-78.49c-9.5-27.22-27.8-40.1-33.81-44.33
		L-2874.75,1035.59z M-2875.76,1034.87c0.02,0.02,0.05,0.04,0.07,0.06L-2875.76,1034.87z"/>
</g>
<g>
	<g>
		<defs>
			<path id="SVGID_5_" d="M-2242.33,783.14c-16.75,42.3,14.18,112.75-26.86,187.15c-46.42,84.18-106.12,105.89-142.08,158.14
				c-29.97,43.55-15.28,111.57-1.74,110.52c13.53-1.07,6.33-65.25,66.81-98.03c51.16-27.72,175.65-85.01,230.69-192.87
				c48.13-94.32-24.94-220.12-24.94-220.12s20.37-50.94,9.57-81.84c-10.79-30.9-32.22-44.17-36.83-47.55
				c-4.6-3.39-27.57,18.09-22.61,25.03c4.97,6.94,29.35-2.4,41.39,44.83c7.87,30.86-21.14,60.81-21.14,60.81
				S-2229.77,751.46-2242.33,783.14z"/>
		</defs>
		<clipPath id="SVGID_6_">
			<use xlink:href="#SVGID_5_"  style="overflow:visible;"/>
		</clipPath>
		<g class="st6">
			<line class="st1" x1="-2451.69" y1="1076.76" x2="-2188.74" y2="1187.42"/>
			
				<rect x="-2339.33" y="989.45" transform="matrix(0.3879 -0.9217 0.9217 0.3879 -2463.7051 -1445.5887)" class="st1" width="38.22" height="285.29"/>
		</g>
		<g class="st6">
			<line class="st2" x1="-2477.02" y1="1136.93" x2="-2214.06" y2="1247.59"/>
			
				<rect x="-2364.65" y="1049.62" transform="matrix(0.3879 -0.9217 0.9217 0.3879 -2534.6406 -1432.1001)" class="st2" width="38.22" height="285.29"/>
		</g>
		<g class="st6">
			<line class="st7" x1="-2401.05" y1="956.42" x2="-2138.1" y2="1067.08"/>
			
				<rect x="-2288.68" y="869.1" transform="matrix(0.3879 -0.9217 0.9217 0.3879 -2321.7991 -1472.5754)" class="st7" width="38.22" height="285.29"/>
		</g>
		<g class="st6">
			<line class="st5" x1="-2426.37" y1="1016.59" x2="-2163.42" y2="1127.25"/>
			
				<rect x="-2314.01" y="929.28" transform="matrix(0.3879 -0.9217 0.9217 0.3879 -2392.7449 -1459.0834)" class="st5" width="38.22" height="285.29"/>
		</g>
	</g>
	<path class="st3" d="M-2413.4,1243.74c-3.06,0-7.28-1.58-11.22-8.42c-10.51-18.23-16.57-71.94,9.34-109.59
		c15.05-21.86,34.11-38.46,54.29-56.03c28.37-24.7,60.52-52.69,87.55-101.71c24.28-44.02,22.72-86.12,21.34-123.26
		c-0.91-24.57-1.69-45.79,5.26-63.34l0,0c12.37-31.24,65.4-52.9,73.96-56.23c4.16-4.64,25.73-30.23,19.26-55.57
		c-8.18-32.07-21.67-35.62-30.6-37.97c-3.98-1.05-7.74-2.04-10.05-5.27c-5.47-7.64,4.42-18.8,8.92-23.24
		c5.08-5.01,14.48-12.77,20.4-8.42l1.17,0.84c6.63,4.67,26.81,18.87,37.33,48.99c10.09,28.88-4.96,72.69-8.81,83.02
		c9.54,17.18,69.91,132.56,23.93,222.67c-50.59,99.14-158.58,155.89-216.6,186.38c-5.92,3.11-11.32,5.94-16.08,8.52
		c-38.32,20.77-48.05,54.1-54.49,76.16c-3.83,13.14-6.37,21.82-14.23,22.44C-2412.94,1243.73-2413.17,1243.74-2413.4,1243.74z
		 M-2169.59,603.11c-4.85,1.64-17.15,13.95-16.72,18.12c0.28,0.03,2.73,0.67,4.52,1.14c10.42,2.74,27.85,7.33,37.42,44.85
		c8.44,33.07-21.07,64.02-22.34,65.31l-1.76,1.16c-0.57,0.21-57.88,21.87-69.5,51.2l0,0c-6.21,15.68-5.46,35.97-4.59,59.47
		c1.35,36.48,3.03,81.89-22.53,128.23c-27.85,50.5-60.68,79.08-89.64,104.3c-19.71,17.16-38.33,33.37-52.69,54.24
		c-20.31,29.51-19.11,72.17-11.77,93.03c2.65,7.53,5.22,9.82,5.91,10.03c1.34-1.01,3.7-9.1,5.6-15.6
		c6.47-22.15,17.29-59.21,59.11-81.88c4.79-2.6,10.23-5.45,16.18-8.58c57.08-30,163.31-85.82,212.53-182.26
		c46.37-90.87-24.1-214.31-24.82-215.55l-1.17-2.01l0.86-2.16c0.2-0.49,19.58-49.66,9.49-78.49c-9.5-27.22-27.8-40.1-33.81-44.33
		L-2169.59,603.11z M-2170.6,602.39c0.02,0.02,0.05,0.04,0.07,0.06L-2170.6,602.39z"/>
</g>
<g>
	<g>
		<defs>
			<path id="SVGID_7_" d="M327.62,270.19c-16.75,42.3,14.18,112.75-26.86,187.15c-46.42,84.18-106.12,105.89-142.08,158.14
				c-29.97,43.55-15.28,111.57-1.74,110.52c13.53-1.07,6.33-65.25,66.81-98.03c51.16-27.72,175.65-85.01,230.69-192.87
				c48.13-94.32-24.94-220.12-24.94-220.12s20.37-50.94,9.57-81.84c-10.79-30.9-32.22-44.17-36.83-47.55
				c-4.6-3.39-27.57,18.09-22.61,25.03c4.97,6.94,29.35-2.4,41.39,44.83c7.87,30.86-21.14,60.81-21.14,60.81
				S340.17,238.5,327.62,270.19z"/>
		</defs>
		<clipPath id="SVGID_8_">
			<use xlink:href="#SVGID_7_"  style="overflow:visible;"/>
		</clipPath>
		<g class="st8">
			<line class="st1" x1="118.25" y1="563.81" x2="381.2" y2="674.47"/>
			
				<rect x="230.61" y="476.5" transform="matrix(0.3879 -0.9217 0.9217 0.3879 -417.8072 609.1627)" class="st1" width="38.23" height="285.29"/>
		</g>
		<g class="st8">
			<line class="st2" x1="92.93" y1="623.98" x2="355.88" y2="734.64"/>
			
				<rect x="205.29" y="536.66" transform="matrix(0.3879 -0.9217 0.9217 0.3879 -488.7648 622.6567)" class="st2" width="38.23" height="285.29"/>
		</g>
		<g class="st8">
			<line class="st7" x1="168.89" y1="443.47" x2="431.85" y2="554.13"/>
			
				<rect x="281.26" y="356.15" transform="matrix(0.3879 -0.9217 0.9217 0.3879 -275.885 582.1793)" class="st7" width="38.23" height="285.29"/>
		</g>
		<g class="st8">
			<line class="st9" x1="194.21" y1="383.3" x2="457.17" y2="493.96"/>
			
				<rect x="306.58" y="295.98" transform="matrix(0.3879 -0.9217 0.9217 0.3879 -204.9289 568.6873)" class="st9" width="38.23" height="285.29"/>
		</g>
		<g class="st8">
			<line class="st5" x1="143.57" y1="503.64" x2="406.52" y2="614.3"/>
			
				<rect x="255.93" y="416.32" transform="matrix(0.3879 -0.9217 0.9217 0.3879 -346.8428 595.6652)" class="st5" width="38.23" height="285.29"/>
		</g>
	</g>
	<path class="st3" d="M156.54,730.86c-3.06,0-7.28-1.58-11.22-8.42c-10.51-18.23-16.57-71.94,9.34-109.59
		c15.05-21.86,34.11-38.46,54.29-56.03c28.37-24.7,60.52-52.69,87.55-101.71c24.28-44.02,22.72-86.12,21.35-123.26
		c-0.91-24.57-1.69-45.79,5.26-63.34l0,0c12.37-31.24,65.4-52.9,73.96-56.23c4.16-4.64,25.73-30.23,19.26-55.57
		c-8.18-32.07-21.67-35.62-30.6-37.97c-3.98-1.05-7.74-2.04-10.05-5.27c-5.47-7.64,4.42-18.8,8.92-23.24
		c5.08-5.01,14.48-12.77,20.4-8.42l1.17,0.84c6.63,4.67,26.81,18.87,37.33,48.99c10.09,28.88-4.96,72.69-8.81,83.02
		c9.54,17.18,69.91,132.56,23.93,222.67c-50.59,99.14-158.58,155.89-216.6,186.38c-5.92,3.11-11.32,5.94-16.08,8.52
		c-38.32,20.77-48.05,54.1-54.49,76.16c-3.84,13.14-6.37,21.82-14.23,22.44C157,730.85,156.78,730.86,156.54,730.86z M400.36,90.24
		c-4.85,1.64-17.15,13.95-16.72,18.12c0.28,0.03,2.73,0.67,4.52,1.14c10.42,2.74,27.85,7.33,37.42,44.85
		c8.44,33.07-21.07,64.02-22.34,65.31l-1.76,1.16c-0.57,0.21-57.88,21.87-69.5,51.2l0,0c-6.21,15.68-5.46,35.97-4.59,59.47
		c1.35,36.48,3.03,81.89-22.53,128.23c-27.85,50.5-60.68,79.08-89.64,104.3c-19.71,17.16-38.33,33.37-52.69,54.24
		c-20.31,29.51-19.11,72.17-11.77,93.03c2.65,7.53,5.22,9.82,5.91,10.03c1.34-1.01,3.7-9.1,5.6-15.6
		c6.47-22.15,17.29-59.21,59.11-81.88c4.79-2.6,10.23-5.45,16.18-8.58c57.08-30,163.31-85.82,212.53-182.26
		c46.37-90.87-24.1-214.31-24.82-215.55l-1.17-2.01l0.86-2.16c0.2-0.49,19.58-49.66,9.49-78.49c-9.5-27.22-27.8-40.1-33.81-44.33
		L400.36,90.24z M399.34,89.52c0.02,0.02,0.05,0.04,0.07,0.06L399.34,89.52z"/>
</g>
<g>
	<g>
		<defs>
			<path id="SVGID_9_" d="M2934.86,1973.83c-16.75,42.3,14.18,112.75-26.86,187.15c-46.42,84.18-106.12,105.89-142.08,158.14
				c-29.97,43.55-15.28,111.57-1.74,110.52c13.53-1.07,6.33-65.25,66.81-98.03c51.16-27.72,175.65-85.01,230.69-192.87
				c48.13-94.32-24.94-220.12-24.94-220.12s20.37-50.94,9.57-81.84c-10.79-30.9-32.22-44.17-36.83-47.55
				c-4.6-3.39-27.57,18.09-22.61,25.03c4.97,6.94,29.35-2.4,41.39,44.83c7.87,30.86-21.14,60.81-21.14,60.81
				S2947.41,1942.15,2934.86,1973.83z"/>
		</defs>
		<clipPath id="SVGID_10_">
			<use xlink:href="#SVGID_9_"  style="overflow:visible;"/>
		</clipPath>
		<g class="st10">
			<line class="st1" x1="2725.49" y1="2267.45" x2="2988.45" y2="2378.11"/>
			
				<rect x="2837.86" y="2180.14" transform="matrix(0.3879 -0.9217 0.9217 0.3879 -392.1276 4055.1067)" class="st1" width="38.23" height="285.29"/>
		</g>
		<g class="st10">
			<line class="st2" x1="2700.17" y1="2327.62" x2="2963.13" y2="2438.28"/>
			
				<rect x="2812.53" y="2240.31" transform="matrix(0.3879 -0.9217 0.9217 0.3879 -463.0828 4068.6228)" class="st2" width="38.23" height="285.29"/>
		</g>
		<g class="st10">
			<line class="st7" x1="2776.13" y1="2147.11" x2="3039.09" y2="2257.77"/>
			
				<rect x="2888.5" y="2059.8" transform="matrix(0.3879 -0.9217 0.9217 0.3879 -250.203 4028.1453)" class="st7" width="38.23" height="285.29"/>
		</g>
		<g class="st10">
			<line class="st9" x1="2801.45" y1="2086.94" x2="3064.41" y2="2197.6"/>
			
				<rect x="2913.82" y="1999.62" transform="matrix(0.3879 -0.9217 0.9217 0.3879 -179.2382 4014.6477)" class="st9" width="38.23" height="285.29"/>
		</g>
		<g class="st10">
			<line class="st11" x1="2826.78" y1="2026.77" x2="3089.73" y2="2137.43"/>
			
				<rect x="2939.14" y="1939.45" transform="matrix(0.3879 -0.9217 0.9217 0.3879 -108.2821 4001.1555)" class="st11" width="38.23" height="285.29"/>
		</g>
		<g class="st10">
			<line class="st5" x1="2750.81" y1="2207.28" x2="3013.77" y2="2317.94"/>
			
				<rect x="2863.18" y="2119.97" transform="matrix(0.3879 -0.9217 0.9217 0.3879 -321.1718 4041.615)" class="st5" width="38.23" height="285.29"/>
		</g>
	</g>
	<path class="st3" d="M2763.78,2434.43c-3.06,0-7.28-1.58-11.22-8.42c-10.51-18.23-16.57-71.94,9.34-109.59
		c15.05-21.86,34.11-38.46,54.29-56.03c28.37-24.7,60.52-52.69,87.55-101.71c24.28-44.02,22.72-86.12,21.34-123.26
		c-0.91-24.57-1.69-45.79,5.26-63.34l0,0c12.37-31.24,65.4-52.9,73.96-56.23c4.16-4.64,25.73-30.23,19.26-55.57
		c-8.18-32.07-21.67-35.62-30.6-37.97c-3.98-1.05-7.74-2.04-10.05-5.27c-5.47-7.64,4.42-18.8,8.92-23.24
		c5.08-5.01,14.48-12.77,20.4-8.42l1.17,0.84c6.63,4.67,26.81,18.87,37.33,48.99c10.09,28.88-4.96,72.69-8.81,83.02
		c9.54,17.18,69.91,132.56,23.93,222.67c-50.59,99.14-158.58,155.89-216.6,186.38c-5.92,3.11-11.32,5.94-16.08,8.52
		c-38.32,20.77-48.05,54.1-54.49,76.16c-3.84,13.14-6.37,21.82-14.23,22.44C2764.25,2434.42,2764.02,2434.43,2763.78,2434.43z
		 M3007.6,1793.8c-4.85,1.64-17.15,13.95-16.72,18.12c0.28,0.03,2.73,0.67,4.52,1.14c10.42,2.74,27.85,7.33,37.42,44.85
		c8.44,33.07-21.07,64.02-22.34,65.31l-1.76,1.16c-0.57,0.21-57.88,21.87-69.5,51.2l0,0c-6.21,15.68-5.46,35.97-4.59,59.47
		c1.35,36.48,3.03,81.89-22.53,128.23c-27.85,50.5-60.68,79.08-89.64,104.3c-19.71,17.16-38.33,33.37-52.69,54.24
		c-20.31,29.51-19.11,72.17-11.77,93.03c2.65,7.53,5.22,9.82,5.91,10.03c1.34-1.01,3.7-9.1,5.6-15.6
		c6.47-22.15,17.29-59.21,59.11-81.88c4.79-2.6,10.23-5.45,16.18-8.58c57.08-30,163.31-85.82,212.53-182.26
		c46.37-90.87-24.1-214.31-24.82-215.55l-1.17-2.01l0.86-2.16c0.2-0.49,19.58-49.66,9.49-78.49c-9.5-27.22-27.8-40.1-33.81-44.33
		L3007.6,1793.8z M3006.58,1793.08c0.02,0.02,0.05,0.04,0.07,0.06L3006.58,1793.08z"/>
</g>
<g>
	<g>
		<defs>
			<path id="SVGID_11_" d="M3620.74,1973.91c-16.75,42.3,14.18,112.75-26.86,187.15c-46.42,84.18-106.12,105.89-142.08,158.14
				c-29.97,43.55-15.28,111.57-1.74,110.52c13.53-1.07,6.33-65.25,66.81-98.03c51.16-27.72,175.65-85.01,230.69-192.87
				c48.13-94.32-24.94-220.12-24.94-220.12s20.37-50.94,9.57-81.84c-10.79-30.9-32.22-44.17-36.83-47.55
				c-4.6-3.39-27.57,18.09-22.61,25.03c4.97,6.94,29.35-2.4,41.39,44.83c7.87,30.86-21.14,60.81-21.14,60.81
				S3633.29,1942.23,3620.74,1973.91z"/>
		</defs>
		<clipPath id="SVGID_12_">
			<use xlink:href="#SVGID_11_"  style="overflow:visible;"/>
		</clipPath>
		<g class="st12">
			<line class="st1" x1="3411.37" y1="2267.53" x2="3674.33" y2="2378.19"/>
			
				<rect x="3523.73" y="2180.22" transform="matrix(0.3879 -0.9217 0.9217 0.3879 27.6352 4687.3379)" class="st1" width="38.23" height="285.29"/>
		</g>
		<g class="st12">
			<line class="st2" x1="3386.05" y1="2327.7" x2="3649" y2="2438.36"/>
			
				<rect x="3498.41" y="2240.38" transform="matrix(0.3879 -0.9217 0.9217 0.3879 -43.3073 4700.8501)" class="st2" width="38.23" height="285.29"/>
		</g>
		<g class="st12">
			<line class="st7" x1="3462.01" y1="2147.19" x2="3724.97" y2="2257.85"/>
			
				<rect x="3574.38" y="2059.87" transform="matrix(0.3879 -0.9217 0.9217 0.3879 169.5725 4660.3726)" class="st7" width="38.23" height="285.29"/>
		</g>
		<g class="st12">
			<line class="st9" x1="3487.33" y1="2087.02" x2="3750.29" y2="2197.68"/>
			
				<rect x="3599.7" y="1999.7" transform="matrix(0.3879 -0.9217 0.9217 0.3879 240.5286 4646.8804)" class="st9" width="38.23" height="285.29"/>
		</g>
		<g class="st12">
			<line class="st13" x1="3537.98" y1="1966.68" x2="3800.93" y2="2077.34"/>
			
				<rect x="3650.34" y="1879.36" transform="matrix(0.3879 -0.9217 0.9217 0.3879 382.4344 4619.8721)" class="st13" width="38.23" height="285.29"/>
		</g>
		<g class="st12">
			<line class="st11" x1="3512.66" y1="2026.85" x2="3775.61" y2="2137.51"/>
			
				<rect x="3625.02" y="1939.54" transform="matrix(0.3879 -0.9217 0.9217 0.3879 311.4847 4633.3887)" class="st11" width="38.23" height="285.29"/>
		</g>
		<g class="st12">
			<line class="st5" x1="3436.69" y1="2207.36" x2="3699.65" y2="2318.02"/>
			
				<rect x="3549.05" y="2120.05" transform="matrix(0.3879 -0.9217 0.9217 0.3879 98.591 4673.8462)" class="st5" width="38.23" height="285.29"/>
		</g>
	</g>
	<path class="st3" d="M3449.66,2434.51c-3.06,0-7.28-1.58-11.22-8.42c-10.51-18.23-16.57-71.94,9.34-109.59
		c15.05-21.86,34.11-38.46,54.29-56.03c28.37-24.7,60.52-52.69,87.55-101.71c24.28-44.02,22.72-86.12,21.34-123.26
		c-0.91-24.57-1.69-45.79,5.26-63.34l0,0c12.37-31.24,65.4-52.9,73.96-56.23c4.16-4.64,25.73-30.23,19.26-55.57
		c-8.18-32.07-21.67-35.62-30.6-37.97c-3.98-1.05-7.74-2.04-10.05-5.27c-5.47-7.64,4.42-18.8,8.92-23.24
		c5.08-5.01,14.48-12.77,20.4-8.42l1.17,0.84c6.63,4.67,26.81,18.87,37.33,48.99c10.09,28.88-4.96,72.69-8.81,83.02
		c9.54,17.18,69.91,132.56,23.93,222.67c-50.59,99.14-158.58,155.89-216.6,186.38c-5.92,3.11-11.32,5.94-16.08,8.52
		c-38.32,20.77-48.05,54.1-54.49,76.16c-3.84,13.14-6.37,21.82-14.23,22.44C3450.13,2434.5,3449.9,2434.51,3449.66,2434.51z
		 M3693.48,1793.88c-4.85,1.64-17.15,13.95-16.72,18.12c0.28,0.03,2.73,0.67,4.52,1.14c10.42,2.74,27.85,7.33,37.42,44.85
		c8.44,33.07-21.07,64.02-22.34,65.31l-1.76,1.16c-0.57,0.21-57.88,21.87-69.5,51.2l0,0c-6.21,15.68-5.46,35.97-4.59,59.47
		c1.35,36.48,3.03,81.89-22.53,128.23c-27.85,50.5-60.68,79.08-89.64,104.3c-19.71,17.16-38.33,33.37-52.69,54.24
		c-20.31,29.51-19.11,72.17-11.77,93.03c2.65,7.53,5.22,9.82,5.91,10.03c1.34-1.01,3.7-9.1,5.6-15.6
		c6.47-22.15,17.29-59.21,59.11-81.88c4.79-2.6,10.23-5.45,16.18-8.58c57.08-30,163.31-85.82,212.53-182.26
		c46.37-90.87-24.1-214.31-24.82-215.55l-1.17-2.01l0.86-2.16c0.2-0.49,19.58-49.66,9.49-78.49c-9.5-27.22-27.8-40.1-33.81-44.33
		L3693.48,1793.88z M3692.46,1793.16c0.02,0.02,0.05,0.04,0.07,0.06L3692.46,1793.16z"/>
</g>
<g>
	<g>
		<defs>
			<path id="SVGID_13_" d="M4303.24,1983.63c-16.75,42.3,14.18,112.75-26.86,187.15c-46.42,84.18-106.12,105.89-142.08,158.14
				c-29.97,43.55-15.28,111.57-1.74,110.52c13.53-1.07,6.33-65.25,66.81-98.03c51.16-27.72,175.65-85.01,230.69-192.87
				c48.13-94.32-24.94-220.12-24.94-220.12s20.37-50.94,9.57-81.84c-10.79-30.9-32.22-44.17-36.83-47.55
				c-4.6-3.39-27.57,18.09-22.61,25.03c4.97,6.94,29.35-2.4,41.39,44.83c7.87,30.86-21.14,60.81-21.14,60.81
				S4315.79,1951.94,4303.24,1983.63z"/>
		</defs>
		<clipPath id="SVGID_14_">
			<use xlink:href="#SVGID_13_"  style="overflow:visible;"/>
		</clipPath>
		<g class="st14">
			<line class="st1" x1="4093.87" y1="2277.25" x2="4356.83" y2="2387.91"/>
			
				<rect x="4206.24" y="2189.94" transform="matrix(0.3879 -0.9217 0.9217 0.3879 436.4467 5322.354)" class="st1" width="38.23" height="285.29"/>
		</g>
		<g class="st14">
			<line class="st2" x1="4068.55" y1="2337.42" x2="4331.51" y2="2448.08"/>
			
				<rect x="4180.91" y="2250.1" transform="matrix(0.3879 -0.9217 0.9217 0.3879 365.5081 5335.8682)" class="st2" width="38.23" height="285.29"/>
		</g>
		<g class="st14">
			<line class="st7" x1="4144.51" y1="2156.91" x2="4407.47" y2="2267.57"/>
			
				<rect x="4256.88" y="2069.59" transform="matrix(0.3879 -0.9217 0.9217 0.3879 578.3879 5295.3906)" class="st7" width="38.23" height="285.29"/>
		</g>
		<g class="st14">
			<line class="st9" x1="4169.83" y1="2096.74" x2="4432.79" y2="2207.4"/>
			
				<rect x="4282.2" y="2009.42" transform="matrix(0.3879 -0.9217 0.9217 0.3879 649.3441 5281.8984)" class="st9" width="38.23" height="285.29"/>
		</g>
		<g class="st14">
			<line class="st13" x1="4220.48" y1="1976.4" x2="4483.43" y2="2087.06"/>
			
				<rect x="4332.84" y="1889.08" transform="matrix(0.3879 -0.9217 0.9217 0.3879 791.2459 5254.8882)" class="st13" width="38.23" height="285.29"/>
		</g>
		<g class="st14">
			<line class="st11" x1="4195.16" y1="2036.57" x2="4458.11" y2="2147.23"/>
			
				<rect x="4307.52" y="1949.25" transform="matrix(0.3879 -0.9217 0.9217 0.3879 720.3088 5268.4009)" class="st11" width="38.23" height="285.29"/>
		</g>
		<g class="st14">
			<line class="st15" x1="4245.8" y1="1916.23" x2="4508.75" y2="2026.88"/>
			
				<rect x="4358.16" y="1828.91" transform="matrix(0.3879 -0.9217 0.9217 0.3879 862.2018 5241.3965)" class="st15" width="38.23" height="285.29"/>
		</g>
		<g class="st14">
			<line class="st5" x1="4119.19" y1="2217.08" x2="4382.15" y2="2327.74"/>
			
				<rect x="4231.56" y="2129.76" transform="matrix(0.3879 -0.9217 0.9217 0.3879 507.4112 5308.8569)" class="st5" width="38.23" height="285.29"/>
		</g>
	</g>
	<path class="st3" d="M4132.16,2444.21c-3.06,0-7.28-1.58-11.22-8.42c-10.51-18.23-16.57-71.94,9.34-109.59
		c15.05-21.86,34.11-38.46,54.29-56.03c28.37-24.7,60.52-52.69,87.54-101.71c24.28-44.02,22.72-86.12,21.35-123.26
		c-0.91-24.57-1.69-45.79,5.26-63.34l0,0c12.37-31.24,65.4-52.9,73.96-56.23c4.16-4.64,25.73-30.23,19.26-55.57
		c-8.18-32.07-21.67-35.62-30.6-37.97c-3.98-1.05-7.74-2.04-10.05-5.27c-5.47-7.64,4.42-18.8,8.92-23.24
		c5.08-5.01,14.48-12.77,20.4-8.42l1.17,0.84c6.63,4.67,26.81,18.87,37.33,48.99c10.09,28.88-4.96,72.69-8.81,83.02
		c9.54,17.18,69.91,132.56,23.93,222.67c-50.59,99.14-158.58,155.89-216.6,186.38c-5.92,3.11-11.32,5.94-16.08,8.52
		c-38.32,20.77-48.05,54.1-54.49,76.16c-3.84,13.14-6.37,21.82-14.23,22.44C4132.63,2444.2,4132.4,2444.21,4132.16,2444.21z
		 M4375.98,1803.58c-4.85,1.64-17.15,13.95-16.72,18.12c0.28,0.03,2.73,0.67,4.52,1.14c10.42,2.74,27.85,7.33,37.42,44.85
		c8.44,33.07-21.07,64.02-22.34,65.31l-1.76,1.16c-0.57,0.21-57.88,21.87-69.5,51.2l0,0c-6.21,15.68-5.46,35.97-4.59,59.47
		c1.35,36.49,3.03,81.89-22.53,128.23c-27.85,50.5-60.68,79.08-89.64,104.3c-19.71,17.16-38.33,33.37-52.69,54.24
		c-20.31,29.51-19.11,72.17-11.77,93.03c2.65,7.53,5.22,9.82,5.91,10.03c1.34-1.01,3.7-9.1,5.6-15.6
		c6.47-22.15,17.29-59.21,59.11-81.88c4.79-2.6,10.23-5.45,16.19-8.58c57.08-30,163.31-85.82,212.53-182.26
		c46.37-90.87-24.1-214.31-24.82-215.55l-1.17-2.01l0.86-2.16c0.2-0.49,19.58-49.66,9.49-78.49c-9.5-27.22-27.8-40.1-33.81-44.33
		L4375.98,1803.58z M4374.96,1802.86c0.02,0.02,0.05,0.04,0.07,0.06L4374.96,1802.86z"/>
</g>
<g>
	<g>
		<defs>
			<path id="SVGID_15_" d="M-975.44,1954.43c-16.75,42.3,14.18,112.75-26.86,187.15c-46.42,84.18-106.12,105.89-142.08,158.14
				c-29.97,43.55-15.28,111.57-1.74,110.52c13.53-1.07,6.33-65.25,66.81-98.03c51.16-27.72,175.65-85.01,230.69-192.87
				c48.13-94.32-24.94-220.12-24.94-220.12s20.37-50.94,9.57-81.84c-10.79-30.9-32.22-44.17-36.83-47.55
				c-4.6-3.39-27.57,18.09-22.61,25.03c4.97,6.94,29.35-2.4,41.39,44.83c7.87,30.86-21.14,60.81-21.14,60.81
				S-962.89,1922.75-975.44,1954.43z"/>
		</defs>
		<clipPath id="SVGID_16_">
			<use xlink:href="#SVGID_15_"  style="overflow:visible;"/>
		</clipPath>
		<g class="st16">
			<line class="st2" x1="-1210.13" y1="2308.22" x2="-947.18" y2="2418.88"/>
			
				<rect x="-1097.76" y="2220.91" transform="matrix(0.3879 -0.9217 0.9217 0.3879 -2838.8098 452.6031)" class="st2" width="38.22" height="285.29"/>
		</g>
	</g>
	<path class="st3" d="M-1146.52,2415.03c-3.06,0-7.28-1.58-11.22-8.42c-10.51-18.23-16.57-71.94,9.34-109.59
		c15.05-21.86,34.11-38.46,54.29-56.03c28.37-24.7,60.52-52.69,87.55-101.71c24.28-44.02,22.72-86.12,21.35-123.26
		c-0.91-24.57-1.69-45.79,5.26-63.34l0,0c12.37-31.24,65.4-52.9,73.96-56.23c4.16-4.64,25.73-30.23,19.26-55.57
		c-8.18-32.07-21.67-35.62-30.6-37.97c-3.98-1.05-7.74-2.04-10.05-5.27c-5.47-7.64,4.42-18.8,8.92-23.24
		c5.08-5.01,14.48-12.77,20.4-8.42l1.17,0.84c6.63,4.67,26.81,18.87,37.33,48.99c10.09,28.88-4.96,72.69-8.81,83.02
		c9.54,17.18,69.91,132.56,23.93,222.67c-50.59,99.14-158.58,155.89-216.6,186.38c-5.92,3.11-11.32,5.94-16.08,8.52
		c-38.32,20.77-48.05,54.1-54.49,76.16c-3.84,13.14-6.37,21.82-14.23,22.44C-1146.05,2415.02-1146.28,2415.03-1146.52,2415.03z
		 M-902.7,1774.4c-4.85,1.64-17.15,13.95-16.72,18.12c0.28,0.03,2.73,0.67,4.52,1.14c10.42,2.74,27.85,7.33,37.42,44.85
		c8.44,33.07-21.07,64.02-22.34,65.31l-1.76,1.16c-0.57,0.21-57.88,21.87-69.5,51.2l0,0c-6.21,15.68-5.46,35.97-4.59,59.47
		c1.35,36.48,3.03,81.89-22.53,128.23c-27.85,50.5-60.68,79.08-89.64,104.3c-19.71,17.16-38.33,33.37-52.69,54.24
		c-20.31,29.51-19.11,72.17-11.77,93.03c2.65,7.53,5.22,9.82,5.91,10.03c1.34-1.01,3.7-9.1,5.6-15.6
		c6.47-22.15,17.29-59.21,59.11-81.88c4.79-2.6,10.23-5.45,16.18-8.58c57.08-30,163.31-85.82,212.53-182.26
		c46.37-90.87-24.1-214.31-24.82-215.55l-1.17-2.01l0.86-2.16c0.2-0.49,19.58-49.66,9.49-78.49c-9.5-27.22-27.8-40.1-33.81-44.33
		L-902.7,1774.4z M-903.72,1773.68c0.02,0.02,0.05,0.04,0.07,0.06L-903.72,1773.68z"/>
</g>
</svg>
