<?xml version="1.0" encoding="utf-8"?>
<!-- Generator: Adobe Illustrator 24.2.3, SVG Export Plug-In . SVG Version: 6.00 Build 0)  -->
<svg version="1.1" id="Camada_1" xmlns="http://www.w3.org/2000/svg" xmlns:xlink="http://www.w3.org/1999/xlink" x="0px" y="0px"
	 viewBox="0 0 1233 1233" style="enable-background:new 0 0 1233 1233;" xml:space="preserve">
<style type="text/css">
	.st0{fill-rule:evenodd;clip-rule:evenodd;fill:#F47920;}
	.st1{fill:#FFFFFF;}
</style>
<path class="st0" d="M136.74,37.35h958.53c54.92,0,99.85,44.93,99.85,99.85v958.53c0,54.92-44.93,99.85-99.85,99.85H136.74
	c-54.92,0-99.85-44.93-99.85-99.85V137.2C36.89,82.28,81.82,37.35,136.74,37.35z"/>
<g>
	<g>
		<path id="House_10_" class="st1" d="M870.05,476.91c-16.88-28.28-35.55-55.46-55.89-81.38l-0.5-0.65l-0.17-0.19
			c-1.01-1.27-3.68-4.57-4.67-5.84c-9.28-12.7-7.98-21.96-7.98-21.96c-5.58-63.37-12.17-92.46-13.44-99.97
			c-1.51-8.83-4.04-18.01-16.83-19.38c-10.39-1.08-25.75-2.81-42.76-3.68c-14.28-0.72-16.04,13.85-16.04,13.85
			c-0.31,14.77,0,21.88,0,23.59s-0.36,3.73-3.05,4.28c-1.11,0.04-2.2-0.28-3.1-0.91c-23.29-19.38-47.89-37.12-73.63-53.1
			c-5.12-3-10.91-4.65-16.83-4.81c-5.22,0.24-10.28,1.9-14.62,4.81c-7.65,4.81-138.56,79.14-237.66,244.52c0,0-6.16,8.63-1.54,16.71
			c2.62,4.93,7.77,7.98,13.35,7.91c0,0,34.39,4.02,41.31,4.81c7.82,0.82,7.77,7.21,7.77,7.21c-0.59,72.19,3.77,144.33,13.06,215.92
			c0,0,1.78,12.02,13.66,12.6c4.81,0.24,22.63-0.79,70.12-1.85c1.81,0.19,3.43-1.12,3.62-2.93c0.03-0.27,0.02-0.55-0.02-0.82
			c-4.55-46.99-5.99-87.63-6.11-89.99c-0.11-1.69-1.17-3.17-2.74-3.8c-17.53-10.02-28.41-28.6-28.57-48.79
			c-1.32-93.02,4.35-164.41,4.35-164.41s0.55-9.91,9.26-9.11c8.71,0.79,8.13,10.53,8.13,10.53c-3.13,40.06-4.33,112.28-4.33,112.28
			s0,13.73,13.15,13.71c13.15-0.02,13.15-13.71,13.15-13.71c-0.41-56.51,4.35-113.31,4.35-113.31s0-9.62,9.28-9.62
			c8.42,0,8.13,10.75,8.13,10.75c-3.94,49.08-4.33,112.11-4.33,112.11s0,13.73,13.15,13.71c13.15-0.02,13.11-14.84,13.11-14.84
			c-0.22-46.84,4.42-112.57,4.42-112.57c-0.22-4.79,3.49-8.85,8.28-9.07c0.28-0.01,0.56-0.01,0.84,0c7.82,0,8.27,9.07,8.27,9.07
			c-4.26,50.84-4.33,128.92-4.14,162.68c0.61,20.09-9.58,38.98-26.72,49.49c-1.58,1.06-2.44,2.92-2.21,4.81
			c1.08,30.93,3.68,65.22,5.92,89.79c0.1,1.65,1.38,2.99,3.03,3.15c13.13,0,27.46-0.17,43.29-0.17c25.39,0,46.41,0.17,65.05,0.43
			c2.09,0,3.1-1.54,3.27-3.68c4.81-44.51,6.49-76.74,6.73-79.55c0.29-3.17-3.63-3.78-3.63-3.78c-6.83-0.38-19.45-2.4-31.05-4.3
			c-11.59-1.9-12.02-15.1-12.02-15.1c-9.79-138.83,63.46-225.35,63.46-225.35s7.21-9.38,17.39-5.84
			c10.17,3.54,10.08,14.43,10.08,14.43c10.27,115.6,0.12,264.64-6.32,319.83c-0.46,2.01,0.8,4,2.81,4.46c0.2,0.04,0.4,0.07,0.6,0.09
			c31.26,0.91,45.91,1.8,49.92,1.35c7.14-0.73,12.89-6.18,14-13.27c15.58-107.54,13.2-215.39,13.2-215.39
			c0.33-3.84,3.37-6.89,7.21-7.21l42.16-4.52c5.34-0.01,10.23-3.01,12.67-7.77c2.49-5.2,2.21-11.3-0.75-16.26"/>
		<g>
			<path class="st1" d="M511.52,797.72c-1.04-1.39-2.68-2.21-4.41-2.21l-47.09,0.05l-57.73,195.73l-21.94-95.1l67.13-91.69
				c0.48-0.6,0.78-1.29,0.98-2l1.18-4.02c0.42-1.5-0.7-2.98-2.26-2.98h-47.84l-51.35,75.22l21.92-68.15
				c0.49-1.67,0.16-3.47-0.88-4.86c-1.04-1.39-2.67-2.21-4.41-2.21h-47.38l-40.96,139.18c0.9-23.91-17.63-42.74-28.42-54.65
				c-8.74-9.73-14.01-16.62-13.07-24.3c1.15-9.35,8.6-18.12,20.75-19.08c11.79-0.93,16.86,2.68,24.36,6.2
				c0.88,0.41,1.81,0.67,2.77,0.67c0.76,0,1.53-0.14,2.25-0.43c1.63-0.64,2.86-1.95,3.35-3.56l11.03-37.24l-7.63-3.55
				c-0.34-0.17-0.72-0.34-1.11-0.52l-0.36-0.17v0.01c-5.4-2.39-15.12-5.63-28.68-5.63c-41.5,0-79.26,29.71-85.48,66.24
				c-4.36,25.57,12.02,43.6,23.98,56.77l1.05,1.15c8.64,9.27,14.64,16.47,13.22,24.82c-1.98,11.7-13.35,18.38-24.33,19.27
				c-12.06,0.98-19.59-2.39-29.02-6.53c-1.23-0.54-3.51-1.64-5.46-1.01c-1.87,0.61-3.34,1.99-3.86,3.79l-10.51,35.98l0,0l-1.34,4.6
				c0,0,20.65,10.45,44.54,10.45c35.36,0,65.94-13.58,84.08-46.36l-10.71,36.52c-0.49,1.67-0.16,3.47,0.88,4.86
				c1.04,1.39,2.67,2.2,4.41,2.2h47.36l11.82-40.2l14.4-20.76l11.11,56.53c0.51,2.58,2.78,4.43,5.41,4.43h99.54l59.59-202.63
				C512.89,800.91,512.57,799.11,511.52,797.72L511.52,797.72z"/>
			<path class="st1" d="M573.55,840.77l17.67,0.12c2.82,0.04,4.95,0.96,6.52,2.56c2.76,2.81,3.8,6.81,3.53,12.06
				c-0.51,9.82-4.24,22.41-8.61,32.15c-5.85,13.04-11.29,22.77-26.7,24.53l-13.41-0.08L573.55,840.77L573.55,840.77z M539.4,957.04
				l20.59,0.09c49.66,0.65,74.84-34.25,86.06-72.14c4.59-15.5,6.77-26.62,6.7-34.06c-0.15-16.59-4.23-29.08-13.72-39.56
				c-8.91-9.84-21.43-15.6-36.23-15.8h-78.41l-3.34,11.1c-0.31,1.03-0.16,2.14,0.42,3.05l2.23,3.51c2.18,3.43,2.76,7.65,1.56,11.54
				l-50.91,173.32c-0.51,1.66-0.2,3.46,0.82,4.87c1.02,1.41,2.64,2.24,4.38,2.26h45.6L539.4,957.04L539.4,957.04z"/>
			<path class="st1" d="M692.84,903.59h6.65c6.41,0,11.91,5.66,11.07,19.74c-0.87,14.62-11.99,61.59-34.24,61.59h-7.35
				L692.84,903.59L692.84,903.59z M642.04,1005.08l28.91,0.12c46.19,0,62.3-57.94,63.76-82.24c1.6-26.69-13.27-39.66-29.48-39.66
				h-30.72l-34.99,118.44C639.04,1003.4,640.31,1005.08,642.04,1005.08L642.04,1005.08z"/>
			<path class="st1" d="M712.67,866.6h11.23l8.58-29.5h13.53L738,864.6c-0.29,1,0.46,2,1.51,2h11.23l19.41-66.32
				c0.29-1-0.46-2-1.5-2h-11.23l-8.03,27.55h-13.53l7.45-25.55c0.29-1-0.46-2-1.5-2h-11.22l-19.41,66.32
				C710.88,865.6,711.63,866.6,712.67,866.6L712.67,866.6z"/>
			<path class="st1" d="M763.7,866.55h28.76c0,0,2.72-9.25,2.76-9.37c0.34-1.16-0.46-2-1.51-2H778.2l5.28-17.72h14.08l2.79-9.36
				c0.3-1-0.46-2.01-1.5-2.01h-12.09l4.88-16.49h17.54l2.7-9.37c0.29-1-0.46-2-1.51-2H781.6l-0.33,1.12l-19.08,65.2
				C761.9,865.55,762.65,866.55,763.7,866.55L763.7,866.55z"/>
			<path class="st1" d="M681.38,866.55h11.21l16.72-56.95h10.67l2.65-9.37c0.28-1-0.47-2-1.52-2h-32.64l-2.65,9.37
				c-0.28,1,0.48,2,1.52,2h8.59l-16.07,54.95C679.58,865.55,680.34,866.55,681.38,866.55L681.38,866.55z"/>
			<path class="st1" d="M763.72,883.3l-34.79,118.56c-0.48,1.67,0.79,3.34,2.52,3.34h20.26l34.78-118.56
				c0.48-1.67-0.78-3.34-2.52-3.34H763.72L763.72,883.3z"/>
			<path class="st1" d="M947.15,883.3h-20.28l-14.38,49.16h-24.13l13.41-45.82c0.49-1.67-0.77-3.34-2.5-3.34h-20.28l-34.82,118.56
				c-0.49,1.67,0.76,3.34,2.5,3.34h20.27l15.37-52.64h24.13l-14.4,49.3c-0.49,1.67,0.77,3.34,2.5,3.34h20.28l34.82-118.56
				C950.14,884.97,948.89,883.3,947.15,883.3L947.15,883.3z"/>
			<path class="st1" d="M999.08,933.01h-21.26l8.74-29.42h31.3l4.9-16.96c0.49-1.66-0.77-3.33-2.5-3.33h-51.58l-34.82,118.56
				c-0.49,1.67,0.76,3.34,2.5,3.34h51.57l4.91-16.96c0.49-1.66-0.77-3.33-2.5-3.33h-27.83l9.45-31.62h18.61h4.01h1.94l5.06-16.94
				C1002.08,934.69,1000.83,933.01,999.08,933.01L999.08,933.01z"/>
			<path class="st1" d="M818.12,916.38c1.22-7.68,7.44-14.12,15.9-14.62c5.52-0.33,8.67,0.76,13.33,2.38
				c2.18,0.75,4.6,0.02,5.23-2.18c0.1-0.35,4.85-16.46,4.85-16.46s-8.88-4.2-19.96-4.2c-21.49,0-43.13,16.06-46.63,37.99
				c-2.33,14.62,6.98,25.07,13.64,32.93c5.27,6.03,9.51,11.33,8.43,18.1c-1.63,10.24-9.65,14.72-17.36,15.37
				c-5.81,0.49-9.36-0.03-16.04-2.83c-2.43-1.02-4.62-0.21-5.33,2.27l-5.26,17.97c0,0,10.11,4.32,23.37,4.32
				c23.57,0,44.09-17.34,47.64-39.63c2.36-14.8-6.86-25.8-13.53-33.66C821.35,928.07,817.1,922.78,818.12,916.38L818.12,916.38z"/>
			<path class="st1" d="M1072.07,881.29c-21.49,0-43.13,16.06-46.63,37.99c-2.33,14.62,6.98,25.07,13.64,32.93
				c5.27,6.03,9.51,11.33,8.43,18.1c-1.63,10.24-9.65,14.72-17.36,15.37c-5.81,0.49-9.36-0.03-16.04-2.83
				c-2.43-1.02-4.61-0.21-5.32,2.27l-5.26,17.97c0,0,10.11,4.32,23.37,4.32c23.56,0,44.08-17.34,47.64-39.63
				c2.36-14.8-6.86-25.8-13.53-33.66c-5.07-6.03-9.32-11.33-8.3-17.73c1.22-7.68,7.44-14.12,15.9-14.62
				c5.52-0.33,8.67,0.76,13.33,2.38c2.18,0.75,4.6,0.02,5.24-2.18c0.1-0.35,4.84-16.46,4.84-16.46S1083.15,881.29,1072.07,881.29
				L1072.07,881.29z"/>
		</g>
	</g>
</g>
</svg>
