<?xml version="1.0" encoding="utf-8"?>
<!-- Generator: Adobe Illustrator 24.2.3, SVG Export Plug-In . SVG Version: 6.00 Build 0)  -->
<svg version="1.1" id="Camada_1" xmlns="http://www.w3.org/2000/svg" xmlns:xlink="http://www.w3.org/1999/xlink" x="0px" y="0px"
	 viewBox="0 0 1233 1233" style="enable-background:new 0 0 1233 1233;" xml:space="preserve">
<style type="text/css">
	.st0{fill-rule:evenodd;clip-rule:evenodd;}
	.st1{fill-rule:evenodd;clip-rule:evenodd;fill:#FFFFFF;}
	.st2{fill-rule:evenodd;clip-rule:evenodd;fill:#7BC256;}
</style>
<g>
	<path class="st0" d="M165.98,91.57h890.77c51.03,0,92.79,41.76,92.79,92.79v890.77c0,51.03-41.76,92.79-92.79,92.79H165.98
		c-51.03,0-92.79-41.76-92.79-92.79V184.35C73.2,133.32,114.95,91.57,165.98,91.57z"/>
	<path class="st1" d="M876.78,602.04L876.78,602.04h-31.06V450.02c10.35,0,20.71,0,31.06,0c0,5.69,0,11.38,0,17.07
		c7.26-12.83,23.05-18.69,37.2-18.69h9.39v30.44c-3.19,0-6.39,0-9.58,0c-26.07,0-37,13.77-37,38.87V602.04L876.78,602.04z
		 M299.08,393.67h33.35c0,42.43,0,84.86,0,127.29c0,76.47,102.1,71.01,102.1-0.19V393.67h31.6v208.31c-10.53,0-21.06,0-31.6,0
		c0-6.25,0-12.5,0-18.76c-16.29,15.18-35.05,22.49-53.31,23.11c-42.4,1.43-82.15-33.27-82.15-89.63V393.67L299.08,393.67z
		 M523.33,601.66L523.33,601.66h-30.95V393.75h30.95c0,24.93,0,49.87,0,74.8c17.33-14.99,37.59-21.49,57.01-20.83
		c49.94,1.72,76.43,37.98,76.87,75.34c0.48,40.41-29.04,82.17-79.58,83.83c-19.26,0.63-38.73-6.67-54.3-23.48
		C523.33,589.5,523.33,595.58,523.33,601.66L523.33,601.66z M575.01,475.4c-28.61,0-51.81,23.19-51.81,51.8
		c0,28.61,23.19,51.81,51.81,51.81c28.61,0,51.8-23.2,51.8-51.81C626.81,498.59,603.62,475.4,575.01,475.4L575.01,475.4z
		 M824.99,536.8c-40.85,0-81.71,0-122.56,0c8.52,28.38,29.22,43.02,51.01,42.69c15.31-0.24,31.17-7.88,43.71-23.35
		c6.96,5.41,13.92,10.82,20.88,16.24c-21.8,39.06-84.89,41.68-117.84,15.89c-23.76-18.6-30.1-41.7-29.74-64.07
		c0.8-49.64,42.57-78.23,82.51-77.78C791.65,446.86,828.62,474.56,824.99,536.8L824.99,536.8z M793.65,512.33
		c-3.71-45.37-79.2-55.28-90.86,0C733.08,512.33,763.36,512.33,793.65,512.33z"/>
	<path class="st2" d="M340.36,827.22v-51.27h103.91v-35.18H340.36v-51.27h107v-35.18h-147.3c0,69.37,0,138.73,0,208.1h147.3v-35.18
		H340.36L340.36,827.22z M918.72,757.59c-13.02,0-26.03,0-39.05,0c-1.08-5.31-3.9-9.67-8.22-13.23c-6.07-5.01-14.81-8.42-23.64-9.28
		c-13.77-1.34-29.51,5.69-29.96,14.05c-0.28,5.17,5.28,10.86,20.77,15.4c25.9,7.59,59.05,4.29,77.2,27.97
		c21.24,27.71-1.03,71.38-62.23,73.25c-36.57,1.12-74.95-14.88-80.03-53.84c12.89,0,25.77,0,38.66,0c3.07,6.34,7.2,12.1,14.09,16.36
		c13.41,8.28,53.13,9.96,55.64-9.2c0.36-2.78-0.84-5.62-4.46-8.17c-6.91-4.87-19.59-6.35-30.86-8.65
		c-48.72-6.72-66.56-22.56-69.94-42.66c-1.47-8.76-0.34-17.86,3.82-25.67c2.84-5.33,6.64-10.13,11.15-14.32
		c14-13.03,35.94-18.74,57.21-18.08C878.92,702.44,917.29,718.98,918.72,757.59L918.72,757.59z M763.08,826.63v35.23
		c-14.47,0-28.62,0-42.78,0c-26.39,0-41.22-17.41-41.22-42.5v-75.92H649.7v-34.75h29.38v-44.45h39.43v44.45h44.56v34.75h-44.56
		c0,22.15,0,44.3,0,66.44c0,14.58,5.06,16.74,18.99,16.74H763.08L763.08,826.63z M593.46,721.33v-12.95h40.21v153.39h-40.21v-14.3
		c-16.16,12.73-35.14,19.06-53.23,18.15c-40.75-2.04-79.74-36.08-78.8-82.7c0.95-47.17,43.43-79.19,84.9-78.66
		C562.77,704.47,579.3,709.8,593.46,721.33L593.46,721.33z M546.83,738.56c-25.52,0-46.2,20.68-46.2,46.2
		c0,25.52,20.68,46.2,46.2,46.2c25.52,0,46.2-20.68,46.2-46.2C593.03,759.24,572.34,738.56,546.83,738.56z"/>
</g>
</svg>
