<?xml version="1.0" encoding="utf-8"?>
<!-- Generator: Adobe Illustrator 24.1.3, SVG Export Plug-In . SVG Version: 6.00 Build 0)  -->
<svg version="1.1" id="Layer_1" xmlns="http://www.w3.org/2000/svg" xmlns:xlink="http://www.w3.org/1999/xlink" x="0px" y="0px"
	 viewBox="0 0 1224 792" style="enable-background:new 0 0 1224 792;" xml:space="preserve">
<style type="text/css">
	.st0{fill:#006937;}
</style>
<g>
	<path class="st0" d="M803.58,385.51c-2.86-19.31-8.48-37.72-16.45-54.82l33.92-0.01c6.81,17.35,11.57,35.72,14.01,54.83H803.58z
		 M836.07,394.99c0.57,6.59,0.85,13.26,0.85,19.99c0,11.84-0.89,23.47-2.61,34.83h-31.6c1.99-11.31,3.03-22.95,3.03-34.83
		c0-6.75-0.33-13.42-0.99-19.99 M377.02,385.17c2.46-19.11,7.26-37.48,14.1-54.83l33.95,0c-8.01,17.09-13.67,35.51-16.56,54.83
		H377.02z M377.67,449.47c-1.68-11.25-2.56-22.77-2.56-34.49c0-6.85,0.3-13.64,0.88-20.34h31.32c-0.68,6.69-1.02,13.47-1.02,20.34
		c0,11.76,1.02,23.28,2.97,34.49H377.67z M411.15,458.94c20.03,89.15,99.67,155.76,194.87,155.76
		c95.08,0,174.64-66.43,194.79-155.42l31.87,0c-20.66,106.33-114.29,186.6-226.66,186.6c-112.49,0-206.2-80.44-226.73-186.95H411.15
		z M395.1,320.87c36.03-80.62,116.91-136.79,210.92-136.79c94.14,0,175.12,56.34,211.07,137.14l-34.69,0
		c-33.58-63.04-99.97-105.95-176.39-105.95c-76.27,0-142.56,42.76-176.2,105.61H395.1z"/>
	<g>
		<path class="st0" d="M1187.83,330.69h-400.7h-24.31c12.06,11.32,21.72,25.13,28.08,40.68h281.65
			C1114.5,371.37,1155.18,357.01,1187.83,330.69z"/>
		<path class="st0" d="M762.82,499.96h150.22c41.94,0,82.62-14.36,115.27-40.68H790.91C784.54,474.84,774.88,488.64,762.82,499.96z"
			/>
		<path class="st0" d="M799.57,415.33c0,6.95-0.72,13.72-1.89,20.34H992.8c41.94,0,82.62-14.36,115.27-40.68H797.68
			C798.85,401.6,799.57,408.37,799.57,415.33z"/>
	</g>
	<g>
		<path class="st0" d="M24.14,330.34h425.01c-12.06,11.32-21.72,25.13-28.08,40.68H139.41C97.47,371.02,56.79,356.66,24.14,330.34z"
			/>
		<path class="st0" d="M449.15,499.62H298.92c-41.94,0-82.62-14.35-115.27-40.68h237.41C427.43,474.49,437.09,488.3,449.15,499.62z"
			/>
		<path class="st0" d="M412.4,414.98c0,6.95,0.72,13.72,1.89,20.34H219.17c-41.94,0-82.62-14.36-115.27-40.68h310.39
			C413.12,401.26,412.4,408.03,412.4,414.98z"/>
	</g>
	<g>
		<path class="st0" d="M511.15,361.7l9.26-63.53h12.99l9.26,63.53l8.7-60.29l0.56-3.23h17.9c-6.01,34.89-11.93,69.87-17.9,104.8
			l-0.56,3.23h-17.4c-2.66-18.62-4.67-37.89-7.09-56.75l-6.46,53.52l-0.56,3.23h-17.4c-5.9-34.46-11.77-68.96-17.65-103.43
			l-0.81-4.6h17.9l0.56,3.23L511.15,361.7z"/>
		<path class="st0" d="M590.58,298.18h3.85v3.92v100.2v3.92h-3.85h-10.07h-3.85v-3.92v-100.2v-3.92h3.85H590.58z"/>
		<path class="st0" d="M605,298.18h23.87c9.57,43.39,10.07,41.65,17.41,73.66c0-16.68-0.62-56.98-0.62-73.66h17.84v108.03H639
			c-10.13-42.52-10.94-44.88-16.22-71.17v71.17H605V298.18z"/>
		<path class="st0" d="M696.44,298.18c6.55,0,12.18,2.36,16.91,7.09c4.68,4.68,7.02,10.32,7.02,16.91v6.78h-17.22v-6.78
			c0-3.34-3.4-6.15-6.71-6.15c-3.37,0-6.15,2.78-6.15,6.15v60.11c0,3.37,2.83,6.15,6.15,6.15c3.23,0,7.33-2.82,7.33-6.15v-18.03
			h-8.89v-16.53h25.49v34.56c0,13.03-10.86,23.93-23.93,23.93c-6.67,0-12.31-2.34-16.91-7.02c-4.68-4.68-7.02-10.32-7.02-16.91
			v-60.11C672.51,309.06,683.36,298.18,696.44,298.18z"/>
	</g>
	<g>
		<g>
			<g>
				<path class="st0" d="M487.84,531.28c-13.04,0-23.06-10.72-23.06-23.93v-11.44h17.16v11.44c0,3.43,2.64,6.15,5.9,6.15
					c2.94,0,5.1-2.69,5.1-6.15v-5.66c0-5.91-4.94-9.87-7.4-12.93c-4.85-6.03-12.81-12.85-15.79-17.03
					c-3.54-4.97-5.43-12.54-5.59-16.35l-0.25-8.14c0-13.25,10.63-23.99,23.68-23.99c12.99,0,22.5,10.65,22.5,23.99v11.38h-17.16
					v-11.38c0-3.41-2.13-6.15-5.1-6.15c-3.34,0-5.91,2.78-5.91,6.15v4.54c0.04,1.86,1.31,6.34,2.98,8.76
					c2.85,4.11,7.08,7.19,9.08,9.26c7.02,7.27,9.89,9.67,12.12,13.67c2.74,4.91,4.54,11.25,4.54,15.6l0.06,8.27
					C510.71,520.78,500.8,531.28,487.84,531.28z"/>
				<path class="st0" d="M532.78,423.25h3.85v3.92v41.21h12.81v-41.21v-3.92h3.92h10.01h3.92v3.92v100.2v3.92h-3.92h-10.01h-3.92
					v-3.92v-41.21h-12.81v41.21v3.92h-3.85h-10.07h-3.85v-3.92v-100.2v-3.92h3.85H532.78z"/>
				<path class="st0" d="M595.06,514.56c-1.1,5.57-2.22,11.12-3.29,16.72h-18.28l18.59-108.03h23.31l18.59,108.16H615.7
					c-1.07-5.6-2.2-11.27-3.29-16.84H595.06z M603.7,446.06l-6.03,51.47h12.12L603.7,446.06z"/>
				<path class="st0" d="M680.09,430.34c4.68,4.64,7.02,10.28,7.02,16.91v2.49v3.92h-3.92h-10.01h-3.92v-3.92v-2.49
					c0-1.7-0.6-3.15-1.8-4.35c-1.16-1.2-2.59-1.8-4.29-1.8c-1.7,0-3.15,0.6-4.35,1.8c-1.2,1.2-1.8,2.65-1.8,4.35v60.11
					c0,1.7,0.6,3.15,1.8,4.35c1.24,1.2,2.69,1.8,4.35,1.8c1.66,0,3.09-0.6,4.29-1.8c1.2-1.2,1.8-2.65,1.8-4.35v-2.49v-3.92h3.92
					h10.01h3.92v3.92v2.49c0,6.59-2.34,12.23-7.02,16.91c-4.68,4.68-10.32,7.02-16.91,7.02c-6.67,0-12.31-2.34-16.91-7.02
					c-4.68-4.68-7.02-10.32-7.02-16.91v-60.11c0-6.63,2.34-12.27,7.02-16.91c4.64-4.72,10.28-7.09,16.91-7.09
					C669.73,423.25,675.37,425.61,680.09,430.34z"/>
				<path class="st0" d="M712.72,423.25v37.92l12.18-35.68l0.99-2.24h18.83c-8,17.28-11.31,29.59-19.21,49.79
					c7.65,23.06,12,37.98,19.58,58.24h-19.02c-2.61-8.33-7.23-24.98-13.11-44.75c0,10.36-0.25,34.4-0.25,44.75h-17.78V423.25H712.72
					z"/>
			</g>
		</g>
	</g>
</g>
</svg>
